<?xml version="1.0" encoding="utf-8" standalone="no"?>
<!DOCTYPE svg PUBLIC "-//W3C//DTD SVG 1.1//EN"
  "http://www.w3.org/Graphics/SVG/1.1/DTD/svg11.dtd">
<svg xmlns:xlink="http://www.w3.org/1999/xlink" width="302.4pt" height="317.518125pt" viewBox="0 0 302.4 317.518125" xmlns="http://www.w3.org/2000/svg" version="1.1">
 <metadata>
  <rdf:RDF xmlns:dc="http://purl.org/dc/elements/1.1/" xmlns:cc="http://creativecommons.org/ns#" xmlns:rdf="http://www.w3.org/1999/02/22-rdf-syntax-ns#">
   <cc:Work>
    <dc:type rdf:resource="http://purl.org/dc/dcmitype/StillImage"/>
    <dc:date>2024-06-20T17:30:02.594092</dc:date>
    <dc:format>image/svg+xml</dc:format>
    <dc:creator>
     <cc:Agent>
      <dc:title>Matplotlib v3.5.2, https://matplotlib.org/</dc:title>
     </cc:Agent>
    </dc:creator>
   </cc:Work>
  </rdf:RDF>
 </metadata>
 <defs>
  <style type="text/css">*{stroke-linejoin: round; stroke-linecap: butt}</style>
 </defs>
 <g id="figure_1">
  <g id="patch_1">
   <path d="M 0 317.518125 
L 302.4 317.518125 
L 302.4 0 
L 0 0 
z
" style="fill: #ffffff"/>
  </g>
  <g id="axes_1">
   <g id="LineCollection_1">
    <path d="M 270.208264 166.318125 
L 225.400439 70.880903 
" clip-path="url(#p78e8a0e146)" style="fill: none; stroke: #818181; stroke-width: 1.24"/>
    <path d="M 270.208264 166.318125 
L 177.681835 47.309861 
" clip-path="url(#p78e8a0e146)" style="fill: none; stroke: #878787; stroke-width: 1.18"/>
    <path d="M 270.208264 166.318125 
L 124.718168 47.309861 
" clip-path="url(#p78e8a0e146)" style="fill: none; stroke: #595959; stroke-width: 1.62"/>
    <path d="M 270.208264 166.318125 
L 76.999561 70.880903 
" clip-path="url(#p78e8a0e146)" style="fill: none; stroke: #b0b0b0; stroke-width: 0.78"/>
    <path d="M 270.208264 166.318125 
L 43.977261 113.354455 
" clip-path="url(#p78e8a0e146)" style="fill: none; stroke: #e0e0e0; stroke-width: 0.32"/>
    <path d="M 270.208264 166.318125 
L 32.191736 166.318136 
" clip-path="url(#p78e8a0e146)" style="fill: none; stroke: #f3f3f3; stroke-width: 0.14"/>
    <path d="M 270.208264 166.318125 
L 43.977261 219.281788 
" clip-path="url(#p78e8a0e146)" style="fill: none; stroke: #ffffff; stroke-width: 0.02"/>
    <path d="M 270.208264 166.318125 
L 76.999583 261.755361 
" clip-path="url(#p78e8a0e146)" style="fill: none; stroke: #fbfbfb; stroke-width: 0.06"/>
    <path d="M 270.208264 166.318125 
L 124.718161 285.326389 
" clip-path="url(#p78e8a0e146)" style="fill: none; stroke: #a6a6a6; stroke-width: 0.88"/>
    <path d="M 270.208264 166.318125 
L 177.681842 285.326389 
" clip-path="url(#p78e8a0e146)" style="fill: none; stroke: #cbcbcb; stroke-width: 0.52"/>
    <path d="M 270.208264 166.318125 
L 258.422739 219.281788 
" clip-path="url(#p78e8a0e146)" style="fill: none; stroke: #fdfdfd; stroke-width: 0.04"/>
    <path d="M 258.422739 113.354462 
L 225.400439 70.880903 
" clip-path="url(#p78e8a0e146)" style="fill: none; stroke: #ffffff; stroke-width: 0.02"/>
    <path d="M 258.422739 113.354462 
L 177.681835 47.309861 
" clip-path="url(#p78e8a0e146)" style="fill: none; stroke: #ffffff; stroke-width: 0.02"/>
    <path d="M 258.422739 113.354462 
L 124.718168 47.309861 
" clip-path="url(#p78e8a0e146)" style="fill: none; stroke: #fdfdfd; stroke-width: 0.04"/>
    <path d="M 258.422739 113.354462 
L 32.191736 166.318136 
" clip-path="url(#p78e8a0e146)" style="fill: none; stroke: #ffffff; stroke-width: 0.02"/>
    <path d="M 258.422739 113.354462 
L 43.977261 219.281788 
" clip-path="url(#p78e8a0e146)" style="fill: none; stroke: #fdfdfd; stroke-width: 0.04"/>
    <path d="M 258.422739 113.354462 
L 76.999583 261.755361 
" clip-path="url(#p78e8a0e146)" style="fill: none; stroke: #fbfbfb; stroke-width: 0.06"/>
    <path d="M 258.422739 113.354462 
L 124.718161 285.326389 
" clip-path="url(#p78e8a0e146)" style="fill: none; stroke: #f7f7f7; stroke-width: 0.1"/>
    <path d="M 258.422739 113.354462 
L 177.681842 285.326389 
" clip-path="url(#p78e8a0e146)" style="fill: none; stroke: #f7f7f7; stroke-width: 0.1"/>
    <path d="M 258.422739 113.354462 
L 225.400417 261.755361 
" clip-path="url(#p78e8a0e146)" style="fill: none; stroke: #fbfbfb; stroke-width: 0.06"/>
    <path d="M 225.400439 70.880903 
L 177.681835 47.309861 
" clip-path="url(#p78e8a0e146)" style="fill: none; stroke: #000000; stroke-width: 2.48"/>
    <path d="M 225.400439 70.880903 
L 124.718168 47.309861 
" clip-path="url(#p78e8a0e146)" style="fill: none; stroke: #0e0e0e; stroke-width: 2.34"/>
    <path d="M 225.400439 70.880903 
L 76.999561 70.880903 
" clip-path="url(#p78e8a0e146)" style="fill: none; stroke: #535353; stroke-width: 1.68"/>
    <path d="M 225.400439 70.880903 
L 43.977261 113.354455 
" clip-path="url(#p78e8a0e146)" style="fill: none; stroke: #313131; stroke-width: 2"/>
    <path d="M 225.400439 70.880903 
L 32.191736 166.318136 
" clip-path="url(#p78e8a0e146)" style="fill: none; stroke: #bbbbbb; stroke-width: 0.68"/>
    <path d="M 225.400439 70.880903 
L 43.977261 219.281788 
" clip-path="url(#p78e8a0e146)" style="fill: none; stroke: #f9f9f9; stroke-width: 0.08"/>
    <path d="M 225.400439 70.880903 
L 76.999583 261.755361 
" clip-path="url(#p78e8a0e146)" style="fill: none; stroke: #fbfbfb; stroke-width: 0.06"/>
    <path d="M 225.400439 70.880903 
L 124.718161 285.326389 
" clip-path="url(#p78e8a0e146)" style="fill: none; stroke: #bfbfbf; stroke-width: 0.64"/>
    <path d="M 225.400439 70.880903 
L 177.681842 285.326389 
" clip-path="url(#p78e8a0e146)" style="fill: none; stroke: #c1c1c1; stroke-width: 0.62"/>
    <path d="M 225.400439 70.880903 
L 225.400417 261.755361 
" clip-path="url(#p78e8a0e146)" style="fill: none; stroke: #fdfdfd; stroke-width: 0.04"/>
    <path d="M 225.400439 70.880903 
L 258.422739 219.281788 
" clip-path="url(#p78e8a0e146)" style="fill: none; stroke: #f7f7f7; stroke-width: 0.1"/>
    <path d="M 177.681835 47.309861 
L 124.718168 47.309861 
" clip-path="url(#p78e8a0e146)" style="fill: none; stroke: #686868; stroke-width: 1.48"/>
    <path d="M 177.681835 47.309861 
L 76.999561 70.880903 
" clip-path="url(#p78e8a0e146)" style="fill: none; stroke: #313131; stroke-width: 2"/>
    <path d="M 177.681835 47.309861 
L 43.977261 113.354455 
" clip-path="url(#p78e8a0e146)" style="fill: none; stroke: #404040; stroke-width: 1.86"/>
    <path d="M 177.681835 47.309861 
L 32.191736 166.318136 
" clip-path="url(#p78e8a0e146)" style="fill: none; stroke: #e9e9e9; stroke-width: 0.24"/>
    <path d="M 177.681835 47.309861 
L 43.977261 219.281788 
" clip-path="url(#p78e8a0e146)" style="fill: none; stroke: #f9f9f9; stroke-width: 0.08"/>
    <path d="M 177.681835 47.309861 
L 76.999583 261.755361 
" clip-path="url(#p78e8a0e146)" style="fill: none; stroke: #ededed; stroke-width: 0.2"/>
    <path d="M 177.681835 47.309861 
L 124.718161 285.326389 
" clip-path="url(#p78e8a0e146)" style="fill: none; stroke: #c7c7c7; stroke-width: 0.56"/>
    <path d="M 177.681835 47.309861 
L 177.681842 285.326389 
" clip-path="url(#p78e8a0e146)" style="fill: none; stroke: #c1c1c1; stroke-width: 0.62"/>
    <path d="M 177.681835 47.309861 
L 225.400417 261.755361 
" clip-path="url(#p78e8a0e146)" style="fill: none; stroke: #fdfdfd; stroke-width: 0.04"/>
    <path d="M 177.681835 47.309861 
L 258.422739 219.281788 
" clip-path="url(#p78e8a0e146)" style="fill: none; stroke: #fdfdfd; stroke-width: 0.04"/>
    <path d="M 124.718168 47.309861 
L 76.999561 70.880903 
" clip-path="url(#p78e8a0e146)" style="fill: none; stroke: #0e0e0e; stroke-width: 2.34"/>
    <path d="M 124.718168 47.309861 
L 43.977261 113.354455 
" clip-path="url(#p78e8a0e146)" style="fill: none; stroke: #343434; stroke-width: 1.98"/>
    <path d="M 124.718168 47.309861 
L 32.191736 166.318136 
" clip-path="url(#p78e8a0e146)" style="fill: none; stroke: #dedede; stroke-width: 0.34"/>
    <path d="M 124.718168 47.309861 
L 43.977261 219.281788 
" clip-path="url(#p78e8a0e146)" style="fill: none; stroke: #fbfbfb; stroke-width: 0.06"/>
    <path d="M 124.718168 47.309861 
L 76.999583 261.755361 
" clip-path="url(#p78e8a0e146)" style="fill: none; stroke: #f1f1f1; stroke-width: 0.16"/>
    <path d="M 124.718168 47.309861 
L 124.718161 285.326389 
" clip-path="url(#p78e8a0e146)" style="fill: none; stroke: #a2a2a2; stroke-width: 0.92"/>
    <path d="M 124.718168 47.309861 
L 177.681842 285.326389 
" clip-path="url(#p78e8a0e146)" style="fill: none; stroke: #a0a0a0; stroke-width: 0.94"/>
    <path d="M 124.718168 47.309861 
L 225.400417 261.755361 
" clip-path="url(#p78e8a0e146)" style="fill: none; stroke: #f5f5f5; stroke-width: 0.12"/>
    <path d="M 124.718168 47.309861 
L 258.422739 219.281788 
" clip-path="url(#p78e8a0e146)" style="fill: none; stroke: #fbfbfb; stroke-width: 0.06"/>
    <path d="M 76.999561 70.880903 
L 43.977261 113.354455 
" clip-path="url(#p78e8a0e146)" style="fill: none; stroke: #6e6e6e; stroke-width: 1.42"/>
    <path d="M 76.999561 70.880903 
L 32.191736 166.318136 
" clip-path="url(#p78e8a0e146)" style="fill: none; stroke: #d8d8d8; stroke-width: 0.4"/>
    <path d="M 76.999561 70.880903 
L 43.977261 219.281788 
" clip-path="url(#p78e8a0e146)" style="fill: none; stroke: #f7f7f7; stroke-width: 0.1"/>
    <path d="M 76.999561 70.880903 
L 76.999583 261.755361 
" clip-path="url(#p78e8a0e146)" style="fill: none; stroke: #f9f9f9; stroke-width: 0.08"/>
    <path d="M 76.999561 70.880903 
L 124.718161 285.326389 
" clip-path="url(#p78e8a0e146)" style="fill: none; stroke: #b5b5b5; stroke-width: 0.74"/>
    <path d="M 76.999561 70.880903 
L 177.681842 285.326389 
" clip-path="url(#p78e8a0e146)" style="fill: none; stroke: #bfbfbf; stroke-width: 0.64"/>
    <path d="M 76.999561 70.880903 
L 225.400417 261.755361 
" clip-path="url(#p78e8a0e146)" style="fill: none; stroke: #fdfdfd; stroke-width: 0.04"/>
    <path d="M 76.999561 70.880903 
L 258.422739 219.281788 
" clip-path="url(#p78e8a0e146)" style="fill: none; stroke: #f3f3f3; stroke-width: 0.14"/>
    <path d="M 43.977261 113.354455 
L 32.191736 166.318136 
" clip-path="url(#p78e8a0e146)" style="fill: none; stroke: #fdfdfd; stroke-width: 0.04"/>
    <path d="M 43.977261 113.354455 
L 76.999583 261.755361 
" clip-path="url(#p78e8a0e146)" style="fill: none; stroke: #ffffff; stroke-width: 0.02"/>
    <path d="M 43.977261 113.354455 
L 124.718161 285.326389 
" clip-path="url(#p78e8a0e146)" style="fill: none; stroke: #d2d2d2; stroke-width: 0.46"/>
    <path d="M 43.977261 113.354455 
L 177.681842 285.326389 
" clip-path="url(#p78e8a0e146)" style="fill: none; stroke: #e2e2e2; stroke-width: 0.3"/>
    <path d="M 43.977261 113.354455 
L 258.422739 219.281788 
" clip-path="url(#p78e8a0e146)" style="fill: none; stroke: #fdfdfd; stroke-width: 0.04"/>
    <path d="M 32.191736 166.318136 
L 43.977261 219.281788 
" clip-path="url(#p78e8a0e146)" style="fill: none; stroke: #fbfbfb; stroke-width: 0.06"/>
    <path d="M 32.191736 166.318136 
L 76.999583 261.755361 
" clip-path="url(#p78e8a0e146)" style="fill: none; stroke: #f1f1f1; stroke-width: 0.16"/>
    <path d="M 32.191736 166.318136 
L 124.718161 285.326389 
" clip-path="url(#p78e8a0e146)" style="fill: none; stroke: #aeaeae; stroke-width: 0.8"/>
    <path d="M 32.191736 166.318136 
L 177.681842 285.326389 
" clip-path="url(#p78e8a0e146)" style="fill: none; stroke: #ebebeb; stroke-width: 0.22"/>
    <path d="M 32.191736 166.318136 
L 225.400417 261.755361 
" clip-path="url(#p78e8a0e146)" style="fill: none; stroke: #efefef; stroke-width: 0.18"/>
    <path d="M 43.977261 219.281788 
L 76.999583 261.755361 
" clip-path="url(#p78e8a0e146)" style="fill: none; stroke: #fdfdfd; stroke-width: 0.04"/>
    <path d="M 43.977261 219.281788 
L 124.718161 285.326389 
" clip-path="url(#p78e8a0e146)" style="fill: none; stroke: #dadada; stroke-width: 0.38"/>
    <path d="M 43.977261 219.281788 
L 177.681842 285.326389 
" clip-path="url(#p78e8a0e146)" style="fill: none; stroke: #f9f9f9; stroke-width: 0.08"/>
    <path d="M 43.977261 219.281788 
L 225.400417 261.755361 
" clip-path="url(#p78e8a0e146)" style="fill: none; stroke: #f5f5f5; stroke-width: 0.12"/>
    <path d="M 76.999583 261.755361 
L 124.718161 285.326389 
" clip-path="url(#p78e8a0e146)" style="fill: none; stroke: #bdbdbd; stroke-width: 0.66"/>
    <path d="M 76.999583 261.755361 
L 177.681842 285.326389 
" clip-path="url(#p78e8a0e146)" style="fill: none; stroke: #efefef; stroke-width: 0.18"/>
    <path d="M 76.999583 261.755361 
L 225.400417 261.755361 
" clip-path="url(#p78e8a0e146)" style="fill: none; stroke: #f3f3f3; stroke-width: 0.14"/>
    <path d="M 76.999583 261.755361 
L 258.422739 219.281788 
" clip-path="url(#p78e8a0e146)" style="fill: none; stroke: #ffffff; stroke-width: 0.02"/>
    <path d="M 124.718161 285.326389 
L 177.681842 285.326389 
" clip-path="url(#p78e8a0e146)" style="fill: none; stroke: #5d5d5d; stroke-width: 1.58"/>
    <path d="M 124.718161 285.326389 
L 225.400417 261.755361 
" clip-path="url(#p78e8a0e146)" style="fill: none; stroke: #bdbdbd; stroke-width: 0.66"/>
    <path d="M 124.718161 285.326389 
L 258.422739 219.281788 
" clip-path="url(#p78e8a0e146)" style="fill: none; stroke: #e0e0e0; stroke-width: 0.32"/>
    <path d="M 177.681842 285.326389 
L 225.400417 261.755361 
" clip-path="url(#p78e8a0e146)" style="fill: none; stroke: #f5f5f5; stroke-width: 0.12"/>
    <path d="M 177.681842 285.326389 
L 258.422739 219.281788 
" clip-path="url(#p78e8a0e146)" style="fill: none; stroke: #f3f3f3; stroke-width: 0.14"/>
    <path d="M 225.400417 261.755361 
L 258.422739 219.281788 
" clip-path="url(#p78e8a0e146)" style="fill: none; stroke: #fdfdfd; stroke-width: 0.04"/>
   </g>
   <g id="PathCollection_1">
    <path d="M 270.208264 172.622885 
C 271.880306 172.622885 273.484091 171.958576 274.666403 170.776264 
C 275.848715 169.593951 276.513025 167.990167 276.513025 166.318125 
C 276.513025 164.646083 275.848715 163.042299 274.666403 161.859986 
C 273.484091 160.677674 271.880306 160.013365 270.208264 160.013365 
C 268.536223 160.013365 266.932438 160.677674 265.750126 161.859986 
C 264.567814 163.042299 263.903504 164.646083 263.903504 166.318125 
C 263.903504 167.990167 264.567814 169.593951 265.750126 170.776264 
C 266.932438 171.958576 268.536223 172.622885 270.208264 172.622885 
z
" clip-path="url(#p78e8a0e146)" style="fill: #ffffff; stroke: #000000; stroke-width: 2"/>
    <path d="M 258.422739 115.225291 
C 258.918889 115.225291 259.394784 115.028168 259.745615 114.677338 
C 260.096446 114.326507 260.293568 113.850612 260.293568 113.354462 
C 260.293568 112.858312 260.096446 112.382417 259.745615 112.031586 
C 259.394784 111.680756 258.918889 111.483633 258.422739 111.483633 
C 257.92659 111.483633 257.450694 111.680756 257.099863 112.031586 
C 256.749033 112.382417 256.55191 112.858312 256.55191 113.354462 
C 256.55191 113.850612 256.749033 114.326507 257.099863 114.677338 
C 257.450694 115.028168 257.92659 115.225291 258.422739 115.225291 
z
" clip-path="url(#p78e8a0e146)" style="fill: #ffffff; stroke: #000000; stroke-width: 2"/>
    <path d="M 225.400439 80.459525 
C 227.940719 80.459525 230.377298 79.450261 232.173547 77.654012 
C 233.969797 75.857763 234.979061 73.421184 234.979061 70.880903 
C 234.979061 68.340623 233.969797 65.904044 232.173547 64.107795 
C 230.377298 62.311545 227.940719 61.302281 225.400439 61.302281 
C 222.860158 61.302281 220.423579 62.311545 218.62733 64.107795 
C 216.831081 65.904044 215.821817 68.340623 215.821817 70.880903 
C 215.821817 73.421184 216.831081 75.857763 218.62733 77.654012 
C 220.423579 79.450261 222.860158 80.459525 225.400439 80.459525 
z
" clip-path="url(#p78e8a0e146)" style="fill: #ffffff; stroke: #000000; stroke-width: 2"/>
    <path d="M 177.681835 55.167977 
C 179.765832 55.167977 181.764755 54.339997 183.238363 52.866388 
C 184.711971 51.39278 185.539952 49.393857 185.539952 47.309861 
C 185.539952 45.225864 184.711971 43.226941 183.238363 41.753333 
C 181.764755 40.279724 179.765832 39.451744 177.681835 39.451744 
C 175.597838 39.451744 173.598916 40.279724 172.125308 41.753333 
C 170.651699 43.226941 169.823718 45.225864 169.823718 47.309861 
C 169.823718 49.393857 170.651699 51.39278 172.125308 52.866388 
C 173.598916 54.339997 175.597838 55.167977 177.681835 55.167977 
z
" clip-path="url(#p78e8a0e146)" style="fill: #ffffff; stroke: #000000; stroke-width: 2"/>
    <path d="M 124.718168 56.770305 
C 127.227107 56.770305 129.633624 55.773492 131.407712 53.999405 
C 133.1818 52.225317 134.178612 49.8188 134.178612 47.309861 
C 134.178612 44.800921 133.1818 42.394404 131.407712 40.620316 
C 129.633624 38.846229 127.227107 37.849417 124.718168 37.849417 
C 122.209229 37.849417 119.802712 38.846229 118.028624 40.620316 
C 116.254536 42.394404 115.257724 44.800921 115.257724 47.309861 
C 115.257724 49.8188 116.254536 52.225317 118.028624 53.999405 
C 119.802712 55.773492 122.209229 56.770305 124.718168 56.770305 
z
" clip-path="url(#p78e8a0e146)" style="fill: #ffffff; stroke: #000000; stroke-width: 2"/>
    <path d="M 76.999561 79.950082 
C 79.404736 79.950082 81.711724 78.994496 83.412439 77.293781 
C 85.113154 75.593066 86.06874 73.286078 86.06874 70.880903 
C 86.06874 68.475729 85.113154 66.168741 83.412439 64.468026 
C 81.711724 62.767311 79.404736 61.811725 76.999561 61.811725 
C 74.594387 61.811725 72.287399 62.767311 70.586684 64.468026 
C 68.885969 66.168741 67.930383 68.475729 67.930383 70.880903 
C 67.930383 73.286078 68.885969 75.593066 70.586684 77.293781 
C 72.287399 78.994496 74.594387 79.950082 76.999561 79.950082 
z
" clip-path="url(#p78e8a0e146)" style="fill: #ffffff; stroke: #000000; stroke-width: 2"/>
    <path d="M 43.977261 118.692994 
C 45.393058 118.692994 46.751058 118.130492 47.752178 117.129372 
C 48.753298 116.128252 49.3158 114.770252 49.3158 113.354455 
C 49.3158 111.938658 48.753298 110.580657 47.752178 109.579538 
C 46.751058 108.578418 45.393058 108.015916 43.977261 108.015916 
C 42.561464 108.015916 41.203463 108.578418 40.202344 109.579538 
C 39.201224 110.580657 38.638722 111.938658 38.638722 113.354455 
C 38.638722 114.770252 39.201224 116.128252 40.202344 117.129372 
C 41.203463 118.130492 42.561464 118.692994 43.977261 118.692994 
z
" clip-path="url(#p78e8a0e146)" style="fill: #ffffff; stroke: #000000; stroke-width: 2"/>
    <path d="M 32.191736 170.441241 
C 33.285196 170.441241 34.334018 170.006805 35.107211 169.233612 
C 35.880405 168.460418 36.314841 167.411596 36.314841 166.318136 
C 36.314841 165.224675 35.880405 164.175853 35.107211 163.40266 
C 34.334018 162.629466 33.285196 162.19503 32.191736 162.19503 
C 31.098275 162.19503 30.049453 162.629466 29.27626 163.40266 
C 28.503066 164.175853 28.06863 165.224675 28.06863 166.318136 
C 28.06863 167.411596 28.503066 168.460418 29.27626 169.233612 
C 30.049453 170.006805 31.098275 170.441241 32.191736 170.441241 
z
" clip-path="url(#p78e8a0e146)" style="fill: #ffffff; stroke: #000000; stroke-width: 2"/>
    <path d="M 43.977261 221.152617 
C 44.47341 221.152617 44.949306 220.955494 45.300137 220.604664 
C 45.650967 220.253833 45.84809 219.777938 45.84809 219.281788 
C 45.84809 218.785638 45.650967 218.309743 45.300137 217.958912 
C 44.949306 217.608082 44.47341 217.410959 43.977261 217.410959 
C 43.481111 217.410959 43.005216 217.608082 42.654385 217.958912 
C 42.303554 218.309743 42.106432 218.785638 42.106432 219.281788 
C 42.106432 219.777938 42.303554 220.253833 42.654385 220.604664 
C 43.005216 220.955494 43.481111 221.152617 43.977261 221.152617 
z
" clip-path="url(#p78e8a0e146)" style="fill: #ffffff; stroke: #000000; stroke-width: 2"/>
    <path d="M 76.999583 265.03408 
C 77.869109 265.03408 78.703139 264.688614 79.317987 264.073766 
C 79.932835 263.458918 80.278302 262.624888 80.278302 261.755361 
C 80.278302 260.885835 79.932835 260.051805 79.317987 259.436957 
C 78.703139 258.822108 77.869109 258.476642 76.999583 258.476642 
C 76.130056 258.476642 75.296026 258.822108 74.681178 259.436957 
C 74.06633 260.051805 73.720863 260.885835 73.720863 261.755361 
C 73.720863 262.624888 74.06633 263.458918 74.681178 264.073766 
C 75.296026 264.688614 76.130056 265.03408 76.999583 265.03408 
z
" clip-path="url(#p78e8a0e146)" style="fill: #ffffff; stroke: #000000; stroke-width: 2"/>
    <path d="M 124.718161 293.633013 
C 126.921104 293.633013 129.034116 292.757775 130.591831 291.20006 
C 132.149547 289.642344 133.024785 287.529332 133.024785 285.326389 
C 133.024785 283.123447 132.149547 281.010435 130.591831 279.452719 
C 129.034116 277.895004 126.921104 277.019766 124.718161 277.019766 
C 122.515219 277.019766 120.402207 277.895004 118.844491 279.452719 
C 117.286776 281.010435 116.411537 283.123447 116.411537 285.326389 
C 116.411537 287.529332 117.286776 289.642344 118.844491 291.20006 
C 120.402207 292.757775 122.515219 293.633013 124.718161 293.633013 
z
" clip-path="url(#p78e8a0e146)" style="fill: #ffffff; stroke: #000000; stroke-width: 2"/>
    <path d="M 177.681842 289.685288 
C 178.837836 289.685288 179.946639 289.226007 180.764049 288.408596 
C 181.58146 287.591186 182.040741 286.482383 182.040741 285.326389 
C 182.040741 284.170396 181.58146 283.061593 180.764049 282.244182 
C 179.946639 281.426772 178.837836 280.967491 177.681842 280.967491 
C 176.525849 280.967491 175.417046 281.426772 174.599635 282.244182 
C 173.782225 283.061593 173.322943 284.170396 173.322943 285.326389 
C 173.322943 286.482383 173.782225 287.591186 174.599635 288.408596 
C 175.417046 289.226007 176.525849 289.685288 177.681842 289.685288 
z
" clip-path="url(#p78e8a0e146)" style="fill: #ffffff; stroke: #000000; stroke-width: 2"/>
    <path d="M 225.400417 264.627642 
C 226.162155 264.627642 226.892797 264.325001 227.431427 263.786371 
C 227.970057 263.247741 228.272699 262.517099 228.272699 261.755361 
C 228.272699 260.993623 227.970057 260.262982 227.431427 259.724352 
C 226.892797 259.185722 226.162155 258.88308 225.400417 258.88308 
C 224.638679 258.88308 223.908038 259.185722 223.369408 259.724352 
C 222.830778 260.262982 222.528136 260.993623 222.528136 261.755361 
C 222.528136 262.517099 222.830778 263.247741 223.369408 263.786371 
C 223.908038 264.325001 224.638679 264.627642 225.400417 264.627642 
z
" clip-path="url(#p78e8a0e146)" style="fill: #ffffff; stroke: #000000; stroke-width: 2"/>
    <path d="M 258.422739 221.461237 
C 259.000736 221.461237 259.555137 221.231597 259.963843 220.822891 
C 260.372548 220.414186 260.602189 219.859785 260.602189 219.281788 
C 260.602189 218.703791 260.372548 218.14939 259.963843 217.740684 
C 259.555137 217.331979 259.000736 217.102338 258.422739 217.102338 
C 257.844742 217.102338 257.290341 217.331979 256.881636 217.740684 
C 256.47293 218.14939 256.24329 218.703791 256.24329 219.281788 
C 256.24329 219.859785 256.47293 220.414186 256.881636 220.822891 
C 257.290341 221.231597 257.844742 221.461237 258.422739 221.461237 
z
" clip-path="url(#p78e8a0e146)" style="fill: #ffffff; stroke: #000000; stroke-width: 2"/>
   </g>
   <g id="text_1">
    <g clip-path="url(#p78e8a0e146)">
     <!-- A.Horford -->
     <g transform="translate(255.978944 169.629375)scale(0.12 -0.12)">
      <defs>
       <path id="DejaVuSans-41" d="M 2188 4044 
L 1331 1722 
L 3047 1722 
L 2188 4044 
z
M 1831 4666 
L 2547 4666 
L 4325 0 
L 3669 0 
L 3244 1197 
L 1141 1197 
L 716 0 
L 50 0 
L 1831 4666 
z
" transform="scale(0.015625)"/>
       <path id="DejaVuSans-2e" d="M 684 794 
L 1344 794 
L 1344 0 
L 684 0 
L 684 794 
z
" transform="scale(0.015625)"/>
       <path id="DejaVuSans-48" d="M 628 4666 
L 1259 4666 
L 1259 2753 
L 3553 2753 
L 3553 4666 
L 4184 4666 
L 4184 0 
L 3553 0 
L 3553 2222 
L 1259 2222 
L 1259 0 
L 628 0 
L 628 4666 
z
" transform="scale(0.015625)"/>
       <path id="DejaVuSans-6f" d="M 1959 3097 
Q 1497 3097 1228 2736 
Q 959 2375 959 1747 
Q 959 1119 1226 758 
Q 1494 397 1959 397 
Q 2419 397 2687 759 
Q 2956 1122 2956 1747 
Q 2956 2369 2687 2733 
Q 2419 3097 1959 3097 
z
M 1959 3584 
Q 2709 3584 3137 3096 
Q 3566 2609 3566 1747 
Q 3566 888 3137 398 
Q 2709 -91 1959 -91 
Q 1206 -91 779 398 
Q 353 888 353 1747 
Q 353 2609 779 3096 
Q 1206 3584 1959 3584 
z
" transform="scale(0.015625)"/>
       <path id="DejaVuSans-72" d="M 2631 2963 
Q 2534 3019 2420 3045 
Q 2306 3072 2169 3072 
Q 1681 3072 1420 2755 
Q 1159 2438 1159 1844 
L 1159 0 
L 581 0 
L 581 3500 
L 1159 3500 
L 1159 2956 
Q 1341 3275 1631 3429 
Q 1922 3584 2338 3584 
Q 2397 3584 2469 3576 
Q 2541 3569 2628 3553 
L 2631 2963 
z
" transform="scale(0.015625)"/>
       <path id="DejaVuSans-66" d="M 2375 4863 
L 2375 4384 
L 1825 4384 
Q 1516 4384 1395 4259 
Q 1275 4134 1275 3809 
L 1275 3500 
L 2222 3500 
L 2222 3053 
L 1275 3053 
L 1275 0 
L 697 0 
L 697 3053 
L 147 3053 
L 147 3500 
L 697 3500 
L 697 3744 
Q 697 4328 969 4595 
Q 1241 4863 1831 4863 
L 2375 4863 
z
" transform="scale(0.015625)"/>
       <path id="DejaVuSans-64" d="M 2906 2969 
L 2906 4863 
L 3481 4863 
L 3481 0 
L 2906 0 
L 2906 525 
Q 2725 213 2448 61 
Q 2172 -91 1784 -91 
Q 1150 -91 751 415 
Q 353 922 353 1747 
Q 353 2572 751 3078 
Q 1150 3584 1784 3584 
Q 2172 3584 2448 3432 
Q 2725 3281 2906 2969 
z
M 947 1747 
Q 947 1113 1208 752 
Q 1469 391 1925 391 
Q 2381 391 2643 752 
Q 2906 1113 2906 1747 
Q 2906 2381 2643 2742 
Q 2381 3103 1925 3103 
Q 1469 3103 1208 2742 
Q 947 2381 947 1747 
z
" transform="scale(0.015625)"/>
      </defs>
      <use xlink:href="#DejaVuSans-41"/>
      <use xlink:href="#DejaVuSans-2e" x="66.658203"/>
      <use xlink:href="#DejaVuSans-48" x="98.445312"/>
      <use xlink:href="#DejaVuSans-6f" x="173.640625"/>
      <use xlink:href="#DejaVuSans-72" x="234.822266"/>
      <use xlink:href="#DejaVuSans-66" x="275.935547"/>
      <use xlink:href="#DejaVuSans-6f" x="311.140625"/>
      <use xlink:href="#DejaVuSans-72" x="372.322266"/>
      <use xlink:href="#DejaVuSans-64" x="411.685547"/>
     </g>
    </g>
   </g>
   <g id="text_2">
    <g clip-path="url(#p78e8a0e146)">
     <!-- D.Banton -->
     <g transform="translate(243.340718 110.310072)scale(0.12 -0.12)">
      <defs>
       <path id="DejaVuSans-44" d="M 1259 4147 
L 1259 519 
L 2022 519 
Q 2988 519 3436 956 
Q 3884 1394 3884 2338 
Q 3884 3275 3436 3711 
Q 2988 4147 2022 4147 
L 1259 4147 
z
M 628 4666 
L 1925 4666 
Q 3281 4666 3915 4102 
Q 4550 3538 4550 2338 
Q 4550 1131 3912 565 
Q 3275 0 1925 0 
L 628 0 
L 628 4666 
z
" transform="scale(0.015625)"/>
       <path id="DejaVuSans-42" d="M 1259 2228 
L 1259 519 
L 2272 519 
Q 2781 519 3026 730 
Q 3272 941 3272 1375 
Q 3272 1813 3026 2020 
Q 2781 2228 2272 2228 
L 1259 2228 
z
M 1259 4147 
L 1259 2741 
L 2194 2741 
Q 2656 2741 2882 2914 
Q 3109 3088 3109 3444 
Q 3109 3797 2882 3972 
Q 2656 4147 2194 4147 
L 1259 4147 
z
M 628 4666 
L 2241 4666 
Q 2963 4666 3353 4366 
Q 3744 4066 3744 3513 
Q 3744 3084 3544 2831 
Q 3344 2578 2956 2516 
Q 3422 2416 3680 2098 
Q 3938 1781 3938 1306 
Q 3938 681 3513 340 
Q 3088 0 2303 0 
L 628 0 
L 628 4666 
z
" transform="scale(0.015625)"/>
       <path id="DejaVuSans-61" d="M 2194 1759 
Q 1497 1759 1228 1600 
Q 959 1441 959 1056 
Q 959 750 1161 570 
Q 1363 391 1709 391 
Q 2188 391 2477 730 
Q 2766 1069 2766 1631 
L 2766 1759 
L 2194 1759 
z
M 3341 1997 
L 3341 0 
L 2766 0 
L 2766 531 
Q 2569 213 2275 61 
Q 1981 -91 1556 -91 
Q 1019 -91 701 211 
Q 384 513 384 1019 
Q 384 1609 779 1909 
Q 1175 2209 1959 2209 
L 2766 2209 
L 2766 2266 
Q 2766 2663 2505 2880 
Q 2244 3097 1772 3097 
Q 1472 3097 1187 3025 
Q 903 2953 641 2809 
L 641 3341 
Q 956 3463 1253 3523 
Q 1550 3584 1831 3584 
Q 2591 3584 2966 3190 
Q 3341 2797 3341 1997 
z
" transform="scale(0.015625)"/>
       <path id="DejaVuSans-6e" d="M 3513 2113 
L 3513 0 
L 2938 0 
L 2938 2094 
Q 2938 2591 2744 2837 
Q 2550 3084 2163 3084 
Q 1697 3084 1428 2787 
Q 1159 2491 1159 1978 
L 1159 0 
L 581 0 
L 581 3500 
L 1159 3500 
L 1159 2956 
Q 1366 3272 1645 3428 
Q 1925 3584 2291 3584 
Q 2894 3584 3203 3211 
Q 3513 2838 3513 2113 
z
" transform="scale(0.015625)"/>
       <path id="DejaVuSans-74" d="M 1172 4494 
L 1172 3500 
L 2356 3500 
L 2356 3053 
L 1172 3053 
L 1172 1153 
Q 1172 725 1289 603 
Q 1406 481 1766 481 
L 2356 481 
L 2356 0 
L 1766 0 
Q 1100 0 847 248 
Q 594 497 594 1153 
L 594 3053 
L 172 3053 
L 172 3500 
L 594 3500 
L 594 4494 
L 1172 4494 
z
" transform="scale(0.015625)"/>
      </defs>
      <use xlink:href="#DejaVuSans-44"/>
      <use xlink:href="#DejaVuSans-2e" x="77.001953"/>
      <use xlink:href="#DejaVuSans-42" x="108.789062"/>
      <use xlink:href="#DejaVuSans-61" x="177.392578"/>
      <use xlink:href="#DejaVuSans-6e" x="238.671875"/>
      <use xlink:href="#DejaVuSans-74" x="302.050781"/>
      <use xlink:href="#DejaVuSans-6f" x="341.259766"/>
      <use xlink:href="#DejaVuSans-6e" x="402.441406"/>
     </g>
    </g>
   </g>
   <g id="text_3">
    <g clip-path="url(#p78e8a0e146)">
     <!-- D.White -->
     <g transform="translate(210.331679 62.739687)scale(0.12 -0.12)">
      <defs>
       <path id="DejaVuSans-57" d="M 213 4666 
L 850 4666 
L 1831 722 
L 2809 4666 
L 3519 4666 
L 4500 722 
L 5478 4666 
L 6119 4666 
L 4947 0 
L 4153 0 
L 3169 4050 
L 2175 0 
L 1381 0 
L 213 4666 
z
" transform="scale(0.015625)"/>
       <path id="DejaVuSans-68" d="M 3513 2113 
L 3513 0 
L 2938 0 
L 2938 2094 
Q 2938 2591 2744 2837 
Q 2550 3084 2163 3084 
Q 1697 3084 1428 2787 
Q 1159 2491 1159 1978 
L 1159 0 
L 581 0 
L 581 4863 
L 1159 4863 
L 1159 2956 
Q 1366 3272 1645 3428 
Q 1925 3584 2291 3584 
Q 2894 3584 3203 3211 
Q 3513 2838 3513 2113 
z
" transform="scale(0.015625)"/>
       <path id="DejaVuSans-69" d="M 603 3500 
L 1178 3500 
L 1178 0 
L 603 0 
L 603 3500 
z
M 603 4863 
L 1178 4863 
L 1178 4134 
L 603 4134 
L 603 4863 
z
" transform="scale(0.015625)"/>
       <path id="DejaVuSans-65" d="M 3597 1894 
L 3597 1613 
L 953 1613 
Q 991 1019 1311 708 
Q 1631 397 2203 397 
Q 2534 397 2845 478 
Q 3156 559 3463 722 
L 3463 178 
Q 3153 47 2828 -22 
Q 2503 -91 2169 -91 
Q 1331 -91 842 396 
Q 353 884 353 1716 
Q 353 2575 817 3079 
Q 1281 3584 2069 3584 
Q 2775 3584 3186 3129 
Q 3597 2675 3597 1894 
z
M 3022 2063 
Q 3016 2534 2758 2815 
Q 2500 3097 2075 3097 
Q 1594 3097 1305 2825 
Q 1016 2553 972 2059 
L 3022 2063 
z
" transform="scale(0.015625)"/>
      </defs>
      <use xlink:href="#DejaVuSans-44"/>
      <use xlink:href="#DejaVuSans-2e" x="77.001953"/>
      <use xlink:href="#DejaVuSans-57" x="108.789062"/>
      <use xlink:href="#DejaVuSans-68" x="207.666016"/>
      <use xlink:href="#DejaVuSans-69" x="271.044922"/>
      <use xlink:href="#DejaVuSans-74" x="298.828125"/>
      <use xlink:href="#DejaVuSans-65" x="338.037109"/>
     </g>
    </g>
   </g>
   <g id="text_4">
    <g clip-path="url(#p78e8a0e146)">
     <!-- J.Brown -->
     <g transform="translate(158.35403 36.340119)scale(0.12 -0.12)">
      <defs>
       <path id="DejaVuSans-4a" d="M 628 4666 
L 1259 4666 
L 1259 325 
Q 1259 -519 939 -900 
Q 619 -1281 -91 -1281 
L -331 -1281 
L -331 -750 
L -134 -750 
Q 284 -750 456 -515 
Q 628 -281 628 325 
L 628 4666 
z
" transform="scale(0.015625)"/>
       <path id="DejaVuSans-77" d="M 269 3500 
L 844 3500 
L 1563 769 
L 2278 3500 
L 2956 3500 
L 3675 769 
L 4391 3500 
L 4966 3500 
L 4050 0 
L 3372 0 
L 2619 2869 
L 1863 0 
L 1184 0 
L 269 3500 
z
" transform="scale(0.015625)"/>
      </defs>
      <use xlink:href="#DejaVuSans-4a"/>
      <use xlink:href="#DejaVuSans-2e" x="29.492188"/>
      <use xlink:href="#DejaVuSans-42" x="61.279297"/>
      <use xlink:href="#DejaVuSans-72" x="129.882812"/>
      <use xlink:href="#DejaVuSans-6f" x="168.746094"/>
      <use xlink:href="#DejaVuSans-77" x="229.927734"/>
      <use xlink:href="#DejaVuSans-6e" x="311.714844"/>
     </g>
    </g>
   </g>
   <g id="text_5">
    <g clip-path="url(#p78e8a0e146)">
     <!-- J.Tatum -->
     <g transform="translate(99.512848 36.340119)scale(0.12 -0.12)">
      <defs>
       <path id="DejaVuSans-54" d="M -19 4666 
L 3928 4666 
L 3928 4134 
L 2272 4134 
L 2272 0 
L 1638 0 
L 1638 4134 
L -19 4134 
L -19 4666 
z
" transform="scale(0.015625)"/>
       <path id="DejaVuSans-75" d="M 544 1381 
L 544 3500 
L 1119 3500 
L 1119 1403 
Q 1119 906 1312 657 
Q 1506 409 1894 409 
Q 2359 409 2629 706 
Q 2900 1003 2900 1516 
L 2900 3500 
L 3475 3500 
L 3475 0 
L 2900 0 
L 2900 538 
Q 2691 219 2414 64 
Q 2138 -91 1772 -91 
Q 1169 -91 856 284 
Q 544 659 544 1381 
z
M 1991 3584 
L 1991 3584 
z
" transform="scale(0.015625)"/>
       <path id="DejaVuSans-6d" d="M 3328 2828 
Q 3544 3216 3844 3400 
Q 4144 3584 4550 3584 
Q 5097 3584 5394 3201 
Q 5691 2819 5691 2113 
L 5691 0 
L 5113 0 
L 5113 2094 
Q 5113 2597 4934 2840 
Q 4756 3084 4391 3084 
Q 3944 3084 3684 2787 
Q 3425 2491 3425 1978 
L 3425 0 
L 2847 0 
L 2847 2094 
Q 2847 2600 2669 2842 
Q 2491 3084 2119 3084 
Q 1678 3084 1418 2786 
Q 1159 2488 1159 1978 
L 1159 0 
L 581 0 
L 581 3500 
L 1159 3500 
L 1159 2956 
Q 1356 3278 1631 3431 
Q 1906 3584 2284 3584 
Q 2666 3584 2933 3390 
Q 3200 3197 3328 2828 
z
" transform="scale(0.015625)"/>
      </defs>
      <use xlink:href="#DejaVuSans-4a"/>
      <use xlink:href="#DejaVuSans-2e" x="29.492188"/>
      <use xlink:href="#DejaVuSans-54" x="61.279297"/>
      <use xlink:href="#DejaVuSans-61" x="105.863281"/>
      <use xlink:href="#DejaVuSans-74" x="167.142578"/>
      <use xlink:href="#DejaVuSans-75" x="206.351562"/>
      <use xlink:href="#DejaVuSans-6d" x="269.730469"/>
     </g>
    </g>
   </g>
   <g id="text_6">
    <g clip-path="url(#p78e8a0e146)">
     <!-- J.Holiday -->
     <g transform="translate(41.864259 62.739687)scale(0.12 -0.12)">
      <defs>
       <path id="DejaVuSans-6c" d="M 603 4863 
L 1178 4863 
L 1178 0 
L 603 0 
L 603 4863 
z
" transform="scale(0.015625)"/>
       <path id="DejaVuSans-79" d="M 2059 -325 
Q 1816 -950 1584 -1140 
Q 1353 -1331 966 -1331 
L 506 -1331 
L 506 -850 
L 844 -850 
Q 1081 -850 1212 -737 
Q 1344 -625 1503 -206 
L 1606 56 
L 191 3500 
L 800 3500 
L 1894 763 
L 2988 3500 
L 3597 3500 
L 2059 -325 
z
" transform="scale(0.015625)"/>
      </defs>
      <use xlink:href="#DejaVuSans-4a"/>
      <use xlink:href="#DejaVuSans-2e" x="29.492188"/>
      <use xlink:href="#DejaVuSans-48" x="61.279297"/>
      <use xlink:href="#DejaVuSans-6f" x="136.474609"/>
      <use xlink:href="#DejaVuSans-6c" x="197.65625"/>
      <use xlink:href="#DejaVuSans-69" x="225.439453"/>
      <use xlink:href="#DejaVuSans-64" x="253.222656"/>
      <use xlink:href="#DejaVuSans-61" x="316.699219"/>
      <use xlink:href="#DejaVuSans-79" x="377.978516"/>
     </g>
    </g>
   </g>
   <g id="text_7">
    <g clip-path="url(#p78e8a0e146)">
     <!-- K.Porzingis -->
     <g transform="translate(-1.489155 110.310064)scale(0.12 -0.12)">
      <defs>
       <path id="DejaVuSans-4b" d="M 628 4666 
L 1259 4666 
L 1259 2694 
L 3353 4666 
L 4166 4666 
L 1850 2491 
L 4331 0 
L 3500 0 
L 1259 2247 
L 1259 0 
L 628 0 
L 628 4666 
z
" transform="scale(0.015625)"/>
       <path id="DejaVuSans-50" d="M 1259 4147 
L 1259 2394 
L 2053 2394 
Q 2494 2394 2734 2622 
Q 2975 2850 2975 3272 
Q 2975 3691 2734 3919 
Q 2494 4147 2053 4147 
L 1259 4147 
z
M 628 4666 
L 2053 4666 
Q 2838 4666 3239 4311 
Q 3641 3956 3641 3272 
Q 3641 2581 3239 2228 
Q 2838 1875 2053 1875 
L 1259 1875 
L 1259 0 
L 628 0 
L 628 4666 
z
" transform="scale(0.015625)"/>
       <path id="DejaVuSans-7a" d="M 353 3500 
L 3084 3500 
L 3084 2975 
L 922 459 
L 3084 459 
L 3084 0 
L 275 0 
L 275 525 
L 2438 3041 
L 353 3041 
L 353 3500 
z
" transform="scale(0.015625)"/>
       <path id="DejaVuSans-67" d="M 2906 1791 
Q 2906 2416 2648 2759 
Q 2391 3103 1925 3103 
Q 1463 3103 1205 2759 
Q 947 2416 947 1791 
Q 947 1169 1205 825 
Q 1463 481 1925 481 
Q 2391 481 2648 825 
Q 2906 1169 2906 1791 
z
M 3481 434 
Q 3481 -459 3084 -895 
Q 2688 -1331 1869 -1331 
Q 1566 -1331 1297 -1286 
Q 1028 -1241 775 -1147 
L 775 -588 
Q 1028 -725 1275 -790 
Q 1522 -856 1778 -856 
Q 2344 -856 2625 -561 
Q 2906 -266 2906 331 
L 2906 616 
Q 2728 306 2450 153 
Q 2172 0 1784 0 
Q 1141 0 747 490 
Q 353 981 353 1791 
Q 353 2603 747 3093 
Q 1141 3584 1784 3584 
Q 2172 3584 2450 3431 
Q 2728 3278 2906 2969 
L 2906 3500 
L 3481 3500 
L 3481 434 
z
" transform="scale(0.015625)"/>
       <path id="DejaVuSans-73" d="M 2834 3397 
L 2834 2853 
Q 2591 2978 2328 3040 
Q 2066 3103 1784 3103 
Q 1356 3103 1142 2972 
Q 928 2841 928 2578 
Q 928 2378 1081 2264 
Q 1234 2150 1697 2047 
L 1894 2003 
Q 2506 1872 2764 1633 
Q 3022 1394 3022 966 
Q 3022 478 2636 193 
Q 2250 -91 1575 -91 
Q 1294 -91 989 -36 
Q 684 19 347 128 
L 347 722 
Q 666 556 975 473 
Q 1284 391 1588 391 
Q 1994 391 2212 530 
Q 2431 669 2431 922 
Q 2431 1156 2273 1281 
Q 2116 1406 1581 1522 
L 1381 1569 
Q 847 1681 609 1914 
Q 372 2147 372 2553 
Q 372 3047 722 3315 
Q 1072 3584 1716 3584 
Q 2034 3584 2315 3537 
Q 2597 3491 2834 3397 
z
" transform="scale(0.015625)"/>
      </defs>
      <use xlink:href="#DejaVuSans-4b"/>
      <use xlink:href="#DejaVuSans-2e" x="65.576172"/>
      <use xlink:href="#DejaVuSans-50" x="97.363281"/>
      <use xlink:href="#DejaVuSans-6f" x="154.041016"/>
      <use xlink:href="#DejaVuSans-72" x="215.222656"/>
      <use xlink:href="#DejaVuSans-7a" x="256.335938"/>
      <use xlink:href="#DejaVuSans-69" x="308.826172"/>
      <use xlink:href="#DejaVuSans-6e" x="336.609375"/>
      <use xlink:href="#DejaVuSans-67" x="399.988281"/>
      <use xlink:href="#DejaVuSans-69" x="463.464844"/>
      <use xlink:href="#DejaVuSans-73" x="491.248047"/>
     </g>
    </g>
   </g>
   <g id="text_8">
    <g clip-path="url(#p78e8a0e146)">
     <!-- L.Kornet -->
     <g transform="translate(-6.853319 169.629387)scale(0.12 -0.12)">
      <defs>
       <path id="DejaVuSans-4c" d="M 628 4666 
L 1259 4666 
L 1259 531 
L 3531 531 
L 3531 0 
L 628 0 
L 628 4666 
z
" transform="scale(0.015625)"/>
      </defs>
      <use xlink:href="#DejaVuSans-4c"/>
      <use xlink:href="#DejaVuSans-2e" x="55.712891"/>
      <use xlink:href="#DejaVuSans-4b" x="87.5"/>
      <use xlink:href="#DejaVuSans-6f" x="148.076172"/>
      <use xlink:href="#DejaVuSans-72" x="209.257812"/>
      <use xlink:href="#DejaVuSans-6e" x="248.621094"/>
      <use xlink:href="#DejaVuSans-65" x="312"/>
      <use xlink:href="#DejaVuSans-74" x="373.523438"/>
     </g>
    </g>
   </g>
   <g id="text_9">
    <g clip-path="url(#p78e8a0e146)">
     <!-- N.Queta -->
     <g transform="translate(6.468345 228.948677)scale(0.12 -0.12)">
      <defs>
       <path id="DejaVuSans-4e" d="M 628 4666 
L 1478 4666 
L 3547 763 
L 3547 4666 
L 4159 4666 
L 4159 0 
L 3309 0 
L 1241 3903 
L 1241 0 
L 628 0 
L 628 4666 
z
" transform="scale(0.015625)"/>
       <path id="DejaVuSans-51" d="M 2522 4238 
Q 1834 4238 1429 3725 
Q 1025 3213 1025 2328 
Q 1025 1447 1429 934 
Q 1834 422 2522 422 
Q 3209 422 3611 934 
Q 4013 1447 4013 2328 
Q 4013 3213 3611 3725 
Q 3209 4238 2522 4238 
z
M 3406 84 
L 4238 -825 
L 3475 -825 
L 2784 -78 
Q 2681 -84 2626 -87 
Q 2572 -91 2522 -91 
Q 1538 -91 948 567 
Q 359 1225 359 2328 
Q 359 3434 948 4092 
Q 1538 4750 2522 4750 
Q 3503 4750 4090 4092 
Q 4678 3434 4678 2328 
Q 4678 1516 4351 937 
Q 4025 359 3406 84 
z
" transform="scale(0.015625)"/>
      </defs>
      <use xlink:href="#DejaVuSans-4e"/>
      <use xlink:href="#DejaVuSans-2e" x="74.804688"/>
      <use xlink:href="#DejaVuSans-51" x="106.591797"/>
      <use xlink:href="#DejaVuSans-75" x="185.302734"/>
      <use xlink:href="#DejaVuSans-65" x="248.681641"/>
      <use xlink:href="#DejaVuSans-74" x="310.205078"/>
      <use xlink:href="#DejaVuSans-61" x="349.414062"/>
     </g>
    </g>
   </g>
   <g id="text_10">
    <g clip-path="url(#p78e8a0e146)">
     <!-- O.Brissett -->
     <g transform="translate(38.808032 276.519079)scale(0.12 -0.12)">
      <defs>
       <path id="DejaVuSans-4f" d="M 2522 4238 
Q 1834 4238 1429 3725 
Q 1025 3213 1025 2328 
Q 1025 1447 1429 934 
Q 1834 422 2522 422 
Q 3209 422 3611 934 
Q 4013 1447 4013 2328 
Q 4013 3213 3611 3725 
Q 3209 4238 2522 4238 
z
M 2522 4750 
Q 3503 4750 4090 4092 
Q 4678 3434 4678 2328 
Q 4678 1225 4090 567 
Q 3503 -91 2522 -91 
Q 1538 -91 948 565 
Q 359 1222 359 2328 
Q 359 3434 948 4092 
Q 1538 4750 2522 4750 
z
" transform="scale(0.015625)"/>
      </defs>
      <use xlink:href="#DejaVuSans-4f"/>
      <use xlink:href="#DejaVuSans-2e" x="74.710938"/>
      <use xlink:href="#DejaVuSans-42" x="106.498047"/>
      <use xlink:href="#DejaVuSans-72" x="175.101562"/>
      <use xlink:href="#DejaVuSans-69" x="216.214844"/>
      <use xlink:href="#DejaVuSans-73" x="243.998047"/>
      <use xlink:href="#DejaVuSans-73" x="296.097656"/>
      <use xlink:href="#DejaVuSans-65" x="348.197266"/>
      <use xlink:href="#DejaVuSans-74" x="409.720703"/>
      <use xlink:href="#DejaVuSans-74" x="448.929688"/>
     </g>
    </g>
   </g>
   <g id="text_11">
    <g clip-path="url(#p78e8a0e146)">
     <!-- P.Pritchard -->
     <g transform="translate(90.005653 302.918631)scale(0.12 -0.12)">
      <defs>
       <path id="DejaVuSans-63" d="M 3122 3366 
L 3122 2828 
Q 2878 2963 2633 3030 
Q 2388 3097 2138 3097 
Q 1578 3097 1268 2742 
Q 959 2388 959 1747 
Q 959 1106 1268 751 
Q 1578 397 2138 397 
Q 2388 397 2633 464 
Q 2878 531 3122 666 
L 3122 134 
Q 2881 22 2623 -34 
Q 2366 -91 2075 -91 
Q 1284 -91 818 406 
Q 353 903 353 1747 
Q 353 2603 823 3093 
Q 1294 3584 2113 3584 
Q 2378 3584 2631 3529 
Q 2884 3475 3122 3366 
z
" transform="scale(0.015625)"/>
      </defs>
      <use xlink:href="#DejaVuSans-50"/>
      <use xlink:href="#DejaVuSans-2e" x="44.677734"/>
      <use xlink:href="#DejaVuSans-50" x="76.464844"/>
      <use xlink:href="#DejaVuSans-72" x="135.017578"/>
      <use xlink:href="#DejaVuSans-69" x="176.130859"/>
      <use xlink:href="#DejaVuSans-74" x="203.914062"/>
      <use xlink:href="#DejaVuSans-63" x="243.123047"/>
      <use xlink:href="#DejaVuSans-68" x="298.103516"/>
      <use xlink:href="#DejaVuSans-61" x="361.482422"/>
      <use xlink:href="#DejaVuSans-72" x="422.761719"/>
      <use xlink:href="#DejaVuSans-64" x="462.125"/>
     </g>
    </g>
   </g>
   <g id="text_12">
    <g clip-path="url(#p78e8a0e146)">
     <!-- S.Hauser -->
     <g transform="translate(153.868101 302.918631)scale(0.12 -0.12)">
      <defs>
       <path id="DejaVuSans-53" d="M 3425 4513 
L 3425 3897 
Q 3066 4069 2747 4153 
Q 2428 4238 2131 4238 
Q 1616 4238 1336 4038 
Q 1056 3838 1056 3469 
Q 1056 3159 1242 3001 
Q 1428 2844 1947 2747 
L 2328 2669 
Q 3034 2534 3370 2195 
Q 3706 1856 3706 1288 
Q 3706 609 3251 259 
Q 2797 -91 1919 -91 
Q 1588 -91 1214 -16 
Q 841 59 441 206 
L 441 856 
Q 825 641 1194 531 
Q 1563 422 1919 422 
Q 2459 422 2753 634 
Q 3047 847 3047 1241 
Q 3047 1584 2836 1778 
Q 2625 1972 2144 2069 
L 1759 2144 
Q 1053 2284 737 2584 
Q 422 2884 422 3419 
Q 422 4038 858 4394 
Q 1294 4750 2059 4750 
Q 2388 4750 2728 4690 
Q 3069 4631 3425 4513 
z
" transform="scale(0.015625)"/>
      </defs>
      <use xlink:href="#DejaVuSans-53"/>
      <use xlink:href="#DejaVuSans-2e" x="63.476562"/>
      <use xlink:href="#DejaVuSans-48" x="95.263672"/>
      <use xlink:href="#DejaVuSans-61" x="170.458984"/>
      <use xlink:href="#DejaVuSans-75" x="231.738281"/>
      <use xlink:href="#DejaVuSans-73" x="295.117188"/>
      <use xlink:href="#DejaVuSans-65" x="347.216797"/>
      <use xlink:href="#DejaVuSans-72" x="408.740234"/>
     </g>
    </g>
   </g>
   <g id="text_13">
    <g clip-path="url(#p78e8a0e146)">
     <!-- S.Mykhailiuk -->
     <g transform="translate(196.629155 276.519079)scale(0.12 -0.12)">
      <defs>
       <path id="DejaVuSans-4d" d="M 628 4666 
L 1569 4666 
L 2759 1491 
L 3956 4666 
L 4897 4666 
L 4897 0 
L 4281 0 
L 4281 4097 
L 3078 897 
L 2444 897 
L 1241 4097 
L 1241 0 
L 628 0 
L 628 4666 
z
" transform="scale(0.015625)"/>
       <path id="DejaVuSans-6b" d="M 581 4863 
L 1159 4863 
L 1159 1991 
L 2875 3500 
L 3609 3500 
L 1753 1863 
L 3688 0 
L 2938 0 
L 1159 1709 
L 1159 0 
L 581 0 
L 581 4863 
z
" transform="scale(0.015625)"/>
      </defs>
      <use xlink:href="#DejaVuSans-53"/>
      <use xlink:href="#DejaVuSans-2e" x="63.476562"/>
      <use xlink:href="#DejaVuSans-4d" x="95.263672"/>
      <use xlink:href="#DejaVuSans-79" x="181.542969"/>
      <use xlink:href="#DejaVuSans-6b" x="240.722656"/>
      <use xlink:href="#DejaVuSans-68" x="298.632812"/>
      <use xlink:href="#DejaVuSans-61" x="362.011719"/>
      <use xlink:href="#DejaVuSans-69" x="423.291016"/>
      <use xlink:href="#DejaVuSans-6c" x="451.074219"/>
      <use xlink:href="#DejaVuSans-69" x="478.857422"/>
      <use xlink:href="#DejaVuSans-75" x="506.640625"/>
      <use xlink:href="#DejaVuSans-6b" x="570.019531"/>
     </g>
    </g>
   </g>
   <g id="text_14">
    <g clip-path="url(#p78e8a0e146)">
     <!-- X.Tillman -->
     <g transform="translate(243.47103 228.948677)scale(0.12 -0.12)">
      <defs>
       <path id="DejaVuSans-58" d="M 403 4666 
L 1081 4666 
L 2241 2931 
L 3406 4666 
L 4084 4666 
L 2584 2425 
L 4184 0 
L 3506 0 
L 2194 1984 
L 872 0 
L 191 0 
L 1856 2491 
L 403 4666 
z
" transform="scale(0.015625)"/>
      </defs>
      <use xlink:href="#DejaVuSans-58"/>
      <use xlink:href="#DejaVuSans-2e" x="68.505859"/>
      <use xlink:href="#DejaVuSans-54" x="100.292969"/>
      <use xlink:href="#DejaVuSans-69" x="158.251953"/>
      <use xlink:href="#DejaVuSans-6c" x="186.035156"/>
      <use xlink:href="#DejaVuSans-6c" x="213.818359"/>
      <use xlink:href="#DejaVuSans-6d" x="241.601562"/>
      <use xlink:href="#DejaVuSans-61" x="339.013672"/>
      <use xlink:href="#DejaVuSans-6e" x="400.292969"/>
     </g>
    </g>
   </g>
   <g id="text_15">
    <!-- 2023-24 Boston Celtics Assist Network -->
    <g transform="translate(35.219062 16.318125)scale(0.12 -0.12)">
     <defs>
      <path id="DejaVuSans-32" d="M 1228 531 
L 3431 531 
L 3431 0 
L 469 0 
L 469 531 
Q 828 903 1448 1529 
Q 2069 2156 2228 2338 
Q 2531 2678 2651 2914 
Q 2772 3150 2772 3378 
Q 2772 3750 2511 3984 
Q 2250 4219 1831 4219 
Q 1534 4219 1204 4116 
Q 875 4013 500 3803 
L 500 4441 
Q 881 4594 1212 4672 
Q 1544 4750 1819 4750 
Q 2544 4750 2975 4387 
Q 3406 4025 3406 3419 
Q 3406 3131 3298 2873 
Q 3191 2616 2906 2266 
Q 2828 2175 2409 1742 
Q 1991 1309 1228 531 
z
" transform="scale(0.015625)"/>
      <path id="DejaVuSans-30" d="M 2034 4250 
Q 1547 4250 1301 3770 
Q 1056 3291 1056 2328 
Q 1056 1369 1301 889 
Q 1547 409 2034 409 
Q 2525 409 2770 889 
Q 3016 1369 3016 2328 
Q 3016 3291 2770 3770 
Q 2525 4250 2034 4250 
z
M 2034 4750 
Q 2819 4750 3233 4129 
Q 3647 3509 3647 2328 
Q 3647 1150 3233 529 
Q 2819 -91 2034 -91 
Q 1250 -91 836 529 
Q 422 1150 422 2328 
Q 422 3509 836 4129 
Q 1250 4750 2034 4750 
z
" transform="scale(0.015625)"/>
      <path id="DejaVuSans-33" d="M 2597 2516 
Q 3050 2419 3304 2112 
Q 3559 1806 3559 1356 
Q 3559 666 3084 287 
Q 2609 -91 1734 -91 
Q 1441 -91 1130 -33 
Q 819 25 488 141 
L 488 750 
Q 750 597 1062 519 
Q 1375 441 1716 441 
Q 2309 441 2620 675 
Q 2931 909 2931 1356 
Q 2931 1769 2642 2001 
Q 2353 2234 1838 2234 
L 1294 2234 
L 1294 2753 
L 1863 2753 
Q 2328 2753 2575 2939 
Q 2822 3125 2822 3475 
Q 2822 3834 2567 4026 
Q 2313 4219 1838 4219 
Q 1578 4219 1281 4162 
Q 984 4106 628 3988 
L 628 4550 
Q 988 4650 1302 4700 
Q 1616 4750 1894 4750 
Q 2613 4750 3031 4423 
Q 3450 4097 3450 3541 
Q 3450 3153 3228 2886 
Q 3006 2619 2597 2516 
z
" transform="scale(0.015625)"/>
      <path id="DejaVuSans-2d" d="M 313 2009 
L 1997 2009 
L 1997 1497 
L 313 1497 
L 313 2009 
z
" transform="scale(0.015625)"/>
      <path id="DejaVuSans-34" d="M 2419 4116 
L 825 1625 
L 2419 1625 
L 2419 4116 
z
M 2253 4666 
L 3047 4666 
L 3047 1625 
L 3713 1625 
L 3713 1100 
L 3047 1100 
L 3047 0 
L 2419 0 
L 2419 1100 
L 313 1100 
L 313 1709 
L 2253 4666 
z
" transform="scale(0.015625)"/>
      <path id="DejaVuSans-20" transform="scale(0.015625)"/>
      <path id="DejaVuSans-43" d="M 4122 4306 
L 4122 3641 
Q 3803 3938 3442 4084 
Q 3081 4231 2675 4231 
Q 1875 4231 1450 3742 
Q 1025 3253 1025 2328 
Q 1025 1406 1450 917 
Q 1875 428 2675 428 
Q 3081 428 3442 575 
Q 3803 722 4122 1019 
L 4122 359 
Q 3791 134 3420 21 
Q 3050 -91 2638 -91 
Q 1578 -91 968 557 
Q 359 1206 359 2328 
Q 359 3453 968 4101 
Q 1578 4750 2638 4750 
Q 3056 4750 3426 4639 
Q 3797 4528 4122 4306 
z
" transform="scale(0.015625)"/>
     </defs>
     <use xlink:href="#DejaVuSans-32"/>
     <use xlink:href="#DejaVuSans-30" x="63.623047"/>
     <use xlink:href="#DejaVuSans-32" x="127.246094"/>
     <use xlink:href="#DejaVuSans-33" x="190.869141"/>
     <use xlink:href="#DejaVuSans-2d" x="254.492188"/>
     <use xlink:href="#DejaVuSans-32" x="290.576172"/>
     <use xlink:href="#DejaVuSans-34" x="354.199219"/>
     <use xlink:href="#DejaVuSans-20" x="417.822266"/>
     <use xlink:href="#DejaVuSans-42" x="449.609375"/>
     <use xlink:href="#DejaVuSans-6f" x="518.212891"/>
     <use xlink:href="#DejaVuSans-73" x="579.394531"/>
     <use xlink:href="#DejaVuSans-74" x="631.494141"/>
     <use xlink:href="#DejaVuSans-6f" x="670.703125"/>
     <use xlink:href="#DejaVuSans-6e" x="731.884766"/>
     <use xlink:href="#DejaVuSans-20" x="795.263672"/>
     <use xlink:href="#DejaVuSans-43" x="827.050781"/>
     <use xlink:href="#DejaVuSans-65" x="896.875"/>
     <use xlink:href="#DejaVuSans-6c" x="958.398438"/>
     <use xlink:href="#DejaVuSans-74" x="986.181641"/>
     <use xlink:href="#DejaVuSans-69" x="1025.390625"/>
     <use xlink:href="#DejaVuSans-63" x="1053.173828"/>
     <use xlink:href="#DejaVuSans-73" x="1108.154297"/>
     <use xlink:href="#DejaVuSans-20" x="1160.253906"/>
     <use xlink:href="#DejaVuSans-41" x="1192.041016"/>
     <use xlink:href="#DejaVuSans-73" x="1260.449219"/>
     <use xlink:href="#DejaVuSans-73" x="1312.548828"/>
     <use xlink:href="#DejaVuSans-69" x="1364.648438"/>
     <use xlink:href="#DejaVuSans-73" x="1392.431641"/>
     <use xlink:href="#DejaVuSans-74" x="1444.53125"/>
     <use xlink:href="#DejaVuSans-20" x="1483.740234"/>
     <use xlink:href="#DejaVuSans-4e" x="1515.527344"/>
     <use xlink:href="#DejaVuSans-65" x="1590.332031"/>
     <use xlink:href="#DejaVuSans-74" x="1651.855469"/>
     <use xlink:href="#DejaVuSans-77" x="1691.064453"/>
     <use xlink:href="#DejaVuSans-6f" x="1772.851562"/>
     <use xlink:href="#DejaVuSans-72" x="1834.033203"/>
     <use xlink:href="#DejaVuSans-6b" x="1875.146484"/>
    </g>
   </g>
  </g>
 </g>
 <defs>
  <clipPath id="p78e8a0e146">
   <rect x="7.2" y="22.318125" width="288" height="288"/>
  </clipPath>
 </defs>
</svg>
