<?xml version="1.0" encoding="utf-8" standalone="no"?>
<!DOCTYPE svg PUBLIC "-//W3C//DTD SVG 1.1//EN"
  "http://www.w3.org/Graphics/SVG/1.1/DTD/svg11.dtd">
<svg xmlns:xlink="http://www.w3.org/1999/xlink" width="302.4pt" height="317.518125pt" viewBox="0 0 302.4 317.518125" xmlns="http://www.w3.org/2000/svg" version="1.1">
 <metadata>
  <rdf:RDF xmlns:dc="http://purl.org/dc/elements/1.1/" xmlns:cc="http://creativecommons.org/ns#" xmlns:rdf="http://www.w3.org/1999/02/22-rdf-syntax-ns#">
   <cc:Work>
    <dc:type rdf:resource="http://purl.org/dc/dcmitype/StillImage"/>
    <dc:date>2024-06-21T18:56:48.227028</dc:date>
    <dc:format>image/svg+xml</dc:format>
    <dc:creator>
     <cc:Agent>
      <dc:title>Matplotlib v3.5.2, https://matplotlib.org/</dc:title>
     </cc:Agent>
    </dc:creator>
   </cc:Work>
  </rdf:RDF>
 </metadata>
 <defs>
  <style type="text/css">*{stroke-linejoin: round; stroke-linecap: butt}</style>
 </defs>
 <g id="figure_1">
  <g id="patch_1">
   <path d="M 0 317.518125 
L 302.4 317.518125 
L 302.4 0 
L 0 0 
z
" style="fill: #ffffff"/>
  </g>
  <g id="axes_1">
   <g id="LineCollection_1">
    <path d="M 270.208264 166.318125 
L 258.422739 113.354462 
" clip-path="url(#pa4577797c3)" style="fill: none; stroke: #fcfcfc; stroke-width: 0.16"/>
    <path d="M 270.208264 166.318125 
L 225.400439 70.880903 
" clip-path="url(#pa4577797c3)" style="fill: none; stroke: #fcfcfc; stroke-width: 0.145"/>
    <path d="M 270.208264 166.318125 
L 177.681835 47.309861 
" clip-path="url(#pa4577797c3)" style="fill: none; stroke: #fefefe; stroke-width: 0.06"/>
    <path d="M 270.208264 166.318125 
L 124.718168 47.309861 
" clip-path="url(#pa4577797c3)" style="fill: none; stroke: #ebebeb; stroke-width: 0.76"/>
    <path d="M 270.208264 166.318125 
L 76.999561 70.880903 
" clip-path="url(#pa4577797c3)" style="fill: none; stroke: #fbfbfb; stroke-width: 0.165"/>
    <path d="M 270.208264 166.318125 
L 43.977261 113.354455 
" clip-path="url(#pa4577797c3)" style="fill: none; stroke: #f8f8f8; stroke-width: 0.305"/>
    <path d="M 270.208264 166.318125 
L 32.191736 166.318136 
" clip-path="url(#pa4577797c3)" style="fill: none; stroke: #fdfdfd; stroke-width: 0.12"/>
    <path d="M 270.208264 166.318125 
L 43.977261 219.281788 
" clip-path="url(#pa4577797c3)" style="fill: none; stroke: #f3f3f3; stroke-width: 0.465"/>
    <path d="M 270.208264 166.318125 
L 76.999583 261.755361 
" clip-path="url(#pa4577797c3)" style="fill: none; stroke: #fcfcfc; stroke-width: 0.155"/>
    <path d="M 270.208264 166.318125 
L 124.718161 285.326389 
" clip-path="url(#pa4577797c3)" style="fill: none; stroke: #f0f0f0; stroke-width: 0.57"/>
    <path d="M 270.208264 166.318125 
L 177.681842 285.326389 
" clip-path="url(#pa4577797c3)" style="fill: none; stroke: #dbdbdb; stroke-width: 1.36"/>
    <path d="M 270.208264 166.318125 
L 225.400417 261.755361 
" clip-path="url(#pa4577797c3)" style="fill: none; stroke: #fdfdfd; stroke-width: 0.1"/>
    <path d="M 270.208264 166.318125 
L 258.422739 219.281788 
" clip-path="url(#pa4577797c3)" style="fill: none; stroke: #fdfdfd; stroke-width: 0.12"/>
    <path d="M 258.422739 113.354462 
L 225.400439 70.880903 
" clip-path="url(#pa4577797c3)" style="fill: none; stroke: #ffffff; stroke-width: 0.05"/>
    <path d="M 258.422739 113.354462 
L 177.681835 47.309861 
" clip-path="url(#pa4577797c3)" style="fill: none; stroke: #fcfcfc; stroke-width: 0.15"/>
    <path d="M 258.422739 113.354462 
L 124.718168 47.309861 
" clip-path="url(#pa4577797c3)" style="fill: none; stroke: #8e8e8e; stroke-width: 4.18"/>
    <path d="M 258.422739 113.354462 
L 76.999561 70.880903 
" clip-path="url(#pa4577797c3)" style="fill: none; stroke: #e0e0e0; stroke-width: 1.17"/>
    <path d="M 258.422739 113.354462 
L 43.977261 113.354455 
" clip-path="url(#pa4577797c3)" style="fill: none; stroke: #e3e3e3; stroke-width: 1.05"/>
    <path d="M 258.422739 113.354462 
L 32.191736 166.318136 
" clip-path="url(#pa4577797c3)" style="fill: none; stroke: #a2a2a2; stroke-width: 3.445"/>
    <path d="M 258.422739 113.354462 
L 43.977261 219.281788 
" clip-path="url(#pa4577797c3)" style="fill: none; stroke: #777777; stroke-width: 5.015"/>
    <path d="M 258.422739 113.354462 
L 76.999583 261.755361 
" clip-path="url(#pa4577797c3)" style="fill: none; stroke: #dddddd; stroke-width: 1.275"/>
    <path d="M 258.422739 113.354462 
L 124.718161 285.326389 
" clip-path="url(#pa4577797c3)" style="fill: none; stroke: #737373; stroke-width: 5.195"/>
    <path d="M 258.422739 113.354462 
L 177.681842 285.326389 
" clip-path="url(#pa4577797c3)" style="fill: none; stroke: #d8d8d8; stroke-width: 1.48"/>
    <path d="M 258.422739 113.354462 
L 225.400417 261.755361 
" clip-path="url(#pa4577797c3)" style="fill: none; stroke: #eeeeee; stroke-width: 0.655"/>
    <path d="M 258.422739 113.354462 
L 258.422739 219.281788 
" clip-path="url(#pa4577797c3)" style="fill: none; stroke: #f7f7f7; stroke-width: 0.315"/>
    <path d="M 225.400439 70.880903 
L 177.681835 47.309861 
" clip-path="url(#pa4577797c3)" style="fill: none; stroke: #ffffff; stroke-width: 0.04"/>
    <path d="M 225.400439 70.880903 
L 43.977261 113.354455 
" clip-path="url(#pa4577797c3)" style="fill: none; stroke: #ffffff; stroke-width: 0.035"/>
    <path d="M 225.400439 70.880903 
L 32.191736 166.318136 
" clip-path="url(#pa4577797c3)" style="fill: none; stroke: #ffffff; stroke-width: 0.035"/>
    <path d="M 225.400439 70.880903 
L 76.999583 261.755361 
" clip-path="url(#pa4577797c3)" style="fill: none; stroke: #fefefe; stroke-width: 0.06"/>
    <path d="M 225.400439 70.880903 
L 124.718161 285.326389 
" clip-path="url(#pa4577797c3)" style="fill: none; stroke: #ffffff; stroke-width: 0.03"/>
    <path d="M 225.400439 70.880903 
L 177.681842 285.326389 
" clip-path="url(#pa4577797c3)" style="fill: none; stroke: #fefefe; stroke-width: 0.075"/>
    <path d="M 225.400439 70.880903 
L 258.422739 219.281788 
" clip-path="url(#pa4577797c3)" style="fill: none; stroke: #ffffff; stroke-width: 0.025"/>
    <path d="M 177.681835 47.309861 
L 76.999561 70.880903 
" clip-path="url(#pa4577797c3)" style="fill: none; stroke: #eeeeee; stroke-width: 0.67"/>
    <path d="M 177.681835 47.309861 
L 43.977261 113.354455 
" clip-path="url(#pa4577797c3)" style="fill: none; stroke: #fcfcfc; stroke-width: 0.16"/>
    <path d="M 177.681835 47.309861 
L 32.191736 166.318136 
" clip-path="url(#pa4577797c3)" style="fill: none; stroke: #f3f3f3; stroke-width: 0.46"/>
    <path d="M 177.681835 47.309861 
L 43.977261 219.281788 
" clip-path="url(#pa4577797c3)" style="fill: none; stroke: #ededed; stroke-width: 0.68"/>
    <path d="M 177.681835 47.309861 
L 124.718161 285.326389 
" clip-path="url(#pa4577797c3)" style="fill: none; stroke: #eeeeee; stroke-width: 0.655"/>
    <path d="M 177.681835 47.309861 
L 177.681842 285.326389 
" clip-path="url(#pa4577797c3)" style="fill: none; stroke: #f2f2f2; stroke-width: 0.505"/>
    <path d="M 177.681835 47.309861 
L 225.400417 261.755361 
" clip-path="url(#pa4577797c3)" style="fill: none; stroke: #ffffff; stroke-width: 0.015"/>
    <path d="M 124.718168 47.309861 
L 43.977261 113.354455 
" clip-path="url(#pa4577797c3)" style="fill: none; stroke: #bdbdbd; stroke-width: 2.465"/>
    <path d="M 124.718168 47.309861 
L 32.191736 166.318136 
" clip-path="url(#pa4577797c3)" style="fill: none; stroke: #aeaeae; stroke-width: 3.01"/>
    <path d="M 124.718168 47.309861 
L 43.977261 219.281788 
" clip-path="url(#pa4577797c3)" style="fill: none; stroke: #676767; stroke-width: 5.615"/>
    <path d="M 124.718168 47.309861 
L 76.999583 261.755361 
" clip-path="url(#pa4577797c3)" style="fill: none; stroke: #b7b7b7; stroke-width: 2.69"/>
    <path d="M 124.718168 47.309861 
L 124.718161 285.326389 
" clip-path="url(#pa4577797c3)" style="fill: none; stroke: #b2b2b2; stroke-width: 2.87"/>
    <path d="M 124.718168 47.309861 
L 177.681842 285.326389 
" clip-path="url(#pa4577797c3)" style="fill: none; stroke: #f6f6f6; stroke-width: 0.36"/>
    <path d="M 124.718168 47.309861 
L 225.400417 261.755361 
" clip-path="url(#pa4577797c3)" style="fill: none; stroke: #c8c8c8; stroke-width: 2.04"/>
    <path d="M 124.718168 47.309861 
L 258.422739 219.281788 
" clip-path="url(#pa4577797c3)" style="fill: none; stroke: #e9e9e9; stroke-width: 0.825"/>
    <path d="M 76.999561 70.880903 
L 43.977261 113.354455 
" clip-path="url(#pa4577797c3)" style="fill: none; stroke: #e6e6e6; stroke-width: 0.965"/>
    <path d="M 76.999561 70.880903 
L 32.191736 166.318136 
" clip-path="url(#pa4577797c3)" style="fill: none; stroke: #dcdcdc; stroke-width: 1.325"/>
    <path d="M 76.999561 70.880903 
L 43.977261 219.281788 
" clip-path="url(#pa4577797c3)" style="fill: none; stroke: #d1d1d1; stroke-width: 1.74"/>
    <path d="M 76.999561 70.880903 
L 124.718161 285.326389 
" clip-path="url(#pa4577797c3)" style="fill: none; stroke: #dcdcdc; stroke-width: 1.33"/>
    <path d="M 76.999561 70.880903 
L 177.681842 285.326389 
" clip-path="url(#pa4577797c3)" style="fill: none; stroke: #dfdfdf; stroke-width: 1.21"/>
    <path d="M 76.999561 70.880903 
L 225.400417 261.755361 
" clip-path="url(#pa4577797c3)" style="fill: none; stroke: #f8f8f8; stroke-width: 0.28"/>
    <path d="M 43.977261 113.354455 
L 32.191736 166.318136 
" clip-path="url(#pa4577797c3)" style="fill: none; stroke: #d8d8d8; stroke-width: 1.465"/>
    <path d="M 43.977261 113.354455 
L 43.977261 219.281788 
" clip-path="url(#pa4577797c3)" style="fill: none; stroke: #c5c5c5; stroke-width: 2.16"/>
    <path d="M 43.977261 113.354455 
L 76.999583 261.755361 
" clip-path="url(#pa4577797c3)" style="fill: none; stroke: #e6e6e6; stroke-width: 0.935"/>
    <path d="M 43.977261 113.354455 
L 124.718161 285.326389 
" clip-path="url(#pa4577797c3)" style="fill: none; stroke: #c2c2c2; stroke-width: 2.285"/>
    <path d="M 43.977261 113.354455 
L 177.681842 285.326389 
" clip-path="url(#pa4577797c3)" style="fill: none; stroke: #dddddd; stroke-width: 1.29"/>
    <path d="M 43.977261 113.354455 
L 225.400417 261.755361 
" clip-path="url(#pa4577797c3)" style="fill: none; stroke: #f6f6f6; stroke-width: 0.375"/>
    <path d="M 43.977261 113.354455 
L 258.422739 219.281788 
" clip-path="url(#pa4577797c3)" style="fill: none; stroke: #fafafa; stroke-width: 0.225"/>
    <path d="M 32.191736 166.318136 
L 43.977261 219.281788 
" clip-path="url(#pa4577797c3)" style="fill: none; stroke: #929292; stroke-width: 4.03"/>
    <path d="M 32.191736 166.318136 
L 76.999583 261.755361 
" clip-path="url(#pa4577797c3)" style="fill: none; stroke: #e1e1e1; stroke-width: 1.135"/>
    <path d="M 32.191736 166.318136 
L 124.718161 285.326389 
" clip-path="url(#pa4577797c3)" style="fill: none; stroke: #545454; stroke-width: 6.3"/>
    <path d="M 32.191736 166.318136 
L 177.681842 285.326389 
" clip-path="url(#pa4577797c3)" style="fill: none; stroke: #d0d0d0; stroke-width: 1.76"/>
    <path d="M 32.191736 166.318136 
L 225.400417 261.755361 
" clip-path="url(#pa4577797c3)" style="fill: none; stroke: #c2c2c2; stroke-width: 2.28"/>
    <path d="M 32.191736 166.318136 
L 258.422739 219.281788 
" clip-path="url(#pa4577797c3)" style="fill: none; stroke: #f5f5f5; stroke-width: 0.415"/>
    <path d="M 43.977261 219.281788 
L 76.999583 261.755361 
" clip-path="url(#pa4577797c3)" style="fill: none; stroke: #d8d8d8; stroke-width: 1.465"/>
    <path d="M 43.977261 219.281788 
L 124.718161 285.326389 
" clip-path="url(#pa4577797c3)" style="fill: none; stroke: #000000; stroke-width: 9.42"/>
    <path d="M 43.977261 219.281788 
L 177.681842 285.326389 
" clip-path="url(#pa4577797c3)" style="fill: none; stroke: #b9b9b9; stroke-width: 2.6"/>
    <path d="M 43.977261 219.281788 
L 225.400417 261.755361 
" clip-path="url(#pa4577797c3)" style="fill: none; stroke: #ababab; stroke-width: 3.125"/>
    <path d="M 43.977261 219.281788 
L 258.422739 219.281788 
" clip-path="url(#pa4577797c3)" style="fill: none; stroke: #f3f3f3; stroke-width: 0.46"/>
    <path d="M 76.999583 261.755361 
L 124.718161 285.326389 
" clip-path="url(#pa4577797c3)" style="fill: none; stroke: #d3d3d3; stroke-width: 1.65"/>
    <path d="M 76.999583 261.755361 
L 177.681842 285.326389 
" clip-path="url(#pa4577797c3)" style="fill: none; stroke: #e5e5e5; stroke-width: 0.995"/>
    <path d="M 76.999583 261.755361 
L 225.400417 261.755361 
" clip-path="url(#pa4577797c3)" style="fill: none; stroke: #ededed; stroke-width: 0.705"/>
    <path d="M 124.718161 285.326389 
L 177.681842 285.326389 
" clip-path="url(#pa4577797c3)" style="fill: none; stroke: #e7e7e7; stroke-width: 0.93"/>
    <path d="M 124.718161 285.326389 
L 225.400417 261.755361 
" clip-path="url(#pa4577797c3)" style="fill: none; stroke: #949494; stroke-width: 3.975"/>
    <path d="M 124.718161 285.326389 
L 258.422739 219.281788 
" clip-path="url(#pa4577797c3)" style="fill: none; stroke: #f4f4f4; stroke-width: 0.455"/>
    <path d="M 177.681842 285.326389 
L 225.400417 261.755361 
" clip-path="url(#pa4577797c3)" style="fill: none; stroke: #ededed; stroke-width: 0.69"/>
    <path d="M 177.681842 285.326389 
L 258.422739 219.281788 
" clip-path="url(#pa4577797c3)" style="fill: none; stroke: #efefef; stroke-width: 0.63"/>
    <path d="M 225.400417 261.755361 
L 258.422739 219.281788 
" clip-path="url(#pa4577797c3)" style="fill: none; stroke: #fafafa; stroke-width: 0.22"/>
   </g>
   <g id="text_1">
    <g id="patch_2">
     <path d="M 69.534876 250.315011 
L 89.234018 266.428554 
Q 91.556117 268.32799 93.455553 266.00589 
L 99.58321 258.514701 
Q 101.482646 256.192602 99.160546 254.293167 
L 79.461404 238.179623 
Q 77.139305 236.280188 75.239869 238.602287 
L 69.112212 246.093476 
Q 67.212776 248.415575 69.534876 250.315011 
z
" clip-path="url(#pa4577797c3)" style="fill: #ffffff; stroke: #ffffff; stroke-linejoin: miter"/>
    </g>
    <g clip-path="url(#pa4577797c3)">
     <!-- 1884 -->
     <g transform="translate(72.751055 246.383165)rotate(-320.717452)scale(0.1 -0.1)">
      <defs>
       <path id="DejaVuSans-31" d="M 794 531 
L 1825 531 
L 1825 4091 
L 703 3866 
L 703 4441 
L 1819 4666 
L 2450 4666 
L 2450 531 
L 3481 531 
L 3481 0 
L 794 0 
L 794 531 
z
" transform="scale(0.015625)"/>
       <path id="DejaVuSans-38" d="M 2034 2216 
Q 1584 2216 1326 1975 
Q 1069 1734 1069 1313 
Q 1069 891 1326 650 
Q 1584 409 2034 409 
Q 2484 409 2743 651 
Q 3003 894 3003 1313 
Q 3003 1734 2745 1975 
Q 2488 2216 2034 2216 
z
M 1403 2484 
Q 997 2584 770 2862 
Q 544 3141 544 3541 
Q 544 4100 942 4425 
Q 1341 4750 2034 4750 
Q 2731 4750 3128 4425 
Q 3525 4100 3525 3541 
Q 3525 3141 3298 2862 
Q 3072 2584 2669 2484 
Q 3125 2378 3379 2068 
Q 3634 1759 3634 1313 
Q 3634 634 3220 271 
Q 2806 -91 2034 -91 
Q 1263 -91 848 271 
Q 434 634 434 1313 
Q 434 1759 690 2068 
Q 947 2378 1403 2484 
z
M 1172 3481 
Q 1172 3119 1398 2916 
Q 1625 2713 2034 2713 
Q 2441 2713 2670 2916 
Q 2900 3119 2900 3481 
Q 2900 3844 2670 4047 
Q 2441 4250 2034 4250 
Q 1625 4250 1398 4047 
Q 1172 3844 1172 3481 
z
" transform="scale(0.015625)"/>
       <path id="DejaVuSans-34" d="M 2419 4116 
L 825 1625 
L 2419 1625 
L 2419 4116 
z
M 2253 4666 
L 3047 4666 
L 3047 1625 
L 3713 1625 
L 3713 1100 
L 3047 1100 
L 3047 0 
L 2419 0 
L 2419 1100 
L 313 1100 
L 313 1709 
L 2253 4666 
z
" transform="scale(0.015625)"/>
      </defs>
      <use xlink:href="#DejaVuSans-31"/>
      <use xlink:href="#DejaVuSans-38" x="63.623047"/>
      <use xlink:href="#DejaVuSans-38" x="127.246094"/>
      <use xlink:href="#DejaVuSans-34" x="190.869141"/>
     </g>
    </g>
   </g>
   <g id="text_2">
    <g id="patch_3">
     <path d="M 64.455747 220.587868 
L 80.076796 240.679791 
Q 81.918177 243.04819 84.286576 241.206809 
L 91.927131 235.266437 
Q 94.295531 233.425056 92.45415 231.056657 
L 76.833101 210.964735 
Q 74.99172 208.596335 72.623321 210.437716 
L 64.982765 216.378088 
Q 62.614366 218.219469 64.455747 220.587868 
z
" clip-path="url(#pa4577797c3)" style="fill: #ffffff; stroke: #ffffff; stroke-linejoin: miter"/>
    </g>
    <g clip-path="url(#pa4577797c3)">
     <!-- 1260 -->
     <g transform="translate(68.46599 217.469988)rotate(-307.864318)scale(0.1 -0.1)">
      <defs>
       <path id="DejaVuSans-32" d="M 1228 531 
L 3431 531 
L 3431 0 
L 469 0 
L 469 531 
Q 828 903 1448 1529 
Q 2069 2156 2228 2338 
Q 2531 2678 2651 2914 
Q 2772 3150 2772 3378 
Q 2772 3750 2511 3984 
Q 2250 4219 1831 4219 
Q 1534 4219 1204 4116 
Q 875 4013 500 3803 
L 500 4441 
Q 881 4594 1212 4672 
Q 1544 4750 1819 4750 
Q 2544 4750 2975 4387 
Q 3406 4025 3406 3419 
Q 3406 3131 3298 2873 
Q 3191 2616 2906 2266 
Q 2828 2175 2409 1742 
Q 1991 1309 1228 531 
z
" transform="scale(0.015625)"/>
       <path id="DejaVuSans-36" d="M 2113 2584 
Q 1688 2584 1439 2293 
Q 1191 2003 1191 1497 
Q 1191 994 1439 701 
Q 1688 409 2113 409 
Q 2538 409 2786 701 
Q 3034 994 3034 1497 
Q 3034 2003 2786 2293 
Q 2538 2584 2113 2584 
z
M 3366 4563 
L 3366 3988 
Q 3128 4100 2886 4159 
Q 2644 4219 2406 4219 
Q 1781 4219 1451 3797 
Q 1122 3375 1075 2522 
Q 1259 2794 1537 2939 
Q 1816 3084 2150 3084 
Q 2853 3084 3261 2657 
Q 3669 2231 3669 1497 
Q 3669 778 3244 343 
Q 2819 -91 2113 -91 
Q 1303 -91 875 529 
Q 447 1150 447 2328 
Q 447 3434 972 4092 
Q 1497 4750 2381 4750 
Q 2619 4750 2861 4703 
Q 3103 4656 3366 4563 
z
" transform="scale(0.015625)"/>
       <path id="DejaVuSans-30" d="M 2034 4250 
Q 1547 4250 1301 3770 
Q 1056 3291 1056 2328 
Q 1056 1369 1301 889 
Q 1547 409 2034 409 
Q 2525 409 2770 889 
Q 3016 1369 3016 2328 
Q 3016 3291 2770 3770 
Q 2525 4250 2034 4250 
z
M 2034 4750 
Q 2819 4750 3233 4129 
Q 3647 3509 3647 2328 
Q 3647 1150 3233 529 
Q 2819 -91 2034 -91 
Q 1250 -91 836 529 
Q 422 1150 422 2328 
Q 422 3509 836 4129 
Q 1250 4750 2034 4750 
z
" transform="scale(0.015625)"/>
      </defs>
      <use xlink:href="#DejaVuSans-31"/>
      <use xlink:href="#DejaVuSans-32" x="63.623047"/>
      <use xlink:href="#DejaVuSans-36" x="127.246094"/>
      <use xlink:href="#DejaVuSans-30" x="190.869141"/>
     </g>
    </g>
   </g>
   <g id="text_3">
    <g id="patch_4">
     <path d="M 86.035608 148.145994 
L 96.851623 125.108713 
Q 98.126596 122.39312 95.411003 121.118148 
L 86.650386 117.005034 
Q 83.934793 115.730061 82.659821 118.445655 
L 71.843806 141.482936 
Q 70.568833 144.198529 73.284427 145.473501 
L 82.045043 149.586615 
Q 84.760636 150.861587 86.035608 148.145994 
z
" clip-path="url(#pa4577797c3)" style="fill: #ffffff; stroke: #ffffff; stroke-linejoin: miter"/>
    </g>
    <g clip-path="url(#pa4577797c3)">
     <!-- 1123 -->
     <g transform="translate(81.437487 145.987174)rotate(-64.849921)scale(0.1 -0.1)">
      <defs>
       <path id="DejaVuSans-33" d="M 2597 2516 
Q 3050 2419 3304 2112 
Q 3559 1806 3559 1356 
Q 3559 666 3084 287 
Q 2609 -91 1734 -91 
Q 1441 -91 1130 -33 
Q 819 25 488 141 
L 488 750 
Q 750 597 1062 519 
Q 1375 441 1716 441 
Q 2309 441 2620 675 
Q 2931 909 2931 1356 
Q 2931 1769 2642 2001 
Q 2353 2234 1838 2234 
L 1294 2234 
L 1294 2753 
L 1863 2753 
Q 2328 2753 2575 2939 
Q 2822 3125 2822 3475 
Q 2822 3834 2567 4026 
Q 2313 4219 1838 4219 
Q 1578 4219 1281 4162 
Q 984 4106 628 3988 
L 628 4550 
Q 988 4650 1302 4700 
Q 1616 4750 1894 4750 
Q 2613 4750 3031 4423 
Q 3450 4097 3450 3541 
Q 3450 3153 3228 2886 
Q 3006 2619 2597 2516 
z
" transform="scale(0.015625)"/>
      </defs>
      <use xlink:href="#DejaVuSans-31"/>
      <use xlink:href="#DejaVuSans-31" x="63.623047"/>
      <use xlink:href="#DejaVuSans-32" x="127.246094"/>
      <use xlink:href="#DejaVuSans-33" x="190.869141"/>
     </g>
    </g>
   </g>
   <g id="text_4">
    <g id="patch_5">
     <path d="M 189.948603 214.197954 
L 205.569652 194.106032 
Q 207.411033 191.737632 205.042633 189.896251 
L 197.402078 183.955879 
Q 195.033679 182.114498 193.192298 184.482898 
L 177.571249 204.57482 
Q 175.729867 206.943219 178.098267 208.7846 
L 185.738822 214.724972 
Q 188.107222 216.566353 189.948603 214.197954 
z
" clip-path="url(#pa4577797c3)" style="fill: #ffffff; stroke: #ffffff; stroke-linejoin: miter"/>
    </g>
    <g clip-path="url(#pa4577797c3)">
     <!-- 1039 -->
     <g transform="translate(185.93836 211.080074)rotate(-52.135681)scale(0.1 -0.1)">
      <defs>
       <path id="DejaVuSans-39" d="M 703 97 
L 703 672 
Q 941 559 1184 500 
Q 1428 441 1663 441 
Q 2288 441 2617 861 
Q 2947 1281 2994 2138 
Q 2813 1869 2534 1725 
Q 2256 1581 1919 1581 
Q 1219 1581 811 2004 
Q 403 2428 403 3163 
Q 403 3881 828 4315 
Q 1253 4750 1959 4750 
Q 2769 4750 3195 4129 
Q 3622 3509 3622 2328 
Q 3622 1225 3098 567 
Q 2575 -91 1691 -91 
Q 1453 -91 1209 -44 
Q 966 3 703 97 
z
M 1959 2075 
Q 2384 2075 2632 2365 
Q 2881 2656 2881 3163 
Q 2881 3666 2632 3958 
Q 2384 4250 1959 4250 
Q 1534 4250 1286 3958 
Q 1038 3666 1038 3163 
Q 1038 2656 1286 2365 
Q 1534 2075 1959 2075 
z
" transform="scale(0.015625)"/>
      </defs>
      <use xlink:href="#DejaVuSans-31"/>
      <use xlink:href="#DejaVuSans-30" x="63.623047"/>
      <use xlink:href="#DejaVuSans-33" x="127.246094"/>
      <use xlink:href="#DejaVuSans-39" x="190.869141"/>
     </g>
    </g>
   </g>
   <g id="text_5">
    <g id="patch_6">
     <path d="M 143.262709 178.982087 
L 166.080749 167.710905 
Q 168.770498 166.382279 167.441872 163.692529 
L 163.155667 155.015286 
Q 161.827041 152.325536 159.137291 153.654163 
L 136.319251 164.925345 
Q 133.629502 166.253971 134.958128 168.943721 
L 139.244333 177.620964 
Q 140.572959 180.310714 143.262709 178.982087 
z
" clip-path="url(#pa4577797c3)" style="fill: #ffffff; stroke: #ffffff; stroke-linejoin: miter"/>
    </g>
    <g clip-path="url(#pa4577797c3)">
     <!-- 1003 -->
     <g transform="translate(141.01304 174.427725)rotate(-26.287495)scale(0.1 -0.1)">
      <use xlink:href="#DejaVuSans-31"/>
      <use xlink:href="#DejaVuSans-30" x="63.623047"/>
      <use xlink:href="#DejaVuSans-30" x="127.246094"/>
      <use xlink:href="#DejaVuSans-33" x="190.869141"/>
     </g>
    </g>
   </g>
   <g id="text_6">
    <g id="patch_7">
     <path d="M 179.54196 83.13384 
L 196.65549 91.587225 
Q 199.34524 92.915852 200.673866 90.226102 
L 204.96007 81.548859 
Q 206.288697 78.859109 203.598947 77.530483 
L 186.485417 69.077097 
Q 183.795668 67.748471 182.467041 70.43822 
L 178.180837 79.115464 
Q 176.85221 81.805213 179.54196 83.13384 
z
" clip-path="url(#pa4577797c3)" style="fill: #ffffff; stroke: #ffffff; stroke-linejoin: miter"/>
    </g>
    <g clip-path="url(#pa4577797c3)">
     <!-- 836 -->
     <g transform="translate(181.791629 78.579478)rotate(-333.712508)scale(0.1 -0.1)">
      <use xlink:href="#DejaVuSans-38"/>
      <use xlink:href="#DejaVuSans-33" x="63.623047"/>
      <use xlink:href="#DejaVuSans-36" x="127.246094"/>
     </g>
    </g>
   </g>
   <g id="text_7">
    <g id="patch_8">
     <path d="M 28.359609 185.186776 
L 32.505574 203.818567 
Q 33.157199 206.746943 36.085575 206.095318 
L 45.532637 203.993148 
Q 48.461013 203.341523 47.809388 200.413147 
L 43.663423 181.781356 
Q 43.011798 178.852981 40.083422 179.504606 
L 30.636359 181.606776 
Q 27.707984 182.258401 28.359609 185.186776 
z
" clip-path="url(#pa4577797c3)" style="fill: #ffffff; stroke: #ffffff; stroke-linejoin: miter"/>
    </g>
    <g clip-path="url(#pa4577797c3)">
     <!-- 806 -->
     <g transform="translate(33.31802 184.083426)rotate(-282.54512)scale(0.1 -0.1)">
      <use xlink:href="#DejaVuSans-38"/>
      <use xlink:href="#DejaVuSans-30" x="63.623047"/>
      <use xlink:href="#DejaVuSans-36" x="127.246094"/>
     </g>
    </g>
   </g>
   <g id="text_8">
    <g id="patch_9">
     <path d="M 167.553709 283.349052 
L 186.138691 278.998065 
Q 189.05971 278.314217 188.375861 275.393198 
L 186.169737 265.969869 
Q 185.485889 263.04885 182.56487 263.732699 
L 163.979887 268.083686 
Q 161.058869 268.767534 161.742717 271.688553 
L 163.948841 281.111881 
Q 164.63269 284.0329 167.553709 283.349052 
z
" clip-path="url(#pa4577797c3)" style="fill: #ffffff; stroke: #ffffff; stroke-linejoin: miter"/>
    </g>
    <g clip-path="url(#pa4577797c3)">
     <!-- 795 -->
     <g transform="translate(166.395796 278.403097)rotate(-13.176382)scale(0.1 -0.1)">
      <defs>
       <path id="DejaVuSans-37" d="M 525 4666 
L 3525 4666 
L 3525 4397 
L 1831 0 
L 1172 0 
L 2766 4134 
L 525 4134 
L 525 4666 
z
" transform="scale(0.015625)"/>
       <path id="DejaVuSans-35" d="M 691 4666 
L 3169 4666 
L 3169 4134 
L 1269 4134 
L 1269 2991 
Q 1406 3038 1543 3061 
Q 1681 3084 1819 3084 
Q 2600 3084 3056 2656 
Q 3513 2228 3513 1497 
Q 3513 744 3044 326 
Q 2575 -91 1722 -91 
Q 1428 -91 1123 -41 
Q 819 9 494 109 
L 494 744 
Q 775 591 1075 516 
Q 1375 441 1709 441 
Q 2250 441 2565 725 
Q 2881 1009 2881 1497 
Q 2881 1984 2565 2268 
Q 2250 2553 1709 2553 
Q 1456 2553 1204 2497 
Q 953 2441 691 2322 
L 691 4666 
z
" transform="scale(0.015625)"/>
      </defs>
      <use xlink:href="#DejaVuSans-37"/>
      <use xlink:href="#DejaVuSans-39" x="63.623047"/>
      <use xlink:href="#DejaVuSans-35" x="127.246094"/>
     </g>
    </g>
   </g>
   <g id="text_9">
    <g id="patch_10">
     <path d="M 137.801659 149.644477 
L 156.38664 145.293486 
Q 159.307659 144.609637 158.62381 141.688619 
L 156.417684 132.265291 
Q 155.733835 129.344272 152.812816 130.028121 
L 134.227834 134.379111 
Q 131.306816 135.06296 131.990665 137.983979 
L 134.196791 147.407307 
Q 134.88064 150.328326 137.801659 149.644477 
z
" clip-path="url(#pa4577797c3)" style="fill: #ffffff; stroke: #ffffff; stroke-linejoin: miter"/>
    </g>
    <g clip-path="url(#pa4577797c3)">
     <!-- 689 -->
     <g transform="translate(136.643745 144.698523)rotate(-13.176393)scale(0.1 -0.1)">
      <use xlink:href="#DejaVuSans-36"/>
      <use xlink:href="#DejaVuSans-38" x="63.623047"/>
      <use xlink:href="#DejaVuSans-39" x="127.246094"/>
     </g>
    </g>
   </g>
   <g id="text_10">
    <g id="patch_11">
     <path d="M 123.609436 245.975762 
L 142.194417 250.326753 
Q 145.115436 251.010602 145.799285 248.089583 
L 148.005412 238.666256 
Q 148.689261 235.745237 145.768242 235.061388 
L 127.183261 230.710396 
Q 124.262242 230.026547 123.578393 232.947566 
L 121.372267 242.370894 
Q 120.688417 245.291912 123.609436 245.975762 
z
" clip-path="url(#pa4577797c3)" style="fill: #ffffff; stroke: #ffffff; stroke-linejoin: miter"/>
    </g>
    <g clip-path="url(#pa4577797c3)">
     <!-- 625 -->
     <g transform="translate(124.76735 241.029808)rotate(-346.823604)scale(0.1 -0.1)">
      <use xlink:href="#DejaVuSans-36"/>
      <use xlink:href="#DejaVuSans-32" x="63.623047"/>
      <use xlink:href="#DejaVuSans-35" x="127.246094"/>
     </g>
    </g>
   </g>
   <g id="text_11">
    <g id="patch_12">
     <path d="M 78.785736 119.160036 
L 90.501522 104.091094 
Q 92.342903 101.722694 89.974504 99.881313 
L 82.333948 93.940942 
Q 79.965548 92.099561 78.124167 94.46796 
L 66.408382 109.536903 
Q 64.567001 111.905302 66.9354 113.746683 
L 74.575956 119.687054 
Q 76.944355 121.528435 78.785736 119.160036 
z
" clip-path="url(#pa4577797c3)" style="fill: #ffffff; stroke: #ffffff; stroke-linejoin: miter"/>
    </g>
    <g clip-path="url(#pa4577797c3)">
     <!-- 602 -->
     <g transform="translate(74.775493 116.042156)rotate(-52.135685)scale(0.1 -0.1)">
      <use xlink:href="#DejaVuSans-36"/>
      <use xlink:href="#DejaVuSans-30" x="63.623047"/>
      <use xlink:href="#DejaVuSans-32" x="127.246094"/>
     </g>
    </g>
   </g>
   <g id="text_12">
    <g id="patch_13">
     <path d="M 132.557227 175.861875 
L 132.557227 156.774375 
Q 132.557228 153.774375 129.557228 153.774375 
L 119.879103 153.774375 
Q 116.879103 153.774375 116.879102 156.774375 
L 116.879102 175.861875 
Q 116.879102 178.861875 119.879102 178.861875 
L 129.557227 178.861875 
Q 132.557227 178.861875 132.557227 175.861875 
z
" clip-path="url(#pa4577797c3)" style="fill: #ffffff; stroke: #ffffff; stroke-linejoin: miter"/>
    </g>
    <g clip-path="url(#pa4577797c3)">
     <!-- 574 -->
     <g transform="translate(127.477539 175.861875)rotate(-89.999998)scale(0.1 -0.1)">
      <use xlink:href="#DejaVuSans-35"/>
      <use xlink:href="#DejaVuSans-37" x="63.623047"/>
      <use xlink:href="#DejaVuSans-34" x="127.246094"/>
     </g>
    </g>
   </g>
   <g id="text_13">
    <g id="patch_14">
     <path d="M 106.437802 165.551215 
L 110.583763 146.919424 
Q 111.235388 143.991048 108.307012 143.339423 
L 98.859949 141.237255 
Q 95.931573 140.585631 95.279949 143.514006 
L 91.133988 162.145798 
Q 90.482363 165.074174 93.410739 165.725799 
L 102.857802 167.827967 
Q 105.786177 168.479591 106.437802 165.551215 
z
" clip-path="url(#pa4577797c3)" style="fill: #ffffff; stroke: #ffffff; stroke-linejoin: miter"/>
    </g>
    <g clip-path="url(#pa4577797c3)">
     <!-- 538 -->
     <g transform="translate(101.479391 164.447866)rotate(-77.454891)scale(0.1 -0.1)">
      <use xlink:href="#DejaVuSans-35"/>
      <use xlink:href="#DejaVuSans-33" x="63.623047"/>
      <use xlink:href="#DejaVuSans-38" x="127.246094"/>
     </g>
    </g>
   </g>
   <g id="text_14">
    <g id="patch_15">
     <path d="M 98.801058 255.105767 
L 115.914589 263.559153 
Q 118.604338 264.887779 119.932964 262.19803 
L 124.219168 253.520786 
Q 125.547795 250.831036 122.858045 249.50241 
L 105.744515 241.049025 
Q 103.054765 239.720398 101.726139 242.410148 
L 97.439935 251.087392 
Q 96.111308 253.777141 98.801058 255.105767 
z
" clip-path="url(#pa4577797c3)" style="fill: #ffffff; stroke: #ffffff; stroke-linejoin: miter"/>
    </g>
    <g clip-path="url(#pa4577797c3)">
     <!-- 520 -->
     <g transform="translate(101.050727 250.551405)rotate(-333.712509)scale(0.1 -0.1)">
      <use xlink:href="#DejaVuSans-35"/>
      <use xlink:href="#DejaVuSans-32" x="63.623047"/>
      <use xlink:href="#DejaVuSans-30" x="127.246094"/>
     </g>
    </g>
   </g>
   <g id="text_15">
    <g id="patch_16">
     <path d="M 81.923799 92.44243 
L 96.698157 80.357274 
Q 99.020257 78.457839 97.120822 76.135739 
L 90.993165 68.64455 
Q 89.093729 66.32245 86.77163 68.221885 
L 71.997272 80.307041 
Q 69.675172 82.206477 71.574608 84.528576 
L 77.702265 92.019766 
Q 79.6017 94.341865 81.923799 92.44243 
z
" clip-path="url(#pa4577797c3)" style="fill: #ffffff; stroke: #ffffff; stroke-linejoin: miter"/>
    </g>
    <g clip-path="url(#pa4577797c3)">
     <!-- 493 -->
     <g transform="translate(78.70762 88.510584)rotate(-39.282542)scale(0.1 -0.1)">
      <use xlink:href="#DejaVuSans-34"/>
      <use xlink:href="#DejaVuSans-39" x="63.623047"/>
      <use xlink:href="#DejaVuSans-33" x="127.246094"/>
     </g>
    </g>
   </g>
   <g id="text_16">
    <g id="patch_17">
     <path d="M 73.195804 194.03297 
L 81.307815 211.310932 
Q 82.582787 214.026525 85.29838 212.751552 
L 94.058997 208.638439 
Q 96.77459 207.363467 95.499618 204.647874 
L 87.387607 187.369913 
Q 86.112635 184.65432 83.397042 185.929292 
L 74.636425 190.042405 
Q 71.920832 191.317377 73.195804 194.03297 
z
" clip-path="url(#pa4577797c3)" style="fill: #ffffff; stroke: #ffffff; stroke-linejoin: miter"/>
    </g>
    <g clip-path="url(#pa4577797c3)">
     <!-- 457 -->
     <g transform="translate(77.793926 191.87415)rotate(-295.150076)scale(0.1 -0.1)">
      <use xlink:href="#DejaVuSans-34"/>
      <use xlink:href="#DejaVuSans-35" x="63.623047"/>
      <use xlink:href="#DejaVuSans-37" x="127.246094"/>
     </g>
    </g>
   </g>
   <g id="text_17">
    <g id="patch_18">
     <path d="M 116.767582 216.838426 
L 133.881112 225.291813 
Q 136.570861 226.62044 137.899488 223.93069 
L 142.185693 215.253447 
Q 143.51432 212.563698 140.824571 211.235071 
L 123.711041 202.781684 
Q 121.021291 201.453057 119.692665 204.142807 
L 115.40646 212.82005 
Q 114.077833 215.509799 116.767582 216.838426 
z
" clip-path="url(#pa4577797c3)" style="fill: #ffffff; stroke: #ffffff; stroke-linejoin: miter"/>
    </g>
    <g clip-path="url(#pa4577797c3)">
     <!-- 456 -->
     <g transform="translate(119.017252 212.284064)rotate(-333.712503)scale(0.1 -0.1)">
      <use xlink:href="#DejaVuSans-34"/>
      <use xlink:href="#DejaVuSans-35" x="63.623047"/>
      <use xlink:href="#DejaVuSans-36" x="127.246094"/>
     </g>
    </g>
   </g>
   <g id="text_18">
    <g id="patch_19">
     <path d="M 36.138198 156.774371 
L 36.138198 175.861871 
Q 36.138198 178.861871 39.138198 178.861871 
L 48.816323 178.861871 
Q 51.816323 178.861871 51.816323 175.861871 
L 51.816323 156.774371 
Q 51.816323 153.774371 48.816323 153.774371 
L 39.138198 153.774371 
Q 36.138198 153.774371 36.138198 156.774371 
z
" clip-path="url(#pa4577797c3)" style="fill: #ffffff; stroke: #ffffff; stroke-linejoin: miter"/>
    </g>
    <g clip-path="url(#pa4577797c3)">
     <!-- 432 -->
     <g transform="translate(41.217886 156.774371)rotate(-270)scale(0.1 -0.1)">
      <use xlink:href="#DejaVuSans-34"/>
      <use xlink:href="#DejaVuSans-33" x="63.623047"/>
      <use xlink:href="#DejaVuSans-32" x="127.246094"/>
     </g>
    </g>
   </g>
   <g id="text_19">
    <g id="patch_20">
     <path d="M 163.907386 149.225159 
L 172.019396 166.50312 
Q 173.294368 169.218713 176.009961 167.943741 
L 184.770578 163.830628 
Q 187.486171 162.555656 186.211199 159.840063 
L 178.099189 142.562102 
Q 176.824217 139.846508 174.108624 141.12148 
L 165.348007 145.234594 
Q 162.632414 146.509566 163.907386 149.225159 
z
" clip-path="url(#pa4577797c3)" style="fill: #ffffff; stroke: #ffffff; stroke-linejoin: miter"/>
    </g>
    <g clip-path="url(#pa4577797c3)">
     <!-- 408 -->
     <g transform="translate(168.505508 147.066339)rotate(-295.150074)scale(0.1 -0.1)">
      <use xlink:href="#DejaVuSans-34"/>
      <use xlink:href="#DejaVuSans-30" x="63.623047"/>
      <use xlink:href="#DejaVuSans-38" x="127.246094"/>
     </g>
    </g>
   </g>
   <g id="text_20">
    <g id="patch_21">
     <path d="M 92.586346 225.847379 
L 107.360705 237.932535 
Q 109.682804 239.83197 111.582239 237.50987 
L 117.709896 230.018681 
Q 119.609331 227.696581 117.287232 225.797146 
L 102.512873 213.71199 
Q 100.190774 211.812555 98.291339 214.134655 
L 92.163682 221.625845 
Q 90.264247 223.947944 92.586346 225.847379 
z
" clip-path="url(#pa4577797c3)" style="fill: #ffffff; stroke: #ffffff; stroke-linejoin: miter"/>
    </g>
    <g clip-path="url(#pa4577797c3)">
     <!-- 352 -->
     <g transform="translate(95.802525 221.915533)rotate(-320.71746)scale(0.1 -0.1)">
      <use xlink:href="#DejaVuSans-33"/>
      <use xlink:href="#DejaVuSans-35" x="63.623047"/>
      <use xlink:href="#DejaVuSans-32" x="127.246094"/>
     </g>
    </g>
   </g>
   <g id="PathCollection_1">
    <path d="M 270.208264 168.379678 
C 270.754995 168.379678 271.279406 168.16246 271.666002 167.775863 
C 272.052599 167.389266 272.269817 166.864855 272.269817 166.318125 
C 272.269817 165.771395 272.052599 165.246984 271.666002 164.860387 
C 271.279406 164.47379 270.754995 164.256572 270.208264 164.256572 
C 269.661534 164.256572 269.137123 164.47379 268.750526 164.860387 
C 268.36393 165.246984 268.146712 165.771395 268.146712 166.318125 
C 268.146712 166.864855 268.36393 167.389266 268.750526 167.775863 
C 269.137123 168.16246 269.661534 168.379678 270.208264 168.379678 
z
" clip-path="url(#pa4577797c3)" style="fill: #ffffff; stroke: #000000; stroke-width: 2"/>
    <path d="M 258.422739 120.887722 
C 260.420583 120.887722 262.336869 120.09397 263.749558 118.681281 
C 265.162247 117.268592 265.955999 115.352306 265.955999 113.354462 
C 265.955999 111.356618 265.162247 109.440332 263.749558 108.027643 
C 262.336869 106.614954 260.420583 105.821202 258.422739 105.821202 
C 256.424895 105.821202 254.508609 106.614954 253.09592 108.027643 
C 251.683231 109.440332 250.88948 111.356618 250.88948 113.354462 
C 250.88948 115.352306 251.683231 117.268592 253.09592 118.681281 
C 254.508609 120.09397 256.424895 120.887722 258.422739 120.887722 
z
" clip-path="url(#pa4577797c3)" style="fill: #ffffff; stroke: #000000; stroke-width: 2"/>
    <path d="M 225.400439 72.203779 
C 225.751269 72.203779 226.087778 72.064393 226.335853 71.816318 
C 226.583928 71.568243 226.723314 71.231734 226.723314 70.880903 
C 226.723314 70.530073 226.583928 70.193564 226.335853 69.945489 
C 226.087778 69.697414 225.751269 69.558028 225.400439 69.558028 
C 225.049608 69.558028 224.713099 69.697414 224.465024 69.945489 
C 224.21695 70.193564 224.077563 70.530073 224.077563 70.880903 
C 224.077563 71.231734 224.21695 71.568243 224.465024 71.816318 
C 224.713099 72.064393 225.049608 72.203779 225.400439 72.203779 
z
" clip-path="url(#pa4577797c3)" style="fill: #ffffff; stroke: #000000; stroke-width: 2"/>
    <path d="M 177.681835 49.601148 
C 178.289492 49.601148 178.872342 49.359724 179.30202 48.930046 
C 179.731699 48.500368 179.973123 47.917517 179.973123 47.309861 
C 179.973123 46.702204 179.731699 46.119353 179.30202 45.689675 
C 178.872342 45.259997 178.289492 45.018573 177.681835 45.018573 
C 177.074179 45.018573 176.491328 45.259997 176.06165 45.689675 
C 175.631972 46.119353 175.390547 46.702204 175.390547 47.309861 
C 175.390547 47.917517 175.631972 48.500368 176.06165 48.930046 
C 176.491328 49.359724 177.074179 49.601148 177.681835 49.601148 
z
" clip-path="url(#pa4577797c3)" style="fill: #ffffff; stroke: #000000; stroke-width: 2"/>
    <path d="M 124.718168 54.416196 
C 126.60279 54.416196 128.410477 53.667427 129.743106 52.334798 
C 131.075735 51.002169 131.824503 49.194483 131.824503 47.309861 
C 131.824503 45.425238 131.075735 43.617552 129.743106 42.284923 
C 128.410477 40.952294 126.60279 40.203525 124.718168 40.203525 
C 122.833546 40.203525 121.02586 40.952294 119.69323 42.284923 
C 118.360601 43.617552 117.611833 45.425238 117.611833 47.309861 
C 117.611833 49.194483 118.360601 51.002169 119.69323 52.334798 
C 121.02586 53.667427 122.833546 54.416196 124.718168 54.416196 
z
" clip-path="url(#pa4577797c3)" style="fill: #ffffff; stroke: #000000; stroke-width: 2"/>
    <path d="M 76.999561 75.650599 
C 78.2645 75.650599 79.477799 75.148034 80.372246 74.253588 
C 81.266692 73.359141 81.769257 72.145842 81.769257 70.880903 
C 81.769257 69.615965 81.266692 68.402665 80.372246 67.508219 
C 79.477799 66.613773 78.2645 66.111207 76.999561 66.111207 
C 75.734623 66.111207 74.521323 66.613773 73.626877 67.508219 
C 72.732431 68.402665 72.229865 69.615965 72.229865 70.880903 
C 72.229865 72.145842 72.732431 73.359141 73.626877 74.253588 
C 74.521323 75.148034 75.734623 75.650599 76.999561 75.650599 
z
" clip-path="url(#pa4577797c3)" style="fill: #ffffff; stroke: #000000; stroke-width: 2"/>
    <path d="M 43.977261 117.713354 
C 45.133254 117.713354 46.242057 117.254073 47.059468 116.436662 
C 47.876879 115.619251 48.33616 114.510448 48.33616 113.354455 
C 48.33616 112.198461 47.876879 111.089659 47.059468 110.272248 
C 46.242057 109.454837 45.133254 108.995556 43.977261 108.995556 
C 42.821267 108.995556 41.712465 109.454837 40.895054 110.272248 
C 40.077643 111.089659 39.618362 112.198461 39.618362 113.354455 
C 39.618362 114.510448 40.077643 115.619251 40.895054 116.436662 
C 41.712465 117.254073 42.821267 117.713354 43.977261 117.713354 
z
" clip-path="url(#pa4577797c3)" style="fill: #ffffff; stroke: #000000; stroke-width: 2"/>
    <path d="M 32.191736 173.784728 
C 34.171899 173.784728 36.071227 172.998001 37.471414 171.597814 
C 38.871601 170.197627 39.658328 168.298299 39.658328 166.318136 
C 39.658328 164.337972 38.871601 162.438645 37.471414 161.038458 
C 36.071227 159.638271 34.171899 158.851543 32.191736 158.851543 
C 30.211572 158.851543 28.312244 159.638271 26.912058 161.038458 
C 25.511871 162.438645 24.725143 164.337972 24.725143 166.318136 
C 24.725143 168.298299 25.511871 170.197627 26.912058 171.597814 
C 28.312244 172.998001 30.211572 173.784728 32.191736 173.784728 
z
" clip-path="url(#pa4577797c3)" style="fill: #ffffff; stroke: #000000; stroke-width: 2"/>
    <path d="M 43.977261 228.198065 
C 46.341885 228.198065 48.609979 227.25859 50.282021 225.586548 
C 51.954063 223.914506 52.893538 221.646412 52.893538 219.281788 
C 52.893538 216.917164 51.954063 214.64907 50.282021 212.977028 
C 48.609979 211.304986 46.341885 210.365511 43.977261 210.365511 
C 41.612636 210.365511 39.344543 211.304986 37.672501 212.977028 
C 36.000459 214.64907 35.060984 216.917164 35.060984 219.281788 
C 35.060984 221.646412 36.000459 223.914506 37.672501 225.586548 
C 39.344543 227.25859 41.612636 228.198065 43.977261 228.198065 
z
" clip-path="url(#pa4577797c3)" style="fill: #ffffff; stroke: #000000; stroke-width: 2"/>
    <path d="M 76.999583 265.723988 
C 78.052075 265.723988 79.061601 265.305829 79.805826 264.561604 
C 80.55005 263.81738 80.96821 262.807853 80.96821 261.755361 
C 80.96821 260.702869 80.55005 259.693342 79.805826 258.949118 
C 79.061601 258.204894 78.052075 257.786734 76.999583 257.786734 
C 75.94709 257.786734 74.937564 258.204894 74.19334 258.949118 
C 73.449115 259.693342 73.030956 260.702869 73.030956 261.755361 
C 73.030956 262.807853 73.449115 263.81738 74.19334 264.561604 
C 74.937564 265.305829 75.94709 265.723988 76.999583 265.723988 
z
" clip-path="url(#pa4577797c3)" style="fill: #ffffff; stroke: #000000; stroke-width: 2"/>
    <path d="M 124.718161 295.363819 
C 127.380119 295.363819 129.933408 294.306212 131.815696 292.423924 
C 133.697984 290.541636 134.755591 287.988347 134.755591 285.326389 
C 134.755591 282.664432 133.697984 280.111143 131.815696 278.228855 
C 129.933408 276.346566 127.380119 275.28896 124.718161 275.28896 
C 122.056204 275.28896 119.502915 276.346566 117.620626 278.228855 
C 115.738338 280.111143 114.680731 282.664432 114.680731 285.326389 
C 114.680731 287.988347 115.738338 290.541636 117.620626 292.423924 
C 119.502915 294.306212 122.056204 295.363819 124.718161 295.363819 
z
" clip-path="url(#pa4577797c3)" style="fill: #ffffff; stroke: #000000; stroke-width: 2"/>
    <path d="M 177.681842 290.664929 
C 179.09764 290.664929 180.45564 290.102426 181.45676 289.101307 
C 182.457879 288.100187 183.020382 286.742187 183.020382 285.326389 
C 183.020382 283.910592 182.457879 282.552592 181.45676 281.551472 
C 180.45564 280.550352 179.09764 279.98785 177.681842 279.98785 
C 176.266045 279.98785 174.908045 280.550352 173.906925 281.551472 
C 172.905805 282.552592 172.343303 283.910592 172.343303 285.326389 
C 172.343303 286.742187 172.905805 288.100187 173.906925 289.101307 
C 174.908045 290.102426 176.266045 290.664929 177.681842 290.664929 
z
" clip-path="url(#pa4577797c3)" style="fill: #ffffff; stroke: #000000; stroke-width: 2"/>
    <path d="M 225.400417 267.209717 
C 226.84693 267.209717 228.234391 266.635012 229.25723 265.612173 
C 230.280068 264.589335 230.854773 263.201873 230.854773 261.755361 
C 230.854773 260.308849 230.280068 258.921388 229.25723 257.898549 
C 228.234391 256.87571 226.84693 256.301005 225.400417 256.301005 
C 223.953905 256.301005 222.566444 256.87571 221.543605 257.898549 
C 220.520767 258.921388 219.946061 260.308849 219.946061 261.755361 
C 219.946061 263.201873 220.520767 264.589335 221.543605 265.612173 
C 222.566444 266.635012 223.953905 267.209717 225.400417 267.209717 
z
" clip-path="url(#pa4577797c3)" style="fill: #ffffff; stroke: #000000; stroke-width: 2"/>
    <path d="M 258.422739 221.281788 
C 258.953145 221.281788 259.461899 221.071055 259.836953 220.696002 
C 260.212007 220.320948 260.422739 219.812194 260.422739 219.281788 
C 260.422739 218.751382 260.212007 218.242628 259.836953 217.867574 
C 259.461899 217.492521 258.953145 217.281788 258.422739 217.281788 
C 257.892333 217.281788 257.383579 217.492521 257.008526 217.867574 
C 256.633472 218.242628 256.422739 218.751382 256.422739 219.281788 
C 256.422739 219.812194 256.633472 220.320948 257.008526 220.696002 
C 257.383579 221.071055 257.892333 221.281788 258.422739 221.281788 
z
" clip-path="url(#pa4577797c3)" style="fill: #ffffff; stroke: #000000; stroke-width: 2"/>
   </g>
   <g id="text_21">
    <g clip-path="url(#pa4577797c3)">
     <!-- A.Nesmith -->
     <g transform="translate(253.610819 169.629375)scale(0.12 -0.12)">
      <defs>
       <path id="DejaVuSans-41" d="M 2188 4044 
L 1331 1722 
L 3047 1722 
L 2188 4044 
z
M 1831 4666 
L 2547 4666 
L 4325 0 
L 3669 0 
L 3244 1197 
L 1141 1197 
L 716 0 
L 50 0 
L 1831 4666 
z
" transform="scale(0.015625)"/>
       <path id="DejaVuSans-2e" d="M 684 794 
L 1344 794 
L 1344 0 
L 684 0 
L 684 794 
z
" transform="scale(0.015625)"/>
       <path id="DejaVuSans-4e" d="M 628 4666 
L 1478 4666 
L 3547 763 
L 3547 4666 
L 4159 4666 
L 4159 0 
L 3309 0 
L 1241 3903 
L 1241 0 
L 628 0 
L 628 4666 
z
" transform="scale(0.015625)"/>
       <path id="DejaVuSans-65" d="M 3597 1894 
L 3597 1613 
L 953 1613 
Q 991 1019 1311 708 
Q 1631 397 2203 397 
Q 2534 397 2845 478 
Q 3156 559 3463 722 
L 3463 178 
Q 3153 47 2828 -22 
Q 2503 -91 2169 -91 
Q 1331 -91 842 396 
Q 353 884 353 1716 
Q 353 2575 817 3079 
Q 1281 3584 2069 3584 
Q 2775 3584 3186 3129 
Q 3597 2675 3597 1894 
z
M 3022 2063 
Q 3016 2534 2758 2815 
Q 2500 3097 2075 3097 
Q 1594 3097 1305 2825 
Q 1016 2553 972 2059 
L 3022 2063 
z
" transform="scale(0.015625)"/>
       <path id="DejaVuSans-73" d="M 2834 3397 
L 2834 2853 
Q 2591 2978 2328 3040 
Q 2066 3103 1784 3103 
Q 1356 3103 1142 2972 
Q 928 2841 928 2578 
Q 928 2378 1081 2264 
Q 1234 2150 1697 2047 
L 1894 2003 
Q 2506 1872 2764 1633 
Q 3022 1394 3022 966 
Q 3022 478 2636 193 
Q 2250 -91 1575 -91 
Q 1294 -91 989 -36 
Q 684 19 347 128 
L 347 722 
Q 666 556 975 473 
Q 1284 391 1588 391 
Q 1994 391 2212 530 
Q 2431 669 2431 922 
Q 2431 1156 2273 1281 
Q 2116 1406 1581 1522 
L 1381 1569 
Q 847 1681 609 1914 
Q 372 2147 372 2553 
Q 372 3047 722 3315 
Q 1072 3584 1716 3584 
Q 2034 3584 2315 3537 
Q 2597 3491 2834 3397 
z
" transform="scale(0.015625)"/>
       <path id="DejaVuSans-6d" d="M 3328 2828 
Q 3544 3216 3844 3400 
Q 4144 3584 4550 3584 
Q 5097 3584 5394 3201 
Q 5691 2819 5691 2113 
L 5691 0 
L 5113 0 
L 5113 2094 
Q 5113 2597 4934 2840 
Q 4756 3084 4391 3084 
Q 3944 3084 3684 2787 
Q 3425 2491 3425 1978 
L 3425 0 
L 2847 0 
L 2847 2094 
Q 2847 2600 2669 2842 
Q 2491 3084 2119 3084 
Q 1678 3084 1418 2786 
Q 1159 2488 1159 1978 
L 1159 0 
L 581 0 
L 581 3500 
L 1159 3500 
L 1159 2956 
Q 1356 3278 1631 3431 
Q 1906 3584 2284 3584 
Q 2666 3584 2933 3390 
Q 3200 3197 3328 2828 
z
" transform="scale(0.015625)"/>
       <path id="DejaVuSans-69" d="M 603 3500 
L 1178 3500 
L 1178 0 
L 603 0 
L 603 3500 
z
M 603 4863 
L 1178 4863 
L 1178 4134 
L 603 4134 
L 603 4863 
z
" transform="scale(0.015625)"/>
       <path id="DejaVuSans-74" d="M 1172 4494 
L 1172 3500 
L 2356 3500 
L 2356 3053 
L 1172 3053 
L 1172 1153 
Q 1172 725 1289 603 
Q 1406 481 1766 481 
L 2356 481 
L 2356 0 
L 1766 0 
Q 1100 0 847 248 
Q 594 497 594 1153 
L 594 3053 
L 172 3053 
L 172 3500 
L 594 3500 
L 594 4494 
L 1172 4494 
z
" transform="scale(0.015625)"/>
       <path id="DejaVuSans-68" d="M 3513 2113 
L 3513 0 
L 2938 0 
L 2938 2094 
Q 2938 2591 2744 2837 
Q 2550 3084 2163 3084 
Q 1697 3084 1428 2787 
Q 1159 2491 1159 1978 
L 1159 0 
L 581 0 
L 581 4863 
L 1159 4863 
L 1159 2956 
Q 1366 3272 1645 3428 
Q 1925 3584 2291 3584 
Q 2894 3584 3203 3211 
Q 3513 2838 3513 2113 
z
" transform="scale(0.015625)"/>
      </defs>
      <use xlink:href="#DejaVuSans-41"/>
      <use xlink:href="#DejaVuSans-2e" x="66.658203"/>
      <use xlink:href="#DejaVuSans-4e" x="98.445312"/>
      <use xlink:href="#DejaVuSans-65" x="173.25"/>
      <use xlink:href="#DejaVuSans-73" x="234.773438"/>
      <use xlink:href="#DejaVuSans-6d" x="286.873047"/>
      <use xlink:href="#DejaVuSans-69" x="384.285156"/>
      <use xlink:href="#DejaVuSans-74" x="412.068359"/>
      <use xlink:href="#DejaVuSans-68" x="451.277344"/>
     </g>
    </g>
   </g>
   <g id="text_22">
    <g clip-path="url(#pa4577797c3)">
     <!-- A.Horford -->
     <g transform="translate(242.779155 110.310072)scale(0.12 -0.12)">
      <defs>
       <path id="DejaVuSans-48" d="M 628 4666 
L 1259 4666 
L 1259 2753 
L 3553 2753 
L 3553 4666 
L 4184 4666 
L 4184 0 
L 3553 0 
L 3553 2222 
L 1259 2222 
L 1259 0 
L 628 0 
L 628 4666 
z
" transform="scale(0.015625)"/>
       <path id="DejaVuSans-6f" d="M 1959 3097 
Q 1497 3097 1228 2736 
Q 959 2375 959 1747 
Q 959 1119 1226 758 
Q 1494 397 1959 397 
Q 2419 397 2687 759 
Q 2956 1122 2956 1747 
Q 2956 2369 2687 2733 
Q 2419 3097 1959 3097 
z
M 1959 3584 
Q 2709 3584 3137 3096 
Q 3566 2609 3566 1747 
Q 3566 888 3137 398 
Q 2709 -91 1959 -91 
Q 1206 -91 779 398 
Q 353 888 353 1747 
Q 353 2609 779 3096 
Q 1206 3584 1959 3584 
z
" transform="scale(0.015625)"/>
       <path id="DejaVuSans-72" d="M 2631 2963 
Q 2534 3019 2420 3045 
Q 2306 3072 2169 3072 
Q 1681 3072 1420 2755 
Q 1159 2438 1159 1844 
L 1159 0 
L 581 0 
L 581 3500 
L 1159 3500 
L 1159 2956 
Q 1341 3275 1631 3429 
Q 1922 3584 2338 3584 
Q 2397 3584 2469 3576 
Q 2541 3569 2628 3553 
L 2631 2963 
z
" transform="scale(0.015625)"/>
       <path id="DejaVuSans-66" d="M 2375 4863 
L 2375 4384 
L 1825 4384 
Q 1516 4384 1395 4259 
Q 1275 4134 1275 3809 
L 1275 3500 
L 2222 3500 
L 2222 3053 
L 1275 3053 
L 1275 0 
L 697 0 
L 697 3053 
L 147 3053 
L 147 3500 
L 697 3500 
L 697 3744 
Q 697 4328 969 4595 
Q 1241 4863 1831 4863 
L 2375 4863 
z
" transform="scale(0.015625)"/>
       <path id="DejaVuSans-64" d="M 2906 2969 
L 2906 4863 
L 3481 4863 
L 3481 0 
L 2906 0 
L 2906 525 
Q 2725 213 2448 61 
Q 2172 -91 1784 -91 
Q 1150 -91 751 415 
Q 353 922 353 1747 
Q 353 2572 751 3078 
Q 1150 3584 1784 3584 
Q 2172 3584 2448 3432 
Q 2725 3281 2906 2969 
z
M 947 1747 
Q 947 1113 1208 752 
Q 1469 391 1925 391 
Q 2381 391 2643 752 
Q 2906 1113 2906 1747 
Q 2906 2381 2643 2742 
Q 2381 3103 1925 3103 
Q 1469 3103 1208 2742 
Q 947 2381 947 1747 
z
" transform="scale(0.015625)"/>
      </defs>
      <use xlink:href="#DejaVuSans-41"/>
      <use xlink:href="#DejaVuSans-2e" x="66.658203"/>
      <use xlink:href="#DejaVuSans-48" x="98.445312"/>
      <use xlink:href="#DejaVuSans-6f" x="173.640625"/>
      <use xlink:href="#DejaVuSans-72" x="234.822266"/>
      <use xlink:href="#DejaVuSans-66" x="275.935547"/>
      <use xlink:href="#DejaVuSans-6f" x="311.140625"/>
      <use xlink:href="#DejaVuSans-72" x="372.322266"/>
      <use xlink:href="#DejaVuSans-64" x="411.685547"/>
     </g>
    </g>
   </g>
   <g id="text_23">
    <g clip-path="url(#pa4577797c3)">
     <!-- B.Thomas -->
     <g transform="translate(204.495741 62.739687)scale(0.12 -0.12)">
      <defs>
       <path id="DejaVuSans-42" d="M 1259 2228 
L 1259 519 
L 2272 519 
Q 2781 519 3026 730 
Q 3272 941 3272 1375 
Q 3272 1813 3026 2020 
Q 2781 2228 2272 2228 
L 1259 2228 
z
M 1259 4147 
L 1259 2741 
L 2194 2741 
Q 2656 2741 2882 2914 
Q 3109 3088 3109 3444 
Q 3109 3797 2882 3972 
Q 2656 4147 2194 4147 
L 1259 4147 
z
M 628 4666 
L 2241 4666 
Q 2963 4666 3353 4366 
Q 3744 4066 3744 3513 
Q 3744 3084 3544 2831 
Q 3344 2578 2956 2516 
Q 3422 2416 3680 2098 
Q 3938 1781 3938 1306 
Q 3938 681 3513 340 
Q 3088 0 2303 0 
L 628 0 
L 628 4666 
z
" transform="scale(0.015625)"/>
       <path id="DejaVuSans-54" d="M -19 4666 
L 3928 4666 
L 3928 4134 
L 2272 4134 
L 2272 0 
L 1638 0 
L 1638 4134 
L -19 4134 
L -19 4666 
z
" transform="scale(0.015625)"/>
       <path id="DejaVuSans-61" d="M 2194 1759 
Q 1497 1759 1228 1600 
Q 959 1441 959 1056 
Q 959 750 1161 570 
Q 1363 391 1709 391 
Q 2188 391 2477 730 
Q 2766 1069 2766 1631 
L 2766 1759 
L 2194 1759 
z
M 3341 1997 
L 3341 0 
L 2766 0 
L 2766 531 
Q 2569 213 2275 61 
Q 1981 -91 1556 -91 
Q 1019 -91 701 211 
Q 384 513 384 1019 
Q 384 1609 779 1909 
Q 1175 2209 1959 2209 
L 2766 2209 
L 2766 2266 
Q 2766 2663 2505 2880 
Q 2244 3097 1772 3097 
Q 1472 3097 1187 3025 
Q 903 2953 641 2809 
L 641 3341 
Q 956 3463 1253 3523 
Q 1550 3584 1831 3584 
Q 2591 3584 2966 3190 
Q 3341 2797 3341 1997 
z
" transform="scale(0.015625)"/>
      </defs>
      <use xlink:href="#DejaVuSans-42"/>
      <use xlink:href="#DejaVuSans-2e" x="68.603516"/>
      <use xlink:href="#DejaVuSans-54" x="100.390625"/>
      <use xlink:href="#DejaVuSans-68" x="161.474609"/>
      <use xlink:href="#DejaVuSans-6f" x="224.853516"/>
      <use xlink:href="#DejaVuSans-6d" x="286.035156"/>
      <use xlink:href="#DejaVuSans-61" x="383.447266"/>
      <use xlink:href="#DejaVuSans-73" x="444.726562"/>
     </g>
    </g>
   </g>
   <g id="text_24">
    <g clip-path="url(#pa4577797c3)">
     <!-- D.Theis -->
     <g transform="translate(158.381218 36.340119)scale(0.12 -0.12)">
      <defs>
       <path id="DejaVuSans-44" d="M 1259 4147 
L 1259 519 
L 2022 519 
Q 2988 519 3436 956 
Q 3884 1394 3884 2338 
Q 3884 3275 3436 3711 
Q 2988 4147 2022 4147 
L 1259 4147 
z
M 628 4666 
L 1925 4666 
Q 3281 4666 3915 4102 
Q 4550 3538 4550 2338 
Q 4550 1131 3912 565 
Q 3275 0 1925 0 
L 628 0 
L 628 4666 
z
" transform="scale(0.015625)"/>
      </defs>
      <use xlink:href="#DejaVuSans-44"/>
      <use xlink:href="#DejaVuSans-2e" x="77.001953"/>
      <use xlink:href="#DejaVuSans-54" x="108.789062"/>
      <use xlink:href="#DejaVuSans-68" x="169.873047"/>
      <use xlink:href="#DejaVuSans-65" x="233.251953"/>
      <use xlink:href="#DejaVuSans-69" x="294.775391"/>
      <use xlink:href="#DejaVuSans-73" x="322.558594"/>
     </g>
    </g>
   </g>
   <g id="text_25">
    <g clip-path="url(#pa4577797c3)">
     <!-- D.Schroder -->
     <g transform="translate(88.132536 36.340119)scale(0.12 -0.12)">
      <defs>
       <path id="DejaVuSans-53" d="M 3425 4513 
L 3425 3897 
Q 3066 4069 2747 4153 
Q 2428 4238 2131 4238 
Q 1616 4238 1336 4038 
Q 1056 3838 1056 3469 
Q 1056 3159 1242 3001 
Q 1428 2844 1947 2747 
L 2328 2669 
Q 3034 2534 3370 2195 
Q 3706 1856 3706 1288 
Q 3706 609 3251 259 
Q 2797 -91 1919 -91 
Q 1588 -91 1214 -16 
Q 841 59 441 206 
L 441 856 
Q 825 641 1194 531 
Q 1563 422 1919 422 
Q 2459 422 2753 634 
Q 3047 847 3047 1241 
Q 3047 1584 2836 1778 
Q 2625 1972 2144 2069 
L 1759 2144 
Q 1053 2284 737 2584 
Q 422 2884 422 3419 
Q 422 4038 858 4394 
Q 1294 4750 2059 4750 
Q 2388 4750 2728 4690 
Q 3069 4631 3425 4513 
z
" transform="scale(0.015625)"/>
       <path id="DejaVuSans-63" d="M 3122 3366 
L 3122 2828 
Q 2878 2963 2633 3030 
Q 2388 3097 2138 3097 
Q 1578 3097 1268 2742 
Q 959 2388 959 1747 
Q 959 1106 1268 751 
Q 1578 397 2138 397 
Q 2388 397 2633 464 
Q 2878 531 3122 666 
L 3122 134 
Q 2881 22 2623 -34 
Q 2366 -91 2075 -91 
Q 1284 -91 818 406 
Q 353 903 353 1747 
Q 353 2603 823 3093 
Q 1294 3584 2113 3584 
Q 2378 3584 2631 3529 
Q 2884 3475 3122 3366 
z
" transform="scale(0.015625)"/>
      </defs>
      <use xlink:href="#DejaVuSans-44"/>
      <use xlink:href="#DejaVuSans-2e" x="77.001953"/>
      <use xlink:href="#DejaVuSans-53" x="108.789062"/>
      <use xlink:href="#DejaVuSans-63" x="172.265625"/>
      <use xlink:href="#DejaVuSans-68" x="227.246094"/>
      <use xlink:href="#DejaVuSans-72" x="290.625"/>
      <use xlink:href="#DejaVuSans-6f" x="329.488281"/>
      <use xlink:href="#DejaVuSans-64" x="390.669922"/>
      <use xlink:href="#DejaVuSans-65" x="454.146484"/>
      <use xlink:href="#DejaVuSans-72" x="515.669922"/>
     </g>
    </g>
   </g>
   <g id="text_26">
    <g clip-path="url(#pa4577797c3)">
     <!-- D.White -->
     <g transform="translate(44.122696 62.739687)scale(0.12 -0.12)">
      <defs>
       <path id="DejaVuSans-57" d="M 213 4666 
L 850 4666 
L 1831 722 
L 2809 4666 
L 3519 4666 
L 4500 722 
L 5478 4666 
L 6119 4666 
L 4947 0 
L 4153 0 
L 3169 4050 
L 2175 0 
L 1381 0 
L 213 4666 
z
" transform="scale(0.015625)"/>
      </defs>
      <use xlink:href="#DejaVuSans-44"/>
      <use xlink:href="#DejaVuSans-2e" x="77.001953"/>
      <use xlink:href="#DejaVuSans-57" x="108.789062"/>
      <use xlink:href="#DejaVuSans-68" x="207.666016"/>
      <use xlink:href="#DejaVuSans-69" x="271.044922"/>
      <use xlink:href="#DejaVuSans-74" x="298.828125"/>
      <use xlink:href="#DejaVuSans-65" x="338.037109"/>
     </g>
    </g>
   </g>
   <g id="text_27">
    <g clip-path="url(#pa4577797c3)">
     <!-- G.Williams -->
     <g transform="translate(-0.55728 110.310064)scale(0.12 -0.12)">
      <defs>
       <path id="DejaVuSans-47" d="M 3809 666 
L 3809 1919 
L 2778 1919 
L 2778 2438 
L 4434 2438 
L 4434 434 
Q 4069 175 3628 42 
Q 3188 -91 2688 -91 
Q 1594 -91 976 548 
Q 359 1188 359 2328 
Q 359 3472 976 4111 
Q 1594 4750 2688 4750 
Q 3144 4750 3555 4637 
Q 3966 4525 4313 4306 
L 4313 3634 
Q 3963 3931 3569 4081 
Q 3175 4231 2741 4231 
Q 1884 4231 1454 3753 
Q 1025 3275 1025 2328 
Q 1025 1384 1454 906 
Q 1884 428 2741 428 
Q 3075 428 3337 486 
Q 3600 544 3809 666 
z
" transform="scale(0.015625)"/>
       <path id="DejaVuSans-6c" d="M 603 4863 
L 1178 4863 
L 1178 0 
L 603 0 
L 603 4863 
z
" transform="scale(0.015625)"/>
      </defs>
      <use xlink:href="#DejaVuSans-47"/>
      <use xlink:href="#DejaVuSans-2e" x="77.490234"/>
      <use xlink:href="#DejaVuSans-57" x="109.277344"/>
      <use xlink:href="#DejaVuSans-69" x="205.904297"/>
      <use xlink:href="#DejaVuSans-6c" x="233.6875"/>
      <use xlink:href="#DejaVuSans-6c" x="261.470703"/>
      <use xlink:href="#DejaVuSans-69" x="289.253906"/>
      <use xlink:href="#DejaVuSans-61" x="317.037109"/>
      <use xlink:href="#DejaVuSans-6d" x="378.316406"/>
      <use xlink:href="#DejaVuSans-73" x="475.728516"/>
     </g>
    </g>
   </g>
   <g id="text_28">
    <g clip-path="url(#pa4577797c3)">
     <!-- J.Brown -->
     <g transform="translate(-4.594881 169.629387)scale(0.12 -0.12)">
      <defs>
       <path id="DejaVuSans-4a" d="M 628 4666 
L 1259 4666 
L 1259 325 
Q 1259 -519 939 -900 
Q 619 -1281 -91 -1281 
L -331 -1281 
L -331 -750 
L -134 -750 
Q 284 -750 456 -515 
Q 628 -281 628 325 
L 628 4666 
z
" transform="scale(0.015625)"/>
       <path id="DejaVuSans-77" d="M 269 3500 
L 844 3500 
L 1563 769 
L 2278 3500 
L 2956 3500 
L 3675 769 
L 4391 3500 
L 4966 3500 
L 4050 0 
L 3372 0 
L 2619 2869 
L 1863 0 
L 1184 0 
L 269 3500 
z
" transform="scale(0.015625)"/>
       <path id="DejaVuSans-6e" d="M 3513 2113 
L 3513 0 
L 2938 0 
L 2938 2094 
Q 2938 2591 2744 2837 
Q 2550 3084 2163 3084 
Q 1697 3084 1428 2787 
Q 1159 2491 1159 1978 
L 1159 0 
L 581 0 
L 581 3500 
L 1159 3500 
L 1159 2956 
Q 1366 3272 1645 3428 
Q 1925 3584 2291 3584 
Q 2894 3584 3203 3211 
Q 3513 2838 3513 2113 
z
" transform="scale(0.015625)"/>
      </defs>
      <use xlink:href="#DejaVuSans-4a"/>
      <use xlink:href="#DejaVuSans-2e" x="29.492188"/>
      <use xlink:href="#DejaVuSans-42" x="61.279297"/>
      <use xlink:href="#DejaVuSans-72" x="129.882812"/>
      <use xlink:href="#DejaVuSans-6f" x="168.746094"/>
      <use xlink:href="#DejaVuSans-77" x="229.927734"/>
      <use xlink:href="#DejaVuSans-6e" x="311.714844"/>
     </g>
    </g>
   </g>
   <g id="text_29">
    <g clip-path="url(#pa4577797c3)">
     <!-- J.Tatum -->
     <g transform="translate(9.083032 228.948677)scale(0.12 -0.12)">
      <defs>
       <path id="DejaVuSans-75" d="M 544 1381 
L 544 3500 
L 1119 3500 
L 1119 1403 
Q 1119 906 1312 657 
Q 1506 409 1894 409 
Q 2359 409 2629 706 
Q 2900 1003 2900 1516 
L 2900 3500 
L 3475 3500 
L 3475 0 
L 2900 0 
L 2900 538 
Q 2691 219 2414 64 
Q 2138 -91 1772 -91 
Q 1169 -91 856 284 
Q 544 659 544 1381 
z
M 1991 3584 
L 1991 3584 
z
" transform="scale(0.015625)"/>
      </defs>
      <use xlink:href="#DejaVuSans-4a"/>
      <use xlink:href="#DejaVuSans-2e" x="29.492188"/>
      <use xlink:href="#DejaVuSans-54" x="61.279297"/>
      <use xlink:href="#DejaVuSans-61" x="105.863281"/>
      <use xlink:href="#DejaVuSans-74" x="167.142578"/>
      <use xlink:href="#DejaVuSans-75" x="206.351562"/>
      <use xlink:href="#DejaVuSans-6d" x="269.730469"/>
     </g>
    </g>
   </g>
   <g id="text_30">
    <g clip-path="url(#pa4577797c3)">
     <!-- J.Richardson -->
     <g transform="translate(31.034282 276.519079)scale(0.12 -0.12)">
      <defs>
       <path id="DejaVuSans-52" d="M 2841 2188 
Q 3044 2119 3236 1894 
Q 3428 1669 3622 1275 
L 4263 0 
L 3584 0 
L 2988 1197 
Q 2756 1666 2539 1819 
Q 2322 1972 1947 1972 
L 1259 1972 
L 1259 0 
L 628 0 
L 628 4666 
L 2053 4666 
Q 2853 4666 3247 4331 
Q 3641 3997 3641 3322 
Q 3641 2881 3436 2590 
Q 3231 2300 2841 2188 
z
M 1259 4147 
L 1259 2491 
L 2053 2491 
Q 2509 2491 2742 2702 
Q 2975 2913 2975 3322 
Q 2975 3731 2742 3939 
Q 2509 4147 2053 4147 
L 1259 4147 
z
" transform="scale(0.015625)"/>
      </defs>
      <use xlink:href="#DejaVuSans-4a"/>
      <use xlink:href="#DejaVuSans-2e" x="29.492188"/>
      <use xlink:href="#DejaVuSans-52" x="61.279297"/>
      <use xlink:href="#DejaVuSans-69" x="130.761719"/>
      <use xlink:href="#DejaVuSans-63" x="158.544922"/>
      <use xlink:href="#DejaVuSans-68" x="213.525391"/>
      <use xlink:href="#DejaVuSans-61" x="276.904297"/>
      <use xlink:href="#DejaVuSans-72" x="338.183594"/>
      <use xlink:href="#DejaVuSans-64" x="377.546875"/>
      <use xlink:href="#DejaVuSans-73" x="441.023438"/>
      <use xlink:href="#DejaVuSans-6f" x="493.123047"/>
      <use xlink:href="#DejaVuSans-6e" x="554.304688"/>
     </g>
    </g>
   </g>
   <g id="text_31">
    <g clip-path="url(#pa4577797c3)">
     <!-- M.Smart -->
     <g transform="translate(96.307528 302.918631)scale(0.12 -0.12)">
      <defs>
       <path id="DejaVuSans-4d" d="M 628 4666 
L 1569 4666 
L 2759 1491 
L 3956 4666 
L 4897 4666 
L 4897 0 
L 4281 0 
L 4281 4097 
L 3078 897 
L 2444 897 
L 1241 4097 
L 1241 0 
L 628 0 
L 628 4666 
z
" transform="scale(0.015625)"/>
      </defs>
      <use xlink:href="#DejaVuSans-4d"/>
      <use xlink:href="#DejaVuSans-2e" x="86.279297"/>
      <use xlink:href="#DejaVuSans-53" x="118.066406"/>
      <use xlink:href="#DejaVuSans-6d" x="181.542969"/>
      <use xlink:href="#DejaVuSans-61" x="278.955078"/>
      <use xlink:href="#DejaVuSans-72" x="340.234375"/>
      <use xlink:href="#DejaVuSans-74" x="381.347656"/>
     </g>
    </g>
   </g>
   <g id="text_32">
    <g clip-path="url(#pa4577797c3)">
     <!-- P.Pritchard -->
     <g transform="translate(149.324976 302.918631)scale(0.12 -0.12)">
      <defs>
       <path id="DejaVuSans-50" d="M 1259 4147 
L 1259 2394 
L 2053 2394 
Q 2494 2394 2734 2622 
Q 2975 2850 2975 3272 
Q 2975 3691 2734 3919 
Q 2494 4147 2053 4147 
L 1259 4147 
z
M 628 4666 
L 2053 4666 
Q 2838 4666 3239 4311 
Q 3641 3956 3641 3272 
Q 3641 2581 3239 2228 
Q 2838 1875 2053 1875 
L 1259 1875 
L 1259 0 
L 628 0 
L 628 4666 
z
" transform="scale(0.015625)"/>
      </defs>
      <use xlink:href="#DejaVuSans-50"/>
      <use xlink:href="#DejaVuSans-2e" x="44.677734"/>
      <use xlink:href="#DejaVuSans-50" x="76.464844"/>
      <use xlink:href="#DejaVuSans-72" x="135.017578"/>
      <use xlink:href="#DejaVuSans-69" x="176.130859"/>
      <use xlink:href="#DejaVuSans-74" x="203.914062"/>
      <use xlink:href="#DejaVuSans-63" x="243.123047"/>
      <use xlink:href="#DejaVuSans-68" x="298.103516"/>
      <use xlink:href="#DejaVuSans-61" x="361.482422"/>
      <use xlink:href="#DejaVuSans-72" x="422.761719"/>
      <use xlink:href="#DejaVuSans-64" x="462.125"/>
     </g>
    </g>
   </g>
   <g id="text_33">
    <g clip-path="url(#pa4577797c3)">
     <!-- R.Williams III -->
     <g transform="translate(196.11728 276.519079)scale(0.12 -0.12)">
      <defs>
       <path id="DejaVuSans-20" transform="scale(0.015625)"/>
       <path id="DejaVuSans-49" d="M 628 4666 
L 1259 4666 
L 1259 0 
L 628 0 
L 628 4666 
z
" transform="scale(0.015625)"/>
      </defs>
      <use xlink:href="#DejaVuSans-52"/>
      <use xlink:href="#DejaVuSans-2e" x="65.857422"/>
      <use xlink:href="#DejaVuSans-57" x="97.644531"/>
      <use xlink:href="#DejaVuSans-69" x="194.271484"/>
      <use xlink:href="#DejaVuSans-6c" x="222.054688"/>
      <use xlink:href="#DejaVuSans-6c" x="249.837891"/>
      <use xlink:href="#DejaVuSans-69" x="277.621094"/>
      <use xlink:href="#DejaVuSans-61" x="305.404297"/>
      <use xlink:href="#DejaVuSans-6d" x="366.683594"/>
      <use xlink:href="#DejaVuSans-73" x="464.095703"/>
      <use xlink:href="#DejaVuSans-20" x="516.195312"/>
      <use xlink:href="#DejaVuSans-49" x="547.982422"/>
      <use xlink:href="#DejaVuSans-49" x="577.474609"/>
      <use xlink:href="#DejaVuSans-49" x="606.966797"/>
     </g>
    </g>
   </g>
   <g id="text_34">
    <g clip-path="url(#pa4577797c3)">
     <!-- R.Langford -->
     <g transform="translate(238.845405 228.948677)scale(0.12 -0.12)">
      <defs>
       <path id="DejaVuSans-4c" d="M 628 4666 
L 1259 4666 
L 1259 531 
L 3531 531 
L 3531 0 
L 628 0 
L 628 4666 
z
" transform="scale(0.015625)"/>
       <path id="DejaVuSans-67" d="M 2906 1791 
Q 2906 2416 2648 2759 
Q 2391 3103 1925 3103 
Q 1463 3103 1205 2759 
Q 947 2416 947 1791 
Q 947 1169 1205 825 
Q 1463 481 1925 481 
Q 2391 481 2648 825 
Q 2906 1169 2906 1791 
z
M 3481 434 
Q 3481 -459 3084 -895 
Q 2688 -1331 1869 -1331 
Q 1566 -1331 1297 -1286 
Q 1028 -1241 775 -1147 
L 775 -588 
Q 1028 -725 1275 -790 
Q 1522 -856 1778 -856 
Q 2344 -856 2625 -561 
Q 2906 -266 2906 331 
L 2906 616 
Q 2728 306 2450 153 
Q 2172 0 1784 0 
Q 1141 0 747 490 
Q 353 981 353 1791 
Q 353 2603 747 3093 
Q 1141 3584 1784 3584 
Q 2172 3584 2450 3431 
Q 2728 3278 2906 2969 
L 2906 3500 
L 3481 3500 
L 3481 434 
z
" transform="scale(0.015625)"/>
      </defs>
      <use xlink:href="#DejaVuSans-52"/>
      <use xlink:href="#DejaVuSans-2e" x="65.857422"/>
      <use xlink:href="#DejaVuSans-4c" x="97.644531"/>
      <use xlink:href="#DejaVuSans-61" x="153.357422"/>
      <use xlink:href="#DejaVuSans-6e" x="214.636719"/>
      <use xlink:href="#DejaVuSans-67" x="278.015625"/>
      <use xlink:href="#DejaVuSans-66" x="341.492188"/>
      <use xlink:href="#DejaVuSans-6f" x="376.697266"/>
      <use xlink:href="#DejaVuSans-72" x="437.878906"/>
      <use xlink:href="#DejaVuSans-64" x="477.242188"/>
     </g>
    </g>
   </g>
   <g id="text_35">
    <!-- 2021-22 Boston Celtics Passing Network -->
    <g transform="translate(30.165 16.318125)scale(0.12 -0.12)">
     <defs>
      <path id="DejaVuSans-2d" d="M 313 2009 
L 1997 2009 
L 1997 1497 
L 313 1497 
L 313 2009 
z
" transform="scale(0.015625)"/>
      <path id="DejaVuSans-43" d="M 4122 4306 
L 4122 3641 
Q 3803 3938 3442 4084 
Q 3081 4231 2675 4231 
Q 1875 4231 1450 3742 
Q 1025 3253 1025 2328 
Q 1025 1406 1450 917 
Q 1875 428 2675 428 
Q 3081 428 3442 575 
Q 3803 722 4122 1019 
L 4122 359 
Q 3791 134 3420 21 
Q 3050 -91 2638 -91 
Q 1578 -91 968 557 
Q 359 1206 359 2328 
Q 359 3453 968 4101 
Q 1578 4750 2638 4750 
Q 3056 4750 3426 4639 
Q 3797 4528 4122 4306 
z
" transform="scale(0.015625)"/>
      <path id="DejaVuSans-6b" d="M 581 4863 
L 1159 4863 
L 1159 1991 
L 2875 3500 
L 3609 3500 
L 1753 1863 
L 3688 0 
L 2938 0 
L 1159 1709 
L 1159 0 
L 581 0 
L 581 4863 
z
" transform="scale(0.015625)"/>
     </defs>
     <use xlink:href="#DejaVuSans-32"/>
     <use xlink:href="#DejaVuSans-30" x="63.623047"/>
     <use xlink:href="#DejaVuSans-32" x="127.246094"/>
     <use xlink:href="#DejaVuSans-31" x="190.869141"/>
     <use xlink:href="#DejaVuSans-2d" x="254.492188"/>
     <use xlink:href="#DejaVuSans-32" x="290.576172"/>
     <use xlink:href="#DejaVuSans-32" x="354.199219"/>
     <use xlink:href="#DejaVuSans-20" x="417.822266"/>
     <use xlink:href="#DejaVuSans-42" x="449.609375"/>
     <use xlink:href="#DejaVuSans-6f" x="518.212891"/>
     <use xlink:href="#DejaVuSans-73" x="579.394531"/>
     <use xlink:href="#DejaVuSans-74" x="631.494141"/>
     <use xlink:href="#DejaVuSans-6f" x="670.703125"/>
     <use xlink:href="#DejaVuSans-6e" x="731.884766"/>
     <use xlink:href="#DejaVuSans-20" x="795.263672"/>
     <use xlink:href="#DejaVuSans-43" x="827.050781"/>
     <use xlink:href="#DejaVuSans-65" x="896.875"/>
     <use xlink:href="#DejaVuSans-6c" x="958.398438"/>
     <use xlink:href="#DejaVuSans-74" x="986.181641"/>
     <use xlink:href="#DejaVuSans-69" x="1025.390625"/>
     <use xlink:href="#DejaVuSans-63" x="1053.173828"/>
     <use xlink:href="#DejaVuSans-73" x="1108.154297"/>
     <use xlink:href="#DejaVuSans-20" x="1160.253906"/>
     <use xlink:href="#DejaVuSans-50" x="1192.041016"/>
     <use xlink:href="#DejaVuSans-61" x="1247.84375"/>
     <use xlink:href="#DejaVuSans-73" x="1309.123047"/>
     <use xlink:href="#DejaVuSans-73" x="1361.222656"/>
     <use xlink:href="#DejaVuSans-69" x="1413.322266"/>
     <use xlink:href="#DejaVuSans-6e" x="1441.105469"/>
     <use xlink:href="#DejaVuSans-67" x="1504.484375"/>
     <use xlink:href="#DejaVuSans-20" x="1567.960938"/>
     <use xlink:href="#DejaVuSans-4e" x="1599.748047"/>
     <use xlink:href="#DejaVuSans-65" x="1674.552734"/>
     <use xlink:href="#DejaVuSans-74" x="1736.076172"/>
     <use xlink:href="#DejaVuSans-77" x="1775.285156"/>
     <use xlink:href="#DejaVuSans-6f" x="1857.072266"/>
     <use xlink:href="#DejaVuSans-72" x="1918.253906"/>
     <use xlink:href="#DejaVuSans-6b" x="1959.367188"/>
    </g>
   </g>
  </g>
 </g>
 <defs>
  <clipPath id="pa4577797c3">
   <rect x="7.2" y="22.318125" width="288" height="288"/>
  </clipPath>
 </defs>
</svg>
