<?xml version="1.0" encoding="utf-8" standalone="no"?>
<!DOCTYPE svg PUBLIC "-//W3C//DTD SVG 1.1//EN"
  "http://www.w3.org/Graphics/SVG/1.1/DTD/svg11.dtd">
<svg xmlns:xlink="http://www.w3.org/1999/xlink" width="302.4pt" height="317.518125pt" viewBox="0 0 302.4 317.518125" xmlns="http://www.w3.org/2000/svg" version="1.1">
 <metadata>
  <rdf:RDF xmlns:dc="http://purl.org/dc/elements/1.1/" xmlns:cc="http://creativecommons.org/ns#" xmlns:rdf="http://www.w3.org/1999/02/22-rdf-syntax-ns#">
   <cc:Work>
    <dc:type rdf:resource="http://purl.org/dc/dcmitype/StillImage"/>
    <dc:date>2024-06-21T18:57:36.364833</dc:date>
    <dc:format>image/svg+xml</dc:format>
    <dc:creator>
     <cc:Agent>
      <dc:title>Matplotlib v3.5.2, https://matplotlib.org/</dc:title>
     </cc:Agent>
    </dc:creator>
   </cc:Work>
  </rdf:RDF>
 </metadata>
 <defs>
  <style type="text/css">*{stroke-linejoin: round; stroke-linecap: butt}</style>
 </defs>
 <g id="figure_1">
  <g id="patch_1">
   <path d="M 0 317.518125 
L 302.4 317.518125 
L 302.4 0 
L 0 0 
z
" style="fill: #ffffff"/>
  </g>
  <g id="axes_1">
   <g id="LineCollection_1">
    <path d="M 270.208264 166.318121 
L 263.031187 124.986987 
" clip-path="url(#p502ef5577d)" style="fill: none; stroke: #f7f7f7; stroke-width: 0.195"/>
    <path d="M 270.208264 166.318121 
L 242.365619 88.640998 
" clip-path="url(#p502ef5577d)" style="fill: none; stroke: #fefefe; stroke-width: 0.05"/>
    <path d="M 270.208264 166.318121 
L 210.704129 61.664005 
" clip-path="url(#p502ef5577d)" style="fill: none; stroke: #fcfcfc; stroke-width: 0.085"/>
    <path d="M 270.208264 166.318121 
L 171.865574 47.309861 
" clip-path="url(#p502ef5577d)" style="fill: none; stroke: #f7f7f7; stroke-width: 0.205"/>
    <path d="M 270.208264 166.318121 
L 130.53443 47.309861 
" clip-path="url(#p502ef5577d)" style="fill: none; stroke: #fdfdfd; stroke-width: 0.055"/>
    <path d="M 270.208264 166.318121 
L 91.695861 61.664013 
" clip-path="url(#p502ef5577d)" style="fill: none; stroke: #f6f6f6; stroke-width: 0.22"/>
    <path d="M 270.208264 166.318121 
L 60.034381 88.640991 
" clip-path="url(#p502ef5577d)" style="fill: none; stroke: #e0e0e0; stroke-width: 0.695"/>
    <path d="M 270.208264 166.318121 
L 39.368813 124.986977 
" clip-path="url(#p502ef5577d)" style="fill: none; stroke: #f9f9f9; stroke-width: 0.15"/>
    <path d="M 270.208264 166.318121 
L 32.191736 166.318132 
" clip-path="url(#p502ef5577d)" style="fill: none; stroke: #ebebeb; stroke-width: 0.46"/>
    <path d="M 270.208264 166.318121 
L 39.368813 207.649259 
" clip-path="url(#p502ef5577d)" style="fill: none; stroke: #fcfcfc; stroke-width: 0.085"/>
    <path d="M 270.208264 166.318121 
L 60.034374 243.995245 
" clip-path="url(#p502ef5577d)" style="fill: none; stroke: #ececec; stroke-width: 0.445"/>
    <path d="M 270.208264 166.318121 
L 91.695878 270.972237 
" clip-path="url(#p502ef5577d)" style="fill: none; stroke: #d8d8d8; stroke-width: 0.88"/>
    <path d="M 270.208264 166.318121 
L 130.534437 285.326389 
" clip-path="url(#p502ef5577d)" style="fill: none; stroke: #f8f8f8; stroke-width: 0.165"/>
    <path d="M 270.208264 166.318121 
L 171.865567 285.326382 
" clip-path="url(#p502ef5577d)" style="fill: none; stroke: #fdfdfd; stroke-width: 0.06"/>
    <path d="M 270.208264 166.318121 
L 210.704122 270.972237 
" clip-path="url(#p502ef5577d)" style="fill: none; stroke: #fbfbfb; stroke-width: 0.1"/>
    <path d="M 270.208264 166.318121 
L 242.365605 243.995266 
" clip-path="url(#p502ef5577d)" style="fill: none; stroke: #e6e6e6; stroke-width: 0.565"/>
    <path d="M 270.208264 166.318121 
L 263.03118 207.649284 
" clip-path="url(#p502ef5577d)" style="fill: none; stroke: #fafafa; stroke-width: 0.13"/>
    <path d="M 263.031187 124.986987 
L 242.365619 88.640998 
" clip-path="url(#p502ef5577d)" style="fill: none; stroke: #fdfdfd; stroke-width: 0.065"/>
    <path d="M 263.031187 124.986987 
L 210.704129 61.664005 
" clip-path="url(#p502ef5577d)" style="fill: none; stroke: #ffffff; stroke-width: 0.02"/>
    <path d="M 263.031187 124.986987 
L 171.865574 47.309861 
" clip-path="url(#p502ef5577d)" style="fill: none; stroke: #fafafa; stroke-width: 0.13"/>
    <path d="M 263.031187 124.986987 
L 130.53443 47.309861 
" clip-path="url(#p502ef5577d)" style="fill: none; stroke: #fcfcfc; stroke-width: 0.09"/>
    <path d="M 263.031187 124.986987 
L 91.695861 61.664013 
" clip-path="url(#p502ef5577d)" style="fill: none; stroke: #fdfdfd; stroke-width: 0.06"/>
    <path d="M 263.031187 124.986987 
L 60.034381 88.640991 
" clip-path="url(#p502ef5577d)" style="fill: none; stroke: #f7f7f7; stroke-width: 0.195"/>
    <path d="M 263.031187 124.986987 
L 39.368813 124.986977 
" clip-path="url(#p502ef5577d)" style="fill: none; stroke: #fbfbfb; stroke-width: 0.11"/>
    <path d="M 263.031187 124.986987 
L 32.191736 166.318132 
" clip-path="url(#p502ef5577d)" style="fill: none; stroke: #f5f5f5; stroke-width: 0.23"/>
    <path d="M 263.031187 124.986987 
L 39.368813 207.649259 
" clip-path="url(#p502ef5577d)" style="fill: none; stroke: #fefefe; stroke-width: 0.035"/>
    <path d="M 263.031187 124.986987 
L 60.034374 243.995245 
" clip-path="url(#p502ef5577d)" style="fill: none; stroke: #fbfbfb; stroke-width: 0.115"/>
    <path d="M 263.031187 124.986987 
L 91.695878 270.972237 
" clip-path="url(#p502ef5577d)" style="fill: none; stroke: #efefef; stroke-width: 0.37"/>
    <path d="M 263.031187 124.986987 
L 130.534437 285.326389 
" clip-path="url(#p502ef5577d)" style="fill: none; stroke: #fcfcfc; stroke-width: 0.085"/>
    <path d="M 263.031187 124.986987 
L 171.865567 285.326382 
" clip-path="url(#p502ef5577d)" style="fill: none; stroke: #ffffff; stroke-width: 0.03"/>
    <path d="M 263.031187 124.986987 
L 210.704122 270.972237 
" clip-path="url(#p502ef5577d)" style="fill: none; stroke: #fdfdfd; stroke-width: 0.065"/>
    <path d="M 263.031187 124.986987 
L 242.365605 243.995266 
" clip-path="url(#p502ef5577d)" style="fill: none; stroke: #ededed; stroke-width: 0.405"/>
    <path d="M 263.031187 124.986987 
L 263.03118 207.649284 
" clip-path="url(#p502ef5577d)" style="fill: none; stroke: #fdfdfd; stroke-width: 0.065"/>
    <path d="M 242.365619 88.640998 
L 171.865574 47.309861 
" clip-path="url(#p502ef5577d)" style="fill: none; stroke: #fafafa; stroke-width: 0.13"/>
    <path d="M 242.365619 88.640998 
L 91.695861 61.664013 
" clip-path="url(#p502ef5577d)" style="fill: none; stroke: #b5b5b5; stroke-width: 1.635"/>
    <path d="M 242.365619 88.640998 
L 60.034381 88.640991 
" clip-path="url(#p502ef5577d)" style="fill: none; stroke: #a3a3a3; stroke-width: 2.035"/>
    <path d="M 242.365619 88.640998 
L 39.368813 124.986977 
" clip-path="url(#p502ef5577d)" style="fill: none; stroke: #dcdcdc; stroke-width: 0.78"/>
    <path d="M 242.365619 88.640998 
L 32.191736 166.318132 
" clip-path="url(#p502ef5577d)" style="fill: none; stroke: #878787; stroke-width: 2.645"/>
    <path d="M 242.365619 88.640998 
L 60.034374 243.995245 
" clip-path="url(#p502ef5577d)" style="fill: none; stroke: #adadad; stroke-width: 1.81"/>
    <path d="M 242.365619 88.640998 
L 91.695878 270.972237 
" clip-path="url(#p502ef5577d)" style="fill: none; stroke: #d9d9d9; stroke-width: 0.85"/>
    <path d="M 242.365619 88.640998 
L 130.534437 285.326389 
" clip-path="url(#p502ef5577d)" style="fill: none; stroke: #fdfdfd; stroke-width: 0.055"/>
    <path d="M 242.365619 88.640998 
L 210.704122 270.972237 
" clip-path="url(#p502ef5577d)" style="fill: none; stroke: #f4f4f4; stroke-width: 0.265"/>
    <path d="M 242.365619 88.640998 
L 242.365605 243.995266 
" clip-path="url(#p502ef5577d)" style="fill: none; stroke: #fefefe; stroke-width: 0.045"/>
    <path d="M 242.365619 88.640998 
L 263.03118 207.649284 
" clip-path="url(#p502ef5577d)" style="fill: none; stroke: #f5f5f5; stroke-width: 0.25"/>
    <path d="M 210.704129 61.664005 
L 171.865574 47.309861 
" clip-path="url(#p502ef5577d)" style="fill: none; stroke: #f6f6f6; stroke-width: 0.215"/>
    <path d="M 210.704129 61.664005 
L 91.695861 61.664013 
" clip-path="url(#p502ef5577d)" style="fill: none; stroke: #f7f7f7; stroke-width: 0.195"/>
    <path d="M 210.704129 61.664005 
L 60.034381 88.640991 
" clip-path="url(#p502ef5577d)" style="fill: none; stroke: #e0e0e0; stroke-width: 0.7"/>
    <path d="M 210.704129 61.664005 
L 32.191736 166.318132 
" clip-path="url(#p502ef5577d)" style="fill: none; stroke: #dfdfdf; stroke-width: 0.725"/>
    <path d="M 210.704129 61.664005 
L 39.368813 207.649259 
" clip-path="url(#p502ef5577d)" style="fill: none; stroke: #f2f2f2; stroke-width: 0.3"/>
    <path d="M 210.704129 61.664005 
L 60.034374 243.995245 
" clip-path="url(#p502ef5577d)" style="fill: none; stroke: #dddddd; stroke-width: 0.765"/>
    <path d="M 210.704129 61.664005 
L 91.695878 270.972237 
" clip-path="url(#p502ef5577d)" style="fill: none; stroke: #e6e6e6; stroke-width: 0.58"/>
    <path d="M 210.704129 61.664005 
L 130.534437 285.326389 
" clip-path="url(#p502ef5577d)" style="fill: none; stroke: #f5f5f5; stroke-width: 0.23"/>
    <path d="M 210.704129 61.664005 
L 171.865567 285.326382 
" clip-path="url(#p502ef5577d)" style="fill: none; stroke: #fdfdfd; stroke-width: 0.065"/>
    <path d="M 210.704129 61.664005 
L 210.704122 270.972237 
" clip-path="url(#p502ef5577d)" style="fill: none; stroke: #fefefe; stroke-width: 0.04"/>
    <path d="M 210.704129 61.664005 
L 242.365605 243.995266 
" clip-path="url(#p502ef5577d)" style="fill: none; stroke: #f9f9f9; stroke-width: 0.16"/>
    <path d="M 210.704129 61.664005 
L 263.03118 207.649284 
" clip-path="url(#p502ef5577d)" style="fill: none; stroke: #f4f4f4; stroke-width: 0.255"/>
    <path d="M 171.865574 47.309861 
L 130.53443 47.309861 
" clip-path="url(#p502ef5577d)" style="fill: none; stroke: #fdfdfd; stroke-width: 0.06"/>
    <path d="M 171.865574 47.309861 
L 91.695861 61.664013 
" clip-path="url(#p502ef5577d)" style="fill: none; stroke: #dbdbdb; stroke-width: 0.81"/>
    <path d="M 171.865574 47.309861 
L 60.034381 88.640991 
" clip-path="url(#p502ef5577d)" style="fill: none; stroke: #b0b0b0; stroke-width: 1.75"/>
    <path d="M 171.865574 47.309861 
L 39.368813 124.986977 
" clip-path="url(#p502ef5577d)" style="fill: none; stroke: #d9d9d9; stroke-width: 0.865"/>
    <path d="M 171.865574 47.309861 
L 32.191736 166.318132 
" clip-path="url(#p502ef5577d)" style="fill: none; stroke: #c1c1c1; stroke-width: 1.37"/>
    <path d="M 171.865574 47.309861 
L 39.368813 207.649259 
" clip-path="url(#p502ef5577d)" style="fill: none; stroke: #f9f9f9; stroke-width: 0.15"/>
    <path d="M 171.865574 47.309861 
L 60.034374 243.995245 
" clip-path="url(#p502ef5577d)" style="fill: none; stroke: #c5c5c5; stroke-width: 1.3"/>
    <path d="M 171.865574 47.309861 
L 91.695878 270.972237 
" clip-path="url(#p502ef5577d)" style="fill: none; stroke: #a4a4a4; stroke-width: 2.015"/>
    <path d="M 171.865574 47.309861 
L 130.534437 285.326389 
" clip-path="url(#p502ef5577d)" style="fill: none; stroke: #efefef; stroke-width: 0.365"/>
    <path d="M 171.865574 47.309861 
L 171.865567 285.326382 
" clip-path="url(#p502ef5577d)" style="fill: none; stroke: #fafafa; stroke-width: 0.13"/>
    <path d="M 171.865574 47.309861 
L 210.704122 270.972237 
" clip-path="url(#p502ef5577d)" style="fill: none; stroke: #fcfcfc; stroke-width: 0.095"/>
    <path d="M 171.865574 47.309861 
L 242.365605 243.995266 
" clip-path="url(#p502ef5577d)" style="fill: none; stroke: #f0f0f0; stroke-width: 0.36"/>
    <path d="M 171.865574 47.309861 
L 263.03118 207.649284 
" clip-path="url(#p502ef5577d)" style="fill: none; stroke: #f3f3f3; stroke-width: 0.295"/>
    <path d="M 130.53443 47.309861 
L 91.695861 61.664013 
" clip-path="url(#p502ef5577d)" style="fill: none; stroke: #f5f5f5; stroke-width: 0.25"/>
    <path d="M 130.53443 47.309861 
L 60.034381 88.640991 
" clip-path="url(#p502ef5577d)" style="fill: none; stroke: #ebebeb; stroke-width: 0.45"/>
    <path d="M 130.53443 47.309861 
L 39.368813 124.986977 
" clip-path="url(#p502ef5577d)" style="fill: none; stroke: #ededed; stroke-width: 0.41"/>
    <path d="M 130.53443 47.309861 
L 32.191736 166.318132 
" clip-path="url(#p502ef5577d)" style="fill: none; stroke: #f1f1f1; stroke-width: 0.33"/>
    <path d="M 130.53443 47.309861 
L 60.034374 243.995245 
" clip-path="url(#p502ef5577d)" style="fill: none; stroke: #f5f5f5; stroke-width: 0.24"/>
    <path d="M 130.53443 47.309861 
L 91.695878 270.972237 
" clip-path="url(#p502ef5577d)" style="fill: none; stroke: #ebebeb; stroke-width: 0.47"/>
    <path d="M 130.53443 47.309861 
L 130.534437 285.326389 
" clip-path="url(#p502ef5577d)" style="fill: none; stroke: #f9f9f9; stroke-width: 0.145"/>
    <path d="M 130.53443 47.309861 
L 210.704122 270.972237 
" clip-path="url(#p502ef5577d)" style="fill: none; stroke: #f8f8f8; stroke-width: 0.175"/>
    <path d="M 130.53443 47.309861 
L 242.365605 243.995266 
" clip-path="url(#p502ef5577d)" style="fill: none; stroke: #f8f8f8; stroke-width: 0.165"/>
    <path d="M 130.53443 47.309861 
L 263.03118 207.649284 
" clip-path="url(#p502ef5577d)" style="fill: none; stroke: #fafafa; stroke-width: 0.14"/>
    <path d="M 91.695861 61.664013 
L 60.034381 88.640991 
" clip-path="url(#p502ef5577d)" style="fill: none; stroke: #717171; stroke-width: 3.14"/>
    <path d="M 91.695861 61.664013 
L 39.368813 124.986977 
" clip-path="url(#p502ef5577d)" style="fill: none; stroke: #cccccc; stroke-width: 1.15"/>
    <path d="M 91.695861 61.664013 
L 32.191736 166.318132 
" clip-path="url(#p502ef5577d)" style="fill: none; stroke: #6d6d6d; stroke-width: 3.22"/>
    <path d="M 91.695861 61.664013 
L 39.368813 207.649259 
" clip-path="url(#p502ef5577d)" style="fill: none; stroke: #f8f8f8; stroke-width: 0.175"/>
    <path d="M 91.695861 61.664013 
L 60.034374 243.995245 
" clip-path="url(#p502ef5577d)" style="fill: none; stroke: #434343; stroke-width: 4.135"/>
    <path d="M 91.695861 61.664013 
L 91.695878 270.972237 
" clip-path="url(#p502ef5577d)" style="fill: none; stroke: #a4a4a4; stroke-width: 2.01"/>
    <path d="M 91.695861 61.664013 
L 130.534437 285.326389 
" clip-path="url(#p502ef5577d)" style="fill: none; stroke: #c5c5c5; stroke-width: 1.285"/>
    <path d="M 91.695861 61.664013 
L 171.865567 285.326382 
" clip-path="url(#p502ef5577d)" style="fill: none; stroke: #fcfcfc; stroke-width: 0.085"/>
    <path d="M 91.695861 61.664013 
L 210.704122 270.972237 
" clip-path="url(#p502ef5577d)" style="fill: none; stroke: #e4e4e4; stroke-width: 0.605"/>
    <path d="M 91.695861 61.664013 
L 242.365605 243.995266 
" clip-path="url(#p502ef5577d)" style="fill: none; stroke: #f3f3f3; stroke-width: 0.275"/>
    <path d="M 91.695861 61.664013 
L 263.03118 207.649284 
" clip-path="url(#p502ef5577d)" style="fill: none; stroke: #b2b2b2; stroke-width: 1.7"/>
    <path d="M 60.034381 88.640991 
L 39.368813 124.986977 
" clip-path="url(#p502ef5577d)" style="fill: none; stroke: #aeaeae; stroke-width: 1.79"/>
    <path d="M 60.034381 88.640991 
L 32.191736 166.318132 
" clip-path="url(#p502ef5577d)" style="fill: none; stroke: #000000; stroke-width: 5.625"/>
    <path d="M 60.034381 88.640991 
L 39.368813 207.649259 
" clip-path="url(#p502ef5577d)" style="fill: none; stroke: #f1f1f1; stroke-width: 0.33"/>
    <path d="M 60.034381 88.640991 
L 60.034374 243.995245 
" clip-path="url(#p502ef5577d)" style="fill: none; stroke: #191919; stroke-width: 5.055"/>
    <path d="M 60.034381 88.640991 
L 91.695878 270.972237 
" clip-path="url(#p502ef5577d)" style="fill: none; stroke: #616161; stroke-width: 3.485"/>
    <path d="M 60.034381 88.640991 
L 130.534437 285.326389 
" clip-path="url(#p502ef5577d)" style="fill: none; stroke: #9b9b9b; stroke-width: 2.205"/>
    <path d="M 60.034381 88.640991 
L 171.865567 285.326382 
" clip-path="url(#p502ef5577d)" style="fill: none; stroke: #fafafa; stroke-width: 0.135"/>
    <path d="M 60.034381 88.640991 
L 210.704122 270.972237 
" clip-path="url(#p502ef5577d)" style="fill: none; stroke: #c7c7c7; stroke-width: 1.26"/>
    <path d="M 60.034381 88.640991 
L 242.365605 243.995266 
" clip-path="url(#p502ef5577d)" style="fill: none; stroke: #e4e4e4; stroke-width: 0.61"/>
    <path d="M 60.034381 88.640991 
L 263.03118 207.649284 
" clip-path="url(#p502ef5577d)" style="fill: none; stroke: #939393; stroke-width: 2.385"/>
    <path d="M 39.368813 124.986977 
L 32.191736 166.318132 
" clip-path="url(#p502ef5577d)" style="fill: none; stroke: #f0f0f0; stroke-width: 0.36"/>
    <path d="M 39.368813 124.986977 
L 60.034374 243.995245 
" clip-path="url(#p502ef5577d)" style="fill: none; stroke: #d8d8d8; stroke-width: 0.87"/>
    <path d="M 39.368813 124.986977 
L 91.695878 270.972237 
" clip-path="url(#p502ef5577d)" style="fill: none; stroke: #dcdcdc; stroke-width: 0.78"/>
    <path d="M 39.368813 124.986977 
L 130.534437 285.326389 
" clip-path="url(#p502ef5577d)" style="fill: none; stroke: #dadada; stroke-width: 0.83"/>
    <path d="M 39.368813 124.986977 
L 210.704122 270.972237 
" clip-path="url(#p502ef5577d)" style="fill: none; stroke: #e2e2e2; stroke-width: 0.655"/>
    <path d="M 39.368813 124.986977 
L 242.365605 243.995266 
" clip-path="url(#p502ef5577d)" style="fill: none; stroke: #ffffff; stroke-width: 0.01"/>
    <path d="M 39.368813 124.986977 
L 263.03118 207.649284 
" clip-path="url(#p502ef5577d)" style="fill: none; stroke: #e2e2e2; stroke-width: 0.65"/>
    <path d="M 32.191736 166.318132 
L 39.368813 207.649259 
" clip-path="url(#p502ef5577d)" style="fill: none; stroke: #f4f4f4; stroke-width: 0.27"/>
    <path d="M 32.191736 166.318132 
L 60.034374 243.995245 
" clip-path="url(#p502ef5577d)" style="fill: none; stroke: #626262; stroke-width: 3.455"/>
    <path d="M 32.191736 166.318132 
L 91.695878 270.972237 
" clip-path="url(#p502ef5577d)" style="fill: none; stroke: #dfdfdf; stroke-width: 0.73"/>
    <path d="M 32.191736 166.318132 
L 130.534437 285.326389 
" clip-path="url(#p502ef5577d)" style="fill: none; stroke: #cdcdcd; stroke-width: 1.115"/>
    <path d="M 32.191736 166.318132 
L 171.865567 285.326382 
" clip-path="url(#p502ef5577d)" style="fill: none; stroke: #f9f9f9; stroke-width: 0.16"/>
    <path d="M 32.191736 166.318132 
L 210.704122 270.972237 
" clip-path="url(#p502ef5577d)" style="fill: none; stroke: #cccccc; stroke-width: 1.145"/>
    <path d="M 32.191736 166.318132 
L 263.03118 207.649284 
" clip-path="url(#p502ef5577d)" style="fill: none; stroke: #a2a2a2; stroke-width: 2.06"/>
    <path d="M 39.368813 207.649259 
L 60.034374 243.995245 
" clip-path="url(#p502ef5577d)" style="fill: none; stroke: #ededed; stroke-width: 0.41"/>
    <path d="M 39.368813 207.649259 
L 91.695878 270.972237 
" clip-path="url(#p502ef5577d)" style="fill: none; stroke: #dedede; stroke-width: 0.745"/>
    <path d="M 39.368813 207.649259 
L 171.865567 285.326382 
" clip-path="url(#p502ef5577d)" style="fill: none; stroke: #fbfbfb; stroke-width: 0.115"/>
    <path d="M 39.368813 207.649259 
L 210.704122 270.972237 
" clip-path="url(#p502ef5577d)" style="fill: none; stroke: #fefefe; stroke-width: 0.05"/>
    <path d="M 39.368813 207.649259 
L 242.365605 243.995266 
" clip-path="url(#p502ef5577d)" style="fill: none; stroke: #f9f9f9; stroke-width: 0.155"/>
    <path d="M 60.034374 243.995245 
L 91.695878 270.972237 
" clip-path="url(#p502ef5577d)" style="fill: none; stroke: #c8c8c8; stroke-width: 1.22"/>
    <path d="M 60.034374 243.995245 
L 130.534437 285.326389 
" clip-path="url(#p502ef5577d)" style="fill: none; stroke: #c2c2c2; stroke-width: 1.365"/>
    <path d="M 60.034374 243.995245 
L 171.865567 285.326382 
" clip-path="url(#p502ef5577d)" style="fill: none; stroke: #f6f6f6; stroke-width: 0.225"/>
    <path d="M 60.034374 243.995245 
L 210.704122 270.972237 
" clip-path="url(#p502ef5577d)" style="fill: none; stroke: #dbdbdb; stroke-width: 0.805"/>
    <path d="M 60.034374 243.995245 
L 242.365605 243.995266 
" clip-path="url(#p502ef5577d)" style="fill: none; stroke: #ffffff; stroke-width: 0.015"/>
    <path d="M 60.034374 243.995245 
L 263.03118 207.649284 
" clip-path="url(#p502ef5577d)" style="fill: none; stroke: #aaaaaa; stroke-width: 1.885"/>
    <path d="M 91.695878 270.972237 
L 130.534437 285.326389 
" clip-path="url(#p502ef5577d)" style="fill: none; stroke: #c4c4c4; stroke-width: 1.32"/>
    <path d="M 91.695878 270.972237 
L 171.865567 285.326382 
" clip-path="url(#p502ef5577d)" style="fill: none; stroke: #f3f3f3; stroke-width: 0.28"/>
    <path d="M 91.695878 270.972237 
L 210.704122 270.972237 
" clip-path="url(#p502ef5577d)" style="fill: none; stroke: #c2c2c2; stroke-width: 1.365"/>
    <path d="M 91.695878 270.972237 
L 242.365605 243.995266 
" clip-path="url(#p502ef5577d)" style="fill: none; stroke: #fbfbfb; stroke-width: 0.115"/>
    <path d="M 91.695878 270.972237 
L 263.03118 207.649284 
" clip-path="url(#p502ef5577d)" style="fill: none; stroke: #d9d9d9; stroke-width: 0.845"/>
    <path d="M 130.534437 285.326389 
L 171.865567 285.326382 
" clip-path="url(#p502ef5577d)" style="fill: none; stroke: #fefefe; stroke-width: 0.05"/>
    <path d="M 130.534437 285.326389 
L 210.704122 270.972237 
" clip-path="url(#p502ef5577d)" style="fill: none; stroke: #f5f5f5; stroke-width: 0.24"/>
    <path d="M 130.534437 285.326389 
L 242.365605 243.995266 
" clip-path="url(#p502ef5577d)" style="fill: none; stroke: #fafafa; stroke-width: 0.135"/>
    <path d="M 171.865567 285.326382 
L 210.704122 270.972237 
" clip-path="url(#p502ef5577d)" style="fill: none; stroke: #ffffff; stroke-width: 0.03"/>
    <path d="M 171.865567 285.326382 
L 242.365605 243.995266 
" clip-path="url(#p502ef5577d)" style="fill: none; stroke: #f9f9f9; stroke-width: 0.145"/>
    <path d="M 171.865567 285.326382 
L 263.03118 207.649284 
" clip-path="url(#p502ef5577d)" style="fill: none; stroke: #fbfbfb; stroke-width: 0.115"/>
    <path d="M 210.704122 270.972237 
L 242.365605 243.995266 
" clip-path="url(#p502ef5577d)" style="fill: none; stroke: #f1f1f1; stroke-width: 0.325"/>
    <path d="M 210.704122 270.972237 
L 263.03118 207.649284 
" clip-path="url(#p502ef5577d)" style="fill: none; stroke: #f6f6f6; stroke-width: 0.215"/>
    <path d="M 242.365605 243.995266 
L 263.03118 207.649284 
" clip-path="url(#p502ef5577d)" style="fill: none; stroke: #fbfbfb; stroke-width: 0.1"/>
   </g>
   <g id="text_1">
    <g id="patch_2">
     <path d="M 49.198728 142.103349 
L 57.786059 118.145881 
Q 58.798318 115.321818 55.974255 114.309559 
L 46.86371 111.04397 
Q 44.039647 110.031711 43.027388 112.855774 
L 34.440058 136.813241 
Q 33.427799 139.637304 36.251862 140.649563 
L 45.362406 143.915153 
Q 48.186469 144.927412 49.198728 142.103349 
z
" clip-path="url(#p502ef5577d)" style="fill: #ffffff; stroke: #ffffff; stroke-linejoin: miter"/>
    </g>
    <g clip-path="url(#p502ef5577d)">
     <!-- 1125 -->
     <g transform="translate(44.416943 140.389363)rotate(-70.280256)scale(0.1 -0.1)">
      <defs>
       <path id="DejaVuSans-31" d="M 794 531 
L 1825 531 
L 1825 4091 
L 703 3866 
L 703 4441 
L 1819 4666 
L 2450 4666 
L 2450 531 
L 3481 531 
L 3481 0 
L 794 0 
L 794 531 
z
" transform="scale(0.015625)"/>
       <path id="DejaVuSans-32" d="M 1228 531 
L 3431 531 
L 3431 0 
L 469 0 
L 469 531 
Q 828 903 1448 1529 
Q 2069 2156 2228 2338 
Q 2531 2678 2651 2914 
Q 2772 3150 2772 3378 
Q 2772 3750 2511 3984 
Q 2250 4219 1831 4219 
Q 1534 4219 1204 4116 
Q 875 4013 500 3803 
L 500 4441 
Q 881 4594 1212 4672 
Q 1544 4750 1819 4750 
Q 2544 4750 2975 4387 
Q 3406 4025 3406 3419 
Q 3406 3131 3298 2873 
Q 3191 2616 2906 2266 
Q 2828 2175 2409 1742 
Q 1991 1309 1228 531 
z
" transform="scale(0.015625)"/>
       <path id="DejaVuSans-35" d="M 691 4666 
L 3169 4666 
L 3169 4134 
L 1269 4134 
L 1269 2991 
Q 1406 3038 1543 3061 
Q 1681 3084 1819 3084 
Q 2600 3084 3056 2656 
Q 3513 2228 3513 1497 
Q 3513 744 3044 326 
Q 2575 -91 1722 -91 
Q 1428 -91 1123 -41 
Q 819 9 494 109 
L 494 744 
Q 775 591 1075 516 
Q 1375 441 1709 441 
Q 2250 441 2565 725 
Q 2881 1009 2881 1497 
Q 2881 1984 2565 2268 
Q 2250 2553 1709 2553 
Q 1456 2553 1204 2497 
Q 953 2441 691 2322 
L 691 4666 
z
" transform="scale(0.015625)"/>
      </defs>
      <use xlink:href="#DejaVuSans-31"/>
      <use xlink:href="#DejaVuSans-31" x="63.623047"/>
      <use xlink:href="#DejaVuSans-32" x="127.246094"/>
      <use xlink:href="#DejaVuSans-35" x="190.869141"/>
     </g>
    </g>
   </g>
   <g id="text_2">
    <g id="patch_3">
     <path d="M 67.873439 179.043118 
L 67.87344 153.593118 
Q 67.873441 150.593118 64.873441 150.593118 
L 55.195316 150.593118 
Q 52.195316 150.593117 52.195315 153.593117 
L 52.195314 179.043117 
Q 52.195314 182.043117 55.195314 182.043118 
L 64.873439 182.043118 
Q 67.873439 182.043118 67.873439 179.043118 
z
" clip-path="url(#p502ef5577d)" style="fill: #ffffff; stroke: #ffffff; stroke-linejoin: miter"/>
    </g>
    <g clip-path="url(#p502ef5577d)">
     <!-- 1011 -->
     <g transform="translate(62.793752 179.043118)rotate(-89.999997)scale(0.1 -0.1)">
      <defs>
       <path id="DejaVuSans-30" d="M 2034 4250 
Q 1547 4250 1301 3770 
Q 1056 3291 1056 2328 
Q 1056 1369 1301 889 
Q 1547 409 2034 409 
Q 2525 409 2770 889 
Q 3016 1369 3016 2328 
Q 3016 3291 2770 3770 
Q 2525 4250 2034 4250 
z
M 2034 4750 
Q 2819 4750 3233 4129 
Q 3647 3509 3647 2328 
Q 3647 1150 3233 529 
Q 2819 -91 2034 -91 
Q 1250 -91 836 529 
Q 422 1150 422 2328 
Q 422 3509 836 4129 
Q 1250 4750 2034 4750 
z
" transform="scale(0.015625)"/>
      </defs>
      <use xlink:href="#DejaVuSans-31"/>
      <use xlink:href="#DejaVuSans-30" x="63.623047"/>
      <use xlink:href="#DejaVuSans-31" x="127.246094"/>
      <use xlink:href="#DejaVuSans-31" x="190.869141"/>
     </g>
    </g>
   </g>
   <g id="text_3">
    <g id="patch_4">
     <path d="M 81.955779 163.573832 
L 85.221419 144.767762 
Q 85.734682 141.811995 82.778915 141.298731 
L 73.243487 139.642922 
Q 70.287719 139.129658 69.774456 142.085425 
L 66.508816 160.891495 
Q 65.995552 163.847262 68.951319 164.360526 
L 78.486748 166.016336 
Q 81.442515 166.529599 81.955779 163.573832 
z
" clip-path="url(#p502ef5577d)" style="fill: #ffffff; stroke: #ffffff; stroke-linejoin: miter"/>
    </g>
    <g clip-path="url(#p502ef5577d)">
     <!-- 827 -->
     <g transform="translate(76.950988 162.704759)rotate(-80.148924)scale(0.1 -0.1)">
      <defs>
       <path id="DejaVuSans-38" d="M 2034 2216 
Q 1584 2216 1326 1975 
Q 1069 1734 1069 1313 
Q 1069 891 1326 650 
Q 1584 409 2034 409 
Q 2484 409 2743 651 
Q 3003 894 3003 1313 
Q 3003 1734 2745 1975 
Q 2488 2216 2034 2216 
z
M 1403 2484 
Q 997 2584 770 2862 
Q 544 3141 544 3541 
Q 544 4100 942 4425 
Q 1341 4750 2034 4750 
Q 2731 4750 3128 4425 
Q 3525 4100 3525 3541 
Q 3525 3141 3298 2862 
Q 3072 2584 2669 2484 
Q 3125 2378 3379 2068 
Q 3634 1759 3634 1313 
Q 3634 634 3220 271 
Q 2806 -91 2034 -91 
Q 1263 -91 848 271 
Q 434 634 434 1313 
Q 434 1759 690 2068 
Q 947 2378 1403 2484 
z
M 1172 3481 
Q 1172 3119 1398 2916 
Q 1625 2713 2034 2713 
Q 2441 2713 2670 2916 
Q 2900 3119 2900 3481 
Q 2900 3844 2670 4047 
Q 2441 4250 2034 4250 
Q 1625 4250 1398 4047 
Q 1172 3844 1172 3481 
z
" transform="scale(0.015625)"/>
       <path id="DejaVuSans-37" d="M 525 4666 
L 3525 4666 
L 3525 4397 
L 1831 0 
L 1172 0 
L 2766 4134 
L 525 4134 
L 525 4666 
z
" transform="scale(0.015625)"/>
      </defs>
      <use xlink:href="#DejaVuSans-38"/>
      <use xlink:href="#DejaVuSans-32" x="63.623047"/>
      <use xlink:href="#DejaVuSans-37" x="127.246094"/>
     </g>
    </g>
   </g>
   <g id="text_4">
    <g id="patch_5">
     <path d="M 66.508828 171.744748 
L 69.774468 190.550818 
Q 70.287732 193.506585 73.243499 192.993321 
L 82.778928 191.337511 
Q 85.734695 190.824247 85.221432 187.86848 
L 81.955791 169.062411 
Q 81.442527 166.106643 78.48676 166.619907 
L 68.951331 168.275717 
Q 65.995564 168.788981 66.508828 171.744748 
z
" clip-path="url(#p502ef5577d)" style="fill: #ffffff; stroke: #ffffff; stroke-linejoin: miter"/>
    </g>
    <g clip-path="url(#p502ef5577d)">
     <!-- 697 -->
     <g transform="translate(71.513619 170.875675)rotate(-279.851079)scale(0.1 -0.1)">
      <defs>
       <path id="DejaVuSans-36" d="M 2113 2584 
Q 1688 2584 1439 2293 
Q 1191 2003 1191 1497 
Q 1191 994 1439 701 
Q 1688 409 2113 409 
Q 2538 409 2786 701 
Q 3034 994 3034 1497 
Q 3034 2003 2786 2293 
Q 2538 2584 2113 2584 
z
M 3366 4563 
L 3366 3988 
Q 3128 4100 2886 4159 
Q 2644 4219 2406 4219 
Q 1781 4219 1451 3797 
Q 1122 3375 1075 2522 
Q 1259 2794 1537 2939 
Q 1816 3084 2150 3084 
Q 2853 3084 3261 2657 
Q 3669 2231 3669 1497 
Q 3669 778 3244 343 
Q 2819 -91 2113 -91 
Q 1303 -91 875 529 
Q 447 1150 447 2328 
Q 447 3434 972 4092 
Q 1497 4750 2381 4750 
Q 2619 4750 2861 4703 
Q 3103 4656 3366 4563 
z
" transform="scale(0.015625)"/>
       <path id="DejaVuSans-39" d="M 703 97 
L 703 672 
Q 941 559 1184 500 
Q 1428 441 1663 441 
Q 2288 441 2617 861 
Q 2947 1281 2994 2138 
Q 2813 1869 2534 1725 
Q 2256 1581 1919 1581 
Q 1219 1581 811 2004 
Q 403 2428 403 3163 
Q 403 3881 828 4315 
Q 1253 4750 1959 4750 
Q 2769 4750 3195 4129 
Q 3622 3509 3622 2328 
Q 3622 1225 3098 567 
Q 2575 -91 1691 -91 
Q 1453 -91 1209 -44 
Q 966 3 703 97 
z
M 1959 2075 
Q 2384 2075 2632 2365 
Q 2881 2656 2881 3163 
Q 2881 3666 2632 3958 
Q 2384 4250 1959 4250 
Q 1534 4250 1286 3958 
Q 1038 3666 1038 3163 
Q 1038 2656 1286 2365 
Q 1534 2075 1959 2075 
z
" transform="scale(0.015625)"/>
      </defs>
      <use xlink:href="#DejaVuSans-36"/>
      <use xlink:href="#DejaVuSans-39" x="63.623047"/>
      <use xlink:href="#DejaVuSans-37" x="127.246094"/>
     </g>
    </g>
   </g>
   <g id="text_5">
    <g id="patch_6">
     <path d="M 35.51347 198.817692 
L 41.953969 216.785793 
Q 42.966228 219.609856 45.790291 218.597597 
L 54.900835 215.332007 
Q 57.724898 214.319747 56.712639 211.495685 
L 50.272141 193.527584 
Q 49.259882 190.703521 46.435819 191.71578 
L 37.325274 194.98137 
Q 34.501211 195.993629 35.51347 198.817692 
z
" clip-path="url(#p502ef5577d)" style="fill: #ffffff; stroke: #ffffff; stroke-linejoin: miter"/>
    </g>
    <g clip-path="url(#p502ef5577d)">
     <!-- 691 -->
     <g transform="translate(40.295256 197.103706)rotate(-289.719746)scale(0.1 -0.1)">
      <use xlink:href="#DejaVuSans-36"/>
      <use xlink:href="#DejaVuSans-39" x="63.623047"/>
      <use xlink:href="#DejaVuSans-31" x="127.246094"/>
     </g>
    </g>
   </g>
   <g id="text_6">
    <g id="patch_7">
     <path d="M 64.041167 126.162149 
L 73.475552 109.569228 
Q 74.958363 106.961303 72.350439 105.478492 
L 63.937165 100.694882 
Q 61.32924 99.212071 59.846429 101.819996 
L 50.412044 118.412917 
Q 48.929233 121.020842 51.537158 122.503653 
L 59.950432 127.287263 
Q 62.558356 128.770074 64.041167 126.162149 
z
" clip-path="url(#p502ef5577d)" style="fill: #ffffff; stroke: #ffffff; stroke-linejoin: miter"/>
    </g>
    <g clip-path="url(#p502ef5577d)">
     <!-- 644 -->
     <g transform="translate(59.625353 123.65141)rotate(-60.378353)scale(0.1 -0.1)">
      <defs>
       <path id="DejaVuSans-34" d="M 2419 4116 
L 825 1625 
L 2419 1625 
L 2419 4116 
z
M 2253 4666 
L 3047 4666 
L 3047 1625 
L 3713 1625 
L 3713 1100 
L 3047 1100 
L 3047 0 
L 2419 0 
L 2419 1100 
L 313 1100 
L 313 1709 
L 2253 4666 
z
" transform="scale(0.015625)"/>
      </defs>
      <use xlink:href="#DejaVuSans-36"/>
      <use xlink:href="#DejaVuSans-34" x="63.623047"/>
      <use xlink:href="#DejaVuSans-34" x="127.246094"/>
     </g>
    </g>
   </g>
   <g id="text_7">
    <g id="patch_8">
     <path d="M 73.684729 87.30898 
L 88.21358 74.929757 
Q 90.497093 72.984104 88.551439 70.700591 
L 82.274679 63.333883 
Q 80.329025 61.05037 78.045512 62.996024 
L 63.516661 75.375246 
Q 61.233148 77.3209 63.178802 79.604413 
L 69.455563 86.971121 
Q 71.401216 89.254634 73.684729 87.30898 
z
" clip-path="url(#p502ef5577d)" style="fill: #ffffff; stroke: #ffffff; stroke-linejoin: miter"/>
    </g>
    <g clip-path="url(#p502ef5577d)">
     <!-- 628 -->
     <g transform="translate(70.390291 83.442469)rotate(-40.432463)scale(0.1 -0.1)">
      <use xlink:href="#DejaVuSans-36"/>
      <use xlink:href="#DejaVuSans-32" x="63.623047"/>
      <use xlink:href="#DejaVuSans-38" x="127.246094"/>
     </g>
    </g>
   </g>
   <g id="text_8">
    <g id="patch_9">
     <path d="M 131.044291 138.141014 
L 148.948145 131.524016 
Q 151.76211 130.484017 150.722111 127.670051 
L 147.367029 118.592082 
Q 146.327029 115.778117 143.513064 116.818116 
L 125.609209 123.435114 
Q 122.795244 124.475113 123.835244 127.289079 
L 127.190326 136.367048 
Q 128.230326 139.181013 131.044291 138.141014 
z
" clip-path="url(#p502ef5577d)" style="fill: #ffffff; stroke: #ffffff; stroke-linejoin: miter"/>
    </g>
    <g clip-path="url(#p502ef5577d)">
     <!-- 529 -->
     <g transform="translate(129.283333 133.376326)rotate(-20.283561)scale(0.1 -0.1)">
      <use xlink:href="#DejaVuSans-35"/>
      <use xlink:href="#DejaVuSans-32" x="63.623047"/>
      <use xlink:href="#DejaVuSans-39" x="127.246094"/>
     </g>
    </g>
   </g>
   <g id="text_9">
    <g id="patch_10">
     <path d="M 149.334968 150.080966 
L 165.801356 159.7345 
Q 168.389393 161.251755 169.906648 158.663718 
L 174.801376 150.314602 
Q 176.318631 147.726564 173.730593 146.209309 
L 157.264206 136.555775 
Q 154.676168 135.03852 153.158913 137.626557 
L 148.264186 145.975673 
Q 146.746931 148.563711 149.334968 150.080966 
z
" clip-path="url(#p502ef5577d)" style="fill: #ffffff; stroke: #ffffff; stroke-linejoin: miter"/>
    </g>
    <g clip-path="url(#p502ef5577d)">
     <!-- 477 -->
     <g transform="translate(151.904028 145.698825)rotate(-329.618738)scale(0.1 -0.1)">
      <use xlink:href="#DejaVuSans-34"/>
      <use xlink:href="#DejaVuSans-37" x="63.623047"/>
      <use xlink:href="#DejaVuSans-37" x="127.246094"/>
     </g>
    </g>
   </g>
   <g id="text_10">
    <g id="patch_11">
     <path d="M 84.684824 180.644694 
L 91.125323 198.612795 
Q 92.137582 201.436858 94.961645 200.424598 
L 104.07219 197.159008 
Q 106.896253 196.146749 105.883994 193.322686 
L 99.443495 175.354586 
Q 98.431236 172.530523 95.607173 173.542782 
L 86.496628 176.808372 
Q 83.672565 177.820631 84.684824 180.644694 
z
" clip-path="url(#p502ef5577d)" style="fill: #ffffff; stroke: #ffffff; stroke-linejoin: miter"/>
    </g>
    <g clip-path="url(#p502ef5577d)">
     <!-- 441 -->
     <g transform="translate(89.46661 178.930708)rotate(-289.719747)scale(0.1 -0.1)">
      <use xlink:href="#DejaVuSans-34"/>
      <use xlink:href="#DejaVuSans-34" x="63.623047"/>
      <use xlink:href="#DejaVuSans-31" x="127.246094"/>
     </g>
    </g>
   </g>
   <g id="text_11">
    <g id="patch_12">
     <path d="M 136.83551 193.018028 
L 155.624223 196.382094 
Q 158.577262 196.910828 159.105996 193.957788 
L 160.811711 184.431161 
Q 161.340445 181.478121 158.387405 180.949388 
L 139.598693 177.585322 
Q 136.645654 177.056588 136.11692 180.009628 
L 134.411204 189.536256 
Q 133.882471 192.489295 136.83551 193.018028 
z
" clip-path="url(#p502ef5577d)" style="fill: #ffffff; stroke: #ffffff; stroke-linejoin: miter"/>
    </g>
    <g clip-path="url(#p502ef5577d)">
     <!-- 412 -->
     <g transform="translate(137.730777 188.017856)rotate(-349.848914)scale(0.1 -0.1)">
      <use xlink:href="#DejaVuSans-34"/>
      <use xlink:href="#DejaVuSans-31" x="63.623047"/>
      <use xlink:href="#DejaVuSans-32" x="127.246094"/>
     </g>
    </g>
   </g>
   <g id="text_12">
    <g id="patch_13">
     <path d="M 141.65625 96.480057 
L 160.74375 96.480057 
Q 163.74375 96.480057 163.74375 93.480057 
L 163.74375 83.801932 
Q 163.74375 80.801932 160.74375 80.801932 
L 141.65625 80.801932 
Q 138.65625 80.801931 138.65625 83.801931 
L 138.65625 93.480056 
Q 138.65625 96.480056 141.65625 96.480057 
z
" clip-path="url(#p502ef5577d)" style="fill: #ffffff; stroke: #ffffff; stroke-linejoin: miter"/>
    </g>
    <g clip-path="url(#p502ef5577d)">
     <!-- 407 -->
     <g transform="translate(141.65625 91.400369)rotate(-359.999998)scale(0.1 -0.1)">
      <use xlink:href="#DejaVuSans-34"/>
      <use xlink:href="#DejaVuSans-30" x="63.623047"/>
      <use xlink:href="#DejaVuSans-37" x="127.246094"/>
     </g>
    </g>
   </g>
   <g id="text_13">
    <g id="patch_14">
     <path d="M 135.939812 170.770153 
L 142.380311 152.802053 
Q 143.39257 149.97799 140.568507 148.965731 
L 131.457962 145.700141 
Q 128.633899 144.687882 127.62164 147.511945 
L 121.181142 165.480045 
Q 120.168883 168.304108 122.992945 169.316367 
L 132.10349 172.581957 
Q 134.927553 173.594216 135.939812 170.770153 
z
" clip-path="url(#p502ef5577d)" style="fill: #ffffff; stroke: #ffffff; stroke-linejoin: miter"/>
    </g>
    <g clip-path="url(#p502ef5577d)">
     <!-- 403 -->
     <g transform="translate(131.158026 169.056167)rotate(-70.280255)scale(0.1 -0.1)">
      <defs>
       <path id="DejaVuSans-33" d="M 2597 2516 
Q 3050 2419 3304 2112 
Q 3559 1806 3559 1356 
Q 3559 666 3084 287 
Q 2609 -91 1734 -91 
Q 1441 -91 1130 -33 
Q 819 25 488 141 
L 488 750 
Q 750 597 1062 519 
Q 1375 441 1716 441 
Q 2309 441 2620 675 
Q 2931 909 2931 1356 
Q 2931 1769 2642 2001 
Q 2353 2234 1838 2234 
L 1294 2234 
L 1294 2753 
L 1863 2753 
Q 2328 2753 2575 2939 
Q 2822 3125 2822 3475 
Q 2822 3834 2567 4026 
Q 2313 4219 1838 4219 
Q 1578 4219 1281 4162 
Q 984 4106 628 3988 
L 628 4550 
Q 988 4650 1302 4700 
Q 1616 4750 1894 4750 
Q 2613 4750 3031 4423 
Q 3450 4097 3450 3541 
Q 3450 3153 3228 2886 
Q 3006 2619 2597 2516 
z
" transform="scale(0.015625)"/>
      </defs>
      <use xlink:href="#DejaVuSans-34"/>
      <use xlink:href="#DejaVuSans-30" x="63.623047"/>
      <use xlink:href="#DejaVuSans-33" x="127.246094"/>
     </g>
    </g>
   </g>
   <g id="text_14">
    <g id="patch_15">
     <path d="M 83.856806 156.774376 
L 83.856808 175.861876 
Q 83.856808 178.861876 86.856808 178.861875 
L 96.534933 178.861875 
Q 99.534933 178.861874 99.534933 175.861874 
L 99.534931 156.774374 
Q 99.534931 153.774374 96.534931 153.774375 
L 86.856806 153.774375 
Q 83.856806 153.774376 83.856806 156.774376 
z
" clip-path="url(#p502ef5577d)" style="fill: #ffffff; stroke: #ffffff; stroke-linejoin: miter"/>
    </g>
    <g clip-path="url(#p502ef5577d)">
     <!-- 402 -->
     <g transform="translate(88.936494 156.774375)rotate(-270.000005)scale(0.1 -0.1)">
      <use xlink:href="#DejaVuSans-34"/>
      <use xlink:href="#DejaVuSans-30" x="63.623047"/>
      <use xlink:href="#DejaVuSans-32" x="127.246094"/>
     </g>
    </g>
   </g>
   <g id="text_15">
    <g id="patch_16">
     <path d="M 153.52001 235.220649 
L 172.308723 231.856587 
Q 175.261763 231.327854 174.73303 228.374815 
L 173.027316 218.848187 
Q 172.498583 215.895147 169.545544 216.42388 
L 150.756831 219.787942 
Q 147.803791 220.316675 148.332524 223.269714 
L 150.038238 232.796342 
Q 150.566971 235.749382 153.52001 235.220649 
z
" clip-path="url(#p502ef5577d)" style="fill: #ffffff; stroke: #ffffff; stroke-linejoin: miter"/>
    </g>
    <g clip-path="url(#p502ef5577d)">
     <!-- 377 -->
     <g transform="translate(152.624744 230.220476)rotate(-10.151073)scale(0.1 -0.1)">
      <use xlink:href="#DejaVuSans-33"/>
      <use xlink:href="#DejaVuSans-37" x="63.623047"/>
      <use xlink:href="#DejaVuSans-37" x="127.246094"/>
     </g>
    </g>
   </g>
   <g id="text_16">
    <g id="patch_17">
     <path d="M 149.019604 178.474599 
L 163.548456 166.095378 
Q 165.831969 164.149724 163.886315 161.866211 
L 157.609556 154.499503 
Q 155.663902 152.21599 153.380389 154.161644 
L 138.851537 166.540865 
Q 136.568024 168.486518 138.513678 170.770032 
L 144.790437 178.13674 
Q 146.736091 180.420253 149.019604 178.474599 
z
" clip-path="url(#p502ef5577d)" style="fill: #ffffff; stroke: #ffffff; stroke-linejoin: miter"/>
    </g>
    <g clip-path="url(#p502ef5577d)">
     <!-- 362 -->
     <g transform="translate(145.725167 174.608088)rotate(-40.432458)scale(0.1 -0.1)">
      <use xlink:href="#DejaVuSans-33"/>
      <use xlink:href="#DejaVuSans-36" x="63.623047"/>
      <use xlink:href="#DejaVuSans-32" x="127.246094"/>
     </g>
    </g>
   </g>
   <g id="text_17">
    <g id="patch_18">
     <path d="M 51.798964 118.985061 
L 61.233352 102.392141 
Q 62.716163 99.784216 60.108239 98.301405 
L 51.694965 93.517794 
Q 49.087041 92.034982 47.604229 94.642907 
L 38.169842 111.235827 
Q 36.68703 113.843751 39.294955 115.326562 
L 47.708228 120.110174 
Q 50.316153 121.592985 51.798964 118.985061 
z
" clip-path="url(#p502ef5577d)" style="fill: #ffffff; stroke: #ffffff; stroke-linejoin: miter"/>
    </g>
    <g clip-path="url(#p502ef5577d)">
     <!-- 358 -->
     <g transform="translate(47.38315 116.474321)rotate(-60.378344)scale(0.1 -0.1)">
      <use xlink:href="#DejaVuSans-33"/>
      <use xlink:href="#DejaVuSans-35" x="63.623047"/>
      <use xlink:href="#DejaVuSans-38" x="127.246094"/>
     </g>
    </g>
   </g>
   <g id="text_18">
    <g id="patch_19">
     <path d="M 109.71559 78.636874 
L 127.619445 72.019878 
Q 130.43341 70.979879 129.393411 68.165913 
L 126.038329 59.087943 
Q 124.99833 56.273978 122.184365 57.313977 
L 104.28051 63.930973 
Q 101.466544 64.970973 102.506544 67.784938 
L 105.861625 76.862908 
Q 106.901625 79.676873 109.71559 78.636874 
z
" clip-path="url(#p502ef5577d)" style="fill: #ffffff; stroke: #ffffff; stroke-linejoin: miter"/>
    </g>
    <g clip-path="url(#p502ef5577d)">
     <!-- 350 -->
     <g transform="translate(107.954633 73.872186)rotate(-20.283556)scale(0.1 -0.1)">
      <use xlink:href="#DejaVuSans-33"/>
      <use xlink:href="#DejaVuSans-35" x="63.623047"/>
      <use xlink:href="#DejaVuSans-30" x="127.246094"/>
     </g>
    </g>
   </g>
   <g id="text_19">
    <g id="patch_20">
     <path d="M 165.015061 134.433903 
L 179.543911 146.813126 
Q 181.827424 148.75878 183.773078 146.475268 
L 190.049839 139.10856 
Q 191.995493 136.825047 189.71198 134.879393 
L 175.18313 122.50017 
Q 172.899617 120.554516 170.953963 122.838029 
L 164.677202 130.204737 
Q 162.731548 132.488249 165.015061 134.433903 
z
" clip-path="url(#p502ef5577d)" style="fill: #ffffff; stroke: #ffffff; stroke-linejoin: miter"/>
    </g>
    <g clip-path="url(#p502ef5577d)">
     <!-- 340 -->
     <g transform="translate(168.309499 130.567393)rotate(-319.567534)scale(0.1 -0.1)">
      <use xlink:href="#DejaVuSans-33"/>
      <use xlink:href="#DejaVuSans-34" x="63.623047"/>
      <use xlink:href="#DejaVuSans-30" x="127.246094"/>
     </g>
    </g>
   </g>
   <g id="text_20">
    <g id="patch_21">
     <path d="M 156.254793 81.186826 
L 175.043505 84.550891 
Q 177.996545 85.079624 178.525278 82.126585 
L 180.230993 72.599957 
Q 180.759726 69.646918 177.806687 69.118184 
L 159.017974 65.75412 
Q 156.064935 65.225386 155.536202 68.178426 
L 153.830487 77.705054 
Q 153.301753 80.658093 156.254793 81.186826 
z
" clip-path="url(#p502ef5577d)" style="fill: #ffffff; stroke: #ffffff; stroke-linejoin: miter"/>
    </g>
    <g clip-path="url(#p502ef5577d)">
     <!-- 327 -->
     <g transform="translate(157.150059 76.186654)rotate(-349.848918)scale(0.1 -0.1)">
      <use xlink:href="#DejaVuSans-33"/>
      <use xlink:href="#DejaVuSans-32" x="63.623047"/>
      <use xlink:href="#DejaVuSans-37" x="127.246094"/>
     </g>
    </g>
   </g>
   <g id="PathCollection_1">
    <path d="M 270.208264 168.497571 
C 270.786261 168.497571 271.340663 168.26793 271.749368 167.859225 
C 272.158073 167.450519 272.387714 166.896118 272.387714 166.318121 
C 272.387714 165.740125 272.158073 165.185723 271.749368 164.777018 
C 271.340663 164.368312 270.786261 164.138672 270.208264 164.138672 
C 269.630268 164.138672 269.075866 164.368312 268.667161 164.777018 
C 268.258456 165.185723 268.028815 165.740125 268.028815 166.318121 
C 268.028815 166.896118 268.258456 167.450519 268.667161 167.859225 
C 269.075866 168.26793 269.630268 168.497571 270.208264 168.497571 
z
" clip-path="url(#p502ef5577d)" style="fill: #ffffff; stroke: #000000; stroke-width: 2"/>
    <path d="M 263.031187 126.857816 
C 263.527337 126.857816 264.003232 126.660694 264.354063 126.309863 
C 264.704894 125.959032 264.902016 125.483137 264.902016 124.986987 
C 264.902016 124.490838 264.704894 124.014943 264.354063 123.664112 
C 264.003232 123.313281 263.527337 123.116159 263.031187 123.116159 
C 262.535038 123.116159 262.059142 123.313281 261.708312 123.664112 
C 261.357481 124.014943 261.160359 124.490838 261.160359 124.986987 
C 261.160359 125.483137 261.357481 125.959032 261.708312 126.309863 
C 262.059142 126.660694 262.535038 126.857816 263.031187 126.857816 
z
" clip-path="url(#p502ef5577d)" style="fill: #ffffff; stroke: #000000; stroke-width: 2"/>
    <path d="M 242.365619 92.764104 
C 243.459079 92.764104 244.507902 92.329667 245.281095 91.556474 
C 246.054288 90.783281 246.488725 89.734458 246.488725 88.640998 
C 246.488725 87.547538 246.054288 86.498715 245.281095 85.725522 
C 244.507902 84.952329 243.459079 84.517892 242.365619 84.517892 
C 241.272159 84.517892 240.223336 84.952329 239.450143 85.725522 
C 238.67695 86.498715 238.242513 87.547538 238.242513 88.640998 
C 238.242513 89.734458 238.67695 90.783281 239.450143 91.556474 
C 240.223336 92.329667 241.272159 92.764104 242.365619 92.764104 
z
" clip-path="url(#p502ef5577d)" style="fill: #ffffff; stroke: #000000; stroke-width: 2"/>
    <path d="M 210.704129 65.164005 
C 211.63234 65.164005 212.522658 64.795223 213.179002 64.138879 
C 213.835347 63.482535 214.204129 62.592216 214.204129 61.664005 
C 214.204129 60.735795 213.835347 59.845476 213.179002 59.189132 
C 212.522658 58.532787 211.63234 58.164005 210.704129 58.164005 
C 209.775918 58.164005 208.885599 58.532787 208.229255 59.189132 
C 207.572911 59.845476 207.204129 60.735795 207.204129 61.664005 
C 207.204129 62.592216 207.572911 63.482535 208.229255 64.138879 
C 208.885599 64.795223 209.775918 65.164005 210.704129 65.164005 
z
" clip-path="url(#p502ef5577d)" style="fill: #ffffff; stroke: #000000; stroke-width: 2"/>
    <path d="M 171.865574 51.246864 
C 172.909679 51.246864 173.911162 50.832037 174.649456 50.093743 
C 175.38775 49.355449 175.802578 48.353966 175.802578 47.309861 
C 175.802578 46.265755 175.38775 45.264273 174.649456 44.525978 
C 173.911162 43.787684 172.909679 43.372857 171.865574 43.372857 
C 170.821468 43.372857 169.819986 43.787684 169.081691 44.525978 
C 168.343397 45.264273 167.92857 46.265755 167.92857 47.309861 
C 167.92857 48.353966 168.343397 49.355449 169.081691 50.093743 
C 169.819986 50.832037 170.821468 51.246864 171.865574 51.246864 
z
" clip-path="url(#p502ef5577d)" style="fill: #ffffff; stroke: #000000; stroke-width: 2"/>
    <path d="M 130.53443 49.041911 
C 130.993775 49.041911 131.434369 48.859412 131.759175 48.534605 
C 132.083981 48.209799 132.266481 47.769206 132.266481 47.309861 
C 132.266481 46.850515 132.083981 46.409922 131.759175 46.085116 
C 131.434369 45.76031 130.993775 45.57781 130.53443 45.57781 
C 130.075085 45.57781 129.634491 45.76031 129.309685 46.085116 
C 128.984879 46.409922 128.802379 46.850515 128.802379 47.309861 
C 128.802379 47.769206 128.984879 48.209799 129.309685 48.534605 
C 129.634491 48.859412 130.075085 49.041911 130.53443 49.041911 
z
" clip-path="url(#p502ef5577d)" style="fill: #ffffff; stroke: #000000; stroke-width: 2"/>
    <path d="M 91.695861 68.610235 
C 93.53802 68.610235 95.304978 67.878337 96.607581 66.575733 
C 97.910185 65.27313 98.642083 63.506172 98.642083 61.664013 
C 98.642083 59.821853 97.910185 58.054895 96.607581 56.752292 
C 95.304978 55.449688 93.53802 54.717791 91.695861 54.717791 
C 89.853701 54.717791 88.086744 55.449688 86.78414 56.752292 
C 85.481536 58.054895 84.749639 59.821853 84.749639 61.664013 
C 84.749639 63.506172 85.481536 65.27313 86.78414 66.575733 
C 88.086744 67.878337 89.853701 68.610235 91.695861 68.610235 
z
" clip-path="url(#p502ef5577d)" style="fill: #ffffff; stroke: #000000; stroke-width: 2"/>
    <path d="M 60.034381 96.917464 
C 62.229327 96.917464 64.33467 96.045402 65.886731 94.493341 
C 67.438792 92.941279 68.310854 90.835937 68.310854 88.640991 
C 68.310854 86.446045 67.438792 84.340702 65.886731 82.788641 
C 64.33467 81.23658 62.229327 80.364518 60.034381 80.364518 
C 57.839435 80.364518 55.734092 81.23658 54.182031 82.788641 
C 52.62997 84.340702 51.757908 86.446045 51.757908 88.640991 
C 51.757908 90.835937 52.62997 92.941279 54.182031 94.493341 
C 55.734092 96.045402 57.839435 96.917464 60.034381 96.917464 
z
" clip-path="url(#p502ef5577d)" style="fill: #ffffff; stroke: #000000; stroke-width: 2"/>
    <path d="M 39.368813 129.258979 
C 40.501761 129.258979 41.588459 128.808853 42.389574 128.007738 
C 43.190689 127.206623 43.640814 126.119925 43.640814 124.986977 
C 43.640814 123.854029 43.190689 122.76733 42.389574 121.966215 
C 41.588459 121.1651 40.501761 120.714975 39.368813 120.714975 
C 38.235864 120.714975 37.149166 121.1651 36.348051 121.966215 
C 35.546936 122.76733 35.096811 123.854029 35.096811 124.986977 
C 35.096811 126.119925 35.546936 127.206623 36.348051 128.007738 
C 37.149166 128.808853 38.235864 129.258979 39.368813 129.258979 
z
" clip-path="url(#p502ef5577d)" style="fill: #ffffff; stroke: #000000; stroke-width: 2"/>
    <path d="M 32.191736 173.56382 
C 34.113315 173.56382 35.956449 172.800369 37.315211 171.441607 
C 38.673972 170.082846 39.437424 168.239711 39.437424 166.318132 
C 39.437424 164.396553 38.673972 162.553418 37.315211 161.194657 
C 35.956449 159.835895 34.113315 159.072444 32.191736 159.072444 
C 30.270157 159.072444 28.427022 159.835895 27.06826 161.194657 
C 25.709499 162.553418 24.946047 164.396553 24.946047 166.318132 
C 24.946047 168.239711 25.709499 170.082846 27.06826 171.441607 
C 28.427022 172.800369 30.270157 173.56382 32.191736 173.56382 
z
" clip-path="url(#p502ef5577d)" style="fill: #ffffff; stroke: #000000; stroke-width: 2"/>
    <path d="M 39.368813 209.885327 
C 39.961825 209.885327 40.530628 209.649721 40.949951 209.230398 
C 41.369274 208.811075 41.604881 208.242271 41.604881 207.649259 
C 41.604881 207.056247 41.369274 206.487443 40.949951 206.06812 
C 40.530628 205.648797 39.961825 205.413191 39.368813 205.413191 
C 38.7758 205.413191 38.206997 205.648797 37.787674 206.06812 
C 37.368351 206.487443 37.132745 207.056247 37.132745 207.649259 
C 37.132745 208.242271 37.368351 208.811075 37.787674 209.230398 
C 38.206997 209.649721 38.7758 209.885327 39.368813 209.885327 
z
" clip-path="url(#p502ef5577d)" style="fill: #ffffff; stroke: #000000; stroke-width: 2"/>
    <path d="M 60.034374 252.211083 
C 62.21324 252.211083 64.303158 251.345411 65.843849 249.80472 
C 67.38454 248.264029 68.250212 246.174111 68.250212 243.995245 
C 68.250212 241.816379 67.38454 239.726461 65.843849 238.18577 
C 64.303158 236.645079 62.21324 235.779406 60.034374 235.779406 
C 57.855508 235.779406 55.76559 236.645079 54.224899 238.18577 
C 52.684208 239.726461 51.818535 241.816379 51.818535 243.995245 
C 51.818535 246.174111 52.684208 248.264029 54.224899 249.80472 
C 55.76559 251.345411 57.855508 252.211083 60.034374 252.211083 
z
" clip-path="url(#p502ef5577d)" style="fill: #ffffff; stroke: #000000; stroke-width: 2"/>
    <path d="M 91.695878 276.26374 
C 93.099201 276.26374 94.445237 275.706194 95.437536 274.713895 
C 96.429835 273.721596 96.987381 272.37556 96.987381 270.972237 
C 96.987381 269.568915 96.429835 268.222879 95.437536 267.23058 
C 94.445237 266.238281 93.099201 265.680735 91.695878 265.680735 
C 90.292556 265.680735 88.94652 266.238281 87.954221 267.23058 
C 86.961922 268.222879 86.404376 269.568915 86.404376 270.972237 
C 86.404376 272.37556 86.961922 273.721596 87.954221 274.713895 
C 88.94652 275.706194 90.292556 276.26374 91.695878 276.26374 
z
" clip-path="url(#p502ef5577d)" style="fill: #ffffff; stroke: #000000; stroke-width: 2"/>
    <path d="M 130.534437 290.096085 
C 131.799375 290.096085 133.012675 289.59352 133.907121 288.699074 
C 134.801568 287.804627 135.304133 286.591328 135.304133 285.326389 
C 135.304133 284.061451 134.801568 282.848151 133.907121 281.953705 
C 133.012675 281.059259 131.799375 280.556693 130.534437 280.556693 
C 129.269499 280.556693 128.056199 281.059259 127.161753 281.953705 
C 126.267306 282.848151 125.764741 284.061451 125.764741 285.326389 
C 125.764741 286.591328 126.267306 287.804627 127.161753 288.699074 
C 128.056199 289.59352 129.269499 290.096085 130.534437 290.096085 
z
" clip-path="url(#p502ef5577d)" style="fill: #ffffff; stroke: #000000; stroke-width: 2"/>
    <path d="M 171.865567 286.826382 
C 172.263371 286.826382 172.644936 286.668333 172.926227 286.387042 
C 173.207517 286.105752 173.365567 285.724187 173.365567 285.326382 
C 173.365567 284.928578 173.207517 284.547012 172.926227 284.265722 
C 172.644936 283.984432 172.263371 283.826382 171.865567 283.826382 
C 171.467762 283.826382 171.086197 283.984432 170.804906 284.265722 
C 170.523616 284.547012 170.365567 284.928578 170.365567 285.326382 
C 170.365567 285.724187 170.523616 286.105752 170.804906 286.387042 
C 171.086197 286.668333 171.467762 286.826382 171.865567 286.826382 
z
" clip-path="url(#p502ef5577d)" style="fill: #ffffff; stroke: #000000; stroke-width: 2"/>
    <path d="M 210.704122 273.930277 
C 211.488603 273.930277 212.24106 273.6186 212.795772 273.063887 
C 213.350484 272.509175 213.662161 271.756719 213.662161 270.972237 
C 213.662161 270.187756 213.350484 269.435299 212.795772 268.880587 
C 212.24106 268.325875 211.488603 268.014198 210.704122 268.014198 
C 209.91964 268.014198 209.167184 268.325875 208.612472 268.880587 
C 208.057759 269.435299 207.746082 270.187756 207.746082 270.972237 
C 207.746082 271.756719 208.057759 272.509175 208.612472 273.063887 
C 209.167184 273.6186 209.91964 273.930277 210.704122 273.930277 
z
" clip-path="url(#p502ef5577d)" style="fill: #ffffff; stroke: #000000; stroke-width: 2"/>
    <path d="M 242.365605 247.736924 
C 243.357904 247.736924 244.309695 247.342679 245.011356 246.641018 
C 245.713018 245.939356 246.107262 244.987565 246.107262 243.995266 
C 246.107262 243.002967 245.713018 242.051176 245.011356 241.349515 
C 244.309695 240.647854 243.357904 240.253609 242.365605 240.253609 
C 241.373306 240.253609 240.421515 240.647854 239.719854 241.349515 
C 239.018192 242.051176 238.623947 243.002967 238.623947 243.995266 
C 238.623947 244.987565 239.018192 245.939356 239.719854 246.641018 
C 240.421515 247.342679 241.373306 247.736924 242.365605 247.736924 
z
" clip-path="url(#p502ef5577d)" style="fill: #ffffff; stroke: #000000; stroke-width: 2"/>
    <path d="M 263.03118 211.741961 
C 264.116571 211.741961 265.157653 211.31073 265.92514 210.543243 
C 266.692627 209.775756 267.123857 208.734675 267.123857 207.649284 
C 267.123857 206.563894 266.692627 205.522812 265.92514 204.755325 
C 265.157653 203.987838 264.116571 203.556608 263.03118 203.556608 
C 261.94579 203.556608 260.904708 203.987838 260.137221 204.755325 
C 259.369734 205.522812 258.938504 206.563894 258.938504 207.649284 
C 258.938504 208.734675 259.369734 209.775756 260.137221 210.543243 
C 260.904708 211.31073 261.94579 211.741961 263.03118 211.741961 
z
" clip-path="url(#p502ef5577d)" style="fill: #ffffff; stroke: #000000; stroke-width: 2"/>
   </g>
   <g id="text_21">
    <g clip-path="url(#p502ef5577d)">
     <!-- A.Nesmith -->
     <g transform="translate(253.610819 169.629371)scale(0.12 -0.12)">
      <defs>
       <path id="DejaVuSans-41" d="M 2188 4044 
L 1331 1722 
L 3047 1722 
L 2188 4044 
z
M 1831 4666 
L 2547 4666 
L 4325 0 
L 3669 0 
L 3244 1197 
L 1141 1197 
L 716 0 
L 50 0 
L 1831 4666 
z
" transform="scale(0.015625)"/>
       <path id="DejaVuSans-2e" d="M 684 794 
L 1344 794 
L 1344 0 
L 684 0 
L 684 794 
z
" transform="scale(0.015625)"/>
       <path id="DejaVuSans-4e" d="M 628 4666 
L 1478 4666 
L 3547 763 
L 3547 4666 
L 4159 4666 
L 4159 0 
L 3309 0 
L 1241 3903 
L 1241 0 
L 628 0 
L 628 4666 
z
" transform="scale(0.015625)"/>
       <path id="DejaVuSans-65" d="M 3597 1894 
L 3597 1613 
L 953 1613 
Q 991 1019 1311 708 
Q 1631 397 2203 397 
Q 2534 397 2845 478 
Q 3156 559 3463 722 
L 3463 178 
Q 3153 47 2828 -22 
Q 2503 -91 2169 -91 
Q 1331 -91 842 396 
Q 353 884 353 1716 
Q 353 2575 817 3079 
Q 1281 3584 2069 3584 
Q 2775 3584 3186 3129 
Q 3597 2675 3597 1894 
z
M 3022 2063 
Q 3016 2534 2758 2815 
Q 2500 3097 2075 3097 
Q 1594 3097 1305 2825 
Q 1016 2553 972 2059 
L 3022 2063 
z
" transform="scale(0.015625)"/>
       <path id="DejaVuSans-73" d="M 2834 3397 
L 2834 2853 
Q 2591 2978 2328 3040 
Q 2066 3103 1784 3103 
Q 1356 3103 1142 2972 
Q 928 2841 928 2578 
Q 928 2378 1081 2264 
Q 1234 2150 1697 2047 
L 1894 2003 
Q 2506 1872 2764 1633 
Q 3022 1394 3022 966 
Q 3022 478 2636 193 
Q 2250 -91 1575 -91 
Q 1294 -91 989 -36 
Q 684 19 347 128 
L 347 722 
Q 666 556 975 473 
Q 1284 391 1588 391 
Q 1994 391 2212 530 
Q 2431 669 2431 922 
Q 2431 1156 2273 1281 
Q 2116 1406 1581 1522 
L 1381 1569 
Q 847 1681 609 1914 
Q 372 2147 372 2553 
Q 372 3047 722 3315 
Q 1072 3584 1716 3584 
Q 2034 3584 2315 3537 
Q 2597 3491 2834 3397 
z
" transform="scale(0.015625)"/>
       <path id="DejaVuSans-6d" d="M 3328 2828 
Q 3544 3216 3844 3400 
Q 4144 3584 4550 3584 
Q 5097 3584 5394 3201 
Q 5691 2819 5691 2113 
L 5691 0 
L 5113 0 
L 5113 2094 
Q 5113 2597 4934 2840 
Q 4756 3084 4391 3084 
Q 3944 3084 3684 2787 
Q 3425 2491 3425 1978 
L 3425 0 
L 2847 0 
L 2847 2094 
Q 2847 2600 2669 2842 
Q 2491 3084 2119 3084 
Q 1678 3084 1418 2786 
Q 1159 2488 1159 1978 
L 1159 0 
L 581 0 
L 581 3500 
L 1159 3500 
L 1159 2956 
Q 1356 3278 1631 3431 
Q 1906 3584 2284 3584 
Q 2666 3584 2933 3390 
Q 3200 3197 3328 2828 
z
" transform="scale(0.015625)"/>
       <path id="DejaVuSans-69" d="M 603 3500 
L 1178 3500 
L 1178 0 
L 603 0 
L 603 3500 
z
M 603 4863 
L 1178 4863 
L 1178 4134 
L 603 4134 
L 603 4863 
z
" transform="scale(0.015625)"/>
       <path id="DejaVuSans-74" d="M 1172 4494 
L 1172 3500 
L 2356 3500 
L 2356 3053 
L 1172 3053 
L 1172 1153 
Q 1172 725 1289 603 
Q 1406 481 1766 481 
L 2356 481 
L 2356 0 
L 1766 0 
Q 1100 0 847 248 
Q 594 497 594 1153 
L 594 3053 
L 172 3053 
L 172 3500 
L 594 3500 
L 594 4494 
L 1172 4494 
z
" transform="scale(0.015625)"/>
       <path id="DejaVuSans-68" d="M 3513 2113 
L 3513 0 
L 2938 0 
L 2938 2094 
Q 2938 2591 2744 2837 
Q 2550 3084 2163 3084 
Q 1697 3084 1428 2787 
Q 1159 2491 1159 1978 
L 1159 0 
L 581 0 
L 581 4863 
L 1159 4863 
L 1159 2956 
Q 1366 3272 1645 3428 
Q 1925 3584 2291 3584 
Q 2894 3584 3203 3211 
Q 3513 2838 3513 2113 
z
" transform="scale(0.015625)"/>
      </defs>
      <use xlink:href="#DejaVuSans-41"/>
      <use xlink:href="#DejaVuSans-2e" x="66.658203"/>
      <use xlink:href="#DejaVuSans-4e" x="98.445312"/>
      <use xlink:href="#DejaVuSans-65" x="173.25"/>
      <use xlink:href="#DejaVuSans-73" x="234.773438"/>
      <use xlink:href="#DejaVuSans-6d" x="286.873047"/>
      <use xlink:href="#DejaVuSans-69" x="384.285156"/>
      <use xlink:href="#DejaVuSans-74" x="412.068359"/>
      <use xlink:href="#DejaVuSans-68" x="451.277344"/>
     </g>
    </g>
   </g>
   <g id="text_22">
    <g clip-path="url(#p502ef5577d)">
     <!-- C.Edwards -->
     <g transform="translate(244.874055 123.338501)scale(0.12 -0.12)">
      <defs>
       <path id="DejaVuSans-43" d="M 4122 4306 
L 4122 3641 
Q 3803 3938 3442 4084 
Q 3081 4231 2675 4231 
Q 1875 4231 1450 3742 
Q 1025 3253 1025 2328 
Q 1025 1406 1450 917 
Q 1875 428 2675 428 
Q 3081 428 3442 575 
Q 3803 722 4122 1019 
L 4122 359 
Q 3791 134 3420 21 
Q 3050 -91 2638 -91 
Q 1578 -91 968 557 
Q 359 1206 359 2328 
Q 359 3453 968 4101 
Q 1578 4750 2638 4750 
Q 3056 4750 3426 4639 
Q 3797 4528 4122 4306 
z
" transform="scale(0.015625)"/>
       <path id="DejaVuSans-45" d="M 628 4666 
L 3578 4666 
L 3578 4134 
L 1259 4134 
L 1259 2753 
L 3481 2753 
L 3481 2222 
L 1259 2222 
L 1259 531 
L 3634 531 
L 3634 0 
L 628 0 
L 628 4666 
z
" transform="scale(0.015625)"/>
       <path id="DejaVuSans-64" d="M 2906 2969 
L 2906 4863 
L 3481 4863 
L 3481 0 
L 2906 0 
L 2906 525 
Q 2725 213 2448 61 
Q 2172 -91 1784 -91 
Q 1150 -91 751 415 
Q 353 922 353 1747 
Q 353 2572 751 3078 
Q 1150 3584 1784 3584 
Q 2172 3584 2448 3432 
Q 2725 3281 2906 2969 
z
M 947 1747 
Q 947 1113 1208 752 
Q 1469 391 1925 391 
Q 2381 391 2643 752 
Q 2906 1113 2906 1747 
Q 2906 2381 2643 2742 
Q 2381 3103 1925 3103 
Q 1469 3103 1208 2742 
Q 947 2381 947 1747 
z
" transform="scale(0.015625)"/>
       <path id="DejaVuSans-77" d="M 269 3500 
L 844 3500 
L 1563 769 
L 2278 3500 
L 2956 3500 
L 3675 769 
L 4391 3500 
L 4966 3500 
L 4050 0 
L 3372 0 
L 2619 2869 
L 1863 0 
L 1184 0 
L 269 3500 
z
" transform="scale(0.015625)"/>
       <path id="DejaVuSans-61" d="M 2194 1759 
Q 1497 1759 1228 1600 
Q 959 1441 959 1056 
Q 959 750 1161 570 
Q 1363 391 1709 391 
Q 2188 391 2477 730 
Q 2766 1069 2766 1631 
L 2766 1759 
L 2194 1759 
z
M 3341 1997 
L 3341 0 
L 2766 0 
L 2766 531 
Q 2569 213 2275 61 
Q 1981 -91 1556 -91 
Q 1019 -91 701 211 
Q 384 513 384 1019 
Q 384 1609 779 1909 
Q 1175 2209 1959 2209 
L 2766 2209 
L 2766 2266 
Q 2766 2663 2505 2880 
Q 2244 3097 1772 3097 
Q 1472 3097 1187 3025 
Q 903 2953 641 2809 
L 641 3341 
Q 956 3463 1253 3523 
Q 1550 3584 1831 3584 
Q 2591 3584 2966 3190 
Q 3341 2797 3341 1997 
z
" transform="scale(0.015625)"/>
       <path id="DejaVuSans-72" d="M 2631 2963 
Q 2534 3019 2420 3045 
Q 2306 3072 2169 3072 
Q 1681 3072 1420 2755 
Q 1159 2438 1159 1844 
L 1159 0 
L 581 0 
L 581 3500 
L 1159 3500 
L 1159 2956 
Q 1341 3275 1631 3429 
Q 1922 3584 2338 3584 
Q 2397 3584 2469 3576 
Q 2541 3569 2628 3553 
L 2631 2963 
z
" transform="scale(0.015625)"/>
      </defs>
      <use xlink:href="#DejaVuSans-43"/>
      <use xlink:href="#DejaVuSans-2e" x="69.824219"/>
      <use xlink:href="#DejaVuSans-45" x="101.611328"/>
      <use xlink:href="#DejaVuSans-64" x="164.794922"/>
      <use xlink:href="#DejaVuSans-77" x="228.271484"/>
      <use xlink:href="#DejaVuSans-61" x="310.058594"/>
      <use xlink:href="#DejaVuSans-72" x="371.337891"/>
      <use xlink:href="#DejaVuSans-64" x="410.701172"/>
      <use xlink:href="#DejaVuSans-73" x="474.177734"/>
     </g>
    </g>
   </g>
   <g id="text_23">
    <g clip-path="url(#p502ef5577d)">
     <!-- D.Theis -->
     <g transform="translate(230.827056 82.630993)scale(0.12 -0.12)">
      <defs>
       <path id="DejaVuSans-44" d="M 1259 4147 
L 1259 519 
L 2022 519 
Q 2988 519 3436 956 
Q 3884 1394 3884 2338 
Q 3884 3275 3436 3711 
Q 2988 4147 2022 4147 
L 1259 4147 
z
M 628 4666 
L 1925 4666 
Q 3281 4666 3915 4102 
Q 4550 3538 4550 2338 
Q 4550 1131 3912 565 
Q 3275 0 1925 0 
L 628 0 
L 628 4666 
z
" transform="scale(0.015625)"/>
       <path id="DejaVuSans-54" d="M -19 4666 
L 3928 4666 
L 3928 4134 
L 2272 4134 
L 2272 0 
L 1638 0 
L 1638 4134 
L -19 4134 
L -19 4666 
z
" transform="scale(0.015625)"/>
      </defs>
      <use xlink:href="#DejaVuSans-44"/>
      <use xlink:href="#DejaVuSans-2e" x="77.001953"/>
      <use xlink:href="#DejaVuSans-54" x="108.789062"/>
      <use xlink:href="#DejaVuSans-68" x="169.873047"/>
      <use xlink:href="#DejaVuSans-65" x="233.251953"/>
      <use xlink:href="#DejaVuSans-69" x="294.775391"/>
      <use xlink:href="#DejaVuSans-73" x="322.558594"/>
     </g>
    </g>
   </g>
   <g id="text_24">
    <g clip-path="url(#p502ef5577d)">
     <!-- E.Fournier -->
     <g transform="translate(187.449937 52.416761)scale(0.12 -0.12)">
      <defs>
       <path id="DejaVuSans-46" d="M 628 4666 
L 3309 4666 
L 3309 4134 
L 1259 4134 
L 1259 2759 
L 3109 2759 
L 3109 2228 
L 1259 2228 
L 1259 0 
L 628 0 
L 628 4666 
z
" transform="scale(0.015625)"/>
       <path id="DejaVuSans-6f" d="M 1959 3097 
Q 1497 3097 1228 2736 
Q 959 2375 959 1747 
Q 959 1119 1226 758 
Q 1494 397 1959 397 
Q 2419 397 2687 759 
Q 2956 1122 2956 1747 
Q 2956 2369 2687 2733 
Q 2419 3097 1959 3097 
z
M 1959 3584 
Q 2709 3584 3137 3096 
Q 3566 2609 3566 1747 
Q 3566 888 3137 398 
Q 2709 -91 1959 -91 
Q 1206 -91 779 398 
Q 353 888 353 1747 
Q 353 2609 779 3096 
Q 1206 3584 1959 3584 
z
" transform="scale(0.015625)"/>
       <path id="DejaVuSans-75" d="M 544 1381 
L 544 3500 
L 1119 3500 
L 1119 1403 
Q 1119 906 1312 657 
Q 1506 409 1894 409 
Q 2359 409 2629 706 
Q 2900 1003 2900 1516 
L 2900 3500 
L 3475 3500 
L 3475 0 
L 2900 0 
L 2900 538 
Q 2691 219 2414 64 
Q 2138 -91 1772 -91 
Q 1169 -91 856 284 
Q 544 659 544 1381 
z
M 1991 3584 
L 1991 3584 
z
" transform="scale(0.015625)"/>
       <path id="DejaVuSans-6e" d="M 3513 2113 
L 3513 0 
L 2938 0 
L 2938 2094 
Q 2938 2591 2744 2837 
Q 2550 3084 2163 3084 
Q 1697 3084 1428 2787 
Q 1159 2491 1159 1978 
L 1159 0 
L 581 0 
L 581 3500 
L 1159 3500 
L 1159 2956 
Q 1366 3272 1645 3428 
Q 1925 3584 2291 3584 
Q 2894 3584 3203 3211 
Q 3513 2838 3513 2113 
z
" transform="scale(0.015625)"/>
      </defs>
      <use xlink:href="#DejaVuSans-45"/>
      <use xlink:href="#DejaVuSans-2e" x="63.183594"/>
      <use xlink:href="#DejaVuSans-46" x="94.970703"/>
      <use xlink:href="#DejaVuSans-6f" x="148.865234"/>
      <use xlink:href="#DejaVuSans-75" x="210.046875"/>
      <use xlink:href="#DejaVuSans-72" x="273.425781"/>
      <use xlink:href="#DejaVuSans-6e" x="312.789062"/>
      <use xlink:href="#DejaVuSans-69" x="376.167969"/>
      <use xlink:href="#DejaVuSans-65" x="403.951172"/>
      <use xlink:href="#DejaVuSans-72" x="465.474609"/>
     </g>
    </g>
   </g>
   <g id="text_25">
    <g clip-path="url(#p502ef5577d)">
     <!-- G.Williams -->
     <g transform="translate(142.67763 36.340119)scale(0.12 -0.12)">
      <defs>
       <path id="DejaVuSans-47" d="M 3809 666 
L 3809 1919 
L 2778 1919 
L 2778 2438 
L 4434 2438 
L 4434 434 
Q 4069 175 3628 42 
Q 3188 -91 2688 -91 
Q 1594 -91 976 548 
Q 359 1188 359 2328 
Q 359 3472 976 4111 
Q 1594 4750 2688 4750 
Q 3144 4750 3555 4637 
Q 3966 4525 4313 4306 
L 4313 3634 
Q 3963 3931 3569 4081 
Q 3175 4231 2741 4231 
Q 1884 4231 1454 3753 
Q 1025 3275 1025 2328 
Q 1025 1384 1454 906 
Q 1884 428 2741 428 
Q 3075 428 3337 486 
Q 3600 544 3809 666 
z
" transform="scale(0.015625)"/>
       <path id="DejaVuSans-57" d="M 213 4666 
L 850 4666 
L 1831 722 
L 2809 4666 
L 3519 4666 
L 4500 722 
L 5478 4666 
L 6119 4666 
L 4947 0 
L 4153 0 
L 3169 4050 
L 2175 0 
L 1381 0 
L 213 4666 
z
" transform="scale(0.015625)"/>
       <path id="DejaVuSans-6c" d="M 603 4863 
L 1178 4863 
L 1178 0 
L 603 0 
L 603 4863 
z
" transform="scale(0.015625)"/>
      </defs>
      <use xlink:href="#DejaVuSans-47"/>
      <use xlink:href="#DejaVuSans-2e" x="77.490234"/>
      <use xlink:href="#DejaVuSans-57" x="109.277344"/>
      <use xlink:href="#DejaVuSans-69" x="205.904297"/>
      <use xlink:href="#DejaVuSans-6c" x="233.6875"/>
      <use xlink:href="#DejaVuSans-6c" x="261.470703"/>
      <use xlink:href="#DejaVuSans-69" x="289.253906"/>
      <use xlink:href="#DejaVuSans-61" x="317.037109"/>
      <use xlink:href="#DejaVuSans-6d" x="378.316406"/>
      <use xlink:href="#DejaVuSans-73" x="475.728516"/>
     </g>
    </g>
   </g>
   <g id="text_26">
    <g clip-path="url(#p502ef5577d)">
     <!-- J.Green -->
     <g transform="translate(106.210812 36.340119)scale(0.12 -0.12)">
      <defs>
       <path id="DejaVuSans-4a" d="M 628 4666 
L 1259 4666 
L 1259 325 
Q 1259 -519 939 -900 
Q 619 -1281 -91 -1281 
L -331 -1281 
L -331 -750 
L -134 -750 
Q 284 -750 456 -515 
Q 628 -281 628 325 
L 628 4666 
z
" transform="scale(0.015625)"/>
      </defs>
      <use xlink:href="#DejaVuSans-4a"/>
      <use xlink:href="#DejaVuSans-2e" x="29.492188"/>
      <use xlink:href="#DejaVuSans-47" x="61.279297"/>
      <use xlink:href="#DejaVuSans-72" x="138.769531"/>
      <use xlink:href="#DejaVuSans-65" x="177.632812"/>
      <use xlink:href="#DejaVuSans-65" x="239.15625"/>
      <use xlink:href="#DejaVuSans-6e" x="300.679688"/>
     </g>
    </g>
   </g>
   <g id="text_27">
    <g clip-path="url(#p502ef5577d)">
     <!-- J.Brown -->
     <g transform="translate(62.049739 52.416769)scale(0.12 -0.12)">
      <defs>
       <path id="DejaVuSans-42" d="M 1259 2228 
L 1259 519 
L 2272 519 
Q 2781 519 3026 730 
Q 3272 941 3272 1375 
Q 3272 1813 3026 2020 
Q 2781 2228 2272 2228 
L 1259 2228 
z
M 1259 4147 
L 1259 2741 
L 2194 2741 
Q 2656 2741 2882 2914 
Q 3109 3088 3109 3444 
Q 3109 3797 2882 3972 
Q 2656 4147 2194 4147 
L 1259 4147 
z
M 628 4666 
L 2241 4666 
Q 2963 4666 3353 4366 
Q 3744 4066 3744 3513 
Q 3744 3084 3544 2831 
Q 3344 2578 2956 2516 
Q 3422 2416 3680 2098 
Q 3938 1781 3938 1306 
Q 3938 681 3513 340 
Q 3088 0 2303 0 
L 628 0 
L 628 4666 
z
" transform="scale(0.015625)"/>
      </defs>
      <use xlink:href="#DejaVuSans-4a"/>
      <use xlink:href="#DejaVuSans-2e" x="29.492188"/>
      <use xlink:href="#DejaVuSans-42" x="61.279297"/>
      <use xlink:href="#DejaVuSans-72" x="129.882812"/>
      <use xlink:href="#DejaVuSans-6f" x="168.746094"/>
      <use xlink:href="#DejaVuSans-77" x="229.927734"/>
      <use xlink:href="#DejaVuSans-6e" x="311.714844"/>
     </g>
    </g>
   </g>
   <g id="text_28">
    <g clip-path="url(#p502ef5577d)">
     <!-- J.Tatum -->
     <g transform="translate(27.067007 82.630985)scale(0.12 -0.12)">
      <use xlink:href="#DejaVuSans-4a"/>
      <use xlink:href="#DejaVuSans-2e" x="29.492188"/>
      <use xlink:href="#DejaVuSans-54" x="61.279297"/>
      <use xlink:href="#DejaVuSans-61" x="105.863281"/>
      <use xlink:href="#DejaVuSans-74" x="167.142578"/>
      <use xlink:href="#DejaVuSans-75" x="206.351562"/>
      <use xlink:href="#DejaVuSans-6d" x="269.730469"/>
     </g>
    </g>
   </g>
   <g id="text_29">
    <g clip-path="url(#p502ef5577d)">
     <!-- J.Teague -->
     <g transform="translate(0.95532 123.338489)scale(0.12 -0.12)">
      <defs>
       <path id="DejaVuSans-67" d="M 2906 1791 
Q 2906 2416 2648 2759 
Q 2391 3103 1925 3103 
Q 1463 3103 1205 2759 
Q 947 2416 947 1791 
Q 947 1169 1205 825 
Q 1463 481 1925 481 
Q 2391 481 2648 825 
Q 2906 1169 2906 1791 
z
M 3481 434 
Q 3481 -459 3084 -895 
Q 2688 -1331 1869 -1331 
Q 1566 -1331 1297 -1286 
Q 1028 -1241 775 -1147 
L 775 -588 
Q 1028 -725 1275 -790 
Q 1522 -856 1778 -856 
Q 2344 -856 2625 -561 
Q 2906 -266 2906 331 
L 2906 616 
Q 2728 306 2450 153 
Q 2172 0 1784 0 
Q 1141 0 747 490 
Q 353 981 353 1791 
Q 353 2603 747 3093 
Q 1141 3584 1784 3584 
Q 2172 3584 2450 3431 
Q 2728 3278 2906 2969 
L 2906 3500 
L 3481 3500 
L 3481 434 
z
" transform="scale(0.015625)"/>
      </defs>
      <use xlink:href="#DejaVuSans-4a"/>
      <use xlink:href="#DejaVuSans-2e" x="29.492188"/>
      <use xlink:href="#DejaVuSans-54" x="61.279297"/>
      <use xlink:href="#DejaVuSans-65" x="105.363281"/>
      <use xlink:href="#DejaVuSans-61" x="166.886719"/>
      <use xlink:href="#DejaVuSans-67" x="228.166016"/>
      <use xlink:href="#DejaVuSans-75" x="291.642578"/>
      <use xlink:href="#DejaVuSans-65" x="355.021484"/>
     </g>
    </g>
   </g>
   <g id="text_30">
    <g clip-path="url(#p502ef5577d)">
     <!-- K.Walker -->
     <g transform="translate(-8.239881 169.629383)scale(0.12 -0.12)">
      <defs>
       <path id="DejaVuSans-4b" d="M 628 4666 
L 1259 4666 
L 1259 2694 
L 3353 4666 
L 4166 4666 
L 1850 2491 
L 4331 0 
L 3500 0 
L 1259 2247 
L 1259 0 
L 628 0 
L 628 4666 
z
" transform="scale(0.015625)"/>
       <path id="DejaVuSans-6b" d="M 581 4863 
L 1159 4863 
L 1159 1991 
L 2875 3500 
L 3609 3500 
L 1753 1863 
L 3688 0 
L 2938 0 
L 1159 1709 
L 1159 0 
L 581 0 
L 581 4863 
z
" transform="scale(0.015625)"/>
      </defs>
      <use xlink:href="#DejaVuSans-4b"/>
      <use xlink:href="#DejaVuSans-2e" x="65.576172"/>
      <use xlink:href="#DejaVuSans-57" x="97.363281"/>
      <use xlink:href="#DejaVuSans-61" x="189.865234"/>
      <use xlink:href="#DejaVuSans-6c" x="251.144531"/>
      <use xlink:href="#DejaVuSans-6b" x="278.927734"/>
      <use xlink:href="#DejaVuSans-65" x="333.212891"/>
      <use xlink:href="#DejaVuSans-72" x="394.736328"/>
     </g>
    </g>
   </g>
   <g id="text_31">
    <g clip-path="url(#p502ef5577d)">
     <!-- L.Kornet -->
     <g transform="translate(1.185008 215.920245)scale(0.12 -0.12)">
      <defs>
       <path id="DejaVuSans-4c" d="M 628 4666 
L 1259 4666 
L 1259 531 
L 3531 531 
L 3531 0 
L 628 0 
L 628 4666 
z
" transform="scale(0.015625)"/>
      </defs>
      <use xlink:href="#DejaVuSans-4c"/>
      <use xlink:href="#DejaVuSans-2e" x="55.712891"/>
      <use xlink:href="#DejaVuSans-4b" x="87.5"/>
      <use xlink:href="#DejaVuSans-6f" x="148.076172"/>
      <use xlink:href="#DejaVuSans-72" x="209.257812"/>
      <use xlink:href="#DejaVuSans-6e" x="248.621094"/>
      <use xlink:href="#DejaVuSans-65" x="312"/>
      <use xlink:href="#DejaVuSans-74" x="373.523438"/>
     </g>
    </g>
   </g>
   <g id="text_32">
    <g clip-path="url(#p502ef5577d)">
     <!-- M.Smart -->
     <g transform="translate(23.861686 256.627749)scale(0.12 -0.12)">
      <defs>
       <path id="DejaVuSans-4d" d="M 628 4666 
L 1569 4666 
L 2759 1491 
L 3956 4666 
L 4897 4666 
L 4897 0 
L 4281 0 
L 4281 4097 
L 3078 897 
L 2444 897 
L 1241 4097 
L 1241 0 
L 628 0 
L 628 4666 
z
" transform="scale(0.015625)"/>
       <path id="DejaVuSans-53" d="M 3425 4513 
L 3425 3897 
Q 3066 4069 2747 4153 
Q 2428 4238 2131 4238 
Q 1616 4238 1336 4038 
Q 1056 3838 1056 3469 
Q 1056 3159 1242 3001 
Q 1428 2844 1947 2747 
L 2328 2669 
Q 3034 2534 3370 2195 
Q 3706 1856 3706 1288 
Q 3706 609 3251 259 
Q 2797 -91 1919 -91 
Q 1588 -91 1214 -16 
Q 841 59 441 206 
L 441 856 
Q 825 641 1194 531 
Q 1563 422 1919 422 
Q 2459 422 2753 634 
Q 3047 847 3047 1241 
Q 3047 1584 2836 1778 
Q 2625 1972 2144 2069 
L 1759 2144 
Q 1053 2284 737 2584 
Q 422 2884 422 3419 
Q 422 4038 858 4394 
Q 1294 4750 2059 4750 
Q 2388 4750 2728 4690 
Q 3069 4631 3425 4513 
z
" transform="scale(0.015625)"/>
      </defs>
      <use xlink:href="#DejaVuSans-4d"/>
      <use xlink:href="#DejaVuSans-2e" x="86.279297"/>
      <use xlink:href="#DejaVuSans-53" x="118.066406"/>
      <use xlink:href="#DejaVuSans-6d" x="181.542969"/>
      <use xlink:href="#DejaVuSans-61" x="278.955078"/>
      <use xlink:href="#DejaVuSans-72" x="340.234375"/>
      <use xlink:href="#DejaVuSans-74" x="381.347656"/>
     </g>
    </g>
   </g>
   <g id="text_33">
    <g clip-path="url(#p502ef5577d)">
     <!-- P.Pritchard -->
     <g transform="translate(53.020697 286.841981)scale(0.12 -0.12)">
      <defs>
       <path id="DejaVuSans-50" d="M 1259 4147 
L 1259 2394 
L 2053 2394 
Q 2494 2394 2734 2622 
Q 2975 2850 2975 3272 
Q 2975 3691 2734 3919 
Q 2494 4147 2053 4147 
L 1259 4147 
z
M 628 4666 
L 2053 4666 
Q 2838 4666 3239 4311 
Q 3641 3956 3641 3272 
Q 3641 2581 3239 2228 
Q 2838 1875 2053 1875 
L 1259 1875 
L 1259 0 
L 628 0 
L 628 4666 
z
" transform="scale(0.015625)"/>
       <path id="DejaVuSans-63" d="M 3122 3366 
L 3122 2828 
Q 2878 2963 2633 3030 
Q 2388 3097 2138 3097 
Q 1578 3097 1268 2742 
Q 959 2388 959 1747 
Q 959 1106 1268 751 
Q 1578 397 2138 397 
Q 2388 397 2633 464 
Q 2878 531 3122 666 
L 3122 134 
Q 2881 22 2623 -34 
Q 2366 -91 2075 -91 
Q 1284 -91 818 406 
Q 353 903 353 1747 
Q 353 2603 823 3093 
Q 1294 3584 2113 3584 
Q 2378 3584 2631 3529 
Q 2884 3475 3122 3366 
z
" transform="scale(0.015625)"/>
      </defs>
      <use xlink:href="#DejaVuSans-50"/>
      <use xlink:href="#DejaVuSans-2e" x="44.677734"/>
      <use xlink:href="#DejaVuSans-50" x="76.464844"/>
      <use xlink:href="#DejaVuSans-72" x="135.017578"/>
      <use xlink:href="#DejaVuSans-69" x="176.130859"/>
      <use xlink:href="#DejaVuSans-74" x="203.914062"/>
      <use xlink:href="#DejaVuSans-63" x="243.123047"/>
      <use xlink:href="#DejaVuSans-68" x="298.103516"/>
      <use xlink:href="#DejaVuSans-61" x="361.482422"/>
      <use xlink:href="#DejaVuSans-72" x="422.761719"/>
      <use xlink:href="#DejaVuSans-64" x="462.125"/>
     </g>
    </g>
   </g>
   <g id="text_34">
    <g clip-path="url(#p502ef5577d)">
     <!-- R.Williams III -->
     <g transform="translate(89.867382 302.918631)scale(0.12 -0.12)">
      <defs>
       <path id="DejaVuSans-52" d="M 2841 2188 
Q 3044 2119 3236 1894 
Q 3428 1669 3622 1275 
L 4263 0 
L 3584 0 
L 2988 1197 
Q 2756 1666 2539 1819 
Q 2322 1972 1947 1972 
L 1259 1972 
L 1259 0 
L 628 0 
L 628 4666 
L 2053 4666 
Q 2853 4666 3247 4331 
Q 3641 3997 3641 3322 
Q 3641 2881 3436 2590 
Q 3231 2300 2841 2188 
z
M 1259 4147 
L 1259 2491 
L 2053 2491 
Q 2509 2491 2742 2702 
Q 2975 2913 2975 3322 
Q 2975 3731 2742 3939 
Q 2509 4147 2053 4147 
L 1259 4147 
z
" transform="scale(0.015625)"/>
       <path id="DejaVuSans-20" transform="scale(0.015625)"/>
       <path id="DejaVuSans-49" d="M 628 4666 
L 1259 4666 
L 1259 0 
L 628 0 
L 628 4666 
z
" transform="scale(0.015625)"/>
      </defs>
      <use xlink:href="#DejaVuSans-52"/>
      <use xlink:href="#DejaVuSans-2e" x="65.857422"/>
      <use xlink:href="#DejaVuSans-57" x="97.644531"/>
      <use xlink:href="#DejaVuSans-69" x="194.271484"/>
      <use xlink:href="#DejaVuSans-6c" x="222.054688"/>
      <use xlink:href="#DejaVuSans-6c" x="249.837891"/>
      <use xlink:href="#DejaVuSans-69" x="277.621094"/>
      <use xlink:href="#DejaVuSans-61" x="305.404297"/>
      <use xlink:href="#DejaVuSans-6d" x="366.683594"/>
      <use xlink:href="#DejaVuSans-73" x="464.095703"/>
      <use xlink:href="#DejaVuSans-20" x="516.195312"/>
      <use xlink:href="#DejaVuSans-49" x="547.982422"/>
      <use xlink:href="#DejaVuSans-49" x="577.474609"/>
      <use xlink:href="#DejaVuSans-49" x="606.966797"/>
     </g>
    </g>
   </g>
   <g id="text_35">
    <g clip-path="url(#p502ef5577d)">
     <!-- R.Langford -->
     <g transform="translate(141.901372 302.918623)scale(0.12 -0.12)">
      <defs>
       <path id="DejaVuSans-66" d="M 2375 4863 
L 2375 4384 
L 1825 4384 
Q 1516 4384 1395 4259 
Q 1275 4134 1275 3809 
L 1275 3500 
L 2222 3500 
L 2222 3053 
L 1275 3053 
L 1275 0 
L 697 0 
L 697 3053 
L 147 3053 
L 147 3500 
L 697 3500 
L 697 3744 
Q 697 4328 969 4595 
Q 1241 4863 1831 4863 
L 2375 4863 
z
" transform="scale(0.015625)"/>
      </defs>
      <use xlink:href="#DejaVuSans-52"/>
      <use xlink:href="#DejaVuSans-2e" x="65.857422"/>
      <use xlink:href="#DejaVuSans-4c" x="97.644531"/>
      <use xlink:href="#DejaVuSans-61" x="153.357422"/>
      <use xlink:href="#DejaVuSans-6e" x="214.636719"/>
      <use xlink:href="#DejaVuSans-67" x="278.015625"/>
      <use xlink:href="#DejaVuSans-66" x="341.492188"/>
      <use xlink:href="#DejaVuSans-6f" x="376.697266"/>
      <use xlink:href="#DejaVuSans-72" x="437.878906"/>
      <use xlink:href="#DejaVuSans-64" x="477.242188"/>
     </g>
    </g>
   </g>
   <g id="text_36">
    <g clip-path="url(#p502ef5577d)">
     <!-- S.Ojeleye -->
     <g transform="translate(189.444929 286.841981)scale(0.12 -0.12)">
      <defs>
       <path id="DejaVuSans-4f" d="M 2522 4238 
Q 1834 4238 1429 3725 
Q 1025 3213 1025 2328 
Q 1025 1447 1429 934 
Q 1834 422 2522 422 
Q 3209 422 3611 934 
Q 4013 1447 4013 2328 
Q 4013 3213 3611 3725 
Q 3209 4238 2522 4238 
z
M 2522 4750 
Q 3503 4750 4090 4092 
Q 4678 3434 4678 2328 
Q 4678 1225 4090 567 
Q 3503 -91 2522 -91 
Q 1538 -91 948 565 
Q 359 1222 359 2328 
Q 359 3434 948 4092 
Q 1538 4750 2522 4750 
z
" transform="scale(0.015625)"/>
       <path id="DejaVuSans-6a" d="M 603 3500 
L 1178 3500 
L 1178 -63 
Q 1178 -731 923 -1031 
Q 669 -1331 103 -1331 
L -116 -1331 
L -116 -844 
L 38 -844 
Q 366 -844 484 -692 
Q 603 -541 603 -63 
L 603 3500 
z
M 603 4863 
L 1178 4863 
L 1178 4134 
L 603 4134 
L 603 4863 
z
" transform="scale(0.015625)"/>
       <path id="DejaVuSans-79" d="M 2059 -325 
Q 1816 -950 1584 -1140 
Q 1353 -1331 966 -1331 
L 506 -1331 
L 506 -850 
L 844 -850 
Q 1081 -850 1212 -737 
Q 1344 -625 1503 -206 
L 1606 56 
L 191 3500 
L 800 3500 
L 1894 763 
L 2988 3500 
L 3597 3500 
L 2059 -325 
z
" transform="scale(0.015625)"/>
      </defs>
      <use xlink:href="#DejaVuSans-53"/>
      <use xlink:href="#DejaVuSans-2e" x="63.476562"/>
      <use xlink:href="#DejaVuSans-4f" x="95.263672"/>
      <use xlink:href="#DejaVuSans-6a" x="173.974609"/>
      <use xlink:href="#DejaVuSans-65" x="201.757812"/>
      <use xlink:href="#DejaVuSans-6c" x="263.28125"/>
      <use xlink:href="#DejaVuSans-65" x="291.064453"/>
      <use xlink:href="#DejaVuSans-79" x="352.587891"/>
      <use xlink:href="#DejaVuSans-65" x="411.767578"/>
     </g>
    </g>
   </g>
   <g id="text_37">
    <g clip-path="url(#p502ef5577d)">
     <!-- T.Waters -->
     <g transform="translate(227.58329 256.627773)scale(0.12 -0.12)">
      <use xlink:href="#DejaVuSans-54"/>
      <use xlink:href="#DejaVuSans-2e" x="49.208984"/>
      <use xlink:href="#DejaVuSans-57" x="80.996094"/>
      <use xlink:href="#DejaVuSans-61" x="173.498047"/>
      <use xlink:href="#DejaVuSans-74" x="234.777344"/>
      <use xlink:href="#DejaVuSans-65" x="273.986328"/>
      <use xlink:href="#DejaVuSans-72" x="335.509766"/>
      <use xlink:href="#DejaVuSans-73" x="376.623047"/>
     </g>
    </g>
   </g>
   <g id="text_38">
    <g clip-path="url(#p502ef5577d)">
     <!-- T.Thompson -->
     <g transform="translate(240.20061 215.920273)scale(0.12 -0.12)">
      <defs>
       <path id="DejaVuSans-70" d="M 1159 525 
L 1159 -1331 
L 581 -1331 
L 581 3500 
L 1159 3500 
L 1159 2969 
Q 1341 3281 1617 3432 
Q 1894 3584 2278 3584 
Q 2916 3584 3314 3078 
Q 3713 2572 3713 1747 
Q 3713 922 3314 415 
Q 2916 -91 2278 -91 
Q 1894 -91 1617 61 
Q 1341 213 1159 525 
z
M 3116 1747 
Q 3116 2381 2855 2742 
Q 2594 3103 2138 3103 
Q 1681 3103 1420 2742 
Q 1159 2381 1159 1747 
Q 1159 1113 1420 752 
Q 1681 391 2138 391 
Q 2594 391 2855 752 
Q 3116 1113 3116 1747 
z
" transform="scale(0.015625)"/>
      </defs>
      <use xlink:href="#DejaVuSans-54"/>
      <use xlink:href="#DejaVuSans-2e" x="49.208984"/>
      <use xlink:href="#DejaVuSans-54" x="80.996094"/>
      <use xlink:href="#DejaVuSans-68" x="142.080078"/>
      <use xlink:href="#DejaVuSans-6f" x="205.458984"/>
      <use xlink:href="#DejaVuSans-6d" x="266.640625"/>
      <use xlink:href="#DejaVuSans-70" x="364.052734"/>
      <use xlink:href="#DejaVuSans-73" x="427.529297"/>
      <use xlink:href="#DejaVuSans-6f" x="479.628906"/>
      <use xlink:href="#DejaVuSans-6e" x="540.810547"/>
     </g>
    </g>
   </g>
   <g id="text_39">
    <!-- 2020-21 Boston Celtics Passing Network -->
    <g transform="translate(30.165 16.318125)scale(0.12 -0.12)">
     <defs>
      <path id="DejaVuSans-2d" d="M 313 2009 
L 1997 2009 
L 1997 1497 
L 313 1497 
L 313 2009 
z
" transform="scale(0.015625)"/>
     </defs>
     <use xlink:href="#DejaVuSans-32"/>
     <use xlink:href="#DejaVuSans-30" x="63.623047"/>
     <use xlink:href="#DejaVuSans-32" x="127.246094"/>
     <use xlink:href="#DejaVuSans-30" x="190.869141"/>
     <use xlink:href="#DejaVuSans-2d" x="254.492188"/>
     <use xlink:href="#DejaVuSans-32" x="290.576172"/>
     <use xlink:href="#DejaVuSans-31" x="354.199219"/>
     <use xlink:href="#DejaVuSans-20" x="417.822266"/>
     <use xlink:href="#DejaVuSans-42" x="449.609375"/>
     <use xlink:href="#DejaVuSans-6f" x="518.212891"/>
     <use xlink:href="#DejaVuSans-73" x="579.394531"/>
     <use xlink:href="#DejaVuSans-74" x="631.494141"/>
     <use xlink:href="#DejaVuSans-6f" x="670.703125"/>
     <use xlink:href="#DejaVuSans-6e" x="731.884766"/>
     <use xlink:href="#DejaVuSans-20" x="795.263672"/>
     <use xlink:href="#DejaVuSans-43" x="827.050781"/>
     <use xlink:href="#DejaVuSans-65" x="896.875"/>
     <use xlink:href="#DejaVuSans-6c" x="958.398438"/>
     <use xlink:href="#DejaVuSans-74" x="986.181641"/>
     <use xlink:href="#DejaVuSans-69" x="1025.390625"/>
     <use xlink:href="#DejaVuSans-63" x="1053.173828"/>
     <use xlink:href="#DejaVuSans-73" x="1108.154297"/>
     <use xlink:href="#DejaVuSans-20" x="1160.253906"/>
     <use xlink:href="#DejaVuSans-50" x="1192.041016"/>
     <use xlink:href="#DejaVuSans-61" x="1247.84375"/>
     <use xlink:href="#DejaVuSans-73" x="1309.123047"/>
     <use xlink:href="#DejaVuSans-73" x="1361.222656"/>
     <use xlink:href="#DejaVuSans-69" x="1413.322266"/>
     <use xlink:href="#DejaVuSans-6e" x="1441.105469"/>
     <use xlink:href="#DejaVuSans-67" x="1504.484375"/>
     <use xlink:href="#DejaVuSans-20" x="1567.960938"/>
     <use xlink:href="#DejaVuSans-4e" x="1599.748047"/>
     <use xlink:href="#DejaVuSans-65" x="1674.552734"/>
     <use xlink:href="#DejaVuSans-74" x="1736.076172"/>
     <use xlink:href="#DejaVuSans-77" x="1775.285156"/>
     <use xlink:href="#DejaVuSans-6f" x="1857.072266"/>
     <use xlink:href="#DejaVuSans-72" x="1918.253906"/>
     <use xlink:href="#DejaVuSans-6b" x="1959.367188"/>
    </g>
   </g>
  </g>
 </g>
 <defs>
  <clipPath id="p502ef5577d">
   <rect x="7.2" y="22.318125" width="288" height="288"/>
  </clipPath>
 </defs>
</svg>
