<?xml version="1.0" encoding="utf-8" standalone="no"?>
<!DOCTYPE svg PUBLIC "-//W3C//DTD SVG 1.1//EN"
  "http://www.w3.org/Graphics/SVG/1.1/DTD/svg11.dtd">
<svg xmlns:xlink="http://www.w3.org/1999/xlink" width="302.4pt" height="317.518125pt" viewBox="0 0 302.4 317.518125" xmlns="http://www.w3.org/2000/svg" version="1.1">
 <metadata>
  <rdf:RDF xmlns:dc="http://purl.org/dc/elements/1.1/" xmlns:cc="http://creativecommons.org/ns#" xmlns:rdf="http://www.w3.org/1999/02/22-rdf-syntax-ns#">
   <cc:Work>
    <dc:type rdf:resource="http://purl.org/dc/dcmitype/StillImage"/>
    <dc:date>2024-06-20T17:31:47.551270</dc:date>
    <dc:format>image/svg+xml</dc:format>
    <dc:creator>
     <cc:Agent>
      <dc:title>Matplotlib v3.5.2, https://matplotlib.org/</dc:title>
     </cc:Agent>
    </dc:creator>
   </cc:Work>
  </rdf:RDF>
 </metadata>
 <defs>
  <style type="text/css">*{stroke-linejoin: round; stroke-linecap: butt}</style>
 </defs>
 <g id="figure_1">
  <g id="patch_1">
   <path d="M 0 317.518125 
L 302.4 317.518125 
L 302.4 0 
L 0 0 
z
" style="fill: #ffffff"/>
  </g>
  <g id="axes_1">
   <g id="LineCollection_1">
    <path d="M 270.208264 166.318121 
L 263.031187 124.986987 
" clip-path="url(#p4346fc814e)" style="fill: none; stroke: #f4f4f4; stroke-width: 0.12"/>
    <path d="M 270.208264 166.318121 
L 210.704129 61.664005 
" clip-path="url(#p4346fc814e)" style="fill: none; stroke: #fbfbfb; stroke-width: 0.06"/>
    <path d="M 270.208264 166.318121 
L 171.865574 47.309861 
" clip-path="url(#p4346fc814e)" style="fill: none; stroke: #f6f6f6; stroke-width: 0.1"/>
    <path d="M 270.208264 166.318121 
L 130.53443 47.309861 
" clip-path="url(#p4346fc814e)" style="fill: none; stroke: #ffffff; stroke-width: 0.02"/>
    <path d="M 270.208264 166.318121 
L 91.695861 61.664013 
" clip-path="url(#p4346fc814e)" style="fill: none; stroke: #fbfbfb; stroke-width: 0.06"/>
    <path d="M 270.208264 166.318121 
L 60.034381 88.640991 
" clip-path="url(#p4346fc814e)" style="fill: none; stroke: #dfdfdf; stroke-width: 0.3"/>
    <path d="M 270.208264 166.318121 
L 39.368813 124.986977 
" clip-path="url(#p4346fc814e)" style="fill: none; stroke: #ffffff; stroke-width: 0.02"/>
    <path d="M 270.208264 166.318121 
L 32.191736 166.318132 
" clip-path="url(#p4346fc814e)" style="fill: none; stroke: #f6f6f6; stroke-width: 0.1"/>
    <path d="M 270.208264 166.318121 
L 39.368813 207.649259 
" clip-path="url(#p4346fc814e)" style="fill: none; stroke: #f8f8f8; stroke-width: 0.08"/>
    <path d="M 270.208264 166.318121 
L 60.034374 243.995245 
" clip-path="url(#p4346fc814e)" style="fill: none; stroke: #f8f8f8; stroke-width: 0.08"/>
    <path d="M 270.208264 166.318121 
L 91.695878 270.972237 
" clip-path="url(#p4346fc814e)" style="fill: none; stroke: #f6f6f6; stroke-width: 0.1"/>
    <path d="M 270.208264 166.318121 
L 130.534437 285.326389 
" clip-path="url(#p4346fc814e)" style="fill: none; stroke: #fbfbfb; stroke-width: 0.06"/>
    <path d="M 270.208264 166.318121 
L 210.704122 270.972237 
" clip-path="url(#p4346fc814e)" style="fill: none; stroke: #f8f8f8; stroke-width: 0.08"/>
    <path d="M 270.208264 166.318121 
L 242.365605 243.995266 
" clip-path="url(#p4346fc814e)" style="fill: none; stroke: #e3e3e3; stroke-width: 0.26"/>
    <path d="M 270.208264 166.318121 
L 263.03118 207.649284 
" clip-path="url(#p4346fc814e)" style="fill: none; stroke: #fdfdfd; stroke-width: 0.04"/>
    <path d="M 263.031187 124.986987 
L 242.365619 88.640998 
" clip-path="url(#p4346fc814e)" style="fill: none; stroke: #ffffff; stroke-width: 0.02"/>
    <path d="M 263.031187 124.986987 
L 171.865574 47.309861 
" clip-path="url(#p4346fc814e)" style="fill: none; stroke: #fdfdfd; stroke-width: 0.04"/>
    <path d="M 263.031187 124.986987 
L 91.695861 61.664013 
" clip-path="url(#p4346fc814e)" style="fill: none; stroke: #fdfdfd; stroke-width: 0.04"/>
    <path d="M 263.031187 124.986987 
L 60.034381 88.640991 
" clip-path="url(#p4346fc814e)" style="fill: none; stroke: #fbfbfb; stroke-width: 0.06"/>
    <path d="M 263.031187 124.986987 
L 39.368813 124.986977 
" clip-path="url(#p4346fc814e)" style="fill: none; stroke: #fdfdfd; stroke-width: 0.04"/>
    <path d="M 263.031187 124.986987 
L 32.191736 166.318132 
" clip-path="url(#p4346fc814e)" style="fill: none; stroke: #fbfbfb; stroke-width: 0.06"/>
    <path d="M 263.031187 124.986987 
L 60.034374 243.995245 
" clip-path="url(#p4346fc814e)" style="fill: none; stroke: #fdfdfd; stroke-width: 0.04"/>
    <path d="M 263.031187 124.986987 
L 91.695878 270.972237 
" clip-path="url(#p4346fc814e)" style="fill: none; stroke: #f6f6f6; stroke-width: 0.1"/>
    <path d="M 263.031187 124.986987 
L 130.534437 285.326389 
" clip-path="url(#p4346fc814e)" style="fill: none; stroke: #ffffff; stroke-width: 0.02"/>
    <path d="M 263.031187 124.986987 
L 171.865567 285.326382 
" clip-path="url(#p4346fc814e)" style="fill: none; stroke: #ffffff; stroke-width: 0.02"/>
    <path d="M 263.031187 124.986987 
L 210.704122 270.972237 
" clip-path="url(#p4346fc814e)" style="fill: none; stroke: #fdfdfd; stroke-width: 0.04"/>
    <path d="M 263.031187 124.986987 
L 242.365605 243.995266 
" clip-path="url(#p4346fc814e)" style="fill: none; stroke: #e8e8e8; stroke-width: 0.22"/>
    <path d="M 263.031187 124.986987 
L 263.03118 207.649284 
" clip-path="url(#p4346fc814e)" style="fill: none; stroke: #ffffff; stroke-width: 0.02"/>
    <path d="M 242.365619 88.640998 
L 171.865574 47.309861 
" clip-path="url(#p4346fc814e)" style="fill: none; stroke: #f8f8f8; stroke-width: 0.08"/>
    <path d="M 242.365619 88.640998 
L 91.695861 61.664013 
" clip-path="url(#p4346fc814e)" style="fill: none; stroke: #9b9b9b; stroke-width: 0.88"/>
    <path d="M 242.365619 88.640998 
L 60.034381 88.640991 
" clip-path="url(#p4346fc814e)" style="fill: none; stroke: #adadad; stroke-width: 0.72"/>
    <path d="M 242.365619 88.640998 
L 39.368813 124.986977 
" clip-path="url(#p4346fc814e)" style="fill: none; stroke: #dfdfdf; stroke-width: 0.3"/>
    <path d="M 242.365619 88.640998 
L 32.191736 166.318132 
" clip-path="url(#p4346fc814e)" style="fill: none; stroke: #a6a6a6; stroke-width: 0.78"/>
    <path d="M 242.365619 88.640998 
L 60.034374 243.995245 
" clip-path="url(#p4346fc814e)" style="fill: none; stroke: #b0b0b0; stroke-width: 0.7"/>
    <path d="M 242.365619 88.640998 
L 91.695878 270.972237 
" clip-path="url(#p4346fc814e)" style="fill: none; stroke: #efefef; stroke-width: 0.16"/>
    <path d="M 242.365619 88.640998 
L 130.534437 285.326389 
" clip-path="url(#p4346fc814e)" style="fill: none; stroke: #f8f8f8; stroke-width: 0.08"/>
    <path d="M 242.365619 88.640998 
L 210.704122 270.972237 
" clip-path="url(#p4346fc814e)" style="fill: none; stroke: #f4f4f4; stroke-width: 0.12"/>
    <path d="M 242.365619 88.640998 
L 263.03118 207.649284 
" clip-path="url(#p4346fc814e)" style="fill: none; stroke: #e8e8e8; stroke-width: 0.22"/>
    <path d="M 210.704129 61.664005 
L 171.865574 47.309861 
" clip-path="url(#p4346fc814e)" style="fill: none; stroke: #f6f6f6; stroke-width: 0.1"/>
    <path d="M 210.704129 61.664005 
L 91.695861 61.664013 
" clip-path="url(#p4346fc814e)" style="fill: none; stroke: #f8f8f8; stroke-width: 0.08"/>
    <path d="M 210.704129 61.664005 
L 60.034381 88.640991 
" clip-path="url(#p4346fc814e)" style="fill: none; stroke: #c2c2c2; stroke-width: 0.54"/>
    <path d="M 210.704129 61.664005 
L 32.191736 166.318132 
" clip-path="url(#p4346fc814e)" style="fill: none; stroke: #dcdcdc; stroke-width: 0.32"/>
    <path d="M 210.704129 61.664005 
L 39.368813 207.649259 
" clip-path="url(#p4346fc814e)" style="fill: none; stroke: #f4f4f4; stroke-width: 0.12"/>
    <path d="M 210.704129 61.664005 
L 60.034374 243.995245 
" clip-path="url(#p4346fc814e)" style="fill: none; stroke: #d3d3d3; stroke-width: 0.4"/>
    <path d="M 210.704129 61.664005 
L 91.695878 270.972237 
" clip-path="url(#p4346fc814e)" style="fill: none; stroke: #f4f4f4; stroke-width: 0.12"/>
    <path d="M 210.704129 61.664005 
L 130.534437 285.326389 
" clip-path="url(#p4346fc814e)" style="fill: none; stroke: #e8e8e8; stroke-width: 0.22"/>
    <path d="M 210.704129 61.664005 
L 171.865567 285.326382 
" clip-path="url(#p4346fc814e)" style="fill: none; stroke: #ffffff; stroke-width: 0.02"/>
    <path d="M 210.704129 61.664005 
L 210.704122 270.972237 
" clip-path="url(#p4346fc814e)" style="fill: none; stroke: #ffffff; stroke-width: 0.02"/>
    <path d="M 210.704129 61.664005 
L 242.365605 243.995266 
" clip-path="url(#p4346fc814e)" style="fill: none; stroke: #ffffff; stroke-width: 0.02"/>
    <path d="M 210.704129 61.664005 
L 263.03118 207.649284 
" clip-path="url(#p4346fc814e)" style="fill: none; stroke: #f6f6f6; stroke-width: 0.1"/>
    <path d="M 171.865574 47.309861 
L 130.53443 47.309861 
" clip-path="url(#p4346fc814e)" style="fill: none; stroke: #ffffff; stroke-width: 0.02"/>
    <path d="M 171.865574 47.309861 
L 91.695861 61.664013 
" clip-path="url(#p4346fc814e)" style="fill: none; stroke: #dfdfdf; stroke-width: 0.3"/>
    <path d="M 171.865574 47.309861 
L 60.034381 88.640991 
" clip-path="url(#p4346fc814e)" style="fill: none; stroke: #b4b4b4; stroke-width: 0.66"/>
    <path d="M 171.865574 47.309861 
L 39.368813 124.986977 
" clip-path="url(#p4346fc814e)" style="fill: none; stroke: #f8f8f8; stroke-width: 0.08"/>
    <path d="M 171.865574 47.309861 
L 32.191736 166.318132 
" clip-path="url(#p4346fc814e)" style="fill: none; stroke: #dadada; stroke-width: 0.34"/>
    <path d="M 171.865574 47.309861 
L 39.368813 207.649259 
" clip-path="url(#p4346fc814e)" style="fill: none; stroke: #ffffff; stroke-width: 0.02"/>
    <path d="M 171.865574 47.309861 
L 60.034374 243.995245 
" clip-path="url(#p4346fc814e)" style="fill: none; stroke: #eaeaea; stroke-width: 0.2"/>
    <path d="M 171.865574 47.309861 
L 91.695878 270.972237 
" clip-path="url(#p4346fc814e)" style="fill: none; stroke: #bebebe; stroke-width: 0.58"/>
    <path d="M 171.865574 47.309861 
L 130.534437 285.326389 
" clip-path="url(#p4346fc814e)" style="fill: none; stroke: #f4f4f4; stroke-width: 0.12"/>
    <path d="M 171.865574 47.309861 
L 171.865567 285.326382 
" clip-path="url(#p4346fc814e)" style="fill: none; stroke: #f6f6f6; stroke-width: 0.1"/>
    <path d="M 171.865574 47.309861 
L 210.704122 270.972237 
" clip-path="url(#p4346fc814e)" style="fill: none; stroke: #fdfdfd; stroke-width: 0.04"/>
    <path d="M 171.865574 47.309861 
L 242.365605 243.995266 
" clip-path="url(#p4346fc814e)" style="fill: none; stroke: #f6f6f6; stroke-width: 0.1"/>
    <path d="M 171.865574 47.309861 
L 263.03118 207.649284 
" clip-path="url(#p4346fc814e)" style="fill: none; stroke: #fbfbfb; stroke-width: 0.06"/>
    <path d="M 130.53443 47.309861 
L 91.695861 61.664013 
" clip-path="url(#p4346fc814e)" style="fill: none; stroke: #f6f6f6; stroke-width: 0.1"/>
    <path d="M 130.53443 47.309861 
L 60.034381 88.640991 
" clip-path="url(#p4346fc814e)" style="fill: none; stroke: #efefef; stroke-width: 0.16"/>
    <path d="M 130.53443 47.309861 
L 39.368813 124.986977 
" clip-path="url(#p4346fc814e)" style="fill: none; stroke: #fbfbfb; stroke-width: 0.06"/>
    <path d="M 130.53443 47.309861 
L 32.191736 166.318132 
" clip-path="url(#p4346fc814e)" style="fill: none; stroke: #f8f8f8; stroke-width: 0.08"/>
    <path d="M 130.53443 47.309861 
L 60.034374 243.995245 
" clip-path="url(#p4346fc814e)" style="fill: none; stroke: #ffffff; stroke-width: 0.02"/>
    <path d="M 130.53443 47.309861 
L 91.695878 270.972237 
" clip-path="url(#p4346fc814e)" style="fill: none; stroke: #fdfdfd; stroke-width: 0.04"/>
    <path d="M 130.53443 47.309861 
L 130.534437 285.326389 
" clip-path="url(#p4346fc814e)" style="fill: none; stroke: #fdfdfd; stroke-width: 0.04"/>
    <path d="M 130.53443 47.309861 
L 210.704122 270.972237 
" clip-path="url(#p4346fc814e)" style="fill: none; stroke: #fdfdfd; stroke-width: 0.04"/>
    <path d="M 130.53443 47.309861 
L 242.365605 243.995266 
" clip-path="url(#p4346fc814e)" style="fill: none; stroke: #fdfdfd; stroke-width: 0.04"/>
    <path d="M 130.53443 47.309861 
L 263.03118 207.649284 
" clip-path="url(#p4346fc814e)" style="fill: none; stroke: #ffffff; stroke-width: 0.02"/>
    <path d="M 91.695861 61.664013 
L 60.034381 88.640991 
" clip-path="url(#p4346fc814e)" style="fill: none; stroke: #484848; stroke-width: 1.58"/>
    <path d="M 91.695861 61.664013 
L 39.368813 124.986977 
" clip-path="url(#p4346fc814e)" style="fill: none; stroke: #dcdcdc; stroke-width: 0.32"/>
    <path d="M 91.695861 61.664013 
L 32.191736 166.318132 
" clip-path="url(#p4346fc814e)" style="fill: none; stroke: #676767; stroke-width: 1.32"/>
    <path d="M 91.695861 61.664013 
L 39.368813 207.649259 
" clip-path="url(#p4346fc814e)" style="fill: none; stroke: #f8f8f8; stroke-width: 0.08"/>
    <path d="M 91.695861 61.664013 
L 60.034374 243.995245 
" clip-path="url(#p4346fc814e)" style="fill: none; stroke: #000000; stroke-width: 2.2"/>
    <path d="M 91.695861 61.664013 
L 91.695878 270.972237 
" clip-path="url(#p4346fc814e)" style="fill: none; stroke: #b0b0b0; stroke-width: 0.7"/>
    <path d="M 91.695861 61.664013 
L 130.534437 285.326389 
" clip-path="url(#p4346fc814e)" style="fill: none; stroke: #a9a9a9; stroke-width: 0.76"/>
    <path d="M 91.695861 61.664013 
L 171.865567 285.326382 
" clip-path="url(#p4346fc814e)" style="fill: none; stroke: #ffffff; stroke-width: 0.02"/>
    <path d="M 91.695861 61.664013 
L 210.704122 270.972237 
" clip-path="url(#p4346fc814e)" style="fill: none; stroke: #cecece; stroke-width: 0.44"/>
    <path d="M 91.695861 61.664013 
L 242.365605 243.995266 
" clip-path="url(#p4346fc814e)" style="fill: none; stroke: #fbfbfb; stroke-width: 0.06"/>
    <path d="M 91.695861 61.664013 
L 263.03118 207.649284 
" clip-path="url(#p4346fc814e)" style="fill: none; stroke: #9b9b9b; stroke-width: 0.88"/>
    <path d="M 60.034381 88.640991 
L 39.368813 124.986977 
" clip-path="url(#p4346fc814e)" style="fill: none; stroke: #e3e3e3; stroke-width: 0.26"/>
    <path d="M 60.034381 88.640991 
L 32.191736 166.318132 
" clip-path="url(#p4346fc814e)" style="fill: none; stroke: #7a7a7a; stroke-width: 1.16"/>
    <path d="M 60.034381 88.640991 
L 39.368813 207.649259 
" clip-path="url(#p4346fc814e)" style="fill: none; stroke: #efefef; stroke-width: 0.16"/>
    <path d="M 60.034381 88.640991 
L 60.034374 243.995245 
" clip-path="url(#p4346fc814e)" style="fill: none; stroke: #2e2e2e; stroke-width: 1.8"/>
    <path d="M 60.034381 88.640991 
L 91.695878 270.972237 
" clip-path="url(#p4346fc814e)" style="fill: none; stroke: #b7b7b7; stroke-width: 0.64"/>
    <path d="M 60.034381 88.640991 
L 130.534437 285.326389 
" clip-path="url(#p4346fc814e)" style="fill: none; stroke: #939393; stroke-width: 0.94"/>
    <path d="M 60.034381 88.640991 
L 171.865567 285.326382 
" clip-path="url(#p4346fc814e)" style="fill: none; stroke: #fdfdfd; stroke-width: 0.04"/>
    <path d="M 60.034381 88.640991 
L 210.704122 270.972237 
" clip-path="url(#p4346fc814e)" style="fill: none; stroke: #c5c5c5; stroke-width: 0.52"/>
    <path d="M 60.034381 88.640991 
L 242.365605 243.995266 
" clip-path="url(#p4346fc814e)" style="fill: none; stroke: #ededed; stroke-width: 0.18"/>
    <path d="M 60.034381 88.640991 
L 263.03118 207.649284 
" clip-path="url(#p4346fc814e)" style="fill: none; stroke: #b7b7b7; stroke-width: 0.64"/>
    <path d="M 39.368813 124.986977 
L 32.191736 166.318132 
" clip-path="url(#p4346fc814e)" style="fill: none; stroke: #f8f8f8; stroke-width: 0.08"/>
    <path d="M 39.368813 124.986977 
L 60.034374 243.995245 
" clip-path="url(#p4346fc814e)" style="fill: none; stroke: #f4f4f4; stroke-width: 0.12"/>
    <path d="M 39.368813 124.986977 
L 91.695878 270.972237 
" clip-path="url(#p4346fc814e)" style="fill: none; stroke: #f4f4f4; stroke-width: 0.12"/>
    <path d="M 39.368813 124.986977 
L 130.534437 285.326389 
" clip-path="url(#p4346fc814e)" style="fill: none; stroke: #cecece; stroke-width: 0.44"/>
    <path d="M 39.368813 124.986977 
L 210.704122 270.972237 
" clip-path="url(#p4346fc814e)" style="fill: none; stroke: #fbfbfb; stroke-width: 0.06"/>
    <path d="M 39.368813 124.986977 
L 263.03118 207.649284 
" clip-path="url(#p4346fc814e)" style="fill: none; stroke: #f8f8f8; stroke-width: 0.08"/>
    <path d="M 32.191736 166.318132 
L 39.368813 207.649259 
" clip-path="url(#p4346fc814e)" style="fill: none; stroke: #fdfdfd; stroke-width: 0.04"/>
    <path d="M 32.191736 166.318132 
L 60.034374 243.995245 
" clip-path="url(#p4346fc814e)" style="fill: none; stroke: #b7b7b7; stroke-width: 0.64"/>
    <path d="M 32.191736 166.318132 
L 91.695878 270.972237 
" clip-path="url(#p4346fc814e)" style="fill: none; stroke: #e8e8e8; stroke-width: 0.22"/>
    <path d="M 32.191736 166.318132 
L 130.534437 285.326389 
" clip-path="url(#p4346fc814e)" style="fill: none; stroke: #bebebe; stroke-width: 0.58"/>
    <path d="M 32.191736 166.318132 
L 171.865567 285.326382 
" clip-path="url(#p4346fc814e)" style="fill: none; stroke: #fdfdfd; stroke-width: 0.04"/>
    <path d="M 32.191736 166.318132 
L 210.704122 270.972237 
" clip-path="url(#p4346fc814e)" style="fill: none; stroke: #f6f6f6; stroke-width: 0.1"/>
    <path d="M 32.191736 166.318132 
L 263.03118 207.649284 
" clip-path="url(#p4346fc814e)" style="fill: none; stroke: #c0c0c0; stroke-width: 0.56"/>
    <path d="M 39.368813 207.649259 
L 60.034374 243.995245 
" clip-path="url(#p4346fc814e)" style="fill: none; stroke: #ededed; stroke-width: 0.18"/>
    <path d="M 39.368813 207.649259 
L 91.695878 270.972237 
" clip-path="url(#p4346fc814e)" style="fill: none; stroke: #ededed; stroke-width: 0.18"/>
    <path d="M 39.368813 207.649259 
L 171.865567 285.326382 
" clip-path="url(#p4346fc814e)" style="fill: none; stroke: #ffffff; stroke-width: 0.02"/>
    <path d="M 39.368813 207.649259 
L 242.365605 243.995266 
" clip-path="url(#p4346fc814e)" style="fill: none; stroke: #f8f8f8; stroke-width: 0.08"/>
    <path d="M 60.034374 243.995245 
L 91.695878 270.972237 
" clip-path="url(#p4346fc814e)" style="fill: none; stroke: #e1e1e1; stroke-width: 0.28"/>
    <path d="M 60.034374 243.995245 
L 130.534437 285.326389 
" clip-path="url(#p4346fc814e)" style="fill: none; stroke: #bebebe; stroke-width: 0.58"/>
    <path d="M 60.034374 243.995245 
L 171.865567 285.326382 
" clip-path="url(#p4346fc814e)" style="fill: none; stroke: #fdfdfd; stroke-width: 0.04"/>
    <path d="M 60.034374 243.995245 
L 210.704122 270.972237 
" clip-path="url(#p4346fc814e)" style="fill: none; stroke: #f6f6f6; stroke-width: 0.1"/>
    <path d="M 60.034374 243.995245 
L 242.365605 243.995266 
" clip-path="url(#p4346fc814e)" style="fill: none; stroke: #ffffff; stroke-width: 0.02"/>
    <path d="M 60.034374 243.995245 
L 263.03118 207.649284 
" clip-path="url(#p4346fc814e)" style="fill: none; stroke: #e6e6e6; stroke-width: 0.24"/>
    <path d="M 91.695878 270.972237 
L 130.534437 285.326389 
" clip-path="url(#p4346fc814e)" style="fill: none; stroke: #c2c2c2; stroke-width: 0.54"/>
    <path d="M 91.695878 270.972237 
L 171.865567 285.326382 
" clip-path="url(#p4346fc814e)" style="fill: none; stroke: #fdfdfd; stroke-width: 0.04"/>
    <path d="M 91.695878 270.972237 
L 210.704122 270.972237 
" clip-path="url(#p4346fc814e)" style="fill: none; stroke: #d3d3d3; stroke-width: 0.4"/>
    <path d="M 91.695878 270.972237 
L 263.03118 207.649284 
" clip-path="url(#p4346fc814e)" style="fill: none; stroke: #e1e1e1; stroke-width: 0.28"/>
    <path d="M 130.534437 285.326389 
L 171.865567 285.326382 
" clip-path="url(#p4346fc814e)" style="fill: none; stroke: #ffffff; stroke-width: 0.02"/>
    <path d="M 130.534437 285.326389 
L 210.704122 270.972237 
" clip-path="url(#p4346fc814e)" style="fill: none; stroke: #f8f8f8; stroke-width: 0.08"/>
    <path d="M 130.534437 285.326389 
L 242.365605 243.995266 
" clip-path="url(#p4346fc814e)" style="fill: none; stroke: #f8f8f8; stroke-width: 0.08"/>
    <path d="M 171.865567 285.326382 
L 210.704122 270.972237 
" clip-path="url(#p4346fc814e)" style="fill: none; stroke: #ffffff; stroke-width: 0.02"/>
    <path d="M 210.704122 270.972237 
L 242.365605 243.995266 
" clip-path="url(#p4346fc814e)" style="fill: none; stroke: #f4f4f4; stroke-width: 0.12"/>
    <path d="M 210.704122 270.972237 
L 263.03118 207.649284 
" clip-path="url(#p4346fc814e)" style="fill: none; stroke: #ffffff; stroke-width: 0.02"/>
    <path d="M 242.365605 243.995266 
L 263.03118 207.649284 
" clip-path="url(#p4346fc814e)" style="fill: none; stroke: #ffffff; stroke-width: 0.02"/>
   </g>
   <g id="PathCollection_1">
    <path d="M 270.208264 168.497571 
C 270.786261 168.497571 271.340663 168.26793 271.749368 167.859225 
C 272.158073 167.450519 272.387714 166.896118 272.387714 166.318121 
C 272.387714 165.740125 272.158073 165.185723 271.749368 164.777018 
C 271.340663 164.368312 270.786261 164.138672 270.208264 164.138672 
C 269.630268 164.138672 269.075866 164.368312 268.667161 164.777018 
C 268.258456 165.185723 268.028815 165.740125 268.028815 166.318121 
C 268.028815 166.896118 268.258456 167.450519 268.667161 167.859225 
C 269.075866 168.26793 269.630268 168.497571 270.208264 168.497571 
z
" clip-path="url(#p4346fc814e)" style="fill: #ffffff; stroke: #000000; stroke-width: 2"/>
    <path d="M 263.031187 126.857816 
C 263.527337 126.857816 264.003232 126.660694 264.354063 126.309863 
C 264.704894 125.959032 264.902016 125.483137 264.902016 124.986987 
C 264.902016 124.490838 264.704894 124.014943 264.354063 123.664112 
C 264.003232 123.313281 263.527337 123.116159 263.031187 123.116159 
C 262.535038 123.116159 262.059142 123.313281 261.708312 123.664112 
C 261.357481 124.014943 261.160359 124.490838 261.160359 124.986987 
C 261.160359 125.483137 261.357481 125.959032 261.708312 126.309863 
C 262.059142 126.660694 262.535038 126.857816 263.031187 126.857816 
z
" clip-path="url(#p4346fc814e)" style="fill: #ffffff; stroke: #000000; stroke-width: 2"/>
    <path d="M 242.365619 92.764104 
C 243.459079 92.764104 244.507902 92.329667 245.281095 91.556474 
C 246.054288 90.783281 246.488725 89.734458 246.488725 88.640998 
C 246.488725 87.547538 246.054288 86.498715 245.281095 85.725522 
C 244.507902 84.952329 243.459079 84.517892 242.365619 84.517892 
C 241.272159 84.517892 240.223336 84.952329 239.450143 85.725522 
C 238.67695 86.498715 238.242513 87.547538 238.242513 88.640998 
C 238.242513 89.734458 238.67695 90.783281 239.450143 91.556474 
C 240.223336 92.329667 241.272159 92.764104 242.365619 92.764104 
z
" clip-path="url(#p4346fc814e)" style="fill: #ffffff; stroke: #000000; stroke-width: 2"/>
    <path d="M 210.704129 65.164005 
C 211.63234 65.164005 212.522658 64.795223 213.179002 64.138879 
C 213.835347 63.482535 214.204129 62.592216 214.204129 61.664005 
C 214.204129 60.735795 213.835347 59.845476 213.179002 59.189132 
C 212.522658 58.532787 211.63234 58.164005 210.704129 58.164005 
C 209.775918 58.164005 208.885599 58.532787 208.229255 59.189132 
C 207.572911 59.845476 207.204129 60.735795 207.204129 61.664005 
C 207.204129 62.592216 207.572911 63.482535 208.229255 64.138879 
C 208.885599 64.795223 209.775918 65.164005 210.704129 65.164005 
z
" clip-path="url(#p4346fc814e)" style="fill: #ffffff; stroke: #000000; stroke-width: 2"/>
    <path d="M 171.865574 51.246864 
C 172.909679 51.246864 173.911162 50.832037 174.649456 50.093743 
C 175.38775 49.355449 175.802578 48.353966 175.802578 47.309861 
C 175.802578 46.265755 175.38775 45.264273 174.649456 44.525978 
C 173.911162 43.787684 172.909679 43.372857 171.865574 43.372857 
C 170.821468 43.372857 169.819986 43.787684 169.081691 44.525978 
C 168.343397 45.264273 167.92857 46.265755 167.92857 47.309861 
C 167.92857 48.353966 168.343397 49.355449 169.081691 50.093743 
C 169.819986 50.832037 170.821468 51.246864 171.865574 51.246864 
z
" clip-path="url(#p4346fc814e)" style="fill: #ffffff; stroke: #000000; stroke-width: 2"/>
    <path d="M 130.53443 49.041911 
C 130.993775 49.041911 131.434369 48.859412 131.759175 48.534605 
C 132.083981 48.209799 132.266481 47.769206 132.266481 47.309861 
C 132.266481 46.850515 132.083981 46.409922 131.759175 46.085116 
C 131.434369 45.76031 130.993775 45.57781 130.53443 45.57781 
C 130.075085 45.57781 129.634491 45.76031 129.309685 46.085116 
C 128.984879 46.409922 128.802379 46.850515 128.802379 47.309861 
C 128.802379 47.769206 128.984879 48.209799 129.309685 48.534605 
C 129.634491 48.859412 130.075085 49.041911 130.53443 49.041911 
z
" clip-path="url(#p4346fc814e)" style="fill: #ffffff; stroke: #000000; stroke-width: 2"/>
    <path d="M 91.695861 68.610235 
C 93.53802 68.610235 95.304978 67.878337 96.607581 66.575733 
C 97.910185 65.27313 98.642083 63.506172 98.642083 61.664013 
C 98.642083 59.821853 97.910185 58.054895 96.607581 56.752292 
C 95.304978 55.449688 93.53802 54.717791 91.695861 54.717791 
C 89.853701 54.717791 88.086744 55.449688 86.78414 56.752292 
C 85.481536 58.054895 84.749639 59.821853 84.749639 61.664013 
C 84.749639 63.506172 85.481536 65.27313 86.78414 66.575733 
C 88.086744 67.878337 89.853701 68.610235 91.695861 68.610235 
z
" clip-path="url(#p4346fc814e)" style="fill: #ffffff; stroke: #000000; stroke-width: 2"/>
    <path d="M 60.034381 96.917464 
C 62.229327 96.917464 64.33467 96.045402 65.886731 94.493341 
C 67.438792 92.941279 68.310854 90.835937 68.310854 88.640991 
C 68.310854 86.446045 67.438792 84.340702 65.886731 82.788641 
C 64.33467 81.23658 62.229327 80.364518 60.034381 80.364518 
C 57.839435 80.364518 55.734092 81.23658 54.182031 82.788641 
C 52.62997 84.340702 51.757908 86.446045 51.757908 88.640991 
C 51.757908 90.835937 52.62997 92.941279 54.182031 94.493341 
C 55.734092 96.045402 57.839435 96.917464 60.034381 96.917464 
z
" clip-path="url(#p4346fc814e)" style="fill: #ffffff; stroke: #000000; stroke-width: 2"/>
    <path d="M 39.368813 129.258979 
C 40.501761 129.258979 41.588459 128.808853 42.389574 128.007738 
C 43.190689 127.206623 43.640814 126.119925 43.640814 124.986977 
C 43.640814 123.854029 43.190689 122.76733 42.389574 121.966215 
C 41.588459 121.1651 40.501761 120.714975 39.368813 120.714975 
C 38.235864 120.714975 37.149166 121.1651 36.348051 121.966215 
C 35.546936 122.76733 35.096811 123.854029 35.096811 124.986977 
C 35.096811 126.119925 35.546936 127.206623 36.348051 128.007738 
C 37.149166 128.808853 38.235864 129.258979 39.368813 129.258979 
z
" clip-path="url(#p4346fc814e)" style="fill: #ffffff; stroke: #000000; stroke-width: 2"/>
    <path d="M 32.191736 173.56382 
C 34.113315 173.56382 35.956449 172.800369 37.315211 171.441607 
C 38.673972 170.082846 39.437424 168.239711 39.437424 166.318132 
C 39.437424 164.396553 38.673972 162.553418 37.315211 161.194657 
C 35.956449 159.835895 34.113315 159.072444 32.191736 159.072444 
C 30.270157 159.072444 28.427022 159.835895 27.06826 161.194657 
C 25.709499 162.553418 24.946047 164.396553 24.946047 166.318132 
C 24.946047 168.239711 25.709499 170.082846 27.06826 171.441607 
C 28.427022 172.800369 30.270157 173.56382 32.191736 173.56382 
z
" clip-path="url(#p4346fc814e)" style="fill: #ffffff; stroke: #000000; stroke-width: 2"/>
    <path d="M 39.368813 209.885327 
C 39.961825 209.885327 40.530628 209.649721 40.949951 209.230398 
C 41.369274 208.811075 41.604881 208.242271 41.604881 207.649259 
C 41.604881 207.056247 41.369274 206.487443 40.949951 206.06812 
C 40.530628 205.648797 39.961825 205.413191 39.368813 205.413191 
C 38.7758 205.413191 38.206997 205.648797 37.787674 206.06812 
C 37.368351 206.487443 37.132745 207.056247 37.132745 207.649259 
C 37.132745 208.242271 37.368351 208.811075 37.787674 209.230398 
C 38.206997 209.649721 38.7758 209.885327 39.368813 209.885327 
z
" clip-path="url(#p4346fc814e)" style="fill: #ffffff; stroke: #000000; stroke-width: 2"/>
    <path d="M 60.034374 252.211083 
C 62.21324 252.211083 64.303158 251.345411 65.843849 249.80472 
C 67.38454 248.264029 68.250212 246.174111 68.250212 243.995245 
C 68.250212 241.816379 67.38454 239.726461 65.843849 238.18577 
C 64.303158 236.645079 62.21324 235.779406 60.034374 235.779406 
C 57.855508 235.779406 55.76559 236.645079 54.224899 238.18577 
C 52.684208 239.726461 51.818535 241.816379 51.818535 243.995245 
C 51.818535 246.174111 52.684208 248.264029 54.224899 249.80472 
C 55.76559 251.345411 57.855508 252.211083 60.034374 252.211083 
z
" clip-path="url(#p4346fc814e)" style="fill: #ffffff; stroke: #000000; stroke-width: 2"/>
    <path d="M 91.695878 276.26374 
C 93.099201 276.26374 94.445237 275.706194 95.437536 274.713895 
C 96.429835 273.721596 96.987381 272.37556 96.987381 270.972237 
C 96.987381 269.568915 96.429835 268.222879 95.437536 267.23058 
C 94.445237 266.238281 93.099201 265.680735 91.695878 265.680735 
C 90.292556 265.680735 88.94652 266.238281 87.954221 267.23058 
C 86.961922 268.222879 86.404376 269.568915 86.404376 270.972237 
C 86.404376 272.37556 86.961922 273.721596 87.954221 274.713895 
C 88.94652 275.706194 90.292556 276.26374 91.695878 276.26374 
z
" clip-path="url(#p4346fc814e)" style="fill: #ffffff; stroke: #000000; stroke-width: 2"/>
    <path d="M 130.534437 290.096085 
C 131.799375 290.096085 133.012675 289.59352 133.907121 288.699074 
C 134.801568 287.804627 135.304133 286.591328 135.304133 285.326389 
C 135.304133 284.061451 134.801568 282.848151 133.907121 281.953705 
C 133.012675 281.059259 131.799375 280.556693 130.534437 280.556693 
C 129.269499 280.556693 128.056199 281.059259 127.161753 281.953705 
C 126.267306 282.848151 125.764741 284.061451 125.764741 285.326389 
C 125.764741 286.591328 126.267306 287.804627 127.161753 288.699074 
C 128.056199 289.59352 129.269499 290.096085 130.534437 290.096085 
z
" clip-path="url(#p4346fc814e)" style="fill: #ffffff; stroke: #000000; stroke-width: 2"/>
    <path d="M 171.865567 286.826382 
C 172.263371 286.826382 172.644936 286.668333 172.926227 286.387042 
C 173.207517 286.105752 173.365567 285.724187 173.365567 285.326382 
C 173.365567 284.928578 173.207517 284.547012 172.926227 284.265722 
C 172.644936 283.984432 172.263371 283.826382 171.865567 283.826382 
C 171.467762 283.826382 171.086197 283.984432 170.804906 284.265722 
C 170.523616 284.547012 170.365567 284.928578 170.365567 285.326382 
C 170.365567 285.724187 170.523616 286.105752 170.804906 286.387042 
C 171.086197 286.668333 171.467762 286.826382 171.865567 286.826382 
z
" clip-path="url(#p4346fc814e)" style="fill: #ffffff; stroke: #000000; stroke-width: 2"/>
    <path d="M 210.704122 273.930277 
C 211.488603 273.930277 212.24106 273.6186 212.795772 273.063887 
C 213.350484 272.509175 213.662161 271.756719 213.662161 270.972237 
C 213.662161 270.187756 213.350484 269.435299 212.795772 268.880587 
C 212.24106 268.325875 211.488603 268.014198 210.704122 268.014198 
C 209.91964 268.014198 209.167184 268.325875 208.612472 268.880587 
C 208.057759 269.435299 207.746082 270.187756 207.746082 270.972237 
C 207.746082 271.756719 208.057759 272.509175 208.612472 273.063887 
C 209.167184 273.6186 209.91964 273.930277 210.704122 273.930277 
z
" clip-path="url(#p4346fc814e)" style="fill: #ffffff; stroke: #000000; stroke-width: 2"/>
    <path d="M 242.365605 247.736924 
C 243.357904 247.736924 244.309695 247.342679 245.011356 246.641018 
C 245.713018 245.939356 246.107262 244.987565 246.107262 243.995266 
C 246.107262 243.002967 245.713018 242.051176 245.011356 241.349515 
C 244.309695 240.647854 243.357904 240.253609 242.365605 240.253609 
C 241.373306 240.253609 240.421515 240.647854 239.719854 241.349515 
C 239.018192 242.051176 238.623947 243.002967 238.623947 243.995266 
C 238.623947 244.987565 239.018192 245.939356 239.719854 246.641018 
C 240.421515 247.342679 241.373306 247.736924 242.365605 247.736924 
z
" clip-path="url(#p4346fc814e)" style="fill: #ffffff; stroke: #000000; stroke-width: 2"/>
    <path d="M 263.03118 211.741961 
C 264.116571 211.741961 265.157653 211.31073 265.92514 210.543243 
C 266.692627 209.775756 267.123857 208.734675 267.123857 207.649284 
C 267.123857 206.563894 266.692627 205.522812 265.92514 204.755325 
C 265.157653 203.987838 264.116571 203.556608 263.03118 203.556608 
C 261.94579 203.556608 260.904708 203.987838 260.137221 204.755325 
C 259.369734 205.522812 258.938504 206.563894 258.938504 207.649284 
C 258.938504 208.734675 259.369734 209.775756 260.137221 210.543243 
C 260.904708 211.31073 261.94579 211.741961 263.03118 211.741961 
z
" clip-path="url(#p4346fc814e)" style="fill: #ffffff; stroke: #000000; stroke-width: 2"/>
   </g>
   <g id="text_1">
    <g clip-path="url(#p4346fc814e)">
     <!-- A.Nesmith -->
     <g transform="translate(253.610819 169.629371)scale(0.12 -0.12)">
      <defs>
       <path id="DejaVuSans-41" d="M 2188 4044 
L 1331 1722 
L 3047 1722 
L 2188 4044 
z
M 1831 4666 
L 2547 4666 
L 4325 0 
L 3669 0 
L 3244 1197 
L 1141 1197 
L 716 0 
L 50 0 
L 1831 4666 
z
" transform="scale(0.015625)"/>
       <path id="DejaVuSans-2e" d="M 684 794 
L 1344 794 
L 1344 0 
L 684 0 
L 684 794 
z
" transform="scale(0.015625)"/>
       <path id="DejaVuSans-4e" d="M 628 4666 
L 1478 4666 
L 3547 763 
L 3547 4666 
L 4159 4666 
L 4159 0 
L 3309 0 
L 1241 3903 
L 1241 0 
L 628 0 
L 628 4666 
z
" transform="scale(0.015625)"/>
       <path id="DejaVuSans-65" d="M 3597 1894 
L 3597 1613 
L 953 1613 
Q 991 1019 1311 708 
Q 1631 397 2203 397 
Q 2534 397 2845 478 
Q 3156 559 3463 722 
L 3463 178 
Q 3153 47 2828 -22 
Q 2503 -91 2169 -91 
Q 1331 -91 842 396 
Q 353 884 353 1716 
Q 353 2575 817 3079 
Q 1281 3584 2069 3584 
Q 2775 3584 3186 3129 
Q 3597 2675 3597 1894 
z
M 3022 2063 
Q 3016 2534 2758 2815 
Q 2500 3097 2075 3097 
Q 1594 3097 1305 2825 
Q 1016 2553 972 2059 
L 3022 2063 
z
" transform="scale(0.015625)"/>
       <path id="DejaVuSans-73" d="M 2834 3397 
L 2834 2853 
Q 2591 2978 2328 3040 
Q 2066 3103 1784 3103 
Q 1356 3103 1142 2972 
Q 928 2841 928 2578 
Q 928 2378 1081 2264 
Q 1234 2150 1697 2047 
L 1894 2003 
Q 2506 1872 2764 1633 
Q 3022 1394 3022 966 
Q 3022 478 2636 193 
Q 2250 -91 1575 -91 
Q 1294 -91 989 -36 
Q 684 19 347 128 
L 347 722 
Q 666 556 975 473 
Q 1284 391 1588 391 
Q 1994 391 2212 530 
Q 2431 669 2431 922 
Q 2431 1156 2273 1281 
Q 2116 1406 1581 1522 
L 1381 1569 
Q 847 1681 609 1914 
Q 372 2147 372 2553 
Q 372 3047 722 3315 
Q 1072 3584 1716 3584 
Q 2034 3584 2315 3537 
Q 2597 3491 2834 3397 
z
" transform="scale(0.015625)"/>
       <path id="DejaVuSans-6d" d="M 3328 2828 
Q 3544 3216 3844 3400 
Q 4144 3584 4550 3584 
Q 5097 3584 5394 3201 
Q 5691 2819 5691 2113 
L 5691 0 
L 5113 0 
L 5113 2094 
Q 5113 2597 4934 2840 
Q 4756 3084 4391 3084 
Q 3944 3084 3684 2787 
Q 3425 2491 3425 1978 
L 3425 0 
L 2847 0 
L 2847 2094 
Q 2847 2600 2669 2842 
Q 2491 3084 2119 3084 
Q 1678 3084 1418 2786 
Q 1159 2488 1159 1978 
L 1159 0 
L 581 0 
L 581 3500 
L 1159 3500 
L 1159 2956 
Q 1356 3278 1631 3431 
Q 1906 3584 2284 3584 
Q 2666 3584 2933 3390 
Q 3200 3197 3328 2828 
z
" transform="scale(0.015625)"/>
       <path id="DejaVuSans-69" d="M 603 3500 
L 1178 3500 
L 1178 0 
L 603 0 
L 603 3500 
z
M 603 4863 
L 1178 4863 
L 1178 4134 
L 603 4134 
L 603 4863 
z
" transform="scale(0.015625)"/>
       <path id="DejaVuSans-74" d="M 1172 4494 
L 1172 3500 
L 2356 3500 
L 2356 3053 
L 1172 3053 
L 1172 1153 
Q 1172 725 1289 603 
Q 1406 481 1766 481 
L 2356 481 
L 2356 0 
L 1766 0 
Q 1100 0 847 248 
Q 594 497 594 1153 
L 594 3053 
L 172 3053 
L 172 3500 
L 594 3500 
L 594 4494 
L 1172 4494 
z
" transform="scale(0.015625)"/>
       <path id="DejaVuSans-68" d="M 3513 2113 
L 3513 0 
L 2938 0 
L 2938 2094 
Q 2938 2591 2744 2837 
Q 2550 3084 2163 3084 
Q 1697 3084 1428 2787 
Q 1159 2491 1159 1978 
L 1159 0 
L 581 0 
L 581 4863 
L 1159 4863 
L 1159 2956 
Q 1366 3272 1645 3428 
Q 1925 3584 2291 3584 
Q 2894 3584 3203 3211 
Q 3513 2838 3513 2113 
z
" transform="scale(0.015625)"/>
      </defs>
      <use xlink:href="#DejaVuSans-41"/>
      <use xlink:href="#DejaVuSans-2e" x="66.658203"/>
      <use xlink:href="#DejaVuSans-4e" x="98.445312"/>
      <use xlink:href="#DejaVuSans-65" x="173.25"/>
      <use xlink:href="#DejaVuSans-73" x="234.773438"/>
      <use xlink:href="#DejaVuSans-6d" x="286.873047"/>
      <use xlink:href="#DejaVuSans-69" x="384.285156"/>
      <use xlink:href="#DejaVuSans-74" x="412.068359"/>
      <use xlink:href="#DejaVuSans-68" x="451.277344"/>
     </g>
    </g>
   </g>
   <g id="text_2">
    <g clip-path="url(#p4346fc814e)">
     <!-- C.Edwards -->
     <g transform="translate(244.874055 123.338501)scale(0.12 -0.12)">
      <defs>
       <path id="DejaVuSans-43" d="M 4122 4306 
L 4122 3641 
Q 3803 3938 3442 4084 
Q 3081 4231 2675 4231 
Q 1875 4231 1450 3742 
Q 1025 3253 1025 2328 
Q 1025 1406 1450 917 
Q 1875 428 2675 428 
Q 3081 428 3442 575 
Q 3803 722 4122 1019 
L 4122 359 
Q 3791 134 3420 21 
Q 3050 -91 2638 -91 
Q 1578 -91 968 557 
Q 359 1206 359 2328 
Q 359 3453 968 4101 
Q 1578 4750 2638 4750 
Q 3056 4750 3426 4639 
Q 3797 4528 4122 4306 
z
" transform="scale(0.015625)"/>
       <path id="DejaVuSans-45" d="M 628 4666 
L 3578 4666 
L 3578 4134 
L 1259 4134 
L 1259 2753 
L 3481 2753 
L 3481 2222 
L 1259 2222 
L 1259 531 
L 3634 531 
L 3634 0 
L 628 0 
L 628 4666 
z
" transform="scale(0.015625)"/>
       <path id="DejaVuSans-64" d="M 2906 2969 
L 2906 4863 
L 3481 4863 
L 3481 0 
L 2906 0 
L 2906 525 
Q 2725 213 2448 61 
Q 2172 -91 1784 -91 
Q 1150 -91 751 415 
Q 353 922 353 1747 
Q 353 2572 751 3078 
Q 1150 3584 1784 3584 
Q 2172 3584 2448 3432 
Q 2725 3281 2906 2969 
z
M 947 1747 
Q 947 1113 1208 752 
Q 1469 391 1925 391 
Q 2381 391 2643 752 
Q 2906 1113 2906 1747 
Q 2906 2381 2643 2742 
Q 2381 3103 1925 3103 
Q 1469 3103 1208 2742 
Q 947 2381 947 1747 
z
" transform="scale(0.015625)"/>
       <path id="DejaVuSans-77" d="M 269 3500 
L 844 3500 
L 1563 769 
L 2278 3500 
L 2956 3500 
L 3675 769 
L 4391 3500 
L 4966 3500 
L 4050 0 
L 3372 0 
L 2619 2869 
L 1863 0 
L 1184 0 
L 269 3500 
z
" transform="scale(0.015625)"/>
       <path id="DejaVuSans-61" d="M 2194 1759 
Q 1497 1759 1228 1600 
Q 959 1441 959 1056 
Q 959 750 1161 570 
Q 1363 391 1709 391 
Q 2188 391 2477 730 
Q 2766 1069 2766 1631 
L 2766 1759 
L 2194 1759 
z
M 3341 1997 
L 3341 0 
L 2766 0 
L 2766 531 
Q 2569 213 2275 61 
Q 1981 -91 1556 -91 
Q 1019 -91 701 211 
Q 384 513 384 1019 
Q 384 1609 779 1909 
Q 1175 2209 1959 2209 
L 2766 2209 
L 2766 2266 
Q 2766 2663 2505 2880 
Q 2244 3097 1772 3097 
Q 1472 3097 1187 3025 
Q 903 2953 641 2809 
L 641 3341 
Q 956 3463 1253 3523 
Q 1550 3584 1831 3584 
Q 2591 3584 2966 3190 
Q 3341 2797 3341 1997 
z
" transform="scale(0.015625)"/>
       <path id="DejaVuSans-72" d="M 2631 2963 
Q 2534 3019 2420 3045 
Q 2306 3072 2169 3072 
Q 1681 3072 1420 2755 
Q 1159 2438 1159 1844 
L 1159 0 
L 581 0 
L 581 3500 
L 1159 3500 
L 1159 2956 
Q 1341 3275 1631 3429 
Q 1922 3584 2338 3584 
Q 2397 3584 2469 3576 
Q 2541 3569 2628 3553 
L 2631 2963 
z
" transform="scale(0.015625)"/>
      </defs>
      <use xlink:href="#DejaVuSans-43"/>
      <use xlink:href="#DejaVuSans-2e" x="69.824219"/>
      <use xlink:href="#DejaVuSans-45" x="101.611328"/>
      <use xlink:href="#DejaVuSans-64" x="164.794922"/>
      <use xlink:href="#DejaVuSans-77" x="228.271484"/>
      <use xlink:href="#DejaVuSans-61" x="310.058594"/>
      <use xlink:href="#DejaVuSans-72" x="371.337891"/>
      <use xlink:href="#DejaVuSans-64" x="410.701172"/>
      <use xlink:href="#DejaVuSans-73" x="474.177734"/>
     </g>
    </g>
   </g>
   <g id="text_3">
    <g clip-path="url(#p4346fc814e)">
     <!-- D.Theis -->
     <g transform="translate(230.827056 82.630993)scale(0.12 -0.12)">
      <defs>
       <path id="DejaVuSans-44" d="M 1259 4147 
L 1259 519 
L 2022 519 
Q 2988 519 3436 956 
Q 3884 1394 3884 2338 
Q 3884 3275 3436 3711 
Q 2988 4147 2022 4147 
L 1259 4147 
z
M 628 4666 
L 1925 4666 
Q 3281 4666 3915 4102 
Q 4550 3538 4550 2338 
Q 4550 1131 3912 565 
Q 3275 0 1925 0 
L 628 0 
L 628 4666 
z
" transform="scale(0.015625)"/>
       <path id="DejaVuSans-54" d="M -19 4666 
L 3928 4666 
L 3928 4134 
L 2272 4134 
L 2272 0 
L 1638 0 
L 1638 4134 
L -19 4134 
L -19 4666 
z
" transform="scale(0.015625)"/>
      </defs>
      <use xlink:href="#DejaVuSans-44"/>
      <use xlink:href="#DejaVuSans-2e" x="77.001953"/>
      <use xlink:href="#DejaVuSans-54" x="108.789062"/>
      <use xlink:href="#DejaVuSans-68" x="169.873047"/>
      <use xlink:href="#DejaVuSans-65" x="233.251953"/>
      <use xlink:href="#DejaVuSans-69" x="294.775391"/>
      <use xlink:href="#DejaVuSans-73" x="322.558594"/>
     </g>
    </g>
   </g>
   <g id="text_4">
    <g clip-path="url(#p4346fc814e)">
     <!-- E.Fournier -->
     <g transform="translate(187.449937 52.416761)scale(0.12 -0.12)">
      <defs>
       <path id="DejaVuSans-46" d="M 628 4666 
L 3309 4666 
L 3309 4134 
L 1259 4134 
L 1259 2759 
L 3109 2759 
L 3109 2228 
L 1259 2228 
L 1259 0 
L 628 0 
L 628 4666 
z
" transform="scale(0.015625)"/>
       <path id="DejaVuSans-6f" d="M 1959 3097 
Q 1497 3097 1228 2736 
Q 959 2375 959 1747 
Q 959 1119 1226 758 
Q 1494 397 1959 397 
Q 2419 397 2687 759 
Q 2956 1122 2956 1747 
Q 2956 2369 2687 2733 
Q 2419 3097 1959 3097 
z
M 1959 3584 
Q 2709 3584 3137 3096 
Q 3566 2609 3566 1747 
Q 3566 888 3137 398 
Q 2709 -91 1959 -91 
Q 1206 -91 779 398 
Q 353 888 353 1747 
Q 353 2609 779 3096 
Q 1206 3584 1959 3584 
z
" transform="scale(0.015625)"/>
       <path id="DejaVuSans-75" d="M 544 1381 
L 544 3500 
L 1119 3500 
L 1119 1403 
Q 1119 906 1312 657 
Q 1506 409 1894 409 
Q 2359 409 2629 706 
Q 2900 1003 2900 1516 
L 2900 3500 
L 3475 3500 
L 3475 0 
L 2900 0 
L 2900 538 
Q 2691 219 2414 64 
Q 2138 -91 1772 -91 
Q 1169 -91 856 284 
Q 544 659 544 1381 
z
M 1991 3584 
L 1991 3584 
z
" transform="scale(0.015625)"/>
       <path id="DejaVuSans-6e" d="M 3513 2113 
L 3513 0 
L 2938 0 
L 2938 2094 
Q 2938 2591 2744 2837 
Q 2550 3084 2163 3084 
Q 1697 3084 1428 2787 
Q 1159 2491 1159 1978 
L 1159 0 
L 581 0 
L 581 3500 
L 1159 3500 
L 1159 2956 
Q 1366 3272 1645 3428 
Q 1925 3584 2291 3584 
Q 2894 3584 3203 3211 
Q 3513 2838 3513 2113 
z
" transform="scale(0.015625)"/>
      </defs>
      <use xlink:href="#DejaVuSans-45"/>
      <use xlink:href="#DejaVuSans-2e" x="63.183594"/>
      <use xlink:href="#DejaVuSans-46" x="94.970703"/>
      <use xlink:href="#DejaVuSans-6f" x="148.865234"/>
      <use xlink:href="#DejaVuSans-75" x="210.046875"/>
      <use xlink:href="#DejaVuSans-72" x="273.425781"/>
      <use xlink:href="#DejaVuSans-6e" x="312.789062"/>
      <use xlink:href="#DejaVuSans-69" x="376.167969"/>
      <use xlink:href="#DejaVuSans-65" x="403.951172"/>
      <use xlink:href="#DejaVuSans-72" x="465.474609"/>
     </g>
    </g>
   </g>
   <g id="text_5">
    <g clip-path="url(#p4346fc814e)">
     <!-- G.Williams -->
     <g transform="translate(142.67763 36.340119)scale(0.12 -0.12)">
      <defs>
       <path id="DejaVuSans-47" d="M 3809 666 
L 3809 1919 
L 2778 1919 
L 2778 2438 
L 4434 2438 
L 4434 434 
Q 4069 175 3628 42 
Q 3188 -91 2688 -91 
Q 1594 -91 976 548 
Q 359 1188 359 2328 
Q 359 3472 976 4111 
Q 1594 4750 2688 4750 
Q 3144 4750 3555 4637 
Q 3966 4525 4313 4306 
L 4313 3634 
Q 3963 3931 3569 4081 
Q 3175 4231 2741 4231 
Q 1884 4231 1454 3753 
Q 1025 3275 1025 2328 
Q 1025 1384 1454 906 
Q 1884 428 2741 428 
Q 3075 428 3337 486 
Q 3600 544 3809 666 
z
" transform="scale(0.015625)"/>
       <path id="DejaVuSans-57" d="M 213 4666 
L 850 4666 
L 1831 722 
L 2809 4666 
L 3519 4666 
L 4500 722 
L 5478 4666 
L 6119 4666 
L 4947 0 
L 4153 0 
L 3169 4050 
L 2175 0 
L 1381 0 
L 213 4666 
z
" transform="scale(0.015625)"/>
       <path id="DejaVuSans-6c" d="M 603 4863 
L 1178 4863 
L 1178 0 
L 603 0 
L 603 4863 
z
" transform="scale(0.015625)"/>
      </defs>
      <use xlink:href="#DejaVuSans-47"/>
      <use xlink:href="#DejaVuSans-2e" x="77.490234"/>
      <use xlink:href="#DejaVuSans-57" x="109.277344"/>
      <use xlink:href="#DejaVuSans-69" x="205.904297"/>
      <use xlink:href="#DejaVuSans-6c" x="233.6875"/>
      <use xlink:href="#DejaVuSans-6c" x="261.470703"/>
      <use xlink:href="#DejaVuSans-69" x="289.253906"/>
      <use xlink:href="#DejaVuSans-61" x="317.037109"/>
      <use xlink:href="#DejaVuSans-6d" x="378.316406"/>
      <use xlink:href="#DejaVuSans-73" x="475.728516"/>
     </g>
    </g>
   </g>
   <g id="text_6">
    <g clip-path="url(#p4346fc814e)">
     <!-- J.Green -->
     <g transform="translate(106.210812 36.340119)scale(0.12 -0.12)">
      <defs>
       <path id="DejaVuSans-4a" d="M 628 4666 
L 1259 4666 
L 1259 325 
Q 1259 -519 939 -900 
Q 619 -1281 -91 -1281 
L -331 -1281 
L -331 -750 
L -134 -750 
Q 284 -750 456 -515 
Q 628 -281 628 325 
L 628 4666 
z
" transform="scale(0.015625)"/>
      </defs>
      <use xlink:href="#DejaVuSans-4a"/>
      <use xlink:href="#DejaVuSans-2e" x="29.492188"/>
      <use xlink:href="#DejaVuSans-47" x="61.279297"/>
      <use xlink:href="#DejaVuSans-72" x="138.769531"/>
      <use xlink:href="#DejaVuSans-65" x="177.632812"/>
      <use xlink:href="#DejaVuSans-65" x="239.15625"/>
      <use xlink:href="#DejaVuSans-6e" x="300.679688"/>
     </g>
    </g>
   </g>
   <g id="text_7">
    <g clip-path="url(#p4346fc814e)">
     <!-- J.Brown -->
     <g transform="translate(62.049739 52.416769)scale(0.12 -0.12)">
      <defs>
       <path id="DejaVuSans-42" d="M 1259 2228 
L 1259 519 
L 2272 519 
Q 2781 519 3026 730 
Q 3272 941 3272 1375 
Q 3272 1813 3026 2020 
Q 2781 2228 2272 2228 
L 1259 2228 
z
M 1259 4147 
L 1259 2741 
L 2194 2741 
Q 2656 2741 2882 2914 
Q 3109 3088 3109 3444 
Q 3109 3797 2882 3972 
Q 2656 4147 2194 4147 
L 1259 4147 
z
M 628 4666 
L 2241 4666 
Q 2963 4666 3353 4366 
Q 3744 4066 3744 3513 
Q 3744 3084 3544 2831 
Q 3344 2578 2956 2516 
Q 3422 2416 3680 2098 
Q 3938 1781 3938 1306 
Q 3938 681 3513 340 
Q 3088 0 2303 0 
L 628 0 
L 628 4666 
z
" transform="scale(0.015625)"/>
      </defs>
      <use xlink:href="#DejaVuSans-4a"/>
      <use xlink:href="#DejaVuSans-2e" x="29.492188"/>
      <use xlink:href="#DejaVuSans-42" x="61.279297"/>
      <use xlink:href="#DejaVuSans-72" x="129.882812"/>
      <use xlink:href="#DejaVuSans-6f" x="168.746094"/>
      <use xlink:href="#DejaVuSans-77" x="229.927734"/>
      <use xlink:href="#DejaVuSans-6e" x="311.714844"/>
     </g>
    </g>
   </g>
   <g id="text_8">
    <g clip-path="url(#p4346fc814e)">
     <!-- J.Tatum -->
     <g transform="translate(27.067007 82.630985)scale(0.12 -0.12)">
      <use xlink:href="#DejaVuSans-4a"/>
      <use xlink:href="#DejaVuSans-2e" x="29.492188"/>
      <use xlink:href="#DejaVuSans-54" x="61.279297"/>
      <use xlink:href="#DejaVuSans-61" x="105.863281"/>
      <use xlink:href="#DejaVuSans-74" x="167.142578"/>
      <use xlink:href="#DejaVuSans-75" x="206.351562"/>
      <use xlink:href="#DejaVuSans-6d" x="269.730469"/>
     </g>
    </g>
   </g>
   <g id="text_9">
    <g clip-path="url(#p4346fc814e)">
     <!-- J.Teague -->
     <g transform="translate(0.95532 123.338489)scale(0.12 -0.12)">
      <defs>
       <path id="DejaVuSans-67" d="M 2906 1791 
Q 2906 2416 2648 2759 
Q 2391 3103 1925 3103 
Q 1463 3103 1205 2759 
Q 947 2416 947 1791 
Q 947 1169 1205 825 
Q 1463 481 1925 481 
Q 2391 481 2648 825 
Q 2906 1169 2906 1791 
z
M 3481 434 
Q 3481 -459 3084 -895 
Q 2688 -1331 1869 -1331 
Q 1566 -1331 1297 -1286 
Q 1028 -1241 775 -1147 
L 775 -588 
Q 1028 -725 1275 -790 
Q 1522 -856 1778 -856 
Q 2344 -856 2625 -561 
Q 2906 -266 2906 331 
L 2906 616 
Q 2728 306 2450 153 
Q 2172 0 1784 0 
Q 1141 0 747 490 
Q 353 981 353 1791 
Q 353 2603 747 3093 
Q 1141 3584 1784 3584 
Q 2172 3584 2450 3431 
Q 2728 3278 2906 2969 
L 2906 3500 
L 3481 3500 
L 3481 434 
z
" transform="scale(0.015625)"/>
      </defs>
      <use xlink:href="#DejaVuSans-4a"/>
      <use xlink:href="#DejaVuSans-2e" x="29.492188"/>
      <use xlink:href="#DejaVuSans-54" x="61.279297"/>
      <use xlink:href="#DejaVuSans-65" x="105.363281"/>
      <use xlink:href="#DejaVuSans-61" x="166.886719"/>
      <use xlink:href="#DejaVuSans-67" x="228.166016"/>
      <use xlink:href="#DejaVuSans-75" x="291.642578"/>
      <use xlink:href="#DejaVuSans-65" x="355.021484"/>
     </g>
    </g>
   </g>
   <g id="text_10">
    <g clip-path="url(#p4346fc814e)">
     <!-- K.Walker -->
     <g transform="translate(-8.239881 169.629383)scale(0.12 -0.12)">
      <defs>
       <path id="DejaVuSans-4b" d="M 628 4666 
L 1259 4666 
L 1259 2694 
L 3353 4666 
L 4166 4666 
L 1850 2491 
L 4331 0 
L 3500 0 
L 1259 2247 
L 1259 0 
L 628 0 
L 628 4666 
z
" transform="scale(0.015625)"/>
       <path id="DejaVuSans-6b" d="M 581 4863 
L 1159 4863 
L 1159 1991 
L 2875 3500 
L 3609 3500 
L 1753 1863 
L 3688 0 
L 2938 0 
L 1159 1709 
L 1159 0 
L 581 0 
L 581 4863 
z
" transform="scale(0.015625)"/>
      </defs>
      <use xlink:href="#DejaVuSans-4b"/>
      <use xlink:href="#DejaVuSans-2e" x="65.576172"/>
      <use xlink:href="#DejaVuSans-57" x="97.363281"/>
      <use xlink:href="#DejaVuSans-61" x="189.865234"/>
      <use xlink:href="#DejaVuSans-6c" x="251.144531"/>
      <use xlink:href="#DejaVuSans-6b" x="278.927734"/>
      <use xlink:href="#DejaVuSans-65" x="333.212891"/>
      <use xlink:href="#DejaVuSans-72" x="394.736328"/>
     </g>
    </g>
   </g>
   <g id="text_11">
    <g clip-path="url(#p4346fc814e)">
     <!-- L.Kornet -->
     <g transform="translate(1.185008 215.920245)scale(0.12 -0.12)">
      <defs>
       <path id="DejaVuSans-4c" d="M 628 4666 
L 1259 4666 
L 1259 531 
L 3531 531 
L 3531 0 
L 628 0 
L 628 4666 
z
" transform="scale(0.015625)"/>
      </defs>
      <use xlink:href="#DejaVuSans-4c"/>
      <use xlink:href="#DejaVuSans-2e" x="55.712891"/>
      <use xlink:href="#DejaVuSans-4b" x="87.5"/>
      <use xlink:href="#DejaVuSans-6f" x="148.076172"/>
      <use xlink:href="#DejaVuSans-72" x="209.257812"/>
      <use xlink:href="#DejaVuSans-6e" x="248.621094"/>
      <use xlink:href="#DejaVuSans-65" x="312"/>
      <use xlink:href="#DejaVuSans-74" x="373.523438"/>
     </g>
    </g>
   </g>
   <g id="text_12">
    <g clip-path="url(#p4346fc814e)">
     <!-- M.Smart -->
     <g transform="translate(23.861686 256.627749)scale(0.12 -0.12)">
      <defs>
       <path id="DejaVuSans-4d" d="M 628 4666 
L 1569 4666 
L 2759 1491 
L 3956 4666 
L 4897 4666 
L 4897 0 
L 4281 0 
L 4281 4097 
L 3078 897 
L 2444 897 
L 1241 4097 
L 1241 0 
L 628 0 
L 628 4666 
z
" transform="scale(0.015625)"/>
       <path id="DejaVuSans-53" d="M 3425 4513 
L 3425 3897 
Q 3066 4069 2747 4153 
Q 2428 4238 2131 4238 
Q 1616 4238 1336 4038 
Q 1056 3838 1056 3469 
Q 1056 3159 1242 3001 
Q 1428 2844 1947 2747 
L 2328 2669 
Q 3034 2534 3370 2195 
Q 3706 1856 3706 1288 
Q 3706 609 3251 259 
Q 2797 -91 1919 -91 
Q 1588 -91 1214 -16 
Q 841 59 441 206 
L 441 856 
Q 825 641 1194 531 
Q 1563 422 1919 422 
Q 2459 422 2753 634 
Q 3047 847 3047 1241 
Q 3047 1584 2836 1778 
Q 2625 1972 2144 2069 
L 1759 2144 
Q 1053 2284 737 2584 
Q 422 2884 422 3419 
Q 422 4038 858 4394 
Q 1294 4750 2059 4750 
Q 2388 4750 2728 4690 
Q 3069 4631 3425 4513 
z
" transform="scale(0.015625)"/>
      </defs>
      <use xlink:href="#DejaVuSans-4d"/>
      <use xlink:href="#DejaVuSans-2e" x="86.279297"/>
      <use xlink:href="#DejaVuSans-53" x="118.066406"/>
      <use xlink:href="#DejaVuSans-6d" x="181.542969"/>
      <use xlink:href="#DejaVuSans-61" x="278.955078"/>
      <use xlink:href="#DejaVuSans-72" x="340.234375"/>
      <use xlink:href="#DejaVuSans-74" x="381.347656"/>
     </g>
    </g>
   </g>
   <g id="text_13">
    <g clip-path="url(#p4346fc814e)">
     <!-- P.Pritchard -->
     <g transform="translate(53.020697 286.841981)scale(0.12 -0.12)">
      <defs>
       <path id="DejaVuSans-50" d="M 1259 4147 
L 1259 2394 
L 2053 2394 
Q 2494 2394 2734 2622 
Q 2975 2850 2975 3272 
Q 2975 3691 2734 3919 
Q 2494 4147 2053 4147 
L 1259 4147 
z
M 628 4666 
L 2053 4666 
Q 2838 4666 3239 4311 
Q 3641 3956 3641 3272 
Q 3641 2581 3239 2228 
Q 2838 1875 2053 1875 
L 1259 1875 
L 1259 0 
L 628 0 
L 628 4666 
z
" transform="scale(0.015625)"/>
       <path id="DejaVuSans-63" d="M 3122 3366 
L 3122 2828 
Q 2878 2963 2633 3030 
Q 2388 3097 2138 3097 
Q 1578 3097 1268 2742 
Q 959 2388 959 1747 
Q 959 1106 1268 751 
Q 1578 397 2138 397 
Q 2388 397 2633 464 
Q 2878 531 3122 666 
L 3122 134 
Q 2881 22 2623 -34 
Q 2366 -91 2075 -91 
Q 1284 -91 818 406 
Q 353 903 353 1747 
Q 353 2603 823 3093 
Q 1294 3584 2113 3584 
Q 2378 3584 2631 3529 
Q 2884 3475 3122 3366 
z
" transform="scale(0.015625)"/>
      </defs>
      <use xlink:href="#DejaVuSans-50"/>
      <use xlink:href="#DejaVuSans-2e" x="44.677734"/>
      <use xlink:href="#DejaVuSans-50" x="76.464844"/>
      <use xlink:href="#DejaVuSans-72" x="135.017578"/>
      <use xlink:href="#DejaVuSans-69" x="176.130859"/>
      <use xlink:href="#DejaVuSans-74" x="203.914062"/>
      <use xlink:href="#DejaVuSans-63" x="243.123047"/>
      <use xlink:href="#DejaVuSans-68" x="298.103516"/>
      <use xlink:href="#DejaVuSans-61" x="361.482422"/>
      <use xlink:href="#DejaVuSans-72" x="422.761719"/>
      <use xlink:href="#DejaVuSans-64" x="462.125"/>
     </g>
    </g>
   </g>
   <g id="text_14">
    <g clip-path="url(#p4346fc814e)">
     <!-- R.Williams III -->
     <g transform="translate(89.867382 302.918631)scale(0.12 -0.12)">
      <defs>
       <path id="DejaVuSans-52" d="M 2841 2188 
Q 3044 2119 3236 1894 
Q 3428 1669 3622 1275 
L 4263 0 
L 3584 0 
L 2988 1197 
Q 2756 1666 2539 1819 
Q 2322 1972 1947 1972 
L 1259 1972 
L 1259 0 
L 628 0 
L 628 4666 
L 2053 4666 
Q 2853 4666 3247 4331 
Q 3641 3997 3641 3322 
Q 3641 2881 3436 2590 
Q 3231 2300 2841 2188 
z
M 1259 4147 
L 1259 2491 
L 2053 2491 
Q 2509 2491 2742 2702 
Q 2975 2913 2975 3322 
Q 2975 3731 2742 3939 
Q 2509 4147 2053 4147 
L 1259 4147 
z
" transform="scale(0.015625)"/>
       <path id="DejaVuSans-20" transform="scale(0.015625)"/>
       <path id="DejaVuSans-49" d="M 628 4666 
L 1259 4666 
L 1259 0 
L 628 0 
L 628 4666 
z
" transform="scale(0.015625)"/>
      </defs>
      <use xlink:href="#DejaVuSans-52"/>
      <use xlink:href="#DejaVuSans-2e" x="65.857422"/>
      <use xlink:href="#DejaVuSans-57" x="97.644531"/>
      <use xlink:href="#DejaVuSans-69" x="194.271484"/>
      <use xlink:href="#DejaVuSans-6c" x="222.054688"/>
      <use xlink:href="#DejaVuSans-6c" x="249.837891"/>
      <use xlink:href="#DejaVuSans-69" x="277.621094"/>
      <use xlink:href="#DejaVuSans-61" x="305.404297"/>
      <use xlink:href="#DejaVuSans-6d" x="366.683594"/>
      <use xlink:href="#DejaVuSans-73" x="464.095703"/>
      <use xlink:href="#DejaVuSans-20" x="516.195312"/>
      <use xlink:href="#DejaVuSans-49" x="547.982422"/>
      <use xlink:href="#DejaVuSans-49" x="577.474609"/>
      <use xlink:href="#DejaVuSans-49" x="606.966797"/>
     </g>
    </g>
   </g>
   <g id="text_15">
    <g clip-path="url(#p4346fc814e)">
     <!-- R.Langford -->
     <g transform="translate(141.901372 302.918623)scale(0.12 -0.12)">
      <defs>
       <path id="DejaVuSans-66" d="M 2375 4863 
L 2375 4384 
L 1825 4384 
Q 1516 4384 1395 4259 
Q 1275 4134 1275 3809 
L 1275 3500 
L 2222 3500 
L 2222 3053 
L 1275 3053 
L 1275 0 
L 697 0 
L 697 3053 
L 147 3053 
L 147 3500 
L 697 3500 
L 697 3744 
Q 697 4328 969 4595 
Q 1241 4863 1831 4863 
L 2375 4863 
z
" transform="scale(0.015625)"/>
      </defs>
      <use xlink:href="#DejaVuSans-52"/>
      <use xlink:href="#DejaVuSans-2e" x="65.857422"/>
      <use xlink:href="#DejaVuSans-4c" x="97.644531"/>
      <use xlink:href="#DejaVuSans-61" x="153.357422"/>
      <use xlink:href="#DejaVuSans-6e" x="214.636719"/>
      <use xlink:href="#DejaVuSans-67" x="278.015625"/>
      <use xlink:href="#DejaVuSans-66" x="341.492188"/>
      <use xlink:href="#DejaVuSans-6f" x="376.697266"/>
      <use xlink:href="#DejaVuSans-72" x="437.878906"/>
      <use xlink:href="#DejaVuSans-64" x="477.242188"/>
     </g>
    </g>
   </g>
   <g id="text_16">
    <g clip-path="url(#p4346fc814e)">
     <!-- S.Ojeleye -->
     <g transform="translate(189.444929 286.841981)scale(0.12 -0.12)">
      <defs>
       <path id="DejaVuSans-4f" d="M 2522 4238 
Q 1834 4238 1429 3725 
Q 1025 3213 1025 2328 
Q 1025 1447 1429 934 
Q 1834 422 2522 422 
Q 3209 422 3611 934 
Q 4013 1447 4013 2328 
Q 4013 3213 3611 3725 
Q 3209 4238 2522 4238 
z
M 2522 4750 
Q 3503 4750 4090 4092 
Q 4678 3434 4678 2328 
Q 4678 1225 4090 567 
Q 3503 -91 2522 -91 
Q 1538 -91 948 565 
Q 359 1222 359 2328 
Q 359 3434 948 4092 
Q 1538 4750 2522 4750 
z
" transform="scale(0.015625)"/>
       <path id="DejaVuSans-6a" d="M 603 3500 
L 1178 3500 
L 1178 -63 
Q 1178 -731 923 -1031 
Q 669 -1331 103 -1331 
L -116 -1331 
L -116 -844 
L 38 -844 
Q 366 -844 484 -692 
Q 603 -541 603 -63 
L 603 3500 
z
M 603 4863 
L 1178 4863 
L 1178 4134 
L 603 4134 
L 603 4863 
z
" transform="scale(0.015625)"/>
       <path id="DejaVuSans-79" d="M 2059 -325 
Q 1816 -950 1584 -1140 
Q 1353 -1331 966 -1331 
L 506 -1331 
L 506 -850 
L 844 -850 
Q 1081 -850 1212 -737 
Q 1344 -625 1503 -206 
L 1606 56 
L 191 3500 
L 800 3500 
L 1894 763 
L 2988 3500 
L 3597 3500 
L 2059 -325 
z
" transform="scale(0.015625)"/>
      </defs>
      <use xlink:href="#DejaVuSans-53"/>
      <use xlink:href="#DejaVuSans-2e" x="63.476562"/>
      <use xlink:href="#DejaVuSans-4f" x="95.263672"/>
      <use xlink:href="#DejaVuSans-6a" x="173.974609"/>
      <use xlink:href="#DejaVuSans-65" x="201.757812"/>
      <use xlink:href="#DejaVuSans-6c" x="263.28125"/>
      <use xlink:href="#DejaVuSans-65" x="291.064453"/>
      <use xlink:href="#DejaVuSans-79" x="352.587891"/>
      <use xlink:href="#DejaVuSans-65" x="411.767578"/>
     </g>
    </g>
   </g>
   <g id="text_17">
    <g clip-path="url(#p4346fc814e)">
     <!-- T.Waters -->
     <g transform="translate(227.58329 256.627773)scale(0.12 -0.12)">
      <use xlink:href="#DejaVuSans-54"/>
      <use xlink:href="#DejaVuSans-2e" x="49.208984"/>
      <use xlink:href="#DejaVuSans-57" x="80.996094"/>
      <use xlink:href="#DejaVuSans-61" x="173.498047"/>
      <use xlink:href="#DejaVuSans-74" x="234.777344"/>
      <use xlink:href="#DejaVuSans-65" x="273.986328"/>
      <use xlink:href="#DejaVuSans-72" x="335.509766"/>
      <use xlink:href="#DejaVuSans-73" x="376.623047"/>
     </g>
    </g>
   </g>
   <g id="text_18">
    <g clip-path="url(#p4346fc814e)">
     <!-- T.Thompson -->
     <g transform="translate(240.20061 215.920273)scale(0.12 -0.12)">
      <defs>
       <path id="DejaVuSans-70" d="M 1159 525 
L 1159 -1331 
L 581 -1331 
L 581 3500 
L 1159 3500 
L 1159 2969 
Q 1341 3281 1617 3432 
Q 1894 3584 2278 3584 
Q 2916 3584 3314 3078 
Q 3713 2572 3713 1747 
Q 3713 922 3314 415 
Q 2916 -91 2278 -91 
Q 1894 -91 1617 61 
Q 1341 213 1159 525 
z
M 3116 1747 
Q 3116 2381 2855 2742 
Q 2594 3103 2138 3103 
Q 1681 3103 1420 2742 
Q 1159 2381 1159 1747 
Q 1159 1113 1420 752 
Q 1681 391 2138 391 
Q 2594 391 2855 752 
Q 3116 1113 3116 1747 
z
" transform="scale(0.015625)"/>
      </defs>
      <use xlink:href="#DejaVuSans-54"/>
      <use xlink:href="#DejaVuSans-2e" x="49.208984"/>
      <use xlink:href="#DejaVuSans-54" x="80.996094"/>
      <use xlink:href="#DejaVuSans-68" x="142.080078"/>
      <use xlink:href="#DejaVuSans-6f" x="205.458984"/>
      <use xlink:href="#DejaVuSans-6d" x="266.640625"/>
      <use xlink:href="#DejaVuSans-70" x="364.052734"/>
      <use xlink:href="#DejaVuSans-73" x="427.529297"/>
      <use xlink:href="#DejaVuSans-6f" x="479.628906"/>
      <use xlink:href="#DejaVuSans-6e" x="540.810547"/>
     </g>
    </g>
   </g>
   <g id="text_19">
    <!-- 2020-21 Boston Celtics Assist Network -->
    <g transform="translate(35.219062 16.318125)scale(0.12 -0.12)">
     <defs>
      <path id="DejaVuSans-32" d="M 1228 531 
L 3431 531 
L 3431 0 
L 469 0 
L 469 531 
Q 828 903 1448 1529 
Q 2069 2156 2228 2338 
Q 2531 2678 2651 2914 
Q 2772 3150 2772 3378 
Q 2772 3750 2511 3984 
Q 2250 4219 1831 4219 
Q 1534 4219 1204 4116 
Q 875 4013 500 3803 
L 500 4441 
Q 881 4594 1212 4672 
Q 1544 4750 1819 4750 
Q 2544 4750 2975 4387 
Q 3406 4025 3406 3419 
Q 3406 3131 3298 2873 
Q 3191 2616 2906 2266 
Q 2828 2175 2409 1742 
Q 1991 1309 1228 531 
z
" transform="scale(0.015625)"/>
      <path id="DejaVuSans-30" d="M 2034 4250 
Q 1547 4250 1301 3770 
Q 1056 3291 1056 2328 
Q 1056 1369 1301 889 
Q 1547 409 2034 409 
Q 2525 409 2770 889 
Q 3016 1369 3016 2328 
Q 3016 3291 2770 3770 
Q 2525 4250 2034 4250 
z
M 2034 4750 
Q 2819 4750 3233 4129 
Q 3647 3509 3647 2328 
Q 3647 1150 3233 529 
Q 2819 -91 2034 -91 
Q 1250 -91 836 529 
Q 422 1150 422 2328 
Q 422 3509 836 4129 
Q 1250 4750 2034 4750 
z
" transform="scale(0.015625)"/>
      <path id="DejaVuSans-2d" d="M 313 2009 
L 1997 2009 
L 1997 1497 
L 313 1497 
L 313 2009 
z
" transform="scale(0.015625)"/>
      <path id="DejaVuSans-31" d="M 794 531 
L 1825 531 
L 1825 4091 
L 703 3866 
L 703 4441 
L 1819 4666 
L 2450 4666 
L 2450 531 
L 3481 531 
L 3481 0 
L 794 0 
L 794 531 
z
" transform="scale(0.015625)"/>
     </defs>
     <use xlink:href="#DejaVuSans-32"/>
     <use xlink:href="#DejaVuSans-30" x="63.623047"/>
     <use xlink:href="#DejaVuSans-32" x="127.246094"/>
     <use xlink:href="#DejaVuSans-30" x="190.869141"/>
     <use xlink:href="#DejaVuSans-2d" x="254.492188"/>
     <use xlink:href="#DejaVuSans-32" x="290.576172"/>
     <use xlink:href="#DejaVuSans-31" x="354.199219"/>
     <use xlink:href="#DejaVuSans-20" x="417.822266"/>
     <use xlink:href="#DejaVuSans-42" x="449.609375"/>
     <use xlink:href="#DejaVuSans-6f" x="518.212891"/>
     <use xlink:href="#DejaVuSans-73" x="579.394531"/>
     <use xlink:href="#DejaVuSans-74" x="631.494141"/>
     <use xlink:href="#DejaVuSans-6f" x="670.703125"/>
     <use xlink:href="#DejaVuSans-6e" x="731.884766"/>
     <use xlink:href="#DejaVuSans-20" x="795.263672"/>
     <use xlink:href="#DejaVuSans-43" x="827.050781"/>
     <use xlink:href="#DejaVuSans-65" x="896.875"/>
     <use xlink:href="#DejaVuSans-6c" x="958.398438"/>
     <use xlink:href="#DejaVuSans-74" x="986.181641"/>
     <use xlink:href="#DejaVuSans-69" x="1025.390625"/>
     <use xlink:href="#DejaVuSans-63" x="1053.173828"/>
     <use xlink:href="#DejaVuSans-73" x="1108.154297"/>
     <use xlink:href="#DejaVuSans-20" x="1160.253906"/>
     <use xlink:href="#DejaVuSans-41" x="1192.041016"/>
     <use xlink:href="#DejaVuSans-73" x="1260.449219"/>
     <use xlink:href="#DejaVuSans-73" x="1312.548828"/>
     <use xlink:href="#DejaVuSans-69" x="1364.648438"/>
     <use xlink:href="#DejaVuSans-73" x="1392.431641"/>
     <use xlink:href="#DejaVuSans-74" x="1444.53125"/>
     <use xlink:href="#DejaVuSans-20" x="1483.740234"/>
     <use xlink:href="#DejaVuSans-4e" x="1515.527344"/>
     <use xlink:href="#DejaVuSans-65" x="1590.332031"/>
     <use xlink:href="#DejaVuSans-74" x="1651.855469"/>
     <use xlink:href="#DejaVuSans-77" x="1691.064453"/>
     <use xlink:href="#DejaVuSans-6f" x="1772.851562"/>
     <use xlink:href="#DejaVuSans-72" x="1834.033203"/>
     <use xlink:href="#DejaVuSans-6b" x="1875.146484"/>
    </g>
   </g>
  </g>
 </g>
 <defs>
  <clipPath id="p4346fc814e">
   <rect x="7.2" y="22.318125" width="288" height="288"/>
  </clipPath>
 </defs>
</svg>
