<?xml version="1.0" encoding="utf-8" standalone="no"?>
<!DOCTYPE svg PUBLIC "-//W3C//DTD SVG 1.1//EN"
  "http://www.w3.org/Graphics/SVG/1.1/DTD/svg11.dtd">
<svg xmlns:xlink="http://www.w3.org/1999/xlink" width="302.4pt" height="317.518125pt" viewBox="0 0 302.4 317.518125" xmlns="http://www.w3.org/2000/svg" version="1.1">
 <metadata>
  <rdf:RDF xmlns:dc="http://purl.org/dc/elements/1.1/" xmlns:cc="http://creativecommons.org/ns#" xmlns:rdf="http://www.w3.org/1999/02/22-rdf-syntax-ns#">
   <cc:Work>
    <dc:type rdf:resource="http://purl.org/dc/dcmitype/StillImage"/>
    <dc:date>2024-06-20T17:30:23.246615</dc:date>
    <dc:format>image/svg+xml</dc:format>
    <dc:creator>
     <cc:Agent>
      <dc:title>Matplotlib v3.5.2, https://matplotlib.org/</dc:title>
     </cc:Agent>
    </dc:creator>
   </cc:Work>
  </rdf:RDF>
 </metadata>
 <defs>
  <style type="text/css">*{stroke-linejoin: round; stroke-linecap: butt}</style>
 </defs>
 <g id="figure_1">
  <g id="patch_1">
   <path d="M 0 317.518125 
L 302.4 317.518125 
L 302.4 0 
L 0 0 
z
" style="fill: #ffffff"/>
  </g>
  <g id="axes_1">
   <g id="LineCollection_1">
    <path d="M 270.208264 166.318125 
L 225.400439 70.880903 
" clip-path="url(#pc8d7779ddd)" style="fill: none; stroke: #848484; stroke-width: 1.44"/>
    <path d="M 270.208264 166.318125 
L 177.681835 47.309861 
" clip-path="url(#pc8d7779ddd)" style="fill: none; stroke: #dbdbdb; stroke-width: 0.44"/>
    <path d="M 270.208264 166.318125 
L 76.999561 70.880903 
" clip-path="url(#pc8d7779ddd)" style="fill: none; stroke: #6f6f6f; stroke-width: 1.68"/>
    <path d="M 270.208264 166.318125 
L 43.977261 113.354455 
" clip-path="url(#pc8d7779ddd)" style="fill: none; stroke: #5a5a5a; stroke-width: 1.92"/>
    <path d="M 270.208264 166.318125 
L 32.191736 166.318136 
" clip-path="url(#pc8d7779ddd)" style="fill: none; stroke: #ffffff; stroke-width: 0.02"/>
    <path d="M 270.208264 166.318125 
L 43.977261 219.281788 
" clip-path="url(#pc8d7779ddd)" style="fill: none; stroke: #d0d0d0; stroke-width: 0.56"/>
    <path d="M 270.208264 166.318125 
L 76.999583 261.755361 
" clip-path="url(#pc8d7779ddd)" style="fill: none; stroke: #999999; stroke-width: 1.2"/>
    <path d="M 270.208264 166.318125 
L 177.681842 285.326389 
" clip-path="url(#pc8d7779ddd)" style="fill: none; stroke: #f7f7f7; stroke-width: 0.12"/>
    <path d="M 270.208264 166.318125 
L 225.400417 261.755361 
" clip-path="url(#pc8d7779ddd)" style="fill: none; stroke: #f0f0f0; stroke-width: 0.2"/>
    <path d="M 270.208264 166.318125 
L 258.422739 219.281788 
" clip-path="url(#pc8d7779ddd)" style="fill: none; stroke: #ebebeb; stroke-width: 0.26"/>
    <path d="M 258.422739 113.354462 
L 225.400439 70.880903 
" clip-path="url(#pc8d7779ddd)" style="fill: none; stroke: #e5e5e5; stroke-width: 0.32"/>
    <path d="M 258.422739 113.354462 
L 177.681835 47.309861 
" clip-path="url(#pc8d7779ddd)" style="fill: none; stroke: #f0f0f0; stroke-width: 0.2"/>
    <path d="M 258.422739 113.354462 
L 76.999561 70.880903 
" clip-path="url(#pc8d7779ddd)" style="fill: none; stroke: #dbdbdb; stroke-width: 0.44"/>
    <path d="M 258.422739 113.354462 
L 43.977261 113.354455 
" clip-path="url(#pc8d7779ddd)" style="fill: none; stroke: #e4e4e4; stroke-width: 0.34"/>
    <path d="M 258.422739 113.354462 
L 32.191736 166.318136 
" clip-path="url(#pc8d7779ddd)" style="fill: none; stroke: #fefefe; stroke-width: 0.04"/>
    <path d="M 258.422739 113.354462 
L 43.977261 219.281788 
" clip-path="url(#pc8d7779ddd)" style="fill: none; stroke: #eeeeee; stroke-width: 0.22"/>
    <path d="M 258.422739 113.354462 
L 76.999583 261.755361 
" clip-path="url(#pc8d7779ddd)" style="fill: none; stroke: #e5e5e5; stroke-width: 0.32"/>
    <path d="M 258.422739 113.354462 
L 124.718161 285.326389 
" clip-path="url(#pc8d7779ddd)" style="fill: none; stroke: #fafafa; stroke-width: 0.08"/>
    <path d="M 258.422739 113.354462 
L 177.681842 285.326389 
" clip-path="url(#pc8d7779ddd)" style="fill: none; stroke: #f3f3f3; stroke-width: 0.16"/>
    <path d="M 258.422739 113.354462 
L 258.422739 219.281788 
" clip-path="url(#pc8d7779ddd)" style="fill: none; stroke: #f2f2f2; stroke-width: 0.18"/>
    <path d="M 225.400439 70.880903 
L 177.681835 47.309861 
" clip-path="url(#pc8d7779ddd)" style="fill: none; stroke: #b6b6b6; stroke-width: 0.86"/>
    <path d="M 225.400439 70.880903 
L 124.718168 47.309861 
" clip-path="url(#pc8d7779ddd)" style="fill: none; stroke: #ffffff; stroke-width: 0.02"/>
    <path d="M 225.400439 70.880903 
L 76.999561 70.880903 
" clip-path="url(#pc8d7779ddd)" style="fill: none; stroke: #6f6f6f; stroke-width: 1.68"/>
    <path d="M 225.400439 70.880903 
L 43.977261 113.354455 
" clip-path="url(#pc8d7779ddd)" style="fill: none; stroke: #1d1d1d; stroke-width: 2.62"/>
    <path d="M 225.400439 70.880903 
L 32.191736 166.318136 
" clip-path="url(#pc8d7779ddd)" style="fill: none; stroke: #dedede; stroke-width: 0.4"/>
    <path d="M 225.400439 70.880903 
L 43.977261 219.281788 
" clip-path="url(#pc8d7779ddd)" style="fill: none; stroke: #acacac; stroke-width: 0.98"/>
    <path d="M 225.400439 70.880903 
L 76.999583 261.755361 
" clip-path="url(#pc8d7779ddd)" style="fill: none; stroke: #b5b5b5; stroke-width: 0.88"/>
    <path d="M 225.400439 70.880903 
L 124.718161 285.326389 
" clip-path="url(#pc8d7779ddd)" style="fill: none; stroke: #ebebeb; stroke-width: 0.26"/>
    <path d="M 225.400439 70.880903 
L 177.681842 285.326389 
" clip-path="url(#pc8d7779ddd)" style="fill: none; stroke: #ebebeb; stroke-width: 0.26"/>
    <path d="M 225.400439 70.880903 
L 225.400417 261.755361 
" clip-path="url(#pc8d7779ddd)" style="fill: none; stroke: #d0d0d0; stroke-width: 0.56"/>
    <path d="M 225.400439 70.880903 
L 258.422739 219.281788 
" clip-path="url(#pc8d7779ddd)" style="fill: none; stroke: #c1c1c1; stroke-width: 0.74"/>
    <path d="M 177.681835 47.309861 
L 124.718168 47.309861 
" clip-path="url(#pc8d7779ddd)" style="fill: none; stroke: #ffffff; stroke-width: 0.02"/>
    <path d="M 177.681835 47.309861 
L 76.999561 70.880903 
" clip-path="url(#pc8d7779ddd)" style="fill: none; stroke: #d0d0d0; stroke-width: 0.56"/>
    <path d="M 177.681835 47.309861 
L 43.977261 113.354455 
" clip-path="url(#pc8d7779ddd)" style="fill: none; stroke: #979797; stroke-width: 1.22"/>
    <path d="M 177.681835 47.309861 
L 32.191736 166.318136 
" clip-path="url(#pc8d7779ddd)" style="fill: none; stroke: #ececec; stroke-width: 0.24"/>
    <path d="M 177.681835 47.309861 
L 43.977261 219.281788 
" clip-path="url(#pc8d7779ddd)" style="fill: none; stroke: #aaaaaa"/>
    <path d="M 177.681835 47.309861 
L 76.999583 261.755361 
" clip-path="url(#pc8d7779ddd)" style="fill: none; stroke: #d4d4d4; stroke-width: 0.52"/>
    <path d="M 177.681835 47.309861 
L 124.718161 285.326389 
" clip-path="url(#pc8d7779ddd)" style="fill: none; stroke: #fafafa; stroke-width: 0.08"/>
    <path d="M 177.681835 47.309861 
L 177.681842 285.326389 
" clip-path="url(#pc8d7779ddd)" style="fill: none; stroke: #e7e7e7; stroke-width: 0.3"/>
    <path d="M 177.681835 47.309861 
L 225.400417 261.755361 
" clip-path="url(#pc8d7779ddd)" style="fill: none; stroke: #f5f5f5; stroke-width: 0.14"/>
    <path d="M 177.681835 47.309861 
L 258.422739 219.281788 
" clip-path="url(#pc8d7779ddd)" style="fill: none; stroke: #dedede; stroke-width: 0.4"/>
    <path d="M 124.718168 47.309861 
L 32.191736 166.318136 
" clip-path="url(#pc8d7779ddd)" style="fill: none; stroke: #f5f5f5; stroke-width: 0.14"/>
    <path d="M 124.718168 47.309861 
L 124.718161 285.326389 
" clip-path="url(#pc8d7779ddd)" style="fill: none; stroke: #fefefe; stroke-width: 0.04"/>
    <path d="M 124.718168 47.309861 
L 177.681842 285.326389 
" clip-path="url(#pc8d7779ddd)" style="fill: none; stroke: #fefefe; stroke-width: 0.04"/>
    <path d="M 124.718168 47.309861 
L 258.422739 219.281788 
" clip-path="url(#pc8d7779ddd)" style="fill: none; stroke: #fcfcfc; stroke-width: 0.06"/>
    <path d="M 76.999561 70.880903 
L 43.977261 113.354455 
" clip-path="url(#pc8d7779ddd)" style="fill: none; stroke: #4c4c4c; stroke-width: 2.08"/>
    <path d="M 76.999561 70.880903 
L 32.191736 166.318136 
" clip-path="url(#pc8d7779ddd)" style="fill: none; stroke: #f2f2f2; stroke-width: 0.18"/>
    <path d="M 76.999561 70.880903 
L 43.977261 219.281788 
" clip-path="url(#pc8d7779ddd)" style="fill: none; stroke: #909090; stroke-width: 1.3"/>
    <path d="M 76.999561 70.880903 
L 76.999583 261.755361 
" clip-path="url(#pc8d7779ddd)" style="fill: none; stroke: #000000; stroke-width: 2.96"/>
    <path d="M 76.999561 70.880903 
L 124.718161 285.326389 
" clip-path="url(#pc8d7779ddd)" style="fill: none; stroke: #fafafa; stroke-width: 0.08"/>
    <path d="M 76.999561 70.880903 
L 177.681842 285.326389 
" clip-path="url(#pc8d7779ddd)" style="fill: none; stroke: #f7f7f7; stroke-width: 0.12"/>
    <path d="M 76.999561 70.880903 
L 225.400417 261.755361 
" clip-path="url(#pc8d7779ddd)" style="fill: none; stroke: #e2e2e2; stroke-width: 0.36"/>
    <path d="M 76.999561 70.880903 
L 258.422739 219.281788 
" clip-path="url(#pc8d7779ddd)" style="fill: none; stroke: #e5e5e5; stroke-width: 0.32"/>
    <path d="M 43.977261 113.354455 
L 32.191736 166.318136 
" clip-path="url(#pc8d7779ddd)" style="fill: none; stroke: #e4e4e4; stroke-width: 0.34"/>
    <path d="M 43.977261 113.354455 
L 43.977261 219.281788 
" clip-path="url(#pc8d7779ddd)" style="fill: none; stroke: #727272; stroke-width: 1.64"/>
    <path d="M 43.977261 113.354455 
L 76.999583 261.755361 
" clip-path="url(#pc8d7779ddd)" style="fill: none; stroke: #000000; stroke-width: 2.96"/>
    <path d="M 43.977261 113.354455 
L 124.718161 285.326389 
" clip-path="url(#pc8d7779ddd)" style="fill: none; stroke: #ffffff; stroke-width: 0.02"/>
    <path d="M 43.977261 113.354455 
L 177.681842 285.326389 
" clip-path="url(#pc8d7779ddd)" style="fill: none; stroke: #eeeeee; stroke-width: 0.22"/>
    <path d="M 43.977261 113.354455 
L 225.400417 261.755361 
" clip-path="url(#pc8d7779ddd)" style="fill: none; stroke: #bfbfbf; stroke-width: 0.76"/>
    <path d="M 43.977261 113.354455 
L 258.422739 219.281788 
" clip-path="url(#pc8d7779ddd)" style="fill: none; stroke: #bfbfbf; stroke-width: 0.76"/>
    <path d="M 32.191736 166.318136 
L 43.977261 219.281788 
" clip-path="url(#pc8d7779ddd)" style="fill: none; stroke: #e4e4e4; stroke-width: 0.34"/>
    <path d="M 32.191736 166.318136 
L 76.999583 261.755361 
" clip-path="url(#pc8d7779ddd)" style="fill: none; stroke: #eeeeee; stroke-width: 0.22"/>
    <path d="M 32.191736 166.318136 
L 124.718161 285.326389 
" clip-path="url(#pc8d7779ddd)" style="fill: none; stroke: #fefefe; stroke-width: 0.04"/>
    <path d="M 32.191736 166.318136 
L 177.681842 285.326389 
" clip-path="url(#pc8d7779ddd)" style="fill: none; stroke: #e9e9e9; stroke-width: 0.28"/>
    <path d="M 32.191736 166.318136 
L 258.422739 219.281788 
" clip-path="url(#pc8d7779ddd)" style="fill: none; stroke: #e0e0e0; stroke-width: 0.38"/>
    <path d="M 43.977261 219.281788 
L 76.999583 261.755361 
" clip-path="url(#pc8d7779ddd)" style="fill: none; stroke: #bfbfbf; stroke-width: 0.76"/>
    <path d="M 43.977261 219.281788 
L 124.718161 285.326389 
" clip-path="url(#pc8d7779ddd)" style="fill: none; stroke: #fafafa; stroke-width: 0.08"/>
    <path d="M 43.977261 219.281788 
L 177.681842 285.326389 
" clip-path="url(#pc8d7779ddd)" style="fill: none; stroke: #ececec; stroke-width: 0.24"/>
    <path d="M 43.977261 219.281788 
L 225.400417 261.755361 
" clip-path="url(#pc8d7779ddd)" style="fill: none; stroke: #dedede; stroke-width: 0.4"/>
    <path d="M 43.977261 219.281788 
L 258.422739 219.281788 
" clip-path="url(#pc8d7779ddd)" style="fill: none; stroke: #c6c6c6; stroke-width: 0.68"/>
    <path d="M 76.999583 261.755361 
L 177.681842 285.326389 
" clip-path="url(#pc8d7779ddd)" style="fill: none; stroke: #fafafa; stroke-width: 0.08"/>
    <path d="M 76.999583 261.755361 
L 225.400417 261.755361 
" clip-path="url(#pc8d7779ddd)" style="fill: none; stroke: #f0f0f0; stroke-width: 0.2"/>
    <path d="M 76.999583 261.755361 
L 258.422739 219.281788 
" clip-path="url(#pc8d7779ddd)" style="fill: none; stroke: #f3f3f3; stroke-width: 0.16"/>
    <path d="M 124.718161 285.326389 
L 177.681842 285.326389 
" clip-path="url(#pc8d7779ddd)" style="fill: none; stroke: #f9f9f9; stroke-width: 0.1"/>
    <path d="M 124.718161 285.326389 
L 258.422739 219.281788 
" clip-path="url(#pc8d7779ddd)" style="fill: none; stroke: #f0f0f0; stroke-width: 0.2"/>
    <path d="M 177.681842 285.326389 
L 225.400417 261.755361 
" clip-path="url(#pc8d7779ddd)" style="fill: none; stroke: #fcfcfc; stroke-width: 0.06"/>
    <path d="M 177.681842 285.326389 
L 258.422739 219.281788 
" clip-path="url(#pc8d7779ddd)" style="fill: none; stroke: #d6d6d6; stroke-width: 0.5"/>
    <path d="M 225.400417 261.755361 
L 258.422739 219.281788 
" clip-path="url(#pc8d7779ddd)" style="fill: none; stroke: #fafafa; stroke-width: 0.08"/>
   </g>
   <g id="PathCollection_1">
    <path d="M 270.208264 173.246328 
C 272.045645 173.246328 273.808019 172.516329 275.107244 171.217104 
C 276.406468 169.91788 277.136468 168.155506 277.136468 166.318125 
C 277.136468 164.480744 276.406468 162.71837 275.107244 161.419146 
C 273.808019 160.119921 272.045645 159.389922 270.208264 159.389922 
C 268.370883 159.389922 266.60851 160.119921 265.309285 161.419146 
C 264.01006 162.71837 263.280061 164.480744 263.280061 166.318125 
C 263.280061 168.155506 264.01006 169.91788 265.309285 171.217104 
C 266.60851 172.516329 268.370883 173.246328 270.208264 173.246328 
z
" clip-path="url(#pc8d7779ddd)" style="fill: #ffffff; stroke: #000000; stroke-width: 2"/>
    <path d="M 258.422739 117.259587 
C 259.45839 117.259587 260.451763 116.848118 261.184079 116.115802 
C 261.916395 115.383486 262.327864 114.390113 262.327864 113.354462 
C 262.327864 112.318811 261.916395 111.325438 261.184079 110.593122 
C 260.451763 109.860806 259.45839 109.449337 258.422739 109.449337 
C 257.387088 109.449337 256.393715 109.860806 255.661399 110.593122 
C 254.929083 111.325438 254.517614 112.318811 254.517614 113.354462 
C 254.517614 114.390113 254.929083 115.383486 255.661399 116.115802 
C 256.393715 116.848118 257.387088 117.259587 258.422739 117.259587 
z
" clip-path="url(#pc8d7779ddd)" style="fill: #ffffff; stroke: #000000; stroke-width: 2"/>
    <path d="M 225.400439 79.797181 
C 227.765063 79.797181 230.033157 78.857705 231.705199 77.185663 
C 233.377241 75.513622 234.316716 73.245528 234.316716 70.880903 
C 234.316716 68.516279 233.377241 66.248185 231.705199 64.576143 
C 230.033157 62.904101 227.765063 61.964626 225.400439 61.964626 
C 223.035814 61.964626 220.76772 62.904101 219.095679 64.576143 
C 217.423637 66.248185 216.484161 68.516279 216.484161 70.880903 
C 216.484161 73.245528 217.423637 75.513622 219.095679 77.185663 
C 220.76772 78.857705 223.035814 79.797181 225.400439 79.797181 
z
" clip-path="url(#pc8d7779ddd)" style="fill: #ffffff; stroke: #000000; stroke-width: 2"/>
    <path d="M 177.681835 53.010738 
C 179.193726 53.010738 180.643896 52.410057 181.712964 51.340989 
C 182.782032 50.271922 183.382712 48.821751 183.382712 47.309861 
C 183.382712 45.79797 182.782032 44.3478 181.712964 43.278732 
C 180.643896 42.209664 179.193726 41.608983 177.681835 41.608983 
C 176.169945 41.608983 174.719774 42.209664 173.650706 43.278732 
C 172.581639 44.3478 171.980958 45.79797 171.980958 47.309861 
C 171.980958 48.821751 172.581639 50.271922 173.650706 51.340989 
C 174.719774 52.410057 176.169945 53.010738 177.681835 53.010738 
z
" clip-path="url(#pc8d7779ddd)" style="fill: #ffffff; stroke: #000000; stroke-width: 2"/>
    <path d="M 124.718168 48.968173 
C 125.157958 48.968173 125.579794 48.793443 125.890772 48.482464 
C 126.20175 48.171486 126.376481 47.74965 126.376481 47.309861 
C 126.376481 46.870071 126.20175 46.448235 125.890772 46.137257 
C 125.579794 45.826278 125.157958 45.651548 124.718168 45.651548 
C 124.278379 45.651548 123.856542 45.826278 123.545564 46.137257 
C 123.234586 46.448235 123.059856 46.870071 123.059856 47.309861 
C 123.059856 47.74965 123.234586 48.171486 123.545564 48.482464 
C 123.856542 48.793443 124.278379 48.968173 124.718168 48.968173 
z
" clip-path="url(#pc8d7779ddd)" style="fill: #ffffff; stroke: #000000; stroke-width: 2"/>
    <path d="M 76.999561 78.480245 
C 79.01493 78.480245 80.948027 77.679531 82.373108 76.25445 
C 83.798189 74.829369 84.598903 72.896272 84.598903 70.880903 
C 84.598903 68.865534 83.798189 66.932438 82.373108 65.507357 
C 80.948027 64.082276 79.01493 63.281561 76.999561 63.281561 
C 74.984192 63.281561 73.051096 64.082276 71.626015 65.507357 
C 70.200934 66.932438 69.400219 68.865534 69.400219 70.880903 
C 69.400219 72.896272 70.200934 74.829369 71.626015 76.25445 
C 73.051096 77.679531 74.984192 78.480245 76.999561 78.480245 
z
" clip-path="url(#pc8d7779ddd)" style="fill: #ffffff; stroke: #000000; stroke-width: 2"/>
    <path d="M 43.977261 122.573999 
C 46.422313 122.573999 48.767551 121.60257 50.496463 119.873657 
C 52.225376 118.144744 53.196805 115.799507 53.196805 113.354455 
C 53.196805 110.909403 52.225376 108.564165 50.496463 106.835252 
C 48.767551 105.10634 46.422313 104.13491 43.977261 104.13491 
C 41.532209 104.13491 39.186971 105.10634 37.458058 106.835252 
C 35.729146 108.564165 34.757716 110.909403 34.757716 113.354455 
C 34.757716 115.799507 35.729146 118.144744 37.458058 119.873657 
C 39.186971 121.60257 41.532209 122.573999 43.977261 122.573999 
z
" clip-path="url(#pc8d7779ddd)" style="fill: #ffffff; stroke: #000000; stroke-width: 2"/>
    <path d="M 32.191736 169.85367 
C 33.12937 169.85367 34.028728 169.481143 34.691736 168.818136 
C 35.354743 168.155128 35.727269 167.25577 35.727269 166.318136 
C 35.727269 165.380501 35.354743 164.481143 34.691736 163.818136 
C 34.028728 163.155128 33.12937 162.782602 32.191736 162.782602 
C 31.254101 162.782602 30.354743 163.155128 29.691736 163.818136 
C 29.028728 164.481143 28.656202 165.380501 28.656202 166.318136 
C 28.656202 167.25577 29.028728 168.155128 29.691736 168.818136 
C 30.354743 169.481143 31.254101 169.85367 32.191736 169.85367 
z
" clip-path="url(#pc8d7779ddd)" style="fill: #ffffff; stroke: #000000; stroke-width: 2"/>
    <path d="M 43.977261 227.139905 
C 46.061258 227.139905 48.06018 226.311924 49.533789 224.838316 
C 51.007397 223.364707 51.835378 221.365785 51.835378 219.281788 
C 51.835378 217.197791 51.007397 215.198869 49.533789 213.72526 
C 48.06018 212.251652 46.061258 211.423671 43.977261 211.423671 
C 41.893264 211.423671 39.894342 212.251652 38.420733 213.72526 
C 36.947125 215.198869 36.119144 217.197791 36.119144 219.281788 
C 36.119144 221.365785 36.947125 223.364707 38.420733 224.838316 
C 39.894342 226.311924 41.893264 227.139905 43.977261 227.139905 
z
" clip-path="url(#pc8d7779ddd)" style="fill: #ffffff; stroke: #000000; stroke-width: 2"/>
    <path d="M 76.999583 271.476472 
C 79.577651 271.476472 82.050476 270.452195 83.873446 268.629225 
C 85.696416 266.806255 86.720694 264.33343 86.720694 261.755361 
C 86.720694 259.177292 85.696416 256.704468 83.873446 254.881498 
C 82.050476 253.058528 79.577651 252.03425 76.999583 252.03425 
C 74.421514 252.03425 71.948689 253.058528 70.125719 254.881498 
C 68.302749 256.704468 67.278472 259.177292 67.278472 261.755361 
C 67.278472 264.33343 68.302749 266.806255 70.125719 268.629225 
C 71.948689 270.452195 74.421514 271.476472 76.999583 271.476472 
z
" clip-path="url(#pc8d7779ddd)" style="fill: #ffffff; stroke: #000000; stroke-width: 2"/>
    <path d="M 124.718161 287.05844 
C 125.177506 287.05844 125.6181 286.87594 125.942906 286.551134 
C 126.267712 286.226328 126.450212 285.785735 126.450212 285.326389 
C 126.450212 284.867044 126.267712 284.426451 125.942906 284.101645 
C 125.6181 283.776838 125.177506 283.594339 124.718161 283.594339 
C 124.258816 283.594339 123.818222 283.776838 123.493416 284.101645 
C 123.16861 284.426451 122.98611 284.867044 122.98611 285.326389 
C 122.98611 285.785735 123.16861 286.226328 123.493416 286.551134 
C 123.818222 286.87594 124.258816 287.05844 124.718161 287.05844 
z
" clip-path="url(#pc8d7779ddd)" style="fill: #ffffff; stroke: #000000; stroke-width: 2"/>
    <path d="M 177.681842 289.263393 
C 178.725948 289.263393 179.72743 288.848566 180.465725 288.110272 
C 181.204019 287.371977 181.618846 286.370495 181.618846 285.326389 
C 181.618846 284.282284 181.204019 283.280801 180.465725 282.542507 
C 179.72743 281.804213 178.725948 281.389386 177.681842 281.389386 
C 176.637737 281.389386 175.636254 281.804213 174.89796 282.542507 
C 174.159666 283.280801 173.744838 284.282284 173.744838 285.326389 
C 173.744838 286.370495 174.159666 287.371977 174.89796 288.110272 
C 175.636254 288.848566 176.637737 289.263393 177.681842 289.263393 
z
" clip-path="url(#pc8d7779ddd)" style="fill: #ffffff; stroke: #000000; stroke-width: 2"/>
    <path d="M 225.400417 265.326075 
C 226.347382 265.326075 227.255689 264.949842 227.925294 264.280237 
C 228.594899 263.610632 228.971132 262.702326 228.971132 261.755361 
C 228.971132 260.808397 228.594899 259.90009 227.925294 259.230485 
C 227.255689 258.56088 226.347382 258.184647 225.400417 258.184647 
C 224.453453 258.184647 223.545146 258.56088 222.875541 259.230485 
C 222.205936 259.90009 221.829703 260.808397 221.829703 261.755361 
C 221.829703 262.702326 222.205936 263.610632 222.875541 264.280237 
C 223.545146 264.949842 224.453453 265.326075 225.400417 265.326075 
z
" clip-path="url(#pc8d7779ddd)" style="fill: #ffffff; stroke: #000000; stroke-width: 2"/>
    <path d="M 258.422739 223.465088 
C 259.532163 223.465088 260.596298 223.024309 261.380779 222.239828 
C 262.16526 221.455347 262.606039 220.391212 262.606039 219.281788 
C 262.606039 218.172364 262.16526 217.108229 261.380779 216.323748 
C 260.596298 215.539267 259.532163 215.098488 258.422739 215.098488 
C 257.313315 215.098488 256.249181 215.539267 255.464699 216.323748 
C 254.680218 217.108229 254.239439 218.172364 254.239439 219.281788 
C 254.239439 220.391212 254.680218 221.455347 255.464699 222.239828 
C 256.249181 223.024309 257.313315 223.465088 258.422739 223.465088 
z
" clip-path="url(#pc8d7779ddd)" style="fill: #ffffff; stroke: #000000; stroke-width: 2"/>
   </g>
   <g id="text_1">
    <g clip-path="url(#pc8d7779ddd)">
     <!-- A.Horford -->
     <g transform="translate(255.978944 169.629375)scale(0.12 -0.12)">
      <defs>
       <path id="DejaVuSans-41" d="M 2188 4044 
L 1331 1722 
L 3047 1722 
L 2188 4044 
z
M 1831 4666 
L 2547 4666 
L 4325 0 
L 3669 0 
L 3244 1197 
L 1141 1197 
L 716 0 
L 50 0 
L 1831 4666 
z
" transform="scale(0.015625)"/>
       <path id="DejaVuSans-2e" d="M 684 794 
L 1344 794 
L 1344 0 
L 684 0 
L 684 794 
z
" transform="scale(0.015625)"/>
       <path id="DejaVuSans-48" d="M 628 4666 
L 1259 4666 
L 1259 2753 
L 3553 2753 
L 3553 4666 
L 4184 4666 
L 4184 0 
L 3553 0 
L 3553 2222 
L 1259 2222 
L 1259 0 
L 628 0 
L 628 4666 
z
" transform="scale(0.015625)"/>
       <path id="DejaVuSans-6f" d="M 1959 3097 
Q 1497 3097 1228 2736 
Q 959 2375 959 1747 
Q 959 1119 1226 758 
Q 1494 397 1959 397 
Q 2419 397 2687 759 
Q 2956 1122 2956 1747 
Q 2956 2369 2687 2733 
Q 2419 3097 1959 3097 
z
M 1959 3584 
Q 2709 3584 3137 3096 
Q 3566 2609 3566 1747 
Q 3566 888 3137 398 
Q 2709 -91 1959 -91 
Q 1206 -91 779 398 
Q 353 888 353 1747 
Q 353 2609 779 3096 
Q 1206 3584 1959 3584 
z
" transform="scale(0.015625)"/>
       <path id="DejaVuSans-72" d="M 2631 2963 
Q 2534 3019 2420 3045 
Q 2306 3072 2169 3072 
Q 1681 3072 1420 2755 
Q 1159 2438 1159 1844 
L 1159 0 
L 581 0 
L 581 3500 
L 1159 3500 
L 1159 2956 
Q 1341 3275 1631 3429 
Q 1922 3584 2338 3584 
Q 2397 3584 2469 3576 
Q 2541 3569 2628 3553 
L 2631 2963 
z
" transform="scale(0.015625)"/>
       <path id="DejaVuSans-66" d="M 2375 4863 
L 2375 4384 
L 1825 4384 
Q 1516 4384 1395 4259 
Q 1275 4134 1275 3809 
L 1275 3500 
L 2222 3500 
L 2222 3053 
L 1275 3053 
L 1275 0 
L 697 0 
L 697 3053 
L 147 3053 
L 147 3500 
L 697 3500 
L 697 3744 
Q 697 4328 969 4595 
Q 1241 4863 1831 4863 
L 2375 4863 
z
" transform="scale(0.015625)"/>
       <path id="DejaVuSans-64" d="M 2906 2969 
L 2906 4863 
L 3481 4863 
L 3481 0 
L 2906 0 
L 2906 525 
Q 2725 213 2448 61 
Q 2172 -91 1784 -91 
Q 1150 -91 751 415 
Q 353 922 353 1747 
Q 353 2572 751 3078 
Q 1150 3584 1784 3584 
Q 2172 3584 2448 3432 
Q 2725 3281 2906 2969 
z
M 947 1747 
Q 947 1113 1208 752 
Q 1469 391 1925 391 
Q 2381 391 2643 752 
Q 2906 1113 2906 1747 
Q 2906 2381 2643 2742 
Q 2381 3103 1925 3103 
Q 1469 3103 1208 2742 
Q 947 2381 947 1747 
z
" transform="scale(0.015625)"/>
      </defs>
      <use xlink:href="#DejaVuSans-41"/>
      <use xlink:href="#DejaVuSans-2e" x="66.658203"/>
      <use xlink:href="#DejaVuSans-48" x="98.445312"/>
      <use xlink:href="#DejaVuSans-6f" x="173.640625"/>
      <use xlink:href="#DejaVuSans-72" x="234.822266"/>
      <use xlink:href="#DejaVuSans-66" x="275.935547"/>
      <use xlink:href="#DejaVuSans-6f" x="311.140625"/>
      <use xlink:href="#DejaVuSans-72" x="372.322266"/>
      <use xlink:href="#DejaVuSans-64" x="411.685547"/>
     </g>
    </g>
   </g>
   <g id="text_2">
    <g clip-path="url(#pc8d7779ddd)">
     <!-- B.Griffin -->
     <g transform="translate(246.78978 110.310072)scale(0.12 -0.12)">
      <defs>
       <path id="DejaVuSans-42" d="M 1259 2228 
L 1259 519 
L 2272 519 
Q 2781 519 3026 730 
Q 3272 941 3272 1375 
Q 3272 1813 3026 2020 
Q 2781 2228 2272 2228 
L 1259 2228 
z
M 1259 4147 
L 1259 2741 
L 2194 2741 
Q 2656 2741 2882 2914 
Q 3109 3088 3109 3444 
Q 3109 3797 2882 3972 
Q 2656 4147 2194 4147 
L 1259 4147 
z
M 628 4666 
L 2241 4666 
Q 2963 4666 3353 4366 
Q 3744 4066 3744 3513 
Q 3744 3084 3544 2831 
Q 3344 2578 2956 2516 
Q 3422 2416 3680 2098 
Q 3938 1781 3938 1306 
Q 3938 681 3513 340 
Q 3088 0 2303 0 
L 628 0 
L 628 4666 
z
" transform="scale(0.015625)"/>
       <path id="DejaVuSans-47" d="M 3809 666 
L 3809 1919 
L 2778 1919 
L 2778 2438 
L 4434 2438 
L 4434 434 
Q 4069 175 3628 42 
Q 3188 -91 2688 -91 
Q 1594 -91 976 548 
Q 359 1188 359 2328 
Q 359 3472 976 4111 
Q 1594 4750 2688 4750 
Q 3144 4750 3555 4637 
Q 3966 4525 4313 4306 
L 4313 3634 
Q 3963 3931 3569 4081 
Q 3175 4231 2741 4231 
Q 1884 4231 1454 3753 
Q 1025 3275 1025 2328 
Q 1025 1384 1454 906 
Q 1884 428 2741 428 
Q 3075 428 3337 486 
Q 3600 544 3809 666 
z
" transform="scale(0.015625)"/>
       <path id="DejaVuSans-69" d="M 603 3500 
L 1178 3500 
L 1178 0 
L 603 0 
L 603 3500 
z
M 603 4863 
L 1178 4863 
L 1178 4134 
L 603 4134 
L 603 4863 
z
" transform="scale(0.015625)"/>
       <path id="DejaVuSans-6e" d="M 3513 2113 
L 3513 0 
L 2938 0 
L 2938 2094 
Q 2938 2591 2744 2837 
Q 2550 3084 2163 3084 
Q 1697 3084 1428 2787 
Q 1159 2491 1159 1978 
L 1159 0 
L 581 0 
L 581 3500 
L 1159 3500 
L 1159 2956 
Q 1366 3272 1645 3428 
Q 1925 3584 2291 3584 
Q 2894 3584 3203 3211 
Q 3513 2838 3513 2113 
z
" transform="scale(0.015625)"/>
      </defs>
      <use xlink:href="#DejaVuSans-42"/>
      <use xlink:href="#DejaVuSans-2e" x="68.603516"/>
      <use xlink:href="#DejaVuSans-47" x="100.390625"/>
      <use xlink:href="#DejaVuSans-72" x="177.880859"/>
      <use xlink:href="#DejaVuSans-69" x="218.994141"/>
      <use xlink:href="#DejaVuSans-66" x="246.777344"/>
      <use xlink:href="#DejaVuSans-66" x="281.982422"/>
      <use xlink:href="#DejaVuSans-69" x="317.1875"/>
      <use xlink:href="#DejaVuSans-6e" x="344.970703"/>
     </g>
    </g>
   </g>
   <g id="text_3">
    <g clip-path="url(#pc8d7779ddd)">
     <!-- D.White -->
     <g transform="translate(210.331679 62.739687)scale(0.12 -0.12)">
      <defs>
       <path id="DejaVuSans-44" d="M 1259 4147 
L 1259 519 
L 2022 519 
Q 2988 519 3436 956 
Q 3884 1394 3884 2338 
Q 3884 3275 3436 3711 
Q 2988 4147 2022 4147 
L 1259 4147 
z
M 628 4666 
L 1925 4666 
Q 3281 4666 3915 4102 
Q 4550 3538 4550 2338 
Q 4550 1131 3912 565 
Q 3275 0 1925 0 
L 628 0 
L 628 4666 
z
" transform="scale(0.015625)"/>
       <path id="DejaVuSans-57" d="M 213 4666 
L 850 4666 
L 1831 722 
L 2809 4666 
L 3519 4666 
L 4500 722 
L 5478 4666 
L 6119 4666 
L 4947 0 
L 4153 0 
L 3169 4050 
L 2175 0 
L 1381 0 
L 213 4666 
z
" transform="scale(0.015625)"/>
       <path id="DejaVuSans-68" d="M 3513 2113 
L 3513 0 
L 2938 0 
L 2938 2094 
Q 2938 2591 2744 2837 
Q 2550 3084 2163 3084 
Q 1697 3084 1428 2787 
Q 1159 2491 1159 1978 
L 1159 0 
L 581 0 
L 581 4863 
L 1159 4863 
L 1159 2956 
Q 1366 3272 1645 3428 
Q 1925 3584 2291 3584 
Q 2894 3584 3203 3211 
Q 3513 2838 3513 2113 
z
" transform="scale(0.015625)"/>
       <path id="DejaVuSans-74" d="M 1172 4494 
L 1172 3500 
L 2356 3500 
L 2356 3053 
L 1172 3053 
L 1172 1153 
Q 1172 725 1289 603 
Q 1406 481 1766 481 
L 2356 481 
L 2356 0 
L 1766 0 
Q 1100 0 847 248 
Q 594 497 594 1153 
L 594 3053 
L 172 3053 
L 172 3500 
L 594 3500 
L 594 4494 
L 1172 4494 
z
" transform="scale(0.015625)"/>
       <path id="DejaVuSans-65" d="M 3597 1894 
L 3597 1613 
L 953 1613 
Q 991 1019 1311 708 
Q 1631 397 2203 397 
Q 2534 397 2845 478 
Q 3156 559 3463 722 
L 3463 178 
Q 3153 47 2828 -22 
Q 2503 -91 2169 -91 
Q 1331 -91 842 396 
Q 353 884 353 1716 
Q 353 2575 817 3079 
Q 1281 3584 2069 3584 
Q 2775 3584 3186 3129 
Q 3597 2675 3597 1894 
z
M 3022 2063 
Q 3016 2534 2758 2815 
Q 2500 3097 2075 3097 
Q 1594 3097 1305 2825 
Q 1016 2553 972 2059 
L 3022 2063 
z
" transform="scale(0.015625)"/>
      </defs>
      <use xlink:href="#DejaVuSans-44"/>
      <use xlink:href="#DejaVuSans-2e" x="77.001953"/>
      <use xlink:href="#DejaVuSans-57" x="108.789062"/>
      <use xlink:href="#DejaVuSans-68" x="207.666016"/>
      <use xlink:href="#DejaVuSans-69" x="271.044922"/>
      <use xlink:href="#DejaVuSans-74" x="298.828125"/>
      <use xlink:href="#DejaVuSans-65" x="338.037109"/>
     </g>
    </g>
   </g>
   <g id="text_4">
    <g clip-path="url(#pc8d7779ddd)">
     <!-- G.Williams -->
     <g transform="translate(149.191843 36.340119)scale(0.12 -0.12)">
      <defs>
       <path id="DejaVuSans-6c" d="M 603 4863 
L 1178 4863 
L 1178 0 
L 603 0 
L 603 4863 
z
" transform="scale(0.015625)"/>
       <path id="DejaVuSans-61" d="M 2194 1759 
Q 1497 1759 1228 1600 
Q 959 1441 959 1056 
Q 959 750 1161 570 
Q 1363 391 1709 391 
Q 2188 391 2477 730 
Q 2766 1069 2766 1631 
L 2766 1759 
L 2194 1759 
z
M 3341 1997 
L 3341 0 
L 2766 0 
L 2766 531 
Q 2569 213 2275 61 
Q 1981 -91 1556 -91 
Q 1019 -91 701 211 
Q 384 513 384 1019 
Q 384 1609 779 1909 
Q 1175 2209 1959 2209 
L 2766 2209 
L 2766 2266 
Q 2766 2663 2505 2880 
Q 2244 3097 1772 3097 
Q 1472 3097 1187 3025 
Q 903 2953 641 2809 
L 641 3341 
Q 956 3463 1253 3523 
Q 1550 3584 1831 3584 
Q 2591 3584 2966 3190 
Q 3341 2797 3341 1997 
z
" transform="scale(0.015625)"/>
       <path id="DejaVuSans-6d" d="M 3328 2828 
Q 3544 3216 3844 3400 
Q 4144 3584 4550 3584 
Q 5097 3584 5394 3201 
Q 5691 2819 5691 2113 
L 5691 0 
L 5113 0 
L 5113 2094 
Q 5113 2597 4934 2840 
Q 4756 3084 4391 3084 
Q 3944 3084 3684 2787 
Q 3425 2491 3425 1978 
L 3425 0 
L 2847 0 
L 2847 2094 
Q 2847 2600 2669 2842 
Q 2491 3084 2119 3084 
Q 1678 3084 1418 2786 
Q 1159 2488 1159 1978 
L 1159 0 
L 581 0 
L 581 3500 
L 1159 3500 
L 1159 2956 
Q 1356 3278 1631 3431 
Q 1906 3584 2284 3584 
Q 2666 3584 2933 3390 
Q 3200 3197 3328 2828 
z
" transform="scale(0.015625)"/>
       <path id="DejaVuSans-73" d="M 2834 3397 
L 2834 2853 
Q 2591 2978 2328 3040 
Q 2066 3103 1784 3103 
Q 1356 3103 1142 2972 
Q 928 2841 928 2578 
Q 928 2378 1081 2264 
Q 1234 2150 1697 2047 
L 1894 2003 
Q 2506 1872 2764 1633 
Q 3022 1394 3022 966 
Q 3022 478 2636 193 
Q 2250 -91 1575 -91 
Q 1294 -91 989 -36 
Q 684 19 347 128 
L 347 722 
Q 666 556 975 473 
Q 1284 391 1588 391 
Q 1994 391 2212 530 
Q 2431 669 2431 922 
Q 2431 1156 2273 1281 
Q 2116 1406 1581 1522 
L 1381 1569 
Q 847 1681 609 1914 
Q 372 2147 372 2553 
Q 372 3047 722 3315 
Q 1072 3584 1716 3584 
Q 2034 3584 2315 3537 
Q 2597 3491 2834 3397 
z
" transform="scale(0.015625)"/>
      </defs>
      <use xlink:href="#DejaVuSans-47"/>
      <use xlink:href="#DejaVuSans-2e" x="77.490234"/>
      <use xlink:href="#DejaVuSans-57" x="109.277344"/>
      <use xlink:href="#DejaVuSans-69" x="205.904297"/>
      <use xlink:href="#DejaVuSans-6c" x="233.6875"/>
      <use xlink:href="#DejaVuSans-6c" x="261.470703"/>
      <use xlink:href="#DejaVuSans-69" x="289.253906"/>
      <use xlink:href="#DejaVuSans-61" x="317.037109"/>
      <use xlink:href="#DejaVuSans-6d" x="378.316406"/>
      <use xlink:href="#DejaVuSans-73" x="475.728516"/>
     </g>
    </g>
   </g>
   <g id="text_5">
    <g clip-path="url(#pc8d7779ddd)">
     <!-- J.Davison -->
     <g transform="translate(93.749098 36.340119)scale(0.12 -0.12)">
      <defs>
       <path id="DejaVuSans-4a" d="M 628 4666 
L 1259 4666 
L 1259 325 
Q 1259 -519 939 -900 
Q 619 -1281 -91 -1281 
L -331 -1281 
L -331 -750 
L -134 -750 
Q 284 -750 456 -515 
Q 628 -281 628 325 
L 628 4666 
z
" transform="scale(0.015625)"/>
       <path id="DejaVuSans-76" d="M 191 3500 
L 800 3500 
L 1894 563 
L 2988 3500 
L 3597 3500 
L 2284 0 
L 1503 0 
L 191 3500 
z
" transform="scale(0.015625)"/>
      </defs>
      <use xlink:href="#DejaVuSans-4a"/>
      <use xlink:href="#DejaVuSans-2e" x="29.492188"/>
      <use xlink:href="#DejaVuSans-44" x="61.279297"/>
      <use xlink:href="#DejaVuSans-61" x="138.28125"/>
      <use xlink:href="#DejaVuSans-76" x="199.560547"/>
      <use xlink:href="#DejaVuSans-69" x="258.740234"/>
      <use xlink:href="#DejaVuSans-73" x="286.523438"/>
      <use xlink:href="#DejaVuSans-6f" x="338.623047"/>
      <use xlink:href="#DejaVuSans-6e" x="399.804688"/>
     </g>
    </g>
   </g>
   <g id="text_6">
    <g clip-path="url(#pc8d7779ddd)">
     <!-- J.Brown -->
     <g transform="translate(45.589884 62.739687)scale(0.12 -0.12)">
      <defs>
       <path id="DejaVuSans-77" d="M 269 3500 
L 844 3500 
L 1563 769 
L 2278 3500 
L 2956 3500 
L 3675 769 
L 4391 3500 
L 4966 3500 
L 4050 0 
L 3372 0 
L 2619 2869 
L 1863 0 
L 1184 0 
L 269 3500 
z
" transform="scale(0.015625)"/>
      </defs>
      <use xlink:href="#DejaVuSans-4a"/>
      <use xlink:href="#DejaVuSans-2e" x="29.492188"/>
      <use xlink:href="#DejaVuSans-42" x="61.279297"/>
      <use xlink:href="#DejaVuSans-72" x="129.882812"/>
      <use xlink:href="#DejaVuSans-6f" x="168.746094"/>
      <use xlink:href="#DejaVuSans-77" x="229.927734"/>
      <use xlink:href="#DejaVuSans-6e" x="311.714844"/>
     </g>
    </g>
   </g>
   <g id="text_7">
    <g clip-path="url(#pc8d7779ddd)">
     <!-- J.Tatum -->
     <g transform="translate(9.083032 110.310064)scale(0.12 -0.12)">
      <defs>
       <path id="DejaVuSans-54" d="M -19 4666 
L 3928 4666 
L 3928 4134 
L 2272 4134 
L 2272 0 
L 1638 0 
L 1638 4134 
L -19 4134 
L -19 4666 
z
" transform="scale(0.015625)"/>
       <path id="DejaVuSans-75" d="M 544 1381 
L 544 3500 
L 1119 3500 
L 1119 1403 
Q 1119 906 1312 657 
Q 1506 409 1894 409 
Q 2359 409 2629 706 
Q 2900 1003 2900 1516 
L 2900 3500 
L 3475 3500 
L 3475 0 
L 2900 0 
L 2900 538 
Q 2691 219 2414 64 
Q 2138 -91 1772 -91 
Q 1169 -91 856 284 
Q 544 659 544 1381 
z
M 1991 3584 
L 1991 3584 
z
" transform="scale(0.015625)"/>
      </defs>
      <use xlink:href="#DejaVuSans-4a"/>
      <use xlink:href="#DejaVuSans-2e" x="29.492188"/>
      <use xlink:href="#DejaVuSans-54" x="61.279297"/>
      <use xlink:href="#DejaVuSans-61" x="105.863281"/>
      <use xlink:href="#DejaVuSans-74" x="167.142578"/>
      <use xlink:href="#DejaVuSans-75" x="206.351562"/>
      <use xlink:href="#DejaVuSans-6d" x="269.730469"/>
     </g>
    </g>
   </g>
   <g id="text_8">
    <g clip-path="url(#pc8d7779ddd)">
     <!-- L.Kornet -->
     <g transform="translate(-6.853319 169.629387)scale(0.12 -0.12)">
      <defs>
       <path id="DejaVuSans-4c" d="M 628 4666 
L 1259 4666 
L 1259 531 
L 3531 531 
L 3531 0 
L 628 0 
L 628 4666 
z
" transform="scale(0.015625)"/>
       <path id="DejaVuSans-4b" d="M 628 4666 
L 1259 4666 
L 1259 2694 
L 3353 4666 
L 4166 4666 
L 1850 2491 
L 4331 0 
L 3500 0 
L 1259 2247 
L 1259 0 
L 628 0 
L 628 4666 
z
" transform="scale(0.015625)"/>
      </defs>
      <use xlink:href="#DejaVuSans-4c"/>
      <use xlink:href="#DejaVuSans-2e" x="55.712891"/>
      <use xlink:href="#DejaVuSans-4b" x="87.5"/>
      <use xlink:href="#DejaVuSans-6f" x="148.076172"/>
      <use xlink:href="#DejaVuSans-72" x="209.257812"/>
      <use xlink:href="#DejaVuSans-6e" x="248.621094"/>
      <use xlink:href="#DejaVuSans-65" x="312"/>
      <use xlink:href="#DejaVuSans-74" x="373.523438"/>
     </g>
    </g>
   </g>
   <g id="text_9">
    <g clip-path="url(#pc8d7779ddd)">
     <!-- M.Brogdon -->
     <g transform="translate(-1.184468 228.948677)scale(0.12 -0.12)">
      <defs>
       <path id="DejaVuSans-4d" d="M 628 4666 
L 1569 4666 
L 2759 1491 
L 3956 4666 
L 4897 4666 
L 4897 0 
L 4281 0 
L 4281 4097 
L 3078 897 
L 2444 897 
L 1241 4097 
L 1241 0 
L 628 0 
L 628 4666 
z
" transform="scale(0.015625)"/>
       <path id="DejaVuSans-67" d="M 2906 1791 
Q 2906 2416 2648 2759 
Q 2391 3103 1925 3103 
Q 1463 3103 1205 2759 
Q 947 2416 947 1791 
Q 947 1169 1205 825 
Q 1463 481 1925 481 
Q 2391 481 2648 825 
Q 2906 1169 2906 1791 
z
M 3481 434 
Q 3481 -459 3084 -895 
Q 2688 -1331 1869 -1331 
Q 1566 -1331 1297 -1286 
Q 1028 -1241 775 -1147 
L 775 -588 
Q 1028 -725 1275 -790 
Q 1522 -856 1778 -856 
Q 2344 -856 2625 -561 
Q 2906 -266 2906 331 
L 2906 616 
Q 2728 306 2450 153 
Q 2172 0 1784 0 
Q 1141 0 747 490 
Q 353 981 353 1791 
Q 353 2603 747 3093 
Q 1141 3584 1784 3584 
Q 2172 3584 2450 3431 
Q 2728 3278 2906 2969 
L 2906 3500 
L 3481 3500 
L 3481 434 
z
" transform="scale(0.015625)"/>
      </defs>
      <use xlink:href="#DejaVuSans-4d"/>
      <use xlink:href="#DejaVuSans-2e" x="86.279297"/>
      <use xlink:href="#DejaVuSans-42" x="118.066406"/>
      <use xlink:href="#DejaVuSans-72" x="186.669922"/>
      <use xlink:href="#DejaVuSans-6f" x="225.533203"/>
      <use xlink:href="#DejaVuSans-67" x="286.714844"/>
      <use xlink:href="#DejaVuSans-64" x="350.191406"/>
      <use xlink:href="#DejaVuSans-6f" x="413.667969"/>
      <use xlink:href="#DejaVuSans-6e" x="474.849609"/>
     </g>
    </g>
   </g>
   <g id="text_10">
    <g clip-path="url(#pc8d7779ddd)">
     <!-- M.Smart -->
     <g transform="translate(42.86272 276.519079)scale(0.12 -0.12)">
      <defs>
       <path id="DejaVuSans-53" d="M 3425 4513 
L 3425 3897 
Q 3066 4069 2747 4153 
Q 2428 4238 2131 4238 
Q 1616 4238 1336 4038 
Q 1056 3838 1056 3469 
Q 1056 3159 1242 3001 
Q 1428 2844 1947 2747 
L 2328 2669 
Q 3034 2534 3370 2195 
Q 3706 1856 3706 1288 
Q 3706 609 3251 259 
Q 2797 -91 1919 -91 
Q 1588 -91 1214 -16 
Q 841 59 441 206 
L 441 856 
Q 825 641 1194 531 
Q 1563 422 1919 422 
Q 2459 422 2753 634 
Q 3047 847 3047 1241 
Q 3047 1584 2836 1778 
Q 2625 1972 2144 2069 
L 1759 2144 
Q 1053 2284 737 2584 
Q 422 2884 422 3419 
Q 422 4038 858 4394 
Q 1294 4750 2059 4750 
Q 2388 4750 2728 4690 
Q 3069 4631 3425 4513 
z
" transform="scale(0.015625)"/>
      </defs>
      <use xlink:href="#DejaVuSans-4d"/>
      <use xlink:href="#DejaVuSans-2e" x="86.279297"/>
      <use xlink:href="#DejaVuSans-53" x="118.066406"/>
      <use xlink:href="#DejaVuSans-6d" x="181.542969"/>
      <use xlink:href="#DejaVuSans-61" x="278.955078"/>
      <use xlink:href="#DejaVuSans-72" x="340.234375"/>
      <use xlink:href="#DejaVuSans-74" x="381.347656"/>
     </g>
    </g>
   </g>
   <g id="text_11">
    <g clip-path="url(#pc8d7779ddd)">
     <!-- M.Muscala -->
     <g transform="translate(90.031903 302.918631)scale(0.12 -0.12)">
      <defs>
       <path id="DejaVuSans-63" d="M 3122 3366 
L 3122 2828 
Q 2878 2963 2633 3030 
Q 2388 3097 2138 3097 
Q 1578 3097 1268 2742 
Q 959 2388 959 1747 
Q 959 1106 1268 751 
Q 1578 397 2138 397 
Q 2388 397 2633 464 
Q 2878 531 3122 666 
L 3122 134 
Q 2881 22 2623 -34 
Q 2366 -91 2075 -91 
Q 1284 -91 818 406 
Q 353 903 353 1747 
Q 353 2603 823 3093 
Q 1294 3584 2113 3584 
Q 2378 3584 2631 3529 
Q 2884 3475 3122 3366 
z
" transform="scale(0.015625)"/>
      </defs>
      <use xlink:href="#DejaVuSans-4d"/>
      <use xlink:href="#DejaVuSans-2e" x="86.279297"/>
      <use xlink:href="#DejaVuSans-4d" x="118.066406"/>
      <use xlink:href="#DejaVuSans-75" x="204.345703"/>
      <use xlink:href="#DejaVuSans-73" x="267.724609"/>
      <use xlink:href="#DejaVuSans-63" x="319.824219"/>
      <use xlink:href="#DejaVuSans-61" x="374.804688"/>
      <use xlink:href="#DejaVuSans-6c" x="436.083984"/>
      <use xlink:href="#DejaVuSans-61" x="463.867188"/>
     </g>
    </g>
   </g>
   <g id="text_12">
    <g clip-path="url(#pc8d7779ddd)">
     <!-- P.Pritchard -->
     <g transform="translate(149.324976 302.918631)scale(0.12 -0.12)">
      <defs>
       <path id="DejaVuSans-50" d="M 1259 4147 
L 1259 2394 
L 2053 2394 
Q 2494 2394 2734 2622 
Q 2975 2850 2975 3272 
Q 2975 3691 2734 3919 
Q 2494 4147 2053 4147 
L 1259 4147 
z
M 628 4666 
L 2053 4666 
Q 2838 4666 3239 4311 
Q 3641 3956 3641 3272 
Q 3641 2581 3239 2228 
Q 2838 1875 2053 1875 
L 1259 1875 
L 1259 0 
L 628 0 
L 628 4666 
z
" transform="scale(0.015625)"/>
      </defs>
      <use xlink:href="#DejaVuSans-50"/>
      <use xlink:href="#DejaVuSans-2e" x="44.677734"/>
      <use xlink:href="#DejaVuSans-50" x="76.464844"/>
      <use xlink:href="#DejaVuSans-72" x="135.017578"/>
      <use xlink:href="#DejaVuSans-69" x="176.130859"/>
      <use xlink:href="#DejaVuSans-74" x="203.914062"/>
      <use xlink:href="#DejaVuSans-63" x="243.123047"/>
      <use xlink:href="#DejaVuSans-68" x="298.103516"/>
      <use xlink:href="#DejaVuSans-61" x="361.482422"/>
      <use xlink:href="#DejaVuSans-72" x="422.761719"/>
      <use xlink:href="#DejaVuSans-64" x="462.125"/>
     </g>
    </g>
   </g>
   <g id="text_13">
    <g clip-path="url(#pc8d7779ddd)">
     <!-- R.Williams III -->
     <g transform="translate(196.11728 276.519079)scale(0.12 -0.12)">
      <defs>
       <path id="DejaVuSans-52" d="M 2841 2188 
Q 3044 2119 3236 1894 
Q 3428 1669 3622 1275 
L 4263 0 
L 3584 0 
L 2988 1197 
Q 2756 1666 2539 1819 
Q 2322 1972 1947 1972 
L 1259 1972 
L 1259 0 
L 628 0 
L 628 4666 
L 2053 4666 
Q 2853 4666 3247 4331 
Q 3641 3997 3641 3322 
Q 3641 2881 3436 2590 
Q 3231 2300 2841 2188 
z
M 1259 4147 
L 1259 2491 
L 2053 2491 
Q 2509 2491 2742 2702 
Q 2975 2913 2975 3322 
Q 2975 3731 2742 3939 
Q 2509 4147 2053 4147 
L 1259 4147 
z
" transform="scale(0.015625)"/>
       <path id="DejaVuSans-20" transform="scale(0.015625)"/>
       <path id="DejaVuSans-49" d="M 628 4666 
L 1259 4666 
L 1259 0 
L 628 0 
L 628 4666 
z
" transform="scale(0.015625)"/>
      </defs>
      <use xlink:href="#DejaVuSans-52"/>
      <use xlink:href="#DejaVuSans-2e" x="65.857422"/>
      <use xlink:href="#DejaVuSans-57" x="97.644531"/>
      <use xlink:href="#DejaVuSans-69" x="194.271484"/>
      <use xlink:href="#DejaVuSans-6c" x="222.054688"/>
      <use xlink:href="#DejaVuSans-6c" x="249.837891"/>
      <use xlink:href="#DejaVuSans-69" x="277.621094"/>
      <use xlink:href="#DejaVuSans-61" x="305.404297"/>
      <use xlink:href="#DejaVuSans-6d" x="366.683594"/>
      <use xlink:href="#DejaVuSans-73" x="464.095703"/>
      <use xlink:href="#DejaVuSans-20" x="516.195312"/>
      <use xlink:href="#DejaVuSans-49" x="547.982422"/>
      <use xlink:href="#DejaVuSans-49" x="577.474609"/>
      <use xlink:href="#DejaVuSans-49" x="606.966797"/>
     </g>
    </g>
   </g>
   <g id="text_14">
    <g clip-path="url(#pc8d7779ddd)">
     <!-- S.Hauser -->
     <g transform="translate(244.297905 228.948677)scale(0.12 -0.12)">
      <use xlink:href="#DejaVuSans-53"/>
      <use xlink:href="#DejaVuSans-2e" x="63.476562"/>
      <use xlink:href="#DejaVuSans-48" x="95.263672"/>
      <use xlink:href="#DejaVuSans-61" x="170.458984"/>
      <use xlink:href="#DejaVuSans-75" x="231.738281"/>
      <use xlink:href="#DejaVuSans-73" x="295.117188"/>
      <use xlink:href="#DejaVuSans-65" x="347.216797"/>
      <use xlink:href="#DejaVuSans-72" x="408.740234"/>
     </g>
    </g>
   </g>
   <g id="text_15">
    <!-- 2022-23 Boston Celtics Assist Network -->
    <g transform="translate(35.219062 16.318125)scale(0.12 -0.12)">
     <defs>
      <path id="DejaVuSans-32" d="M 1228 531 
L 3431 531 
L 3431 0 
L 469 0 
L 469 531 
Q 828 903 1448 1529 
Q 2069 2156 2228 2338 
Q 2531 2678 2651 2914 
Q 2772 3150 2772 3378 
Q 2772 3750 2511 3984 
Q 2250 4219 1831 4219 
Q 1534 4219 1204 4116 
Q 875 4013 500 3803 
L 500 4441 
Q 881 4594 1212 4672 
Q 1544 4750 1819 4750 
Q 2544 4750 2975 4387 
Q 3406 4025 3406 3419 
Q 3406 3131 3298 2873 
Q 3191 2616 2906 2266 
Q 2828 2175 2409 1742 
Q 1991 1309 1228 531 
z
" transform="scale(0.015625)"/>
      <path id="DejaVuSans-30" d="M 2034 4250 
Q 1547 4250 1301 3770 
Q 1056 3291 1056 2328 
Q 1056 1369 1301 889 
Q 1547 409 2034 409 
Q 2525 409 2770 889 
Q 3016 1369 3016 2328 
Q 3016 3291 2770 3770 
Q 2525 4250 2034 4250 
z
M 2034 4750 
Q 2819 4750 3233 4129 
Q 3647 3509 3647 2328 
Q 3647 1150 3233 529 
Q 2819 -91 2034 -91 
Q 1250 -91 836 529 
Q 422 1150 422 2328 
Q 422 3509 836 4129 
Q 1250 4750 2034 4750 
z
" transform="scale(0.015625)"/>
      <path id="DejaVuSans-2d" d="M 313 2009 
L 1997 2009 
L 1997 1497 
L 313 1497 
L 313 2009 
z
" transform="scale(0.015625)"/>
      <path id="DejaVuSans-33" d="M 2597 2516 
Q 3050 2419 3304 2112 
Q 3559 1806 3559 1356 
Q 3559 666 3084 287 
Q 2609 -91 1734 -91 
Q 1441 -91 1130 -33 
Q 819 25 488 141 
L 488 750 
Q 750 597 1062 519 
Q 1375 441 1716 441 
Q 2309 441 2620 675 
Q 2931 909 2931 1356 
Q 2931 1769 2642 2001 
Q 2353 2234 1838 2234 
L 1294 2234 
L 1294 2753 
L 1863 2753 
Q 2328 2753 2575 2939 
Q 2822 3125 2822 3475 
Q 2822 3834 2567 4026 
Q 2313 4219 1838 4219 
Q 1578 4219 1281 4162 
Q 984 4106 628 3988 
L 628 4550 
Q 988 4650 1302 4700 
Q 1616 4750 1894 4750 
Q 2613 4750 3031 4423 
Q 3450 4097 3450 3541 
Q 3450 3153 3228 2886 
Q 3006 2619 2597 2516 
z
" transform="scale(0.015625)"/>
      <path id="DejaVuSans-43" d="M 4122 4306 
L 4122 3641 
Q 3803 3938 3442 4084 
Q 3081 4231 2675 4231 
Q 1875 4231 1450 3742 
Q 1025 3253 1025 2328 
Q 1025 1406 1450 917 
Q 1875 428 2675 428 
Q 3081 428 3442 575 
Q 3803 722 4122 1019 
L 4122 359 
Q 3791 134 3420 21 
Q 3050 -91 2638 -91 
Q 1578 -91 968 557 
Q 359 1206 359 2328 
Q 359 3453 968 4101 
Q 1578 4750 2638 4750 
Q 3056 4750 3426 4639 
Q 3797 4528 4122 4306 
z
" transform="scale(0.015625)"/>
      <path id="DejaVuSans-4e" d="M 628 4666 
L 1478 4666 
L 3547 763 
L 3547 4666 
L 4159 4666 
L 4159 0 
L 3309 0 
L 1241 3903 
L 1241 0 
L 628 0 
L 628 4666 
z
" transform="scale(0.015625)"/>
      <path id="DejaVuSans-6b" d="M 581 4863 
L 1159 4863 
L 1159 1991 
L 2875 3500 
L 3609 3500 
L 1753 1863 
L 3688 0 
L 2938 0 
L 1159 1709 
L 1159 0 
L 581 0 
L 581 4863 
z
" transform="scale(0.015625)"/>
     </defs>
     <use xlink:href="#DejaVuSans-32"/>
     <use xlink:href="#DejaVuSans-30" x="63.623047"/>
     <use xlink:href="#DejaVuSans-32" x="127.246094"/>
     <use xlink:href="#DejaVuSans-32" x="190.869141"/>
     <use xlink:href="#DejaVuSans-2d" x="254.492188"/>
     <use xlink:href="#DejaVuSans-32" x="290.576172"/>
     <use xlink:href="#DejaVuSans-33" x="354.199219"/>
     <use xlink:href="#DejaVuSans-20" x="417.822266"/>
     <use xlink:href="#DejaVuSans-42" x="449.609375"/>
     <use xlink:href="#DejaVuSans-6f" x="518.212891"/>
     <use xlink:href="#DejaVuSans-73" x="579.394531"/>
     <use xlink:href="#DejaVuSans-74" x="631.494141"/>
     <use xlink:href="#DejaVuSans-6f" x="670.703125"/>
     <use xlink:href="#DejaVuSans-6e" x="731.884766"/>
     <use xlink:href="#DejaVuSans-20" x="795.263672"/>
     <use xlink:href="#DejaVuSans-43" x="827.050781"/>
     <use xlink:href="#DejaVuSans-65" x="896.875"/>
     <use xlink:href="#DejaVuSans-6c" x="958.398438"/>
     <use xlink:href="#DejaVuSans-74" x="986.181641"/>
     <use xlink:href="#DejaVuSans-69" x="1025.390625"/>
     <use xlink:href="#DejaVuSans-63" x="1053.173828"/>
     <use xlink:href="#DejaVuSans-73" x="1108.154297"/>
     <use xlink:href="#DejaVuSans-20" x="1160.253906"/>
     <use xlink:href="#DejaVuSans-41" x="1192.041016"/>
     <use xlink:href="#DejaVuSans-73" x="1260.449219"/>
     <use xlink:href="#DejaVuSans-73" x="1312.548828"/>
     <use xlink:href="#DejaVuSans-69" x="1364.648438"/>
     <use xlink:href="#DejaVuSans-73" x="1392.431641"/>
     <use xlink:href="#DejaVuSans-74" x="1444.53125"/>
     <use xlink:href="#DejaVuSans-20" x="1483.740234"/>
     <use xlink:href="#DejaVuSans-4e" x="1515.527344"/>
     <use xlink:href="#DejaVuSans-65" x="1590.332031"/>
     <use xlink:href="#DejaVuSans-74" x="1651.855469"/>
     <use xlink:href="#DejaVuSans-77" x="1691.064453"/>
     <use xlink:href="#DejaVuSans-6f" x="1772.851562"/>
     <use xlink:href="#DejaVuSans-72" x="1834.033203"/>
     <use xlink:href="#DejaVuSans-6b" x="1875.146484"/>
    </g>
   </g>
  </g>
 </g>
 <defs>
  <clipPath id="pc8d7779ddd">
   <rect x="7.2" y="22.318125" width="288" height="288"/>
  </clipPath>
 </defs>
</svg>
