<?xml version="1.0" encoding="utf-8" standalone="no"?>
<!DOCTYPE svg PUBLIC "-//W3C//DTD SVG 1.1//EN"
  "http://www.w3.org/Graphics/SVG/1.1/DTD/svg11.dtd">
<svg xmlns:xlink="http://www.w3.org/1999/xlink" width="302.4pt" height="317.518125pt" viewBox="0 0 302.4 317.518125" xmlns="http://www.w3.org/2000/svg" version="1.1">
 <metadata>
  <rdf:RDF xmlns:dc="http://purl.org/dc/elements/1.1/" xmlns:cc="http://creativecommons.org/ns#" xmlns:rdf="http://www.w3.org/1999/02/22-rdf-syntax-ns#">
   <cc:Work>
    <dc:type rdf:resource="http://purl.org/dc/dcmitype/StillImage"/>
    <dc:date>2024-06-20T17:30:17.862700</dc:date>
    <dc:format>image/svg+xml</dc:format>
    <dc:creator>
     <cc:Agent>
      <dc:title>Matplotlib v3.5.2, https://matplotlib.org/</dc:title>
     </cc:Agent>
    </dc:creator>
   </cc:Work>
  </rdf:RDF>
 </metadata>
 <defs>
  <style type="text/css">*{stroke-linejoin: round; stroke-linecap: butt}</style>
 </defs>
 <g id="figure_1">
  <g id="patch_1">
   <path d="M 0 317.518125 
L 302.4 317.518125 
L 302.4 0 
L 0 0 
z
" style="fill: #ffffff"/>
  </g>
  <g id="axes_1">
   <g id="LineCollection_1">
    <path d="M 270.208264 166.318125 
L 258.422739 113.354462 
" clip-path="url(#pa702ca70d6)" style="fill: none; stroke: #ffffff; stroke-width: 0.02"/>
    <path d="M 270.208264 166.318125 
L 225.400439 70.880903 
" clip-path="url(#pa702ca70d6)" style="fill: none; stroke: #fefefe; stroke-width: 0.04"/>
    <path d="M 270.208264 166.318125 
L 177.681835 47.309861 
" clip-path="url(#pa702ca70d6)" style="fill: none; stroke: #ffffff; stroke-width: 0.02"/>
    <path d="M 270.208264 166.318125 
L 124.718168 47.309861 
" clip-path="url(#pa702ca70d6)" style="fill: none; stroke: #f1f1f1; stroke-width: 0.2"/>
    <path d="M 270.208264 166.318125 
L 76.999561 70.880903 
" clip-path="url(#pa702ca70d6)" style="fill: none; stroke: #fcfcfc; stroke-width: 0.06"/>
    <path d="M 270.208264 166.318125 
L 43.977261 113.354455 
" clip-path="url(#pa702ca70d6)" style="fill: none; stroke: #f5f5f5; stroke-width: 0.16"/>
    <path d="M 270.208264 166.318125 
L 32.191736 166.318136 
" clip-path="url(#pa702ca70d6)" style="fill: none; stroke: #fefefe; stroke-width: 0.04"/>
    <path d="M 270.208264 166.318125 
L 43.977261 219.281788 
" clip-path="url(#pa702ca70d6)" style="fill: none; stroke: #f1f1f1; stroke-width: 0.2"/>
    <path d="M 270.208264 166.318125 
L 76.999583 261.755361 
" clip-path="url(#pa702ca70d6)" style="fill: none; stroke: #ffffff; stroke-width: 0.02"/>
    <path d="M 270.208264 166.318125 
L 124.718161 285.326389 
" clip-path="url(#pa702ca70d6)" style="fill: none; stroke: #f5f5f5; stroke-width: 0.16"/>
    <path d="M 270.208264 166.318125 
L 177.681842 285.326389 
" clip-path="url(#pa702ca70d6)" style="fill: none; stroke: #e5e5e5; stroke-width: 0.36"/>
    <path d="M 270.208264 166.318125 
L 225.400417 261.755361 
" clip-path="url(#pa702ca70d6)" style="fill: none; stroke: #ffffff; stroke-width: 0.02"/>
    <path d="M 270.208264 166.318125 
L 258.422739 219.281788 
" clip-path="url(#pa702ca70d6)" style="fill: none; stroke: #fcfcfc; stroke-width: 0.06"/>
    <path d="M 258.422739 113.354462 
L 225.400439 70.880903 
" clip-path="url(#pa702ca70d6)" style="fill: none; stroke: #ffffff; stroke-width: 0.02"/>
    <path d="M 258.422739 113.354462 
L 177.681835 47.309861 
" clip-path="url(#pa702ca70d6)" style="fill: none; stroke: #f6f6f6; stroke-width: 0.14"/>
    <path d="M 258.422739 113.354462 
L 124.718168 47.309861 
" clip-path="url(#pa702ca70d6)" style="fill: none; stroke: #a3a3a3; stroke-width: 1.2"/>
    <path d="M 258.422739 113.354462 
L 76.999561 70.880903 
" clip-path="url(#pa702ca70d6)" style="fill: none; stroke: #ebebeb; stroke-width: 0.28"/>
    <path d="M 258.422739 113.354462 
L 43.977261 113.354455 
" clip-path="url(#pa702ca70d6)" style="fill: none; stroke: #d5d5d5; stroke-width: 0.56"/>
    <path d="M 258.422739 113.354462 
L 32.191736 166.318136 
" clip-path="url(#pa702ca70d6)" style="fill: none; stroke: #757575; stroke-width: 1.8"/>
    <path d="M 258.422739 113.354462 
L 43.977261 219.281788 
" clip-path="url(#pa702ca70d6)" style="fill: none; stroke: #606060; stroke-width: 2.06"/>
    <path d="M 258.422739 113.354462 
L 76.999583 261.755361 
" clip-path="url(#pa702ca70d6)" style="fill: none; stroke: #e0e0e0; stroke-width: 0.42"/>
    <path d="M 258.422739 113.354462 
L 124.718161 285.326389 
" clip-path="url(#pa702ca70d6)" style="fill: none; stroke: #9d9d9d; stroke-width: 1.28"/>
    <path d="M 258.422739 113.354462 
L 177.681842 285.326389 
" clip-path="url(#pa702ca70d6)" style="fill: none; stroke: #e5e5e5; stroke-width: 0.36"/>
    <path d="M 258.422739 113.354462 
L 225.400417 261.755361 
" clip-path="url(#pa702ca70d6)" style="fill: none; stroke: #e5e5e5; stroke-width: 0.36"/>
    <path d="M 258.422739 113.354462 
L 258.422739 219.281788 
" clip-path="url(#pa702ca70d6)" style="fill: none; stroke: #f6f6f6; stroke-width: 0.14"/>
    <path d="M 225.400439 70.880903 
L 177.681835 47.309861 
" clip-path="url(#pa702ca70d6)" style="fill: none; stroke: #ffffff; stroke-width: 0.02"/>
    <path d="M 225.400439 70.880903 
L 43.977261 113.354455 
" clip-path="url(#pa702ca70d6)" style="fill: none; stroke: #ffffff; stroke-width: 0.02"/>
    <path d="M 225.400439 70.880903 
L 32.191736 166.318136 
" clip-path="url(#pa702ca70d6)" style="fill: none; stroke: #fefefe; stroke-width: 0.04"/>
    <path d="M 225.400439 70.880903 
L 177.681842 285.326389 
" clip-path="url(#pa702ca70d6)" style="fill: none; stroke: #fefefe; stroke-width: 0.04"/>
    <path d="M 225.400439 70.880903 
L 258.422739 219.281788 
" clip-path="url(#pa702ca70d6)" style="fill: none; stroke: #ffffff; stroke-width: 0.02"/>
    <path d="M 177.681835 47.309861 
L 76.999561 70.880903 
" clip-path="url(#pa702ca70d6)" style="fill: none; stroke: #e7e7e7; stroke-width: 0.34"/>
    <path d="M 177.681835 47.309861 
L 43.977261 113.354455 
" clip-path="url(#pa702ca70d6)" style="fill: none; stroke: #fcfcfc; stroke-width: 0.06"/>
    <path d="M 177.681835 47.309861 
L 32.191736 166.318136 
" clip-path="url(#pa702ca70d6)" style="fill: none; stroke: #eaeaea; stroke-width: 0.3"/>
    <path d="M 177.681835 47.309861 
L 43.977261 219.281788 
" clip-path="url(#pa702ca70d6)" style="fill: none; stroke: #ebebeb; stroke-width: 0.28"/>
    <path d="M 177.681835 47.309861 
L 124.718161 285.326389 
" clip-path="url(#pa702ca70d6)" style="fill: none; stroke: #f0f0f0; stroke-width: 0.22"/>
    <path d="M 177.681835 47.309861 
L 177.681842 285.326389 
" clip-path="url(#pa702ca70d6)" style="fill: none; stroke: #f8f8f8; stroke-width: 0.12"/>
    <path d="M 177.681835 47.309861 
L 225.400417 261.755361 
" clip-path="url(#pa702ca70d6)" style="fill: none; stroke: #ffffff; stroke-width: 0.02"/>
    <path d="M 124.718168 47.309861 
L 43.977261 113.354455 
" clip-path="url(#pa702ca70d6)" style="fill: none; stroke: #d8d8d8; stroke-width: 0.52"/>
    <path d="M 124.718168 47.309861 
L 32.191736 166.318136 
" clip-path="url(#pa702ca70d6)" style="fill: none; stroke: #bbbbbb; stroke-width: 0.9"/>
    <path d="M 124.718168 47.309861 
L 43.977261 219.281788 
" clip-path="url(#pa702ca70d6)" style="fill: none; stroke: #ababab; stroke-width: 1.1"/>
    <path d="M 124.718168 47.309861 
L 76.999583 261.755361 
" clip-path="url(#pa702ca70d6)" style="fill: none; stroke: #cecece; stroke-width: 0.66"/>
    <path d="M 124.718168 47.309861 
L 124.718161 285.326389 
" clip-path="url(#pa702ca70d6)" style="fill: none; stroke: #d2d2d2; stroke-width: 0.6"/>
    <path d="M 124.718168 47.309861 
L 177.681842 285.326389 
" clip-path="url(#pa702ca70d6)" style="fill: none; stroke: #f8f8f8; stroke-width: 0.12"/>
    <path d="M 124.718168 47.309861 
L 225.400417 261.755361 
" clip-path="url(#pa702ca70d6)" style="fill: none; stroke: #d2d2d2; stroke-width: 0.6"/>
    <path d="M 124.718168 47.309861 
L 258.422739 219.281788 
" clip-path="url(#pa702ca70d6)" style="fill: none; stroke: #f1f1f1; stroke-width: 0.2"/>
    <path d="M 76.999561 70.880903 
L 43.977261 113.354455 
" clip-path="url(#pa702ca70d6)" style="fill: none; stroke: #ededed; stroke-width: 0.26"/>
    <path d="M 76.999561 70.880903 
L 32.191736 166.318136 
" clip-path="url(#pa702ca70d6)" style="fill: none; stroke: #dfdfdf; stroke-width: 0.44"/>
    <path d="M 76.999561 70.880903 
L 43.977261 219.281788 
" clip-path="url(#pa702ca70d6)" style="fill: none; stroke: #cacaca; stroke-width: 0.7"/>
    <path d="M 76.999561 70.880903 
L 124.718161 285.326389 
" clip-path="url(#pa702ca70d6)" style="fill: none; stroke: #e8e8e8; stroke-width: 0.32"/>
    <path d="M 76.999561 70.880903 
L 177.681842 285.326389 
" clip-path="url(#pa702ca70d6)" style="fill: none; stroke: #dadada; stroke-width: 0.5"/>
    <path d="M 76.999561 70.880903 
L 225.400417 261.755361 
" clip-path="url(#pa702ca70d6)" style="fill: none; stroke: #f6f6f6; stroke-width: 0.14"/>
    <path d="M 43.977261 113.354455 
L 32.191736 166.318136 
" clip-path="url(#pa702ca70d6)" style="fill: none; stroke: #c7c7c7; stroke-width: 0.74"/>
    <path d="M 43.977261 113.354455 
L 43.977261 219.281788 
" clip-path="url(#pa702ca70d6)" style="fill: none; stroke: #b8b8b8; stroke-width: 0.94"/>
    <path d="M 43.977261 113.354455 
L 76.999583 261.755361 
" clip-path="url(#pa702ca70d6)" style="fill: none; stroke: #e8e8e8; stroke-width: 0.32"/>
    <path d="M 43.977261 113.354455 
L 124.718161 285.326389 
" clip-path="url(#pa702ca70d6)" style="fill: none; stroke: #c7c7c7; stroke-width: 0.74"/>
    <path d="M 43.977261 113.354455 
L 177.681842 285.326389 
" clip-path="url(#pa702ca70d6)" style="fill: none; stroke: #e2e2e2; stroke-width: 0.4"/>
    <path d="M 43.977261 113.354455 
L 225.400417 261.755361 
" clip-path="url(#pa702ca70d6)" style="fill: none; stroke: #f0f0f0; stroke-width: 0.22"/>
    <path d="M 43.977261 113.354455 
L 258.422739 219.281788 
" clip-path="url(#pa702ca70d6)" style="fill: none; stroke: #f9f9f9; stroke-width: 0.1"/>
    <path d="M 32.191736 166.318136 
L 43.977261 219.281788 
" clip-path="url(#pa702ca70d6)" style="fill: none; stroke: #949494; stroke-width: 1.4"/>
    <path d="M 32.191736 166.318136 
L 76.999583 261.755361 
" clip-path="url(#pa702ca70d6)" style="fill: none; stroke: #e0e0e0; stroke-width: 0.42"/>
    <path d="M 32.191736 166.318136 
L 124.718161 285.326389 
" clip-path="url(#pa702ca70d6)" style="fill: none; stroke: #383838; stroke-width: 2.58"/>
    <path d="M 32.191736 166.318136 
L 177.681842 285.326389 
" clip-path="url(#pa702ca70d6)" style="fill: none; stroke: #dadada; stroke-width: 0.5"/>
    <path d="M 32.191736 166.318136 
L 225.400417 261.755361 
" clip-path="url(#pa702ca70d6)" style="fill: none; stroke: #9c9c9c; stroke-width: 1.3"/>
    <path d="M 32.191736 166.318136 
L 258.422739 219.281788 
" clip-path="url(#pa702ca70d6)" style="fill: none; stroke: #f3f3f3; stroke-width: 0.18"/>
    <path d="M 43.977261 219.281788 
L 76.999583 261.755361 
" clip-path="url(#pa702ca70d6)" style="fill: none; stroke: #e0e0e0; stroke-width: 0.42"/>
    <path d="M 43.977261 219.281788 
L 124.718161 285.326389 
" clip-path="url(#pa702ca70d6)" style="fill: none; stroke: #000000; stroke-width: 3.3"/>
    <path d="M 43.977261 219.281788 
L 177.681842 285.326389 
" clip-path="url(#pa702ca70d6)" style="fill: none; stroke: #bcbcbc; stroke-width: 0.88"/>
    <path d="M 43.977261 219.281788 
L 225.400417 261.755361 
" clip-path="url(#pa702ca70d6)" style="fill: none; stroke: #929292; stroke-width: 1.42"/>
    <path d="M 43.977261 219.281788 
L 258.422739 219.281788 
" clip-path="url(#pa702ca70d6)" style="fill: none; stroke: #f0f0f0; stroke-width: 0.22"/>
    <path d="M 76.999583 261.755361 
L 124.718161 285.326389 
" clip-path="url(#pa702ca70d6)" style="fill: none; stroke: #e8e8e8; stroke-width: 0.32"/>
    <path d="M 76.999583 261.755361 
L 177.681842 285.326389 
" clip-path="url(#pa702ca70d6)" style="fill: none; stroke: #e8e8e8; stroke-width: 0.32"/>
    <path d="M 76.999583 261.755361 
L 225.400417 261.755361 
" clip-path="url(#pa702ca70d6)" style="fill: none; stroke: #f8f8f8; stroke-width: 0.12"/>
    <path d="M 124.718161 285.326389 
L 177.681842 285.326389 
" clip-path="url(#pa702ca70d6)" style="fill: none; stroke: #f1f1f1; stroke-width: 0.2"/>
    <path d="M 124.718161 285.326389 
L 225.400417 261.755361 
" clip-path="url(#pa702ca70d6)" style="fill: none; stroke: #878787; stroke-width: 1.56"/>
    <path d="M 124.718161 285.326389 
L 258.422739 219.281788 
" clip-path="url(#pa702ca70d6)" style="fill: none; stroke: #f5f5f5; stroke-width: 0.16"/>
    <path d="M 177.681842 285.326389 
L 225.400417 261.755361 
" clip-path="url(#pa702ca70d6)" style="fill: none; stroke: #f1f1f1; stroke-width: 0.2"/>
    <path d="M 177.681842 285.326389 
L 258.422739 219.281788 
" clip-path="url(#pa702ca70d6)" style="fill: none; stroke: #f6f6f6; stroke-width: 0.14"/>
    <path d="M 225.400417 261.755361 
L 258.422739 219.281788 
" clip-path="url(#pa702ca70d6)" style="fill: none; stroke: #f6f6f6; stroke-width: 0.14"/>
   </g>
   <g id="PathCollection_1">
    <path d="M 270.208264 168.379678 
C 270.754995 168.379678 271.279406 168.16246 271.666002 167.775863 
C 272.052599 167.389266 272.269817 166.864855 272.269817 166.318125 
C 272.269817 165.771395 272.052599 165.246984 271.666002 164.860387 
C 271.279406 164.47379 270.754995 164.256572 270.208264 164.256572 
C 269.661534 164.256572 269.137123 164.47379 268.750526 164.860387 
C 268.36393 165.246984 268.146712 165.771395 268.146712 166.318125 
C 268.146712 166.864855 268.36393 167.389266 268.750526 167.775863 
C 269.137123 168.16246 269.661534 168.379678 270.208264 168.379678 
z
" clip-path="url(#pa702ca70d6)" style="fill: #ffffff; stroke: #000000; stroke-width: 2"/>
    <path d="M 258.422739 120.887722 
C 260.420583 120.887722 262.336869 120.09397 263.749558 118.681281 
C 265.162247 117.268592 265.955999 115.352306 265.955999 113.354462 
C 265.955999 111.356618 265.162247 109.440332 263.749558 108.027643 
C 262.336869 106.614954 260.420583 105.821202 258.422739 105.821202 
C 256.424895 105.821202 254.508609 106.614954 253.09592 108.027643 
C 251.683231 109.440332 250.88948 111.356618 250.88948 113.354462 
C 250.88948 115.352306 251.683231 117.268592 253.09592 118.681281 
C 254.508609 120.09397 256.424895 120.887722 258.422739 120.887722 
z
" clip-path="url(#pa702ca70d6)" style="fill: #ffffff; stroke: #000000; stroke-width: 2"/>
    <path d="M 225.400439 72.203779 
C 225.751269 72.203779 226.087778 72.064393 226.335853 71.816318 
C 226.583928 71.568243 226.723314 71.231734 226.723314 70.880903 
C 226.723314 70.530073 226.583928 70.193564 226.335853 69.945489 
C 226.087778 69.697414 225.751269 69.558028 225.400439 69.558028 
C 225.049608 69.558028 224.713099 69.697414 224.465024 69.945489 
C 224.21695 70.193564 224.077563 70.530073 224.077563 70.880903 
C 224.077563 71.231734 224.21695 71.568243 224.465024 71.816318 
C 224.713099 72.064393 225.049608 72.203779 225.400439 72.203779 
z
" clip-path="url(#pa702ca70d6)" style="fill: #ffffff; stroke: #000000; stroke-width: 2"/>
    <path d="M 177.681835 49.601148 
C 178.289492 49.601148 178.872342 49.359724 179.30202 48.930046 
C 179.731699 48.500368 179.973123 47.917517 179.973123 47.309861 
C 179.973123 46.702204 179.731699 46.119353 179.30202 45.689675 
C 178.872342 45.259997 178.289492 45.018573 177.681835 45.018573 
C 177.074179 45.018573 176.491328 45.259997 176.06165 45.689675 
C 175.631972 46.119353 175.390547 46.702204 175.390547 47.309861 
C 175.390547 47.917517 175.631972 48.500368 176.06165 48.930046 
C 176.491328 49.359724 177.074179 49.601148 177.681835 49.601148 
z
" clip-path="url(#pa702ca70d6)" style="fill: #ffffff; stroke: #000000; stroke-width: 2"/>
    <path d="M 124.718168 54.416196 
C 126.60279 54.416196 128.410477 53.667427 129.743106 52.334798 
C 131.075735 51.002169 131.824503 49.194483 131.824503 47.309861 
C 131.824503 45.425238 131.075735 43.617552 129.743106 42.284923 
C 128.410477 40.952294 126.60279 40.203525 124.718168 40.203525 
C 122.833546 40.203525 121.02586 40.952294 119.69323 42.284923 
C 118.360601 43.617552 117.611833 45.425238 117.611833 47.309861 
C 117.611833 49.194483 118.360601 51.002169 119.69323 52.334798 
C 121.02586 53.667427 122.833546 54.416196 124.718168 54.416196 
z
" clip-path="url(#pa702ca70d6)" style="fill: #ffffff; stroke: #000000; stroke-width: 2"/>
    <path d="M 76.999561 75.650599 
C 78.2645 75.650599 79.477799 75.148034 80.372246 74.253588 
C 81.266692 73.359141 81.769257 72.145842 81.769257 70.880903 
C 81.769257 69.615965 81.266692 68.402665 80.372246 67.508219 
C 79.477799 66.613773 78.2645 66.111207 76.999561 66.111207 
C 75.734623 66.111207 74.521323 66.613773 73.626877 67.508219 
C 72.732431 68.402665 72.229865 69.615965 72.229865 70.880903 
C 72.229865 72.145842 72.732431 73.359141 73.626877 74.253588 
C 74.521323 75.148034 75.734623 75.650599 76.999561 75.650599 
z
" clip-path="url(#pa702ca70d6)" style="fill: #ffffff; stroke: #000000; stroke-width: 2"/>
    <path d="M 43.977261 117.713354 
C 45.133254 117.713354 46.242057 117.254073 47.059468 116.436662 
C 47.876879 115.619251 48.33616 114.510448 48.33616 113.354455 
C 48.33616 112.198461 47.876879 111.089659 47.059468 110.272248 
C 46.242057 109.454837 45.133254 108.995556 43.977261 108.995556 
C 42.821267 108.995556 41.712465 109.454837 40.895054 110.272248 
C 40.077643 111.089659 39.618362 112.198461 39.618362 113.354455 
C 39.618362 114.510448 40.077643 115.619251 40.895054 116.436662 
C 41.712465 117.254073 42.821267 117.713354 43.977261 117.713354 
z
" clip-path="url(#pa702ca70d6)" style="fill: #ffffff; stroke: #000000; stroke-width: 2"/>
    <path d="M 32.191736 173.784728 
C 34.171899 173.784728 36.071227 172.998001 37.471414 171.597814 
C 38.871601 170.197627 39.658328 168.298299 39.658328 166.318136 
C 39.658328 164.337972 38.871601 162.438645 37.471414 161.038458 
C 36.071227 159.638271 34.171899 158.851543 32.191736 158.851543 
C 30.211572 158.851543 28.312244 159.638271 26.912058 161.038458 
C 25.511871 162.438645 24.725143 164.337972 24.725143 166.318136 
C 24.725143 168.298299 25.511871 170.197627 26.912058 171.597814 
C 28.312244 172.998001 30.211572 173.784728 32.191736 173.784728 
z
" clip-path="url(#pa702ca70d6)" style="fill: #ffffff; stroke: #000000; stroke-width: 2"/>
    <path d="M 43.977261 228.198065 
C 46.341885 228.198065 48.609979 227.25859 50.282021 225.586548 
C 51.954063 223.914506 52.893538 221.646412 52.893538 219.281788 
C 52.893538 216.917164 51.954063 214.64907 50.282021 212.977028 
C 48.609979 211.304986 46.341885 210.365511 43.977261 210.365511 
C 41.612636 210.365511 39.344543 211.304986 37.672501 212.977028 
C 36.000459 214.64907 35.060984 216.917164 35.060984 219.281788 
C 35.060984 221.646412 36.000459 223.914506 37.672501 225.586548 
C 39.344543 227.25859 41.612636 228.198065 43.977261 228.198065 
z
" clip-path="url(#pa702ca70d6)" style="fill: #ffffff; stroke: #000000; stroke-width: 2"/>
    <path d="M 76.999583 265.723988 
C 78.052075 265.723988 79.061601 265.305829 79.805826 264.561604 
C 80.55005 263.81738 80.96821 262.807853 80.96821 261.755361 
C 80.96821 260.702869 80.55005 259.693342 79.805826 258.949118 
C 79.061601 258.204894 78.052075 257.786734 76.999583 257.786734 
C 75.94709 257.786734 74.937564 258.204894 74.19334 258.949118 
C 73.449115 259.693342 73.030956 260.702869 73.030956 261.755361 
C 73.030956 262.807853 73.449115 263.81738 74.19334 264.561604 
C 74.937564 265.305829 75.94709 265.723988 76.999583 265.723988 
z
" clip-path="url(#pa702ca70d6)" style="fill: #ffffff; stroke: #000000; stroke-width: 2"/>
    <path d="M 124.718161 295.363819 
C 127.380119 295.363819 129.933408 294.306212 131.815696 292.423924 
C 133.697984 290.541636 134.755591 287.988347 134.755591 285.326389 
C 134.755591 282.664432 133.697984 280.111143 131.815696 278.228855 
C 129.933408 276.346566 127.380119 275.28896 124.718161 275.28896 
C 122.056204 275.28896 119.502915 276.346566 117.620626 278.228855 
C 115.738338 280.111143 114.680731 282.664432 114.680731 285.326389 
C 114.680731 287.988347 115.738338 290.541636 117.620626 292.423924 
C 119.502915 294.306212 122.056204 295.363819 124.718161 295.363819 
z
" clip-path="url(#pa702ca70d6)" style="fill: #ffffff; stroke: #000000; stroke-width: 2"/>
    <path d="M 177.681842 290.664929 
C 179.09764 290.664929 180.45564 290.102426 181.45676 289.101307 
C 182.457879 288.100187 183.020382 286.742187 183.020382 285.326389 
C 183.020382 283.910592 182.457879 282.552592 181.45676 281.551472 
C 180.45564 280.550352 179.09764 279.98785 177.681842 279.98785 
C 176.266045 279.98785 174.908045 280.550352 173.906925 281.551472 
C 172.905805 282.552592 172.343303 283.910592 172.343303 285.326389 
C 172.343303 286.742187 172.905805 288.100187 173.906925 289.101307 
C 174.908045 290.102426 176.266045 290.664929 177.681842 290.664929 
z
" clip-path="url(#pa702ca70d6)" style="fill: #ffffff; stroke: #000000; stroke-width: 2"/>
    <path d="M 225.400417 267.209717 
C 226.84693 267.209717 228.234391 266.635012 229.25723 265.612173 
C 230.280068 264.589335 230.854773 263.201873 230.854773 261.755361 
C 230.854773 260.308849 230.280068 258.921388 229.25723 257.898549 
C 228.234391 256.87571 226.84693 256.301005 225.400417 256.301005 
C 223.953905 256.301005 222.566444 256.87571 221.543605 257.898549 
C 220.520767 258.921388 219.946061 260.308849 219.946061 261.755361 
C 219.946061 263.201873 220.520767 264.589335 221.543605 265.612173 
C 222.566444 266.635012 223.953905 267.209717 225.400417 267.209717 
z
" clip-path="url(#pa702ca70d6)" style="fill: #ffffff; stroke: #000000; stroke-width: 2"/>
    <path d="M 258.422739 221.281788 
C 258.953145 221.281788 259.461899 221.071055 259.836953 220.696002 
C 260.212007 220.320948 260.422739 219.812194 260.422739 219.281788 
C 260.422739 218.751382 260.212007 218.242628 259.836953 217.867574 
C 259.461899 217.492521 258.953145 217.281788 258.422739 217.281788 
C 257.892333 217.281788 257.383579 217.492521 257.008526 217.867574 
C 256.633472 218.242628 256.422739 218.751382 256.422739 219.281788 
C 256.422739 219.812194 256.633472 220.320948 257.008526 220.696002 
C 257.383579 221.071055 257.892333 221.281788 258.422739 221.281788 
z
" clip-path="url(#pa702ca70d6)" style="fill: #ffffff; stroke: #000000; stroke-width: 2"/>
   </g>
   <g id="text_1">
    <g clip-path="url(#pa702ca70d6)">
     <!-- A.Nesmith -->
     <g transform="translate(253.610819 169.629375)scale(0.12 -0.12)">
      <defs>
       <path id="DejaVuSans-41" d="M 2188 4044 
L 1331 1722 
L 3047 1722 
L 2188 4044 
z
M 1831 4666 
L 2547 4666 
L 4325 0 
L 3669 0 
L 3244 1197 
L 1141 1197 
L 716 0 
L 50 0 
L 1831 4666 
z
" transform="scale(0.015625)"/>
       <path id="DejaVuSans-2e" d="M 684 794 
L 1344 794 
L 1344 0 
L 684 0 
L 684 794 
z
" transform="scale(0.015625)"/>
       <path id="DejaVuSans-4e" d="M 628 4666 
L 1478 4666 
L 3547 763 
L 3547 4666 
L 4159 4666 
L 4159 0 
L 3309 0 
L 1241 3903 
L 1241 0 
L 628 0 
L 628 4666 
z
" transform="scale(0.015625)"/>
       <path id="DejaVuSans-65" d="M 3597 1894 
L 3597 1613 
L 953 1613 
Q 991 1019 1311 708 
Q 1631 397 2203 397 
Q 2534 397 2845 478 
Q 3156 559 3463 722 
L 3463 178 
Q 3153 47 2828 -22 
Q 2503 -91 2169 -91 
Q 1331 -91 842 396 
Q 353 884 353 1716 
Q 353 2575 817 3079 
Q 1281 3584 2069 3584 
Q 2775 3584 3186 3129 
Q 3597 2675 3597 1894 
z
M 3022 2063 
Q 3016 2534 2758 2815 
Q 2500 3097 2075 3097 
Q 1594 3097 1305 2825 
Q 1016 2553 972 2059 
L 3022 2063 
z
" transform="scale(0.015625)"/>
       <path id="DejaVuSans-73" d="M 2834 3397 
L 2834 2853 
Q 2591 2978 2328 3040 
Q 2066 3103 1784 3103 
Q 1356 3103 1142 2972 
Q 928 2841 928 2578 
Q 928 2378 1081 2264 
Q 1234 2150 1697 2047 
L 1894 2003 
Q 2506 1872 2764 1633 
Q 3022 1394 3022 966 
Q 3022 478 2636 193 
Q 2250 -91 1575 -91 
Q 1294 -91 989 -36 
Q 684 19 347 128 
L 347 722 
Q 666 556 975 473 
Q 1284 391 1588 391 
Q 1994 391 2212 530 
Q 2431 669 2431 922 
Q 2431 1156 2273 1281 
Q 2116 1406 1581 1522 
L 1381 1569 
Q 847 1681 609 1914 
Q 372 2147 372 2553 
Q 372 3047 722 3315 
Q 1072 3584 1716 3584 
Q 2034 3584 2315 3537 
Q 2597 3491 2834 3397 
z
" transform="scale(0.015625)"/>
       <path id="DejaVuSans-6d" d="M 3328 2828 
Q 3544 3216 3844 3400 
Q 4144 3584 4550 3584 
Q 5097 3584 5394 3201 
Q 5691 2819 5691 2113 
L 5691 0 
L 5113 0 
L 5113 2094 
Q 5113 2597 4934 2840 
Q 4756 3084 4391 3084 
Q 3944 3084 3684 2787 
Q 3425 2491 3425 1978 
L 3425 0 
L 2847 0 
L 2847 2094 
Q 2847 2600 2669 2842 
Q 2491 3084 2119 3084 
Q 1678 3084 1418 2786 
Q 1159 2488 1159 1978 
L 1159 0 
L 581 0 
L 581 3500 
L 1159 3500 
L 1159 2956 
Q 1356 3278 1631 3431 
Q 1906 3584 2284 3584 
Q 2666 3584 2933 3390 
Q 3200 3197 3328 2828 
z
" transform="scale(0.015625)"/>
       <path id="DejaVuSans-69" d="M 603 3500 
L 1178 3500 
L 1178 0 
L 603 0 
L 603 3500 
z
M 603 4863 
L 1178 4863 
L 1178 4134 
L 603 4134 
L 603 4863 
z
" transform="scale(0.015625)"/>
       <path id="DejaVuSans-74" d="M 1172 4494 
L 1172 3500 
L 2356 3500 
L 2356 3053 
L 1172 3053 
L 1172 1153 
Q 1172 725 1289 603 
Q 1406 481 1766 481 
L 2356 481 
L 2356 0 
L 1766 0 
Q 1100 0 847 248 
Q 594 497 594 1153 
L 594 3053 
L 172 3053 
L 172 3500 
L 594 3500 
L 594 4494 
L 1172 4494 
z
" transform="scale(0.015625)"/>
       <path id="DejaVuSans-68" d="M 3513 2113 
L 3513 0 
L 2938 0 
L 2938 2094 
Q 2938 2591 2744 2837 
Q 2550 3084 2163 3084 
Q 1697 3084 1428 2787 
Q 1159 2491 1159 1978 
L 1159 0 
L 581 0 
L 581 4863 
L 1159 4863 
L 1159 2956 
Q 1366 3272 1645 3428 
Q 1925 3584 2291 3584 
Q 2894 3584 3203 3211 
Q 3513 2838 3513 2113 
z
" transform="scale(0.015625)"/>
      </defs>
      <use xlink:href="#DejaVuSans-41"/>
      <use xlink:href="#DejaVuSans-2e" x="66.658203"/>
      <use xlink:href="#DejaVuSans-4e" x="98.445312"/>
      <use xlink:href="#DejaVuSans-65" x="173.25"/>
      <use xlink:href="#DejaVuSans-73" x="234.773438"/>
      <use xlink:href="#DejaVuSans-6d" x="286.873047"/>
      <use xlink:href="#DejaVuSans-69" x="384.285156"/>
      <use xlink:href="#DejaVuSans-74" x="412.068359"/>
      <use xlink:href="#DejaVuSans-68" x="451.277344"/>
     </g>
    </g>
   </g>
   <g id="text_2">
    <g clip-path="url(#pa702ca70d6)">
     <!-- A.Horford -->
     <g transform="translate(242.779155 110.310072)scale(0.12 -0.12)">
      <defs>
       <path id="DejaVuSans-48" d="M 628 4666 
L 1259 4666 
L 1259 2753 
L 3553 2753 
L 3553 4666 
L 4184 4666 
L 4184 0 
L 3553 0 
L 3553 2222 
L 1259 2222 
L 1259 0 
L 628 0 
L 628 4666 
z
" transform="scale(0.015625)"/>
       <path id="DejaVuSans-6f" d="M 1959 3097 
Q 1497 3097 1228 2736 
Q 959 2375 959 1747 
Q 959 1119 1226 758 
Q 1494 397 1959 397 
Q 2419 397 2687 759 
Q 2956 1122 2956 1747 
Q 2956 2369 2687 2733 
Q 2419 3097 1959 3097 
z
M 1959 3584 
Q 2709 3584 3137 3096 
Q 3566 2609 3566 1747 
Q 3566 888 3137 398 
Q 2709 -91 1959 -91 
Q 1206 -91 779 398 
Q 353 888 353 1747 
Q 353 2609 779 3096 
Q 1206 3584 1959 3584 
z
" transform="scale(0.015625)"/>
       <path id="DejaVuSans-72" d="M 2631 2963 
Q 2534 3019 2420 3045 
Q 2306 3072 2169 3072 
Q 1681 3072 1420 2755 
Q 1159 2438 1159 1844 
L 1159 0 
L 581 0 
L 581 3500 
L 1159 3500 
L 1159 2956 
Q 1341 3275 1631 3429 
Q 1922 3584 2338 3584 
Q 2397 3584 2469 3576 
Q 2541 3569 2628 3553 
L 2631 2963 
z
" transform="scale(0.015625)"/>
       <path id="DejaVuSans-66" d="M 2375 4863 
L 2375 4384 
L 1825 4384 
Q 1516 4384 1395 4259 
Q 1275 4134 1275 3809 
L 1275 3500 
L 2222 3500 
L 2222 3053 
L 1275 3053 
L 1275 0 
L 697 0 
L 697 3053 
L 147 3053 
L 147 3500 
L 697 3500 
L 697 3744 
Q 697 4328 969 4595 
Q 1241 4863 1831 4863 
L 2375 4863 
z
" transform="scale(0.015625)"/>
       <path id="DejaVuSans-64" d="M 2906 2969 
L 2906 4863 
L 3481 4863 
L 3481 0 
L 2906 0 
L 2906 525 
Q 2725 213 2448 61 
Q 2172 -91 1784 -91 
Q 1150 -91 751 415 
Q 353 922 353 1747 
Q 353 2572 751 3078 
Q 1150 3584 1784 3584 
Q 2172 3584 2448 3432 
Q 2725 3281 2906 2969 
z
M 947 1747 
Q 947 1113 1208 752 
Q 1469 391 1925 391 
Q 2381 391 2643 752 
Q 2906 1113 2906 1747 
Q 2906 2381 2643 2742 
Q 2381 3103 1925 3103 
Q 1469 3103 1208 2742 
Q 947 2381 947 1747 
z
" transform="scale(0.015625)"/>
      </defs>
      <use xlink:href="#DejaVuSans-41"/>
      <use xlink:href="#DejaVuSans-2e" x="66.658203"/>
      <use xlink:href="#DejaVuSans-48" x="98.445312"/>
      <use xlink:href="#DejaVuSans-6f" x="173.640625"/>
      <use xlink:href="#DejaVuSans-72" x="234.822266"/>
      <use xlink:href="#DejaVuSans-66" x="275.935547"/>
      <use xlink:href="#DejaVuSans-6f" x="311.140625"/>
      <use xlink:href="#DejaVuSans-72" x="372.322266"/>
      <use xlink:href="#DejaVuSans-64" x="411.685547"/>
     </g>
    </g>
   </g>
   <g id="text_3">
    <g clip-path="url(#pa702ca70d6)">
     <!-- B.Thomas -->
     <g transform="translate(204.495741 62.739687)scale(0.12 -0.12)">
      <defs>
       <path id="DejaVuSans-42" d="M 1259 2228 
L 1259 519 
L 2272 519 
Q 2781 519 3026 730 
Q 3272 941 3272 1375 
Q 3272 1813 3026 2020 
Q 2781 2228 2272 2228 
L 1259 2228 
z
M 1259 4147 
L 1259 2741 
L 2194 2741 
Q 2656 2741 2882 2914 
Q 3109 3088 3109 3444 
Q 3109 3797 2882 3972 
Q 2656 4147 2194 4147 
L 1259 4147 
z
M 628 4666 
L 2241 4666 
Q 2963 4666 3353 4366 
Q 3744 4066 3744 3513 
Q 3744 3084 3544 2831 
Q 3344 2578 2956 2516 
Q 3422 2416 3680 2098 
Q 3938 1781 3938 1306 
Q 3938 681 3513 340 
Q 3088 0 2303 0 
L 628 0 
L 628 4666 
z
" transform="scale(0.015625)"/>
       <path id="DejaVuSans-54" d="M -19 4666 
L 3928 4666 
L 3928 4134 
L 2272 4134 
L 2272 0 
L 1638 0 
L 1638 4134 
L -19 4134 
L -19 4666 
z
" transform="scale(0.015625)"/>
       <path id="DejaVuSans-61" d="M 2194 1759 
Q 1497 1759 1228 1600 
Q 959 1441 959 1056 
Q 959 750 1161 570 
Q 1363 391 1709 391 
Q 2188 391 2477 730 
Q 2766 1069 2766 1631 
L 2766 1759 
L 2194 1759 
z
M 3341 1997 
L 3341 0 
L 2766 0 
L 2766 531 
Q 2569 213 2275 61 
Q 1981 -91 1556 -91 
Q 1019 -91 701 211 
Q 384 513 384 1019 
Q 384 1609 779 1909 
Q 1175 2209 1959 2209 
L 2766 2209 
L 2766 2266 
Q 2766 2663 2505 2880 
Q 2244 3097 1772 3097 
Q 1472 3097 1187 3025 
Q 903 2953 641 2809 
L 641 3341 
Q 956 3463 1253 3523 
Q 1550 3584 1831 3584 
Q 2591 3584 2966 3190 
Q 3341 2797 3341 1997 
z
" transform="scale(0.015625)"/>
      </defs>
      <use xlink:href="#DejaVuSans-42"/>
      <use xlink:href="#DejaVuSans-2e" x="68.603516"/>
      <use xlink:href="#DejaVuSans-54" x="100.390625"/>
      <use xlink:href="#DejaVuSans-68" x="161.474609"/>
      <use xlink:href="#DejaVuSans-6f" x="224.853516"/>
      <use xlink:href="#DejaVuSans-6d" x="286.035156"/>
      <use xlink:href="#DejaVuSans-61" x="383.447266"/>
      <use xlink:href="#DejaVuSans-73" x="444.726562"/>
     </g>
    </g>
   </g>
   <g id="text_4">
    <g clip-path="url(#pa702ca70d6)">
     <!-- D.Theis -->
     <g transform="translate(158.381218 36.340119)scale(0.12 -0.12)">
      <defs>
       <path id="DejaVuSans-44" d="M 1259 4147 
L 1259 519 
L 2022 519 
Q 2988 519 3436 956 
Q 3884 1394 3884 2338 
Q 3884 3275 3436 3711 
Q 2988 4147 2022 4147 
L 1259 4147 
z
M 628 4666 
L 1925 4666 
Q 3281 4666 3915 4102 
Q 4550 3538 4550 2338 
Q 4550 1131 3912 565 
Q 3275 0 1925 0 
L 628 0 
L 628 4666 
z
" transform="scale(0.015625)"/>
      </defs>
      <use xlink:href="#DejaVuSans-44"/>
      <use xlink:href="#DejaVuSans-2e" x="77.001953"/>
      <use xlink:href="#DejaVuSans-54" x="108.789062"/>
      <use xlink:href="#DejaVuSans-68" x="169.873047"/>
      <use xlink:href="#DejaVuSans-65" x="233.251953"/>
      <use xlink:href="#DejaVuSans-69" x="294.775391"/>
      <use xlink:href="#DejaVuSans-73" x="322.558594"/>
     </g>
    </g>
   </g>
   <g id="text_5">
    <g clip-path="url(#pa702ca70d6)">
     <!-- D.Schroder -->
     <g transform="translate(88.132536 36.340119)scale(0.12 -0.12)">
      <defs>
       <path id="DejaVuSans-53" d="M 3425 4513 
L 3425 3897 
Q 3066 4069 2747 4153 
Q 2428 4238 2131 4238 
Q 1616 4238 1336 4038 
Q 1056 3838 1056 3469 
Q 1056 3159 1242 3001 
Q 1428 2844 1947 2747 
L 2328 2669 
Q 3034 2534 3370 2195 
Q 3706 1856 3706 1288 
Q 3706 609 3251 259 
Q 2797 -91 1919 -91 
Q 1588 -91 1214 -16 
Q 841 59 441 206 
L 441 856 
Q 825 641 1194 531 
Q 1563 422 1919 422 
Q 2459 422 2753 634 
Q 3047 847 3047 1241 
Q 3047 1584 2836 1778 
Q 2625 1972 2144 2069 
L 1759 2144 
Q 1053 2284 737 2584 
Q 422 2884 422 3419 
Q 422 4038 858 4394 
Q 1294 4750 2059 4750 
Q 2388 4750 2728 4690 
Q 3069 4631 3425 4513 
z
" transform="scale(0.015625)"/>
       <path id="DejaVuSans-63" d="M 3122 3366 
L 3122 2828 
Q 2878 2963 2633 3030 
Q 2388 3097 2138 3097 
Q 1578 3097 1268 2742 
Q 959 2388 959 1747 
Q 959 1106 1268 751 
Q 1578 397 2138 397 
Q 2388 397 2633 464 
Q 2878 531 3122 666 
L 3122 134 
Q 2881 22 2623 -34 
Q 2366 -91 2075 -91 
Q 1284 -91 818 406 
Q 353 903 353 1747 
Q 353 2603 823 3093 
Q 1294 3584 2113 3584 
Q 2378 3584 2631 3529 
Q 2884 3475 3122 3366 
z
" transform="scale(0.015625)"/>
      </defs>
      <use xlink:href="#DejaVuSans-44"/>
      <use xlink:href="#DejaVuSans-2e" x="77.001953"/>
      <use xlink:href="#DejaVuSans-53" x="108.789062"/>
      <use xlink:href="#DejaVuSans-63" x="172.265625"/>
      <use xlink:href="#DejaVuSans-68" x="227.246094"/>
      <use xlink:href="#DejaVuSans-72" x="290.625"/>
      <use xlink:href="#DejaVuSans-6f" x="329.488281"/>
      <use xlink:href="#DejaVuSans-64" x="390.669922"/>
      <use xlink:href="#DejaVuSans-65" x="454.146484"/>
      <use xlink:href="#DejaVuSans-72" x="515.669922"/>
     </g>
    </g>
   </g>
   <g id="text_6">
    <g clip-path="url(#pa702ca70d6)">
     <!-- D.White -->
     <g transform="translate(44.122696 62.739687)scale(0.12 -0.12)">
      <defs>
       <path id="DejaVuSans-57" d="M 213 4666 
L 850 4666 
L 1831 722 
L 2809 4666 
L 3519 4666 
L 4500 722 
L 5478 4666 
L 6119 4666 
L 4947 0 
L 4153 0 
L 3169 4050 
L 2175 0 
L 1381 0 
L 213 4666 
z
" transform="scale(0.015625)"/>
      </defs>
      <use xlink:href="#DejaVuSans-44"/>
      <use xlink:href="#DejaVuSans-2e" x="77.001953"/>
      <use xlink:href="#DejaVuSans-57" x="108.789062"/>
      <use xlink:href="#DejaVuSans-68" x="207.666016"/>
      <use xlink:href="#DejaVuSans-69" x="271.044922"/>
      <use xlink:href="#DejaVuSans-74" x="298.828125"/>
      <use xlink:href="#DejaVuSans-65" x="338.037109"/>
     </g>
    </g>
   </g>
   <g id="text_7">
    <g clip-path="url(#pa702ca70d6)">
     <!-- G.Williams -->
     <g transform="translate(-0.55728 110.310064)scale(0.12 -0.12)">
      <defs>
       <path id="DejaVuSans-47" d="M 3809 666 
L 3809 1919 
L 2778 1919 
L 2778 2438 
L 4434 2438 
L 4434 434 
Q 4069 175 3628 42 
Q 3188 -91 2688 -91 
Q 1594 -91 976 548 
Q 359 1188 359 2328 
Q 359 3472 976 4111 
Q 1594 4750 2688 4750 
Q 3144 4750 3555 4637 
Q 3966 4525 4313 4306 
L 4313 3634 
Q 3963 3931 3569 4081 
Q 3175 4231 2741 4231 
Q 1884 4231 1454 3753 
Q 1025 3275 1025 2328 
Q 1025 1384 1454 906 
Q 1884 428 2741 428 
Q 3075 428 3337 486 
Q 3600 544 3809 666 
z
" transform="scale(0.015625)"/>
       <path id="DejaVuSans-6c" d="M 603 4863 
L 1178 4863 
L 1178 0 
L 603 0 
L 603 4863 
z
" transform="scale(0.015625)"/>
      </defs>
      <use xlink:href="#DejaVuSans-47"/>
      <use xlink:href="#DejaVuSans-2e" x="77.490234"/>
      <use xlink:href="#DejaVuSans-57" x="109.277344"/>
      <use xlink:href="#DejaVuSans-69" x="205.904297"/>
      <use xlink:href="#DejaVuSans-6c" x="233.6875"/>
      <use xlink:href="#DejaVuSans-6c" x="261.470703"/>
      <use xlink:href="#DejaVuSans-69" x="289.253906"/>
      <use xlink:href="#DejaVuSans-61" x="317.037109"/>
      <use xlink:href="#DejaVuSans-6d" x="378.316406"/>
      <use xlink:href="#DejaVuSans-73" x="475.728516"/>
     </g>
    </g>
   </g>
   <g id="text_8">
    <g clip-path="url(#pa702ca70d6)">
     <!-- J.Brown -->
     <g transform="translate(-4.594881 169.629387)scale(0.12 -0.12)">
      <defs>
       <path id="DejaVuSans-4a" d="M 628 4666 
L 1259 4666 
L 1259 325 
Q 1259 -519 939 -900 
Q 619 -1281 -91 -1281 
L -331 -1281 
L -331 -750 
L -134 -750 
Q 284 -750 456 -515 
Q 628 -281 628 325 
L 628 4666 
z
" transform="scale(0.015625)"/>
       <path id="DejaVuSans-77" d="M 269 3500 
L 844 3500 
L 1563 769 
L 2278 3500 
L 2956 3500 
L 3675 769 
L 4391 3500 
L 4966 3500 
L 4050 0 
L 3372 0 
L 2619 2869 
L 1863 0 
L 1184 0 
L 269 3500 
z
" transform="scale(0.015625)"/>
       <path id="DejaVuSans-6e" d="M 3513 2113 
L 3513 0 
L 2938 0 
L 2938 2094 
Q 2938 2591 2744 2837 
Q 2550 3084 2163 3084 
Q 1697 3084 1428 2787 
Q 1159 2491 1159 1978 
L 1159 0 
L 581 0 
L 581 3500 
L 1159 3500 
L 1159 2956 
Q 1366 3272 1645 3428 
Q 1925 3584 2291 3584 
Q 2894 3584 3203 3211 
Q 3513 2838 3513 2113 
z
" transform="scale(0.015625)"/>
      </defs>
      <use xlink:href="#DejaVuSans-4a"/>
      <use xlink:href="#DejaVuSans-2e" x="29.492188"/>
      <use xlink:href="#DejaVuSans-42" x="61.279297"/>
      <use xlink:href="#DejaVuSans-72" x="129.882812"/>
      <use xlink:href="#DejaVuSans-6f" x="168.746094"/>
      <use xlink:href="#DejaVuSans-77" x="229.927734"/>
      <use xlink:href="#DejaVuSans-6e" x="311.714844"/>
     </g>
    </g>
   </g>
   <g id="text_9">
    <g clip-path="url(#pa702ca70d6)">
     <!-- J.Tatum -->
     <g transform="translate(9.083032 228.948677)scale(0.12 -0.12)">
      <defs>
       <path id="DejaVuSans-75" d="M 544 1381 
L 544 3500 
L 1119 3500 
L 1119 1403 
Q 1119 906 1312 657 
Q 1506 409 1894 409 
Q 2359 409 2629 706 
Q 2900 1003 2900 1516 
L 2900 3500 
L 3475 3500 
L 3475 0 
L 2900 0 
L 2900 538 
Q 2691 219 2414 64 
Q 2138 -91 1772 -91 
Q 1169 -91 856 284 
Q 544 659 544 1381 
z
M 1991 3584 
L 1991 3584 
z
" transform="scale(0.015625)"/>
      </defs>
      <use xlink:href="#DejaVuSans-4a"/>
      <use xlink:href="#DejaVuSans-2e" x="29.492188"/>
      <use xlink:href="#DejaVuSans-54" x="61.279297"/>
      <use xlink:href="#DejaVuSans-61" x="105.863281"/>
      <use xlink:href="#DejaVuSans-74" x="167.142578"/>
      <use xlink:href="#DejaVuSans-75" x="206.351562"/>
      <use xlink:href="#DejaVuSans-6d" x="269.730469"/>
     </g>
    </g>
   </g>
   <g id="text_10">
    <g clip-path="url(#pa702ca70d6)">
     <!-- J.Richardson -->
     <g transform="translate(31.034282 276.519079)scale(0.12 -0.12)">
      <defs>
       <path id="DejaVuSans-52" d="M 2841 2188 
Q 3044 2119 3236 1894 
Q 3428 1669 3622 1275 
L 4263 0 
L 3584 0 
L 2988 1197 
Q 2756 1666 2539 1819 
Q 2322 1972 1947 1972 
L 1259 1972 
L 1259 0 
L 628 0 
L 628 4666 
L 2053 4666 
Q 2853 4666 3247 4331 
Q 3641 3997 3641 3322 
Q 3641 2881 3436 2590 
Q 3231 2300 2841 2188 
z
M 1259 4147 
L 1259 2491 
L 2053 2491 
Q 2509 2491 2742 2702 
Q 2975 2913 2975 3322 
Q 2975 3731 2742 3939 
Q 2509 4147 2053 4147 
L 1259 4147 
z
" transform="scale(0.015625)"/>
      </defs>
      <use xlink:href="#DejaVuSans-4a"/>
      <use xlink:href="#DejaVuSans-2e" x="29.492188"/>
      <use xlink:href="#DejaVuSans-52" x="61.279297"/>
      <use xlink:href="#DejaVuSans-69" x="130.761719"/>
      <use xlink:href="#DejaVuSans-63" x="158.544922"/>
      <use xlink:href="#DejaVuSans-68" x="213.525391"/>
      <use xlink:href="#DejaVuSans-61" x="276.904297"/>
      <use xlink:href="#DejaVuSans-72" x="338.183594"/>
      <use xlink:href="#DejaVuSans-64" x="377.546875"/>
      <use xlink:href="#DejaVuSans-73" x="441.023438"/>
      <use xlink:href="#DejaVuSans-6f" x="493.123047"/>
      <use xlink:href="#DejaVuSans-6e" x="554.304688"/>
     </g>
    </g>
   </g>
   <g id="text_11">
    <g clip-path="url(#pa702ca70d6)">
     <!-- M.Smart -->
     <g transform="translate(96.307528 302.918631)scale(0.12 -0.12)">
      <defs>
       <path id="DejaVuSans-4d" d="M 628 4666 
L 1569 4666 
L 2759 1491 
L 3956 4666 
L 4897 4666 
L 4897 0 
L 4281 0 
L 4281 4097 
L 3078 897 
L 2444 897 
L 1241 4097 
L 1241 0 
L 628 0 
L 628 4666 
z
" transform="scale(0.015625)"/>
      </defs>
      <use xlink:href="#DejaVuSans-4d"/>
      <use xlink:href="#DejaVuSans-2e" x="86.279297"/>
      <use xlink:href="#DejaVuSans-53" x="118.066406"/>
      <use xlink:href="#DejaVuSans-6d" x="181.542969"/>
      <use xlink:href="#DejaVuSans-61" x="278.955078"/>
      <use xlink:href="#DejaVuSans-72" x="340.234375"/>
      <use xlink:href="#DejaVuSans-74" x="381.347656"/>
     </g>
    </g>
   </g>
   <g id="text_12">
    <g clip-path="url(#pa702ca70d6)">
     <!-- P.Pritchard -->
     <g transform="translate(149.324976 302.918631)scale(0.12 -0.12)">
      <defs>
       <path id="DejaVuSans-50" d="M 1259 4147 
L 1259 2394 
L 2053 2394 
Q 2494 2394 2734 2622 
Q 2975 2850 2975 3272 
Q 2975 3691 2734 3919 
Q 2494 4147 2053 4147 
L 1259 4147 
z
M 628 4666 
L 2053 4666 
Q 2838 4666 3239 4311 
Q 3641 3956 3641 3272 
Q 3641 2581 3239 2228 
Q 2838 1875 2053 1875 
L 1259 1875 
L 1259 0 
L 628 0 
L 628 4666 
z
" transform="scale(0.015625)"/>
      </defs>
      <use xlink:href="#DejaVuSans-50"/>
      <use xlink:href="#DejaVuSans-2e" x="44.677734"/>
      <use xlink:href="#DejaVuSans-50" x="76.464844"/>
      <use xlink:href="#DejaVuSans-72" x="135.017578"/>
      <use xlink:href="#DejaVuSans-69" x="176.130859"/>
      <use xlink:href="#DejaVuSans-74" x="203.914062"/>
      <use xlink:href="#DejaVuSans-63" x="243.123047"/>
      <use xlink:href="#DejaVuSans-68" x="298.103516"/>
      <use xlink:href="#DejaVuSans-61" x="361.482422"/>
      <use xlink:href="#DejaVuSans-72" x="422.761719"/>
      <use xlink:href="#DejaVuSans-64" x="462.125"/>
     </g>
    </g>
   </g>
   <g id="text_13">
    <g clip-path="url(#pa702ca70d6)">
     <!-- R.Williams III -->
     <g transform="translate(196.11728 276.519079)scale(0.12 -0.12)">
      <defs>
       <path id="DejaVuSans-20" transform="scale(0.015625)"/>
       <path id="DejaVuSans-49" d="M 628 4666 
L 1259 4666 
L 1259 0 
L 628 0 
L 628 4666 
z
" transform="scale(0.015625)"/>
      </defs>
      <use xlink:href="#DejaVuSans-52"/>
      <use xlink:href="#DejaVuSans-2e" x="65.857422"/>
      <use xlink:href="#DejaVuSans-57" x="97.644531"/>
      <use xlink:href="#DejaVuSans-69" x="194.271484"/>
      <use xlink:href="#DejaVuSans-6c" x="222.054688"/>
      <use xlink:href="#DejaVuSans-6c" x="249.837891"/>
      <use xlink:href="#DejaVuSans-69" x="277.621094"/>
      <use xlink:href="#DejaVuSans-61" x="305.404297"/>
      <use xlink:href="#DejaVuSans-6d" x="366.683594"/>
      <use xlink:href="#DejaVuSans-73" x="464.095703"/>
      <use xlink:href="#DejaVuSans-20" x="516.195312"/>
      <use xlink:href="#DejaVuSans-49" x="547.982422"/>
      <use xlink:href="#DejaVuSans-49" x="577.474609"/>
      <use xlink:href="#DejaVuSans-49" x="606.966797"/>
     </g>
    </g>
   </g>
   <g id="text_14">
    <g clip-path="url(#pa702ca70d6)">
     <!-- R.Langford -->
     <g transform="translate(238.845405 228.948677)scale(0.12 -0.12)">
      <defs>
       <path id="DejaVuSans-4c" d="M 628 4666 
L 1259 4666 
L 1259 531 
L 3531 531 
L 3531 0 
L 628 0 
L 628 4666 
z
" transform="scale(0.015625)"/>
       <path id="DejaVuSans-67" d="M 2906 1791 
Q 2906 2416 2648 2759 
Q 2391 3103 1925 3103 
Q 1463 3103 1205 2759 
Q 947 2416 947 1791 
Q 947 1169 1205 825 
Q 1463 481 1925 481 
Q 2391 481 2648 825 
Q 2906 1169 2906 1791 
z
M 3481 434 
Q 3481 -459 3084 -895 
Q 2688 -1331 1869 -1331 
Q 1566 -1331 1297 -1286 
Q 1028 -1241 775 -1147 
L 775 -588 
Q 1028 -725 1275 -790 
Q 1522 -856 1778 -856 
Q 2344 -856 2625 -561 
Q 2906 -266 2906 331 
L 2906 616 
Q 2728 306 2450 153 
Q 2172 0 1784 0 
Q 1141 0 747 490 
Q 353 981 353 1791 
Q 353 2603 747 3093 
Q 1141 3584 1784 3584 
Q 2172 3584 2450 3431 
Q 2728 3278 2906 2969 
L 2906 3500 
L 3481 3500 
L 3481 434 
z
" transform="scale(0.015625)"/>
      </defs>
      <use xlink:href="#DejaVuSans-52"/>
      <use xlink:href="#DejaVuSans-2e" x="65.857422"/>
      <use xlink:href="#DejaVuSans-4c" x="97.644531"/>
      <use xlink:href="#DejaVuSans-61" x="153.357422"/>
      <use xlink:href="#DejaVuSans-6e" x="214.636719"/>
      <use xlink:href="#DejaVuSans-67" x="278.015625"/>
      <use xlink:href="#DejaVuSans-66" x="341.492188"/>
      <use xlink:href="#DejaVuSans-6f" x="376.697266"/>
      <use xlink:href="#DejaVuSans-72" x="437.878906"/>
      <use xlink:href="#DejaVuSans-64" x="477.242188"/>
     </g>
    </g>
   </g>
   <g id="text_15">
    <!-- 2021-22 Boston Celtics Assist Network -->
    <g transform="translate(35.219062 16.318125)scale(0.12 -0.12)">
     <defs>
      <path id="DejaVuSans-32" d="M 1228 531 
L 3431 531 
L 3431 0 
L 469 0 
L 469 531 
Q 828 903 1448 1529 
Q 2069 2156 2228 2338 
Q 2531 2678 2651 2914 
Q 2772 3150 2772 3378 
Q 2772 3750 2511 3984 
Q 2250 4219 1831 4219 
Q 1534 4219 1204 4116 
Q 875 4013 500 3803 
L 500 4441 
Q 881 4594 1212 4672 
Q 1544 4750 1819 4750 
Q 2544 4750 2975 4387 
Q 3406 4025 3406 3419 
Q 3406 3131 3298 2873 
Q 3191 2616 2906 2266 
Q 2828 2175 2409 1742 
Q 1991 1309 1228 531 
z
" transform="scale(0.015625)"/>
      <path id="DejaVuSans-30" d="M 2034 4250 
Q 1547 4250 1301 3770 
Q 1056 3291 1056 2328 
Q 1056 1369 1301 889 
Q 1547 409 2034 409 
Q 2525 409 2770 889 
Q 3016 1369 3016 2328 
Q 3016 3291 2770 3770 
Q 2525 4250 2034 4250 
z
M 2034 4750 
Q 2819 4750 3233 4129 
Q 3647 3509 3647 2328 
Q 3647 1150 3233 529 
Q 2819 -91 2034 -91 
Q 1250 -91 836 529 
Q 422 1150 422 2328 
Q 422 3509 836 4129 
Q 1250 4750 2034 4750 
z
" transform="scale(0.015625)"/>
      <path id="DejaVuSans-31" d="M 794 531 
L 1825 531 
L 1825 4091 
L 703 3866 
L 703 4441 
L 1819 4666 
L 2450 4666 
L 2450 531 
L 3481 531 
L 3481 0 
L 794 0 
L 794 531 
z
" transform="scale(0.015625)"/>
      <path id="DejaVuSans-2d" d="M 313 2009 
L 1997 2009 
L 1997 1497 
L 313 1497 
L 313 2009 
z
" transform="scale(0.015625)"/>
      <path id="DejaVuSans-43" d="M 4122 4306 
L 4122 3641 
Q 3803 3938 3442 4084 
Q 3081 4231 2675 4231 
Q 1875 4231 1450 3742 
Q 1025 3253 1025 2328 
Q 1025 1406 1450 917 
Q 1875 428 2675 428 
Q 3081 428 3442 575 
Q 3803 722 4122 1019 
L 4122 359 
Q 3791 134 3420 21 
Q 3050 -91 2638 -91 
Q 1578 -91 968 557 
Q 359 1206 359 2328 
Q 359 3453 968 4101 
Q 1578 4750 2638 4750 
Q 3056 4750 3426 4639 
Q 3797 4528 4122 4306 
z
" transform="scale(0.015625)"/>
      <path id="DejaVuSans-6b" d="M 581 4863 
L 1159 4863 
L 1159 1991 
L 2875 3500 
L 3609 3500 
L 1753 1863 
L 3688 0 
L 2938 0 
L 1159 1709 
L 1159 0 
L 581 0 
L 581 4863 
z
" transform="scale(0.015625)"/>
     </defs>
     <use xlink:href="#DejaVuSans-32"/>
     <use xlink:href="#DejaVuSans-30" x="63.623047"/>
     <use xlink:href="#DejaVuSans-32" x="127.246094"/>
     <use xlink:href="#DejaVuSans-31" x="190.869141"/>
     <use xlink:href="#DejaVuSans-2d" x="254.492188"/>
     <use xlink:href="#DejaVuSans-32" x="290.576172"/>
     <use xlink:href="#DejaVuSans-32" x="354.199219"/>
     <use xlink:href="#DejaVuSans-20" x="417.822266"/>
     <use xlink:href="#DejaVuSans-42" x="449.609375"/>
     <use xlink:href="#DejaVuSans-6f" x="518.212891"/>
     <use xlink:href="#DejaVuSans-73" x="579.394531"/>
     <use xlink:href="#DejaVuSans-74" x="631.494141"/>
     <use xlink:href="#DejaVuSans-6f" x="670.703125"/>
     <use xlink:href="#DejaVuSans-6e" x="731.884766"/>
     <use xlink:href="#DejaVuSans-20" x="795.263672"/>
     <use xlink:href="#DejaVuSans-43" x="827.050781"/>
     <use xlink:href="#DejaVuSans-65" x="896.875"/>
     <use xlink:href="#DejaVuSans-6c" x="958.398438"/>
     <use xlink:href="#DejaVuSans-74" x="986.181641"/>
     <use xlink:href="#DejaVuSans-69" x="1025.390625"/>
     <use xlink:href="#DejaVuSans-63" x="1053.173828"/>
     <use xlink:href="#DejaVuSans-73" x="1108.154297"/>
     <use xlink:href="#DejaVuSans-20" x="1160.253906"/>
     <use xlink:href="#DejaVuSans-41" x="1192.041016"/>
     <use xlink:href="#DejaVuSans-73" x="1260.449219"/>
     <use xlink:href="#DejaVuSans-73" x="1312.548828"/>
     <use xlink:href="#DejaVuSans-69" x="1364.648438"/>
     <use xlink:href="#DejaVuSans-73" x="1392.431641"/>
     <use xlink:href="#DejaVuSans-74" x="1444.53125"/>
     <use xlink:href="#DejaVuSans-20" x="1483.740234"/>
     <use xlink:href="#DejaVuSans-4e" x="1515.527344"/>
     <use xlink:href="#DejaVuSans-65" x="1590.332031"/>
     <use xlink:href="#DejaVuSans-74" x="1651.855469"/>
     <use xlink:href="#DejaVuSans-77" x="1691.064453"/>
     <use xlink:href="#DejaVuSans-6f" x="1772.851562"/>
     <use xlink:href="#DejaVuSans-72" x="1834.033203"/>
     <use xlink:href="#DejaVuSans-6b" x="1875.146484"/>
    </g>
   </g>
  </g>
 </g>
 <defs>
  <clipPath id="pa702ca70d6">
   <rect x="7.2" y="22.318125" width="288" height="288"/>
  </clipPath>
 </defs>
</svg>
